<svg xmlns="http://www.w3.org/2000/svg" xmlns:xlink="http://www.w3.org/1999/xlink" viewBox="0 0 275.8 274.55"><defs><linearGradient id="linear-gradient" x1="87.88" y1="195.47" x2="132.68" y2="195.47" gradientUnits="userSpaceOnUse"><stop offset="0.02" stop-color="#ff1ff4"/><stop offset="0.12" stop-color="#fa22f4"/><stop offset="0.24" stop-color="#ea2bf4"/><stop offset="0.37" stop-color="#d039f3"/><stop offset="0.52" stop-color="#ac4ef2"/><stop offset="0.67" stop-color="#7d68f1"/><stop offset="0.83" stop-color="#4588f0"/><stop offset="0.99" stop-color="#03acef"/><stop offset="1" stop-color="#00aeef"/></linearGradient><linearGradient id="linear-gradient-2" x1="151.06" y1="195.98" x2="195.87" y2="195.98" xlink:href="#linear-gradient"/></defs><title>Asset 2</title><g style="isolation:isolate"><g id="Layer_2" data-name="Layer 2"><g id="Layer_1-2" data-name="Layer 1"><path d="M169.25,252.34l.09-2.42c.24-6.43-9.06-8.89-12.11-3.28-2.14,3.93-4.17,7.08-7.1,8.86a75,75,0,0,1-17.77-1.29A34.28,34.28,0,0,1,122.6,247a5.85,5.85,0,0,0-8-.71c-2.1-2.56-4-5.41-5.7-8-3.74-5.58-11.49-3.13-12.11,3.28a44.81,44.81,0,0,0-.23,5.32,4.81,4.81,0,0,0-2.29,2.39L89.76,259.6c-1.35,3.11-1,7.12,2.34,8.89,2.8,1.48,7.44,1,8.89-2.33l2.09-4.82c4.52,3.17,10.73,3.72,16,4.63q6.12,1.06,12.29,1.8a43.83,43.83,0,0,0,11.51,2.32,23.6,23.6,0,0,0,10.7-1.69,28.21,28.21,0,0,0,3.37-.86,51.44,51.44,0,0,0,12.89-4C175.19,261.07,173.31,254.73,169.25,252.34Z" style="fill:#d3ab90"/><path d="M18.62,247.77v-2.89c.61-.5.92-1.37,1.79-1.54,2.46-.5,3.28-2.29,3.65-4.5a14.69,14.69,0,0,1,1.51-4.3,19.34,19.34,0,0,0,2.64-8.17,7.55,7.55,0,0,1,2.8-5.12c4.07-3.86,8.59-7.26,11.89-11.89a25,25,0,0,0,3.25-5.87,31.25,31.25,0,0,1,4-8.17,6.82,6.82,0,0,0,1.16-5.47,72.8,72.8,0,0,1-.73-9.1,7.56,7.56,0,0,1,3.82-7,93.08,93.08,0,0,1,15.19-7.22c2-.82,4.12-.13,6.16.23.69.12,1.51.53,1.94-.34.32-.66-.16-1.26-.62-1.71-6.2-6-8-13.93-8.44-22-.65-11.11-.77-22.28,1-33.33.95-6,3.82-11.39,7-16.51,8.19-13,18.26-24.23,31.64-32.06a60.57,60.57,0,0,1,28.44-8C144.28,52.53,151.59,54,159,55c3.5.45,7,.9,10.47,1.55,9.95,1.87,18.13,7,25.63,13.55C207.52,81,213.82,95,217,110.85c.77,3.86,1.28,7.75,1.92,11.63-.65,1.29-.22,2.69-.29,4-.38,7.64-2.37,15-3.4,22.57-.64,4.71-.71,9.43-.95,14.16-.08,1.48.83,2.32,2,3a49.16,49.16,0,0,0,8.1,4.23c4.81,1.75,6.09,5.55,6.41,10,.14,2,.43,4,.4,6a12.28,12.28,0,0,0,3,8.13,47.54,47.54,0,0,1,5.07,7.89c1.93,3.82,5.64,5.85,8.7,8.53s6.29,5.48,8.18,9.34a9.18,9.18,0,0,0,2,2.41,14.75,14.75,0,0,1,3.34,4.38c1.41,3.09,2.84,6,6.11,7.66,1.58.81,1.82,2.77,2,4.45a8.19,8.19,0,0,0,2,5c.86.9.88,2.34,1.4,3.49v7.71c-1.12.48-1.36-.4-1.71-1.11-.68-1.36-1-2.86-1.73-4.21-1.69-3.28-4.37-3.8-6.9-1.16a97.89,97.89,0,0,0-14.76,19.42,39.93,39.93,0,0,1-3.52,5.11,2.55,2.55,0,0,1-1.86.9c-3.33,0-6.67.43-10-.32-1.36-1.34-1.15-2.78-.24-4.25a12.28,12.28,0,0,1,2.52-3.08,3.78,3.78,0,0,0,1.28-3c-.58-1.34-2-1.08-3-1.63-.55-.3-1.31-.37-1.25-1.22a1.3,1.3,0,0,1,1.53-1.21c6.75.58,10.22-4.91,14.92-8.06a5,5,0,0,0,1.9-5.78c-.43-1.55-.27-2.84,1.36-3.63a2.34,2.34,0,0,0,1.3-1.65,12,12,0,0,1,2.45-5.15,3.33,3.33,0,0,0,.25-3.21c-1.59-5.46-5.34-9.38-9.39-13.08-.75-.68-1.78-1.14-1.85-2.36,0-.65.22-1.33-.27-1.91-1.48-2.72-4.09-4.07-6.68-5.33a60,60,0,0,1-7.25-4.21c-.7-.48-1.6-.84-1.69-1.89a5.61,5.61,0,0,1,.14-1.42c.53-1.2,1.71-.54,2.86-1a33.9,33.9,0,0,0-7.78-10.19c-1.26-1.1-2.63-2.1-3.93-3.15-2.16-1.73-3.63-1.76-5.87,0a1.55,1.55,0,0,1-1.1.37,1.78,1.78,0,0,1-1.85-1c-.42-1,.16-2.62-1.59-2.84s-2.6.73-3.52,2a24.88,24.88,0,0,0-4.89,13.58c0,1.19-.85,2.19-.94,3.39-.58,2.57-1.91,4.86-2.79,7.31-.59,1.86-2.16,2.95-3.38,4.3a31,31,0,0,0-5.59,9.46c-.42,1.05-.48,2.69-2.32,2.6-1.41-1.07-.56-2.61-.8-3.92a8.42,8.42,0,0,1,.29-2.91s-.11-.06-.16-.05a.68.68,0,0,0-.23.11,1.28,1.28,0,0,1-1,.14c-.56-.19-.77-.69-1-1.16-.55-1.45.4-2.51.95-3.68a6.28,6.28,0,0,0,.47-1.1c.4-1.1.29-1.61-1.14-1.4-6.75,1-13.58.74-20.38.95a8.46,8.46,0,0,1-5.05-1.23c-1.51-1-3.5-.21-4.87-1.49a5.53,5.53,0,0,0-1.46-3.44,21.86,21.86,0,0,1-5-9.21c-.87-3-2-4.1-4.47-4.24s-4,1-5.24,3.72c-1.32,3-2.56,6.05-4.82,8.53A4,4,0,0,0,130.7,209c0,2.5-1.23,2.9-3.29,2.45a3.18,3.18,0,0,0-1.65.26c-6.63,2.34-13.4,1.92-20.18,1A39.54,39.54,0,0,1,98,211.37c-1.31-.45-1.61.13-1.26,1.31a12.86,12.86,0,0,0,1.48,2.46c3,9.49,6.46,18.79,11.77,27.28,2.64,4.21,4.9,8.64,7.63,12.8,4.1,6.24,9.49,10.62,17,11.82a33.25,33.25,0,0,0,10.3,0,14.55,14.55,0,0,0,9.65-5.8c4.33-5.86,7.9-12.26,12.64-17.84,1.4-1.65,2.89-3.22,4.32-4.84a33.86,33.86,0,0,0,5.54-9c.39-.86.6-1.9,1.84-2,1.27-.26,7.28-10,7.67-9.09.17.83-1.74,13.4-1.79,14.19a13.69,13.69,0,0,0,0,7.16c.63,1.77,2,6.33.52,7.25,1.85,5,8.48,20.86,11,24.84,2.09,3.25-11.56.63-13.25.79-1,.05-5.44-5.32-6.12-5.84-2.27-1.72-3-1.56-4.32,1a1.49,1.49,0,0,1-.48.52,5.5,5.5,0,0,1-2.93-.08c-1.51-.19-2,1-2.72,1.95-1,1.34-1.65,3.05-3.27,3.91a2.43,2.43,0,0,1-1.87-.38c-1.64-2.3,0-4.1,1-5.95.4-.74,1.16-1.29,1.56-2.07.38-1.08-6.36,2.75-7.12,3.54-1,.73-2,1.36-.33,2.56,1.1.76,1,1.7-.33,2.29a13.13,13.13,0,0,1-3.12.23H120.38a17.21,17.21,0,0,1-2.87-.16c-1.26-.14-1.37-1.22-1.58-2.11a5.41,5.41,0,0,0-2.45-3.41,63.47,63.47,0,0,0-7.09-4.46c-.49-.23-1.07-.65-1.57-.25-.66.53-.15,1.18.08,1.74a10.41,10.41,0,0,1,1,2.95c.2,1.85-.56,2.7-2.44,2.69a11,11,0,0,1-3.51-.7c-2.35-.81-4,0-5.33,1.95-.48.73-.78,1.61-1.86,1.64a135.21,135.21,0,0,1-16-.14c-1.73-1.19-1.22-2.39.06-3.51a32.9,32.9,0,0,1,7-4.62c3.46-1.72,5.51-4.57,7-8,2.41-5.64,4.38-11.48,4.73-17.59.27-4.77.34-9.58.38-14.38a9,9,0,0,0-1.4-4.3c-2.67-5-5.92-9.72-8.46-14.83a15,15,0,0,1-1.68-6.45c-.14-5.88-2.67-10.81-6.49-15.13-1.22-1.39-2.28-.55-3.21.5s-1.18,2.85-2.67,3.62a3.6,3.6,0,0,1-1.31,0,2.39,2.39,0,0,0-1.11.39l-1.25.43c-.08,0-.19.05-.24,0-3.78-2.59-6.35-.61-8.81,2.21a48.77,48.77,0,0,0-9.08,14.75A26.88,26.88,0,0,1,41.88,219c-2.26,1.81-4.16,4-6.41,5.81a5.76,5.76,0,0,0-2.14,4.66,10.88,10.88,0,0,1-1.54,5.47c-1.92,3.39-2.41,6.87-.55,10.54,2.32,4.57,4.54,9.19,7,13.68.41.75,1.16,1.39.83,2.4a1.42,1.42,0,0,1-1.7,1.18c-1.32,0-1.88-1.06-2.55-1.95a64.41,64.41,0,0,1-6.42-10.39c-1.61-3.27-2.12-3.37-5.64-2.51C21.43,248.17,20,249.51,18.62,247.77Z" style="fill:#010101"/><path d="M269.2,273.24H243.11c2.62-2.57,4-6,5.92-9a107.8,107.8,0,0,1,13.55-16.85c2.17-2.3,4.35-2.15,6.63.15s2.47,5.34,3.81,8v13A9,9,0,0,1,269.2,273.24Z" style="fill:#f7941d"/><path d="M18.62,247.77a55.44,55.44,0,0,0,5.7-1.79c1.91-.81,3-.24,3.88,1.46A80.7,80.7,0,0,0,35.71,260c.49.63,1,1.22,1.52,1.83,2.42,1.39,4,3.67,5.64,5.76,1.07,1.34,1.56,3-.13,4.43-2,.75-4,.62-6,.68-6,.18-12.05.79-18.08.16v-15.9c2.06.29,1.21,2.46,2.14,3.3a39.23,39.23,0,0,1-2.14-6.68Z" style="fill:#f7941d"/><path d="M18.62,272.83c8.05-.08,16.1-.17,24.06-1.54a.53.53,0,0,1,0,.65,1.25,1.25,0,0,1-1,.43,2.65,2.65,0,0,0,2.64-1.61c.39-.75.85-1.36,1.85-1.15,1.69,1.11,1.85,2.3.21,3.59l-27.81.11Z" style="fill:#262626"/><path d="M269.2,273.24c.28-2.39,2.25-3.4,3.82-4.75v4.82Z" style="fill:#111"/><path d="M18.62,253.55c1.59,2.6,2,5.61,3.09,8.42-1.78-1.24-1.69-3.6-3.09-5Z" style="fill:#2a2a2a"/><path d="M155.91,183.19l-2.87.56c-1.39.21-2.58,1.65-4.17.7a60.56,60.56,0,0,1,.8-16.19c-.19.29.3-.08,0-.19s0-.52,0-.22a3.58,3.58,0,0,1-.2,1.91,56.51,56.51,0,0,0-.74,5.64c0,2.17,0,4.34,0,6.51,0,3.21,0,3.21-3,3.65-7.74.64-15-2.11-22.41-3.42-2.75-.48-5.51-.91-8.27-1.36a47.43,47.43,0,0,0-11.16-.72,76.88,76.88,0,0,0-13.75-1.91c-.65,0-1.37,0-1.36-.9,0-4.93-1.24-10,.89-14.74a60.2,60.2,0,0,0,2.81-7.67,34.05,34.05,0,0,0,1.29-14.5,13,13,0,0,1,2.75-10.54c4.49-5.69,9.25-10.93,15.36-15a37,37,0,0,1,15.87-5.6,77.86,77.86,0,0,1,29.34,1.61,50.17,50.17,0,0,1,20.61,10c1.59,1.31,2.43,3.16,3.57,4.8a123.86,123.86,0,0,1,8.27,13,11.7,11.7,0,0,1,1.27,3.36c1.2,6.38,2.29,12.79,5.37,18.63a8.58,8.58,0,0,1,.52,3.68c.1,2.15-.28,4.31.22,6.44.53,8,.16,8.27-7.63,8.74s-15.48,1.26-23.17,2.37a3,3,0,0,1-3.44.94C160.28,182.16,158.15,183.06,155.91,183.19Z" style="fill:#fcc8a0"/><path d="M46.43,273.2a4,4,0,0,0-.81-3.31c-1-2.21.56-1.61,1.66-1.53a24.83,24.83,0,0,0,7.88,1.33,12.79,12.79,0,0,1-2.62-.13,54,54,0,0,1-7.89-1.79c-3.33-.85-4.94-3.61-6.28-6.51a137.45,137.45,0,0,1-8.57-16.07,9.93,9.93,0,0,1,.34-9.67,13.29,13.29,0,0,0,2.1-7.52,4.25,4.25,0,0,1,1.69-3.33c2.17-2,4.27-4.13,6.53-6a30.48,30.48,0,0,0,9.15-12.74A42.65,42.65,0,0,1,60,190.17c3.42-3.31,4.42-3.39,8.24-.69a6.59,6.59,0,0,1,3.29,2.62c1.15,1.94,2.84,3.49,4,5.46a37.48,37.48,0,0,1,4.35,7.8c2.24,4.19,1.08,8.15-1.14,11.83-1.7,2.82-5.29,2.7-7.3.11-1.16-1.49-1.75-3.29-2.8-4.82a18.94,18.94,0,0,1-2.76-3.91A19.66,19.66,0,0,0,61.72,204c3,1.73,4.41,5.61,7,8.57a39.7,39.7,0,0,0,3.63,6.08c3.61,5.19,2.41,10.11-.84,14.91-1.72,1.08-3.73,1.68-4.95,3.57-.74,1.14-1.9.85-2.42-.38-.83-2-1.8-4-1-6.21.42-1.29-.44-2.37-.56-3.57a7.12,7.12,0,0,0-3.81-5.26,8.14,8.14,0,0,1-2.14-1.51,3.58,3.58,0,0,0-.87-.5,3.41,3.41,0,0,1,1,.59A11.47,11.47,0,0,0,59.1,222c2.74,1.53,3.3,4.14,3.77,6.86a15,15,0,0,1-.74,5.07,8.52,8.52,0,0,0,0,5.95,1.46,1.46,0,0,1-.4.65c-2.56,1.2-3.73,1-5.42-.93a5.1,5.1,0,0,0-1.62-1.34,18.2,18.2,0,0,1-3.84-3.4c-1.92-2.34-2.93-2.22-6.57.23a9,9,0,0,1-2.86,1.08,8,8,0,0,0,3.36-1.45,17.56,17.56,0,0,0,2-1.36,1.46,1.46,0,0,1,1.94-.1c1.17,1.48,3.15,2.39,3.39,4.56-.61,1.59-2,2.45-3.28,3.35s-2.51,2-4,2.59c1.48-.62,2.58-1.81,4-2.56a11.63,11.63,0,0,0,3-2.62c1.77-1.29,3.29-.62,4.35.88A4,4,0,0,0,61,241a3.15,3.15,0,0,1,3.37.52,17,17,0,0,1,4.45,7.93c-.71,1.32.53,2.32.57,3.51.24,1.38-.64,2.64-.48,3.74,1-2.47.2-5.16-.22-7.87-.94-2.27-1.65-4.67-3.53-6.42a1,1,0,0,1-.23-1.09,1.11,1.11,0,0,1,1.1-.77c2.35.35,3.92-.9,5.67-2.25,3-2.34,3.65-3.93,2.55-7.78-.62-2.16.35-4.27.78-6.34a12.27,12.27,0,0,1,2.82-5.76c1.71-1.9,2.26-4.27,2.89-6.66.79-3-.47-5.54-1.7-8.1a38.49,38.49,0,0,0-4-6.76c-1.23-2.07-3-3.74-4.21-5.87a2.13,2.13,0,0,1,.84-2c.83-1.82,1.48-3.75,3-5.14,2.09-1.85,3.77-1.39,4.55,1.2a3.92,3.92,0,0,0,.85,1.69c3.9,3.76,5.18,8.56,5.44,13.73a15.55,15.55,0,0,0,2.16,7.29c2.42,4.08,4.69,8.24,7.23,12.24a13.36,13.36,0,0,1,2.12,9.15c-.8,6.41.62,13-1.69,19.3-1,2.64-1.63,5.38-2.56,8-1.73,4.93-4.54,8.89-9.44,11.33-2.57,1.27-5.45,2.48-6.83,5.4Z" style="fill:#fcc8a0"/><path d="M232.63,273.25H197.76a8.22,8.22,0,0,1-2.55-3.71c-1.22-3.46-3.19-6.55-4.79-9.83a98.38,98.38,0,0,1-5.56-15.77c.17-5.32,0-10.65.78-15.94a1.92,1.92,0,0,1,.68-1.39,26.51,26.51,0,0,1,6.57-12.5c1.2-1.27,2.33-2.61,3.5-3.92.5-.45.58-1.59,1.4-1.4s.76,1.28.78,2.06c.08,3.1-.85,6.19,0,9.29.12,1.23-.82,2-1.43,2.89,2,.42,2.48,2.38,3.79,3.48,1.74,1.44-.34,3.05,0,4.61-.49,1.25-1.3,2.38-1.38,3.78-.72,4.12.61,6,4.83,6.93a4.78,4.78,0,0,1,4,5.35c.49-3.36,1.95-4.88,5.12-5.14a2.48,2.48,0,0,0,1.65-.82,6.19,6.19,0,0,1,2.14-1.5,1.78,1.78,0,0,1,2,.12,1.63,1.63,0,0,1,.21,2.18,8.37,8.37,0,0,0-.65,1.54c-.39,1.32-1.55,2.18-2,3.45a5.22,5.22,0,0,0,.24-.54c1.81-2.74,3.88-5.29,5.18-8.37a4.68,4.68,0,0,1,3.63-3c.94-.14,1.47-.54,1.41-1.55-.05-.84.59-1.26,1.09-1.78a3,3,0,0,1,4.39.1c1.19,2.85,3.87,4.11,6.21,5.71,1.15.79,2.38,1.49,3.53,2.3a1.53,1.53,0,0,1,.09,1.29c0,.63.39.94.87,1.2a1.65,1.65,0,0,1-.68-.63c-.32-.57.21-1.16,0-1.74-2.76-2-5.95-3.39-8.37-5.86-.55-.56-1.28-1-1.34-1.91-.07-1.39.9-1.44,1.9-1.55,2.82-.32,5.48.65,8.22,1,.71.08,1.41.21,2.12.24s1.43.61,2.16.46a3,3,0,0,1-1.51-.29c-1.51-.13-3-.6-4.49-.67a2.43,2.43,0,0,1-2-.6,3.77,3.77,0,0,0-3.78-1c-2.69.71-5.79.3-7.94,2.66-1.51,2.41-3.86,4-6.09,5.53s-5.29,1.35-7.91-.12c-.66-1-.26-1.58.59-2.18,3.2-2.23,3.27-2.51,1.78-6.27a2.06,2.06,0,0,1,.13-2.46,28.34,28.34,0,0,1,11.2-10c1.59-.82,3.08-1.79,4.58-2.73a11.12,11.12,0,0,1,5.31-1.8,26.45,26.45,0,0,1,4.58,1.44c1.18.74,2.72,1.08,3.11,2.73a50.46,50.46,0,0,1,8.25,8.34c2.11,2.63,3.16,5.73,4.31,8.8.36,1-.19,1.53-.73,2.12-1.46,1.64-2.79,3.32-2.59,5.73.08,1-.58,1.47-1.46,1.6-1.54.21-1.86,1.14-1.38,2.41,1.15,3.05-.13,5.28-2.33,7.22-2.88,2.56-6.22,4.49-9.07,7.12-1.8,1.67-4.6.86-7.31.93a6.38,6.38,0,0,0,4.29,1.44c1.53.1,1.54.77.9,1.85-3.16,1.93-6.6,1.05-9.36,1,1.9,0,4.38.38,6.91.12,1.78-.18,1.15.94.43,1.76C234.62,269,232.4,270.5,232.63,273.25Z" style="fill:#fcc8a0"/><path d="M186.43,216.87c.3,1.12-1.3,1.71-1.09,2.8-1.06,3.09-2.29,6.1-5.05,8.48a31.51,31.51,0,0,1-8.38,11.16,61.47,61.47,0,0,0-12.24,14c-9.26,15.21-33.63,11.07-41.59,1.44-9.68-11.69-17.85-24-22.6-37.79-.16-.32-.18-.67-.31-1-.62-1.54-.19-1.94,1.8-1.78a9.13,9.13,0,0,1,5.7,2.6,11.68,11.68,0,0,0,.83,1c.14.77.08,1.6.85,2.19a2.27,2.27,0,0,0,3.17.49,34.79,34.79,0,0,1,3.88-1.39,3.85,3.85,0,0,1,3,.22c.65.23.63-1.53,1.87-1.36a23.25,23.25,0,0,0,3-.13,2.36,2.36,0,0,0,2.63-1.92c2.22-1.19,4.32-2.62,7.14-2.68a.84.84,0,0,0,.85-.61c1.7-3.79,4.94-6.87,7-10.51a4.29,4.29,0,0,1,.93-1c3.38-3.1,7.25-2.41,8.82,1.67a21.43,21.43,0,0,0,5,7.15,5.57,5.57,0,0,1,1.8,2.92c4.05,1.27,7.95,2.91,12.53,2.59,3.94-.27,7.91-.25,11.87-.22,1.26,0,2.3-.06,2.51,1.25.05,1.06-.83,1.73-1.34,2.37a4.11,4.11,0,0,0,1.46-2.82c1.46-1.47,3.37-1,5.14-.72A1,1,0,0,1,186.43,216.87Z" style="fill:#231f20"/><path d="M186.43,213.09c.3,1.12-1.3,1.71-1.09,2.8-1.06,3.09-2.29,6.1-5.05,8.48a31.51,31.51,0,0,1-8.38,11.16,61.63,61.63,0,0,0-12.24,14c-9.26,15.22-33.63,11.07-41.59,1.45-9.68-11.69-17.85-24-22.6-37.79-.16-.32-.18-.67-.31-1-.62-1.54-.19-1.94,1.8-1.78a9.07,9.07,0,0,1,5.7,2.6,11.68,11.68,0,0,0,.83,1c.14.77.08,1.6.85,2.19a2.27,2.27,0,0,0,3.17.49,34.79,34.79,0,0,1,3.88-1.39,3.85,3.85,0,0,1,3,.22c.65.23.63-1.53,1.87-1.37a23.28,23.28,0,0,0,3-.12A2.37,2.37,0,0,0,122,212.1c2.22-1.19,4.32-2.62,7.14-2.68a.86.86,0,0,0,.85-.62c1.7-3.79,4.94-6.86,7-10.5a4.29,4.29,0,0,1,.93-1c3.38-3.1,7.25-2.41,8.82,1.67a21.43,21.43,0,0,0,5,7.15,5.54,5.54,0,0,1,1.8,2.92c4.05,1.27,7.95,2.91,12.53,2.59,3.94-.27,7.91-.25,11.87-.22,1.26,0,2.3-.06,2.51,1.25.05,1-.83,1.73-1.34,2.37a4.11,4.11,0,0,0,1.46-2.82c1.46-1.47,3.37-1,5.14-.72A1,1,0,0,1,186.43,213.09Z" style="fill:#fcc8a0"/><path d="M196.88,170.68a5.54,5.54,0,0,1-.44-1.84c.62-4.34-1.39-7.92-3.17-11.61-1.94-4-2.5-8.47-3.26-12.77a28.16,28.16,0,0,0-4.21-9.85,91.28,91.28,0,0,0-7.52-11.17,30.39,30.39,0,0,0-12.16-8.35,84.36,84.36,0,0,0-25-5.52c-4.58-.38-9.1.64-13.64,1.05-12.91,1.14-21.39,9-29,18.58-3.12,3.94-3.94,7.79-3.38,12.66A34.86,34.86,0,0,1,91,162.32c-2.41,4.54-2.18,9.21-1.9,14,.08,1.41,1.16,1.51,2.26,1.57,3,.16,5.92.34,8.88.52a9.77,9.77,0,0,1,3.72.86c-2.35,1.66-4.57.57-6.8-.33-2.24-.15-4.48-.33-6.72-.43-1.33-.06-2-.51-2.08-2-.08-4.33-.17-8.66-.44-13-.2-3.12,1.61-5.67,2-8.6a131.41,131.41,0,0,0,1-15.09,11.45,11.45,0,0,0-.12-4.87c-.52-2.35.75-4.39,1.83-6.36a9,9,0,0,0,1.29-3.74c.88-1,1.6-2.24,2.91-2.85a2.94,2.94,0,0,1,1.44.16c.07-.07.29.19.24-.09,0-.1-.22-.18-.33-.3-.47-2,.93-3.28,2.06-4.5a8.67,8.67,0,0,0,1.79-2.69,5.24,5.24,0,0,0,1.34-1.14c.84-.84,2.12-.81,3-1.55l1.37-.05a2.48,2.48,0,0,0,1.9-2.75c.48-.81,1.41-1.25,1.76-2.16l.58-.92c3-1.41,6.34-1.94,9.4-3.25,3.59-.69,7.15-1,10.81,1.1-.63-2.61,1.09-2.49,2.48-2.6,11.1-.85,22.07-.22,32.82,2.9,2.25.54,4.55.76,6.8,1.27.39.27.76.57,1.15.84.61,1.4,2.33,1.58,3.11,2.8,2.05,1.27,2.84,3.53,4.1,5.39,3,4.44,5.7,9.09,8.67,13.56a9.25,9.25,0,0,1,1.6,5.88c-.15,2.71-.1,5.45-.35,8.15A17.43,17.43,0,0,0,195,152.2a17,17,0,0,1,2.21,11.53A48.61,48.61,0,0,0,196.88,170.68Z" style="fill:#d3ab90"/><path d="M229.18,203.43a68.41,68.41,0,0,0,9.6,5.39c2.75,1.15,4.59,3.39,6.3,5.72-.92,1.17-1.81.29-2.71,0a11.44,11.44,0,0,0-4.08-1.44,6.31,6.31,0,0,0-6.22,1.09c-2.65,1.89-5.55,3.37-8.35,5-3.46,2-5.5,5.18-7.75,8.2a12.24,12.24,0,0,1-1.84,2.4,6.81,6.81,0,0,0-2.55,6.54c-.91,2.87-4.58,5.61-7.38,5.31-1.62-.17-3.39-.43-3.72-2.6.19-1.09,1.24-1.36,1.9-2,3.13-3.1,3.78-4.89,1.24-8.17a3.89,3.89,0,0,1-1-2.83c.29-.52.51-1.09.8-1.63a27.79,27.79,0,0,0,2-5.62c1.22-2.31,3.23-3.94,4.91-5.86,2.07-2.38,4.36-4.61,5.87-7.46,1.26-1.39,2.64-2.65,4-3.94,2.13-.44,3.06,1.1,4,2.39-.74-2.12-.62-2.32,1.78-2.59A4,4,0,0,1,229.18,203.43Z" style="fill:#fcc8a0"/><path d="M210.87,142.74c.8,3.42.16,6.76-.5,10.11-.71,2.39-.39,5-1.52,7.53-1-1-.39-2.29-.92-3,.2,3.09,2.55,6,1.5,9.47-1.33.7-2.44.6-3.17-1.05a14.27,14.27,0,0,1-.43,1.74,1.22,1.22,0,0,1-1.34.79c-.73-.09-.81-.7-.82-1.26,0-1.83,0-3.66,0-5.49-1.71-2.42-2.09-5.32-3-8,.23.91,0,1.84.64,2.77a4.09,4.09,0,0,1,.57,4.27c0,.09-.27.32-.07.3,1.87-.26,1.08,1.15,1.12,1.88.1,1.59,0,3.2.06,4.8a1.49,1.49,0,0,1-1.23,1.7c-2.5,1.13-2.52,1.1-2.46-1.48.06-3,.07-5.94.05-8.9a11.9,11.9,0,0,0-1.36-5.56c-3.06-5.7-3.34-12-3.9-18.18,0-.45-.14-1.19.4-1.25,1-.11,1.19.85,1.49,1.57.8.11,1.32,1,2.19.8-.3-3.07-2.13-5.46-3.5-8a14.38,14.38,0,0,1-2.07-5.24l-1.92-2.9c-.15-1.65.62-1.2,1.34-.55a25.83,25.83,0,0,1,3.43,4c2.14,2.91,4.35,5.82,5.36,9.39a1.77,1.77,0,0,0,1,1c2.65,2.93,3,6.74,3.81,10.34a13.15,13.15,0,0,0,.71,2.49c-.81-2.15-1-4.46-1.63-6.66-.72-2.57-1.46-5.12-3.45-7.07a52.66,52.66,0,0,0-9.2-13.63c-.46-.5-.91-1-.22-1.62s1.33-.32,1.93.22c2.1,1.93,4.8,3.29,5.61,6-.07-2.56-1.94-4.5-3.11-6.79-.1-.2.07-.46.24-.64,3.15,1.76,5.41,4.47,7.53,7.27a47.1,47.1,0,0,1,7.88,16.85C212.58,142,211.31,142.16,210.87,142.74Z" style="fill:#262626"/><path d="M212.94,187.14c2.46-2,4.59-2.14,7.61-.18a33.36,33.36,0,0,1,9.77,9.78,35.5,35.5,0,0,1,3.69,7L229.18,202c-.83.74-1.51,0-2.17-.29a15.25,15.25,0,0,0-4.28-1.4,2.51,2.51,0,0,0-2.53.84,54.45,54.45,0,0,0-3.74,4.31,143.18,143.18,0,0,1-10.7,12.13c-.22.11-.51.33-.66.24a18.56,18.56,0,0,0-5.61-2.14c-.27-.06-.33-.52-.38-.84-.09-2.84-.28-5.69.8-8.41.47-1.43.94-2.86,1.37-4.3a51,51,0,0,0,5-7.47,57.58,57.58,0,0,0,4.08-5.63C211.1,188.3,212.12,187.85,212.94,187.14Z" style="fill:#fcc8a0"/><path d="M74,147.56c-1.6-9.88-3.24-19.73,3.35-28.69,3.57-4.84,8.47-7.78,13.86-10,1.62-.66,3.17-1.89,5.26-1.35-4.23,1.34-5.47,6.16-9.44,7.76a2.88,2.88,0,0,1-1.19.48c-3,.39-4.47,3-6.19,4.94a18.16,18.16,0,0,0-3.4,6.29c-.2.62-.43,1.22.18,1.76.74,1,.61,2.41,1.31,3.46a3.48,3.48,0,0,1,.29,3.23c.41-2.3,1.15-4.64,3.25-6.26.33-.08,0-.1,0-.09-1.28.85-1.67.15-1.73-1.05,3-6,7.18-10.67,14.13-12,1.92.46,2.46,1.37,1.23,2.06-2.56,1.45-3.83,3.68-4.89,6.24a4.81,4.81,0,0,1-2,2.56A55.63,55.63,0,0,0,82.7,152,49.72,49.72,0,0,0,85,164.44l-.63.22-3.86-10.24a21,21,0,0,0-.15,4.67c-2.75-5.5-2.71-11.38-2.15-17.37-1.44,2.18-1.08,4.73-1.77,7,0,.08-.06.2-.1.21-.37.09-.31-.22-.37-.42C75.46,147.91,74.56,148.09,74,147.56Z" style="fill:#242424"/><path d="M140.49,91.68l7.62,3.92-.13.57C130.89,91,113.64,88.38,95.91,93c.16-1,.82-1,1.25-1.32a10.84,10.84,0,0,1,5.06-1.71c-2.09.82-4.93.19-7.48,1.25-4,1-7.39,3.31-11.07,5.07a51,51,0,0,1,8.44-7.06c-4.22.82-7.67,3.22-11.33,5.2A43.88,43.88,0,0,1,101.93,82.5c.52-.63-1.63-1.32,0-1.92h1a5,5,0,0,1,3.4-1.63c4.11-.36,8.18-1.68,12.35-.5.82.23,2.5-.11,1.13,1.64l-6.23.51c-.75,1.15.1,1.2.86,1.18a46,46,0,0,0,5-.09c1.3-.15,2.11.22,1.35,1.74-2.16.14-4,2-6.26,1.27,2.1.21,4.06,1.1,6.18,1a85.34,85.34,0,0,1,17.84,4.72C139.27,90.73,140.07,90.89,140.49,91.68Z" style="fill:#252525"/><path d="M97.63,104.16,90,106.63a10.64,10.64,0,0,0-6.16,2.89c-1,.62-1.77,1.65-3,1.85l-3.37,2.93c-.19.36-.48.69-.87.48s-.38-.61-.08-1c1.6-2.26,3.19-4.52,5.16-7.29-3.2,1.14-5.07,3.29-7.58,4.4,1.81-3.64,4.89-5.91,8.25-7.88s7.18-3,11.61-4c-3.09-.54-5.4.36-7.93.15,1.17-.47,2.33-1,3.53-1.39C106.18,92.24,123,91.32,140,96.51a20.35,20.35,0,0,0,2.35.47c0,1.63-1.11,1.33-2.11,1.17-3.85-.65-7.73-1.2-11.61-1.66-6-.71-12.08-.75-16.45-1.12,2.42,0,6.5.36,10.58.61A141.41,141.41,0,0,1,140,98.14a3.39,3.39,0,0,1,2.46,1.28,4.7,4.7,0,0,1-2.83.36c-5.28-.64-10.58-.24-15.88-.4-.94,1.46-2.47.9-3.73,1-2.5.13-5-.27-7.47.39a3.78,3.78,0,0,1-2.33,0c-1.93-.38-3.83-.33-5.41,1-1.11,1-2.54.72-3.79,1A11.67,11.67,0,0,0,97.63,104.16Z" style="fill:#444"/><path d="M82.27,172.67c2.19,1,2.68,3.07.83,4.38-3,2.14-5.8,5-10.09,4.29-.5-.08-2.32-.51-1,1.24.43.59,0,.89-.43,1.14-2,1.19-3.86,2.84-6.37,2.37-2.75-.52-4.57.81-6.25,2.62-.87.94-1.72,1.89-2.93,3.22-1-4.67-2.09-9-.85-13.38a4.37,4.37,0,0,1,2.29-2.4,101.09,101.09,0,0,1,11.46-5.59,5.65,5.65,0,0,1,6,1c.25,1.77,1.29,2.49,3.27,1.94A32.44,32.44,0,0,1,82.27,172.67Z" style="fill:#fcc8a0"/><path d="M173.74,106.74c-2.23-.48-4.63-.56-6.26-2.54a5.41,5.41,0,0,0,1.35-.48c6.34-4.34,13.56-4.46,20.83-4.34.3,1.3-.65,1-1.37,1.1-1.24.14-2.48.07-3.72.1,2.05-.08,4.11.19,6.15-.26a4.61,4.61,0,0,1,2.36.21,41.51,41.51,0,0,1,8.62,3.18c4,3.46,7.42,7.37,9.14,12.51-1.37,1.28-2.67,1-3.87-.23a27.72,27.72,0,0,0-2.72-2.54c1.6,1,2.79,2.93,4.71,4.06.84.49.39,1.79.94,2.57l1,1.93c.16.54-.16.63-.6.72-.78.16-.82.63-.4,1.21.64,1.45,1.28,2.89,1.91,4.34.32.59.55,1.29-.26,1.54s-1-.56-1.34-1.08a34.58,34.58,0,0,0-6-7.57,2.36,2.36,0,0,0-.65-.07c-.29-.27-.76-.5-.85-.82-1.38-5.25-6.41-6.2-10.17-8.55-3.27-2-7.22-2.51-10.78-3.92-1.1-.43-2.77-.65-3.24,1.3a8.81,8.81,0,0,0-3.42-.73c-1.08.12-.87-.57-.57-1.22.71-1.28,2-1.13,3.16-1.24a64.88,64.88,0,0,1,16.46,1c.41.12.84.17,1.25.3l.21.06c.25.06.28.06.05,0-4.76-1.29-9.65-1.16-14.45-1.79-.84-.11-1.64-.1-1.66-1s.89-.68,1.47-.77a37.33,37.33,0,0,1,11.36-.06,45.63,45.63,0,0,0-11.18,0c-1.34.18-2.32.9-3.51,1.21C176.19,105.05,174.44,104.82,173.74,106.74Z" style="fill:#242424"/><path d="M204.74,169.79c4.65-2.2,8.84-1.15,12.85,1.71a22.47,22.47,0,0,0,4.57,2.65c2.86,1.16,4.16,3.24,4.59,6.19a33.33,33.33,0,0,1,.37,7.19c-.08,1.13-.53,1.51-1.49.65a10.77,10.77,0,0,0-1.4-1.31c-1.55-1-2.36-3.73-5.12-1.94-.52.33-1.9-.55-2.82-1-1.37-.66-2.68-1.44-4-2.16.29-1.23.29-2.17-1.45-1.7a8.67,8.67,0,0,1-5.75-.71c-2-.84-4.17-1.22-6-2.48-1.57-1.11-1.5-2,.15-2.76,1.2-.28,2.31-.66,3.48.41s2.37.4,3.26-.74c1.18-1,.53-1.53-.42-2.1C204.89,171.28,203.46,171.1,204.74,169.79Z" style="fill:#fcc8a0"/><path d="M99.57,213.81c-1.77-.63-2.83-.51-2.47,1.75-1.11-2.09-2.32-4.15-2.54-7,6.29,3,12.84,3.24,19.37,3.51,4.36.17,8.7-.07,12.61-2.29,1.37-.77,1.79.6,3.25,1.2-1.14-3.48,1.2-5.21,2.8-7.31s2.27-4.4,3.19-6.7a6,6,0,0,1,5.66-4.11c3.34-.19,5,.8,5.87,4a24.94,24.94,0,0,0,6.39,11.39c.81.8,1.13,1.59,0,2.35-.26.42-.56.76-1.12.46-1.52-2.05-3-4.09-4.56-6.15a16,16,0,0,1-2.67-5.32,4.31,4.31,0,0,0-3.18-3.29c-1.68-.4-2.56,1-3.52,2.06-1.86,2-2.67,4.71-4,7.07-1.12,2-3.14,3.38-3.65,5.82-.24,1.17-1.82.39-2.71,1a17.55,17.55,0,0,1-5.08,2.64,4.72,4.72,0,0,1-3.41,1.57c-3.64.08-7.27,1.26-10.92-.09C107.12,215.86,101,214.33,99.57,213.81Z" style="fill:#d3ab90"/><path d="M205,103.27l-3.34-2a1.68,1.68,0,0,0-2-.42c-2.23,1-7.26-.13-9.1-2l-.47,0c-3.65-.5-7.32-.08-11-.22-2.49-.55-4.93,1.08-7.42.17-.19-1.29.89-1.11,1.58-1.3a52.09,52.09,0,0,1,6.78-1.27c-3.78,0-7.93,2.27-12.5,1.91-.45,0-1.22.32-1-.7l1.34-.53c3.84-2.65,8.27-3.55,12.75-4.27.32-.06-.08,0,.24,0-.07,0-.16,0-.26,0-.51-.12-.89-.33-.7-.94,5.19-.13,10.38-.33,15.38,1.47.29.37.31.8,1,1.05a41.18,41.18,0,0,1,7.77,3.54,2.81,2.81,0,0,1,1.42,1.64l2.24,2c-1.67.18-2.46-1-3.87-1.19l1.15,1.55c.34.47,1.21.68.91,1.47C205.85,103.61,205.38,103.49,205,103.27Z" style="fill:#434343"/><path d="M117,273.24H93.26c.23-.42.48-.83.71-1.26,1.6-3.09,2.12-3.33,5.48-2.53.71.17,1.4.36,2.11.5,1,.19,2.16.88,2.92-.12s-.13-2-.47-2.93c-.26-.76-.7-1.45-1-2.19s-1.23-1.85-.38-2.64,1.95,0,2.87.43a22.57,22.57,0,0,1,2.12,1.13c2.43,1.55,4.87,3.1,7.26,4.71C116.64,269.5,117.61,271.05,117,273.24Z" style="fill:#f7941d"/><path d="M139.06,72.88c2.12,1,4.62,1.2,6.48,3-6.07-.64-11.9-2.75-18-3-2.37,1.8-5.05,1.23-7.68,1-4.71-1.09-9.46-.75-14.2-.35-.81-.61-2.89.13-2.19-2.07l9.1-1.77c-1.4-1.15-2.75-.19-4.32-.86l2.93-.74c3.11-.35,5.81,1.84,8.94,1.41a9.39,9.39,0,0,1-5.78-1.33c-.1-1.31.8-1.31,1.7-1.3,1.42,0,2.83.05,4-.91a6.26,6.26,0,0,1,6,1.42,1.44,1.44,0,0,0,1.71.29,6.41,6.41,0,0,1,2.58-.26c2,0,3.68,1.1,5.33,2.12,2.79,1.44,6.12,1.57,9.32,3.93l-5-1c-3.92-.29-7.62-1.73-10.95-2C132,71.12,135.77,71.11,139.06,72.88Z" style="fill:#1e1e1e"/><path d="M184.87,273.25l-21.28,0c1.09-1.76,2.13-3.56,3.3-5.27a3.24,3.24,0,0,1,2.91-1.8,2.5,2.5,0,0,1,.87,1.52c.16.64.56.9,1.13.33a4.92,4.92,0,0,1,.66-2.47c.86-1.54,1.93-2,3.44-.92,1.08.79,2.13,1.62,3.19,2.43,2.26,1,3.54,3.07,5.28,4.65C184.71,272,185.28,272.55,184.87,273.25Z" style="fill:#f7941d"/><path d="M199.25,202.89a35.43,35.43,0,0,1,5.84-18.34c1.12-1.7,5.17-2.57,6.7-1.27,1.26,1.06.3,2.19,0,3.29-.37.88-.18,2-1.16,2.62-1.27,1.8-2.61,3.54-3.78,5.4-1.71,2.38-3.27,4.85-4.88,7.29-1,.71-.57,2.82-2.5,2.71C198.88,204.1,199,203.5,199.25,202.89Z" style="fill:#fcc8a0"/><path d="M120.76,83c-1-1.16-2.32-.88-3.58-1-1.79-.09-3.61.26-5.44-.28.37-1,1.2-.92,1.83-1.15,1.69,1.72,3.73.81,5.65.72a85.17,85.17,0,0,1,26.13,2.43,24.55,24.55,0,0,1,2.88,1.18c-.29,1.6-1.86,1.7-2.88,2.44H143l-.15.39,4.41,2.47c.18.83-.37,1-1,.93a6.57,6.57,0,0,1-2.09-.49c-4.38-2-9.17-2.64-13.67-4.27-1.91-.7-4.11-.38-6.1-1-.73-.24-1.74-.32-1.55-1.44S124,83,124.79,83c1.89,0,3.79,0,5.25,0-2.36.36-5.28-.69-8,.76C121.54,84,121,83.58,120.76,83Z" style="fill:#202020"/><path d="M177.14,68.05l1-.48c2.61.21,4.85,1.53,7.24,2.41,1.75.82,2.73,2.59,4.45,3.53,1.14.62-.06,1.27-.61,1.77-.85.81-1.72.44-2.58,0a10.36,10.36,0,0,0-4-1c-1-.4-1.73-1.32-2.91-1.21-.9-.08-1.16-.88-1.67-1.4-.85-1-2.06-.83-3.15-1a21.32,21.32,0,0,0-8.57,0c-1.35,0-2.65.74-4,.35-.3,0,.08-.17-.2-.06s-.27,0-.12.08c.35.2.52.47.29.87-1.12,0-2.24.08-3.36.14-.55,0-1.16.29-1.55-.29s0-1,.41-1.47c1.07-1.28,0-1.19-.83-1.29-.33-1.17.77-1.39,1.36-1.78,2.85-1.86,5.86-3.35,9.48-3-.44-.19-.74,0-1.09.12-.79.19-1.51,0-1.68-.83s.66-1.18,1.28-1.37a13.09,13.09,0,0,1,8.29.52,6.18,6.18,0,0,1,1.31.59,3.12,3.12,0,0,1,2.7,1.5c-1.37.47-2.48-1.08-3.76-.45-.06,1,1,.87,1.39,1.38-3,.54-6,1.11-9,1.81-1.21.28-2.42.55-3.61.88,4-1.17,8-1.84,12-.13A1.55,1.55,0,0,0,177.14,68.05Z" style="fill:#080808"/><path d="M198.3,86.92c1.69,1.57,3.65,2.86,5.27,5.35l-6.19-4.22-.41.41,1.88,1.75c-.65,1.53-1.31.14-2,0l-5.77-2.4a2,2,0,0,1-2.6-.34c-1.45-1.87-3.33-1.9-5.4-1.57-1.11.18-2.41.75-3.11-.8,0-1.69,1.17-1.66,2.16-1.61a50.6,50.6,0,0,1-5.77-.31A2.09,2.09,0,0,1,174.26,82h0a.5.5,0,0,1-.17-.39c0-.15,0-.22.07-.22.44-.46,1.09-.3,1.59-.55a14,14,0,0,1,4.22.34c.67.19,1.94.8,2.43-.6a26.86,26.86,0,0,0-6.69-1.47c-1-.53-2,0-3-.33-.63-.3-1.86-.08-1.23-1.44a21.72,21.72,0,0,1,8.5-.08A58.13,58.13,0,0,1,192.7,82.4a3.92,3.92,0,0,0,1.87,1.39A8,8,0,0,1,198.3,86.92Z" style="fill:#434343"/><path d="M119.8,80.08c-1.65-1.78-4-1.64-5.83-1.23-3.66.81-7.4,1-11,1.72-.21-2.54-2-.36-2.88-1,1.84-2.26,4.58-2.19,7.07-2.6,7.06-1.16,14.09-.1,21.14.34a49.18,49.18,0,0,1,9.68,1.18,1.28,1.28,0,0,0,1.12-.3c1.7.27,3.48.29,5.24,1.74-2.28.21-4.13-.71-6.45-.08l6.79,1.35-.08.85A109,109,0,0,0,119.8,80.08Z" style="fill:#1e1e1e"/><path d="M152.54,211.15l1.12-.46a5.89,5.89,0,0,1,4.6.83,13.18,13.18,0,0,0,7,1.33c5.42-.18,10.85-.46,16.26-.94,2.15-.19,4.24-1,6.78-1.71l-3.44,5.3c-1.75-1.72-5.92.3-6.26,0a2.79,2.79,0,0,0-2.81-1c-4.4.66-8.83-.15-13.24.38a10.13,10.13,0,0,1-4.85-1.07c-1.61-.62-3.07-1.68-4.94-1.64C151.65,212.26,152.25,211.59,152.54,211.15Z" style="fill:#d3ab90"/><path d="M200.74,135a40.3,40.3,0,0,0-8.35-14.18c-.44-.48-.68-1.65-1.76-.76-1.12-2.09-2.25-4.17-3.38-6.26.51-.75,1.09-.38,1.68-.12,1.24.56,2.39,1.28,3.57,1.94a2.42,2.42,0,0,0,.77.42c-.26-.21-.43-.45-.23-.8,1.7-.89,2.81-.38,3.36,1.43,1.49,1.77,3,3.53,4.46,5.33.31.39.84.93.26,1.44-.2.17-.74,0-1.27-.07.54,1.34,2,2.13,2.1,3.89l-9.44-8.86c3.27,4.65,7,8.9,9.2,14.19C201.87,133.62,202.43,134.77,200.74,135Z" style="fill:#0a0a0a"/><path d="M120.27,72.9a6.55,6.55,0,0,0,4.39.35c1.9-.46,1.85-.66,2.85-.37-.21,2.42,2.18.9,2.89,1.91-1.83,1.15-3.69-.21-5.16.17a80.11,80.11,0,0,1,11.21,1.28c.57.12,1.38-.09,1.18,1l-.49.51a3.81,3.81,0,0,1-3,.31,179,179,0,0,0-21.34-1.51c-2.58-.06-5,.65-7.55,1a6,6,0,0,1-2.82.15c-.54-1-1.5-.89-2.4-.92.57-1.71,2.52-2.61,5-2.24a6.74,6.74,0,0,0,1.72.31c-.4,0-1.08,0-1-.72,0-.89,1-.88,1.59-1.16C111.66,72.78,116,72.25,120.27,72.9Z" style="fill:#0b0b0b"/><path d="M174.26,82a39.66,39.66,0,0,1,12,1.53c-2.15,1.49-4.19.36-5.76,1.37-.46.55-.6,1.33-1.23,1.77a8.41,8.41,0,0,1-1,.3c-.61.1-1.36.32-1.81-.1-1.31-1.23-2.4-.45-3.56.18a56.06,56.06,0,0,0-6.21,1.73c-.69.25-1.42.66-2.11-.06-1-.56-.93-1,0-1.75a20,20,0,0,1,5.36-2.76c-2-1.16-3.93-.83-5.9-1.53C167.58,82.05,171,83.11,174.26,82Z" style="fill:#1f1f1f"/><path d="M129.94,68.54a7.58,7.58,0,0,0-2.51.7c-1.48.48-1.66.07-2.79-1.31s-2.77-1.33-4.37-1.31c-1.3.85-2.75.44-4.13.37-.72,0-1.11-.56-.67-1.34h0A2.6,2.6,0,0,1,118,64.44c3.87-.94,7.75-.25,11.62-.06,1.09.06,1.72,1,2.7,1.25,3.24.37,6.11,1.91,9.14,2.91-.34,1.34-1.49.79-2.13.66a37.25,37.25,0,0,0-8.5-.42A1.44,1.44,0,0,1,129.94,68.54Z" style="fill:#242424"/><path d="M142.41,99.42c-12.07-2.61-24.38-2.89-36.65-3.9A52.2,52.2,0,0,1,116,94.69a241.65,241.65,0,0,1,24.32,2.64,2.7,2.7,0,0,0,2.07-.35l1.79.57C143.92,98.63,142.6,98.49,142.41,99.42Z" style="fill:#080808"/><path d="M182.9,72.88c2.33.18,4.25,1.44,6.28,2.4,1.17.76,2.64,1.07,3.39,2.41-1.73,1.86-4,1-6,1-1.71,0-3.34-1-5.12-.63a18.54,18.54,0,0,0-6.38-1.18c-2.14-.89-4.6-.37-6.69-1.49-.08-1.56,1.15-1.1,2-1.36C174.47,72.83,178.73,73.34,182.9,72.88Z" style="fill:#181818"/><path d="M102.44,77.64A58.69,58.69,0,0,1,123.11,76c4.71.38,9.33,1.27,14,1.68l1.91.5c.57,1-.21.86-.73.79-7.62-1.11-15.33-1-23-1.7A32.09,32.09,0,0,0,100,79.6l-1.69.34C99.49,78.52,100,78.22,102.44,77.64Z" style="fill:#414141"/><path d="M161.77,273.22h-4.93c-1.23-.66-3.45,0-3.72-1.53s1.71-2.27,2.82-3.25c2.13-1.79,4.83-2.41,7.28-3.53.75-.35,2.41-1.11,1.75,1.14C163.77,268.39,161.85,270.39,161.77,273.22Z" style="fill:#f7941d"/><path d="M120.76,83a29.7,29.7,0,0,1,13.28.57H123.55a3.69,3.69,0,0,0,2.93,1.36,92.85,92.85,0,0,1,17.33,4.68c1.08.42,2.16,1.13,3.44.64,1.07.88,3,2,2.29,3.1-.86,1.26-2.58-.3-3.88-.8a1.46,1.46,0,0,1-.34-.32c-.47-1-1.51-1.17-2.4-1.41-4.38-1.18-8.63-3-13.23-3.27a4,4,0,0,1-1.14-.38,19.54,19.54,0,0,0-7.5-1.14,3,3,0,0,1-.67-.09,21.79,21.79,0,0,0-6.49-1.31.91.91,0,0,1-.84-.65A28.27,28.27,0,0,1,120.76,83Z" style="fill:#0d0d0d"/><path d="M175.82,63.25c-3.24-.45-6.5-1.6-10.34.39,2.21-.25,3.77-.59,5.41,0-4.81,1.46-9.68,2.75-14,5.38-1.1-.15-.89-.71-.33-1.26,1.65-1.6,3.06-3.47,5.16-4.56a3.33,3.33,0,0,1,3.41-1.83,16,16,0,0,1,8.29.4A5.72,5.72,0,0,1,175.82,63.25Z" style="fill:#3b3b3b"/><path d="M127,61.78l-4.75-1c-.08-1.21.79-1.14,1.59-1.17,2.88-.09,5.77-.37,8.62.4,3.48.94,6.44,2.9,9.35,4.94.54.37,1,.85.65,1.57-.2.39-.63.39-1,.09a34,34,0,0,0-7.23-1.94c-3.36-.64-6.77-.09-10.14-.48-.93-.11-1.92.24-2.8-.33-.46-1,.18-1,.89-1a43.54,43.54,0,0,0,4.71.07c.42,0,1.08.22,1.14-.46S127.29,62.15,127,61.78Z" style="fill:#3f3f3f"/><path d="M190.63,98.89c.87.1,1.74.25,2.61.28,1.95.08,3.64,1.81,5.86.7.58-.29,2,.51,2.58,1.45-.48,0-1.31-.35-.87.72.24.58.59,1.11.89,1.67-1.67-.59-1,.34-.74,1.34-6-4.2-12.83-3.9-19.62-4,2.61-1.84,5.67-.61,8.32-1.68Z" style="fill:#1b1b1b"/><path d="M76.92,132.62l-1.44-3.37c-.6-.83,0-1.54.28-2.22,1.82-4.84,5.28-8.45,9.06-11.8.32-.29.69-.7,1.25-.45l1,.5c-.64.89-1.46,1.68-1.47,2.89,0,.12,0,.24,0,.36-.3,2.25-2.19,3.53-3.35,5.23-1.67,2.44-3.45,4.74-3.36,7.91a1.32,1.32,0,0,1-.58,1A1,1,0,0,1,76.92,132.62Z" style="fill:#222"/><path d="M164.58,88.74l8.22-2.86c1.77-.63,3.53.9,5.3,0l1,0a20.72,20.72,0,0,1,8.8,0c.49.13.95.26.92.86a1.16,1.16,0,0,1-.94,1.21,5.88,5.88,0,0,1-3-.14,55.56,55.56,0,0,0-21.73,2.79C163.3,89.39,164.07,89.18,164.58,88.74Z" style="fill:#414141"/><path d="M38.37,261.26c3.41,5.21,8.81,6.69,14.46,7.71-.75,1.52-2.07.59-3.08.6a9.86,9.86,0,0,1-2.29-.51c-.7.09-1.83-.79-1.84.83.52,2.18-.3,3.13-2.57,2.95-1.33-.1-2.68,0-4.06-.2,1.28-.37,2.66-.39,3.69-1.35.36-1.77-.59-3.07-1.54-4.36-1.28-1.73-2.6-3.42-3.91-5.13C37.72,261.85,38.16,261.8,38.37,261.26Z" style="fill:#0c0c0c"/><path d="M263.36,237a2.87,2.87,0,0,1,2.44,1.75,2.12,2.12,0,0,1-.49,2.83c-2.07,1.49-4.25,2.83-6.4,4.2-.43.27-.92.33-1.06-.39-.27-1.43,3.47-7.8,4.86-8.25A6.4,6.4,0,0,1,263.36,237Z" style="fill:#f7941d"/><path d="M182.9,72.88a4.58,4.58,0,0,1-3.8,1c-3.65-.42-7.16.43-10.64,1.38-.41.79-1.23.69-1.91.88-1,.17-1.91,0-2-1.06s1-1.1,1.69-1.37c1.5-.59,3.11,0,4.63-.36.63-.13,1.35.26,1.9-.33l-.93-.63a70.68,70.68,0,0,0-7.53-.8c-1,0-2.16.26-2.57-1.13l4.31-.49c3-.11,6.11,0,9.16,0l4.32.5c0,1.12-1.17.88-1.57,1.44.46.07.86.82,1.58.48Z" style="fill:#212121"/><path d="M97.22,123.09a8.18,8.18,0,0,0-2,2.27,13.73,13.73,0,0,0-4,6.45c-.56,2.13-1.72,4-2.08,6.23-.1.63-.41,1-1.11.87-.39-2.24-1.72-4.41-.51-6.78.27,0,.33.64.6.25a4.57,4.57,0,0,0,.66-2.67c1.18-2.32,2-4.82,3.6-6.93a9.41,9.41,0,0,1,3-2.7c.92-.51,2.09-1.13,2.77,0A1.91,1.91,0,0,1,97.22,123.09Z" style="fill:#0c0c0c"/><path d="M106.36,111.93a8.22,8.22,0,0,1-2.41,2c-4.29,1.23-8.88,1.1-13,3-1.4.63-2.63,1.53-4,2.2-.84.42-1.85.72-1.35-.95v0c2-1.42,3.7-3.26,6-4.36A22.57,22.57,0,0,1,103.5,112C104.45,112,105.41,112,106.36,111.93Z" style="fill:#222"/><path d="M111.61,99.84c4-1,8.06-.24,12.09-.46,1.51.88,3.34,0,4.88,1.35l-19.35,1.08c-.85.37-1.85.15-1.92-.64-.1-1.17,1.11-.75,1.8-.82A5.63,5.63,0,0,0,111.61,99.84Z" style="fill:#3b3b3b"/><path d="M138.59,60.83c.23-1.56-1.76-.93-2-2,4.84-1,7.76.06,11,3.88-.53.55-1-.31-1.71.08.42,1.07,1.68,1.67,1.87,2.87a1,1,0,0,1-.69.82c-3.08-1.1-5.47-3.39-8.38-4.77C138.43,61.56,138.43,61.14,138.59,60.83Z" style="fill:#1f1f1f"/><path d="M160.74,62.26c-2.39.58-4.06,2.24-5.77,3.84-1.57-.32-1.71-1.6-1.79-2.83-.11-1.55,1.25-1.86,2.26-2.45,2.85-2.62,6.15-1,9.4-1.35-.33,1.13-1,.73-1.46.92-.07,0-.2.06-.21.1,0,.35.25.29.45.34C163.44,62.88,161.63,61.65,160.74,62.26Z" style="fill:#1f1f1f"/><path d="M170.87,73.36c-1.58.4-3.17.79-4.74,1.21-.24.07-.75.13-.46.56.12.17.58.12.88.16.42.49,1.41.55,1.14,1.54-.38.63-1.08.55-1.35.63,2.2-1.13,4.21.78,6.46,1.18a5.9,5.9,0,0,1,2.9.49c-5.25.35-10.47-.66-15.62-.17-.37-2.3,2.53-2.29,2.59-4.18.15-1.46,1.39-1.16,2.29-1.46s2,0,3-.44Z" style="fill:#151515"/><path d="M88,138.91c1.32-3.84,2-7.93,4.45-11.34a4.52,4.52,0,0,1,2.71-2.21,26.82,26.82,0,0,0-4.27,14.5c-.08-1.1-.15-2.2-.22-3.3l-.3-.07c-.83,2.85-1.66,5.7-2.58,8.88C87,143,88.09,141,88,138.91Z" style="fill:#3e3e3e"/><path d="M207.11,175.12c-2.56,2-3.12,2-5.8.11a16.78,16.78,0,0,0-2.05-1.1c.6-2.26,2.68-2,4.29-2.53,1.16-.89,2.21-.46,3.15.33S207.6,174,207.11,175.12Z" style="fill:#ec008c"/><path d="M216,205.31c1.68-2.49,3.35-5,4.84-7.19l8.3,3.92v1.39L225.79,202c-1.74.27-3.54-.07-5.25.52L216.71,206A.76.76,0,0,1,216,205.31Z" style="fill:#151515"/><path d="M121.37,102.8l-8.8,4.28c-.75-.2-1.44.43-2.2.15a13.65,13.65,0,0,0-3.93-.4c-.74,0-1.6.23-2-.69a3.24,3.24,0,0,1,2.73-2,16.67,16.67,0,0,1,3.76-.38A26.13,26.13,0,0,0,121.37,102.8Z" style="fill:#161616"/><path d="M192.05,83.48c-1.7-.06-2.26-1.88-3.76-2.37-2.64-.84-5.2-1.94-7.79-2.92a1,1,0,0,1,.69-.36c4.49.39,9.13.22,12.7,3.71.29.28.77.21,1.05.53,1.22.84,2.46,1.66,3.65,2.54.37.28,1.07.65.26,1.24C196.42,85.52,194.51,83.7,192.05,83.48Z" style="fill:#343434"/><path d="M201.71,169.25c1.76-2.32.68-4.89.92-7.72-1.35.84-.55,2-1.35,2.93.16-5.05-1.45-9.73-1.06-14.85.82.76.71,1.65,1,2.41.38,1.14-1,3.13,1.72,3.34.32,0,.46,2.79.65,4.28.07.64.05,1.28.06,1.92-.82,1.73-.35,3.57-.46,5.35C203.1,168,203.06,169,201.71,169.25Z" style="fill:#191919"/><path d="M89.46,181.69c-1.47.6-3,1.16-4.39,1.83-1,.48-2,.86-2.66-.39s0-1.95,1.1-2.4a24.53,24.53,0,0,1,11-.95c1.74.24,3.46-.54,5.18.05a1.06,1.06,0,0,1,.48.67c-.61,1-1.59.45-2.4.52C95,181.27,92.15,180.52,89.46,181.69Z" style="fill:#a5a5a5"/><path d="M177.14,68.05a2.79,2.79,0,0,1-1.84.41,33.4,33.4,0,0,0-14.39,1.31.73.73,0,0,1-1-.38,28.22,28.22,0,0,1,16.2-3.71c0,.14,0,.28,0,.42-1,.76-2.47-.28-3.55.7.69,1.07,1.9.08,2.59.79A3.41,3.41,0,0,0,177.14,68.05Z" style="fill:#222"/><path d="M205.59,99.36A40.94,40.94,0,0,0,192.38,94l3-.86c3,0,5.09,2.06,7.6,3.15,1.53.66,3.27,1.14,4.61,2.67Z" style="fill:#212121"/><path d="M138.59,60.83c3,1.6,6.27,2.73,8.67,5.3l.23.25c-.17.86.6,2.23-1.2,2.18l-1-1c-3.73-2.4-7.23-5.18-11.47-6.72-.21-.07-.22-.39-.17-.64,1-1.09,2,.08,3,.07Z" style="fill:#424242"/><path d="M111.61,99.84c-.92,1-2.3.79-3.45,1.19.09.71.69.59,1.07.78l-11.6,2.35a3.62,3.62,0,0,1,3.33-2c1.7.18,1.7-1.84,3.28-2C106.7,100,109.15,99.88,111.61,99.84Z" style="fill:#2c2c2c"/><path d="M82.27,172.67c-1.6,1.23-3.25,2.37-5.38,2.45a2.62,2.62,0,0,1-2.58-1,2,2,0,0,1,.59-2.58c1.14.61,2.11-.44,3.21-.34A6.52,6.52,0,0,1,82.27,172.67Z" style="fill:#ec008c"/><path d="M140.49,91.68c-4-1.18-8.05-2.42-12.11-3.5-2.67-.72-5.4-1.21-8.11-1.81.56-.59,1.09-.17,1.6-.13-.07-.46-1.44.3-1.11-.83l0,0c2.42-.72,4.5.92,6.81,1,4.09,1.15,8.26,2,12.28,3.36.79.28,2,.08,2.1,1.44Z" style="fill:#0d0d0d"/><path d="M194.94,82.07c-2.68-1-5.38-1.9-8.06-2.9a16,16,0,0,0-5.84-1c-.15-.44-.08-.66.43-.45.47-.13,1-.46,1.38-.35,3.22.88,6.48.22,9.72.35.27.17.77.47.76.49C192.27,80.15,194.14,80.89,194.94,82.07Z" style="fill:#141414"/><path d="M104.4,106.14c1.31-.09,2.64-.15,3.95-.29.88-.09,1.73-.24,2.25.71-1.34,1.23-3.18,1-4.74,1.65-.94.38-2,.47-3,.83a1,1,0,0,0-.39.49c-2.16.62-4.47.16-6.61,1.09C98.12,107.84,101.41,107.29,104.4,106.14Z" style="fill:#3e3e3e"/><path d="M198.33,137c-.36.62-.62,1.74-1.45.36-.36-.59-.63-1.24-.95-1.86.33-3-1.7-5-2.94-7.35-1.06-2-2.41-3.87-3.91-6.23,1.85.2,2.09,1.58,3,2.09,2.88,2.83,4.09,6.61,5.72,10.15C198.17,135,199.09,135.84,198.33,137Z" style="fill:#1e1e1e"/><path d="M137.63,77.21c-3.9-1.26-7.95-1.53-12-1.91a17.34,17.34,0,0,1-4.61-.89c3.14-.22,6.23.67,9.36.38,4.87.73,9.78,1.21,14.39,3.32Z" style="fill:#1c1c1c"/><path d="M142,91.18c-4.7-1.83-9.6-3-14.43-4.35.12-1.24.86-.6,1.43-.48A82.21,82.21,0,0,1,142.58,90c1.51.6,3,1.32,4.68,2.08-.91.53-1.4,0-1.94.08Z" style="fill:#373737"/><path d="M159.44,262.28c-1.11,1.42-2.81,2.29-3.88,4.17,3.78-.36,6.77-2.2,10-3.3-.14,1,.69,2.16-.59,2.91-.42-1.14-1.13-.46-1.72-.25-2.44.87-4.87,1.76-7.31,2.64.16-.41.94-1,.55-1.14-3.35-1.39-.33-2.3.28-3.2A3.73,3.73,0,0,1,159.44,262.28Z" style="fill:#121212"/><path d="M106.81,73.39c-.43.61-.14.87.48.89a11.55,11.55,0,0,1,2.84.28c-3.29,1.2-6.95.45-10.09,2.16h-.48l-1.41-1.91,1.88-1c1.18-1.18,2.68-1.22,4.21-1.14A10.87,10.87,0,0,1,106.81,73.39Z" style="fill:#1f1f1f"/><path d="M184.81,87.83c1.13,0,2.37.2,2.71-1.34-2.62-.85-5.55-.56-8.46-.62a1.62,1.62,0,0,1,1.45-1c1.49.78,3,0,4.46,0,2.61,0,4.38,1.39,6.15,2.94l2.8,2.38Z" style="fill:#313131"/><path d="M121.28,63.25c2.32.91,4.74.36,7.12.45a16,16,0,0,1,5.85,1c-.54.51-2.08-1-1.92.95a45,45,0,0,0-14.46-.47c-1.44-1.37-1.4-1.8.34-2.27C119.24,62.61,120.39,62.05,121.28,63.25Z" style="fill:#111"/><path d="M209.9,120.08c-2.63-3-5.51-5.81-8.35-8.68,2,.48,3.39,2,5,3.12.63.44,1.07,2.42,2.43.49.28-.4,1.14.9,1.86,1.21s.69.83.21,1.32A3.79,3.79,0,0,0,209.9,120.08Z" style="fill:#0a0a0a"/><path d="M166.65,97.46c1.06.72,2.16.28,3.25.09,3.79-.65,7.58-1.3,11.38-1.9a3,3,0,0,1,2.71.42,101.08,101.08,0,0,0-12.13,2.35,3.08,3.08,0,0,1-3.42.89c-.08-1.32-1-.64-1.57-.63s-1.06.3-1.17-.35S166.24,97.66,166.65,97.46Z" style="fill:#0e0e0e"/><path d="M193,115.27l3.27,2.69c-3.24-.95-5.65-3.6-9.06-4.13-1.23-.32-2.48-.61-3.7-1-1-.32-1.47-1.14-1.71-2.49C186,111.38,189.41,113.57,193,115.27Z" style="fill:#1d1d1d"/><path d="M198.33,137a78.88,78.88,0,0,0-6.27-13c.16-.33.32-.65.49-1,3.15,5,5.9,10.18,7.3,16C198.87,138.58,198.8,137.63,198.33,137Z" style="fill:#0b0b0b"/><path d="M97.11,178.94l6.8.33c3.72.38,7.47.52,11.1,1.51-2.39.4-4.71-.67-7.43-.36l2.08.91c-2.92,1-5.72-.41-8.58-.45-.46,0-.69-.33-1-.6h0c-1.3-.44-2.63-.09-3.94-.22-.54-.06-1.32.32-1.47-.66Z" style="fill:#252525"/><path d="M181,92.15h2.79c-5.31,1.62-10.66,2.85-15.8,4.78l1-1.16L168,95.5c.07-1.26,1.24-1.11,1.94-1.33C173.52,93.06,177.15,92,181,92.15Z" style="fill:#0e0e0e"/><path d="M186.32,226.6a67.92,67.92,0,0,0,0,17.79c-1.27.3-1.33-.47-1.5-1.45a25.63,25.63,0,0,1-.09-6c0-.85.73-1.91-.35-2.65l1-12c0-.27.18-.31.38-.12C186,223.62,185.45,225.21,186.32,226.6Z" style="fill:#010101"/><path d="M204.13,120.55c-.12-.28-.42-.65-.33-.83.21-.44.55-.09.71.11,1.23,1.44,2.48,2.87,3.62,4.38,1,1.32,1.85,2.74,2.77,4.12.33.5.68,1.16.92-.05a7.39,7.39,0,0,1,.47.81c.56,1.41,1.44,2.86-.45,4-.23.11-.52.13-.62-.1a56.32,56.32,0,0,0-6.66-11.33A2.13,2.13,0,0,1,204.13,120.55Z" style="fill:#0e0e0e"/><path d="M163,94.76a18.44,18.44,0,0,1,15.82-5.26,24.56,24.56,0,0,0-8.2,1.88C168.09,92.44,165.57,93.63,163,94.76Z" style="fill:#1b1b1b"/><path d="M155.91,183.19a41.08,41.08,0,0,1,10.17-1.4c2.17,1.07,4.39-.53,6.91.21-3.76,1.25-7.48,2.14-10.91,1.59C160,183.25,157.93,183.62,155.91,183.19Z" style="fill:#303030"/><path d="M100.11,180.28l9.55,1.05,2.37.49c-1.13,1.32-2.53.5-3.82.46-6.24-.54-12.46-1.63-18.75-.59,1.28-1.07,2.83-.8,4.32-.9C95.89,180.65,98.07,181.26,100.11,180.28Z" style="fill:#8f8f8f"/><path d="M204.13,120.55c3.52,3.59,5.63,8,7.71,12.53l0,0c.2.59.71,1.27-.46,1.41-1.93-4.86-4.93-9.09-7.77-13.41Z" style="fill:#343434"/><path d="M235.81,267c.45-1.36-.37-1.21-1.26-1.1a29.32,29.32,0,0,1-8.61-.59c-.56-.09-1.35.06-1.64-1.09a53.71,53.71,0,0,0,13.53-.07C236.9,264.9,237,266.43,235.81,267Z" style="fill:#3d3d3d"/><path d="M88,126.85c1.51-3.21,2.33-6.86,5.75-8.85.46-.26,1.74-.84,0-1.29.76-1.87,2.08-1.49,3.46-.86a1.46,1.46,0,0,1-.14,2.31,24.52,24.52,0,0,0-7.48,9.15c-.06.12-.26.16-.41.23a1,1,0,0,1-.7-.18Z" style="fill:#131313"/><path d="M199.25,202.89l.53,1.52a1.16,1.16,0,0,1,.45,1.16c-1.32,3.53-1.15,7.19-1.19,10.87,0,1.53.38,3.49-1.65,4.37a78.28,78.28,0,0,1,.43-10c.14-1.7-.62-1.21-1.43-.59Q197.82,206.54,199.25,202.89Z" style="fill:#d3ab90"/><path d="M181,92.15c-3.38.77-6.83,1.22-10.15,2.28A10.85,10.85,0,0,0,168,95.5h0c-.85.2-1.78.85-2.34-.45,3.82-1.12,7.49-2.81,11.52-3.16,1-.09,1.91-.16,2.86-.23Z" style="fill:#343434"/><path d="M178.93,228.45c1.65-3.23,2.93-6.65,4.87-9.74l.6,1.14-4.3,9.76C180,229,179.78,228.38,178.93,228.45Z" style="fill:#010101"/><path d="M209.43,166.83c-.15-3.86-1.89-7.45-2.28-11.81,1.37,1.43,1.09,2.8,1.61,4.49,1-2.41.57-4.75,1.61-6.66C209.43,157.47,210.29,162.21,209.43,166.83Z" style="fill:#121212"/><path d="M133.68,60.35a41.68,41.68,0,0,1,9.94,5.57,5.32,5.32,0,0,1,1.66,1.68c-1.26-.36-2.75.19-3.8-1,.84-.68,0-.94-.37-1.19a35.22,35.22,0,0,0-8.74-4.63C132.48,59.7,133.05,59.94,133.68,60.35Z" style="fill:#191919"/><path d="M121.28,63.25c-1,.16-2,.27-3.06.48s-.68.84-.35,1.43l-2.4.49c-.16-.64-.32-1.29-.49-1.94-.08-1.3,1.09-.9,1.69-1.11,1.46-.51,3.14,0,4.57-.8a8.46,8.46,0,0,0,5.32.92c.66,0,.84-.36.46-.94a6,6,0,0,1,3.56,1.47Z" style="fill:#0a0a0a"/><path d="M184.87,273.25,179.09,267c1.56.31,1-.76.95-1.47a77.62,77.62,0,0,0,6.56,7.24C186,273.47,185.39,273.22,184.87,273.25Z" style="fill:#1d1d1d"/><path d="M121.24,61.8c-.9,1.36-2.45,1-3.71,1.32a9.84,9.84,0,0,0-2.55.59L109.55,65C111.69,62.91,116.13,61.78,121.24,61.8Z" style="fill:#151515"/><path d="M114.49,68.05l9,1.51-.11.64c-4.23.32-8.25-.73-12.22-2.13l1.43,0A1.89,1.89,0,0,1,114.49,68.05Z" style="fill:#242424"/><path d="M102.5,109.53,102,109a26.52,26.52,0,0,1,7.69-1.9,2.61,2.61,0,0,1,2.45.46l-1.45,1.92c-.67.87-1.37,1.55-2.42.47C106.38,109.11,104.41,109.68,102.5,109.53Z" style="fill:#414141"/><path d="M161.74,70.47c3.35.73,6.89.43,10.1,1.93-3.21-.22-6.47.47-9.64-.49l-2.46-.73C160.31,70.48,161.06,70.59,161.74,70.47Z" style="fill:#171717"/><path d="M155.44,60.82a18.74,18.74,0,0,0-1.23,1.73c-.26.43-.82,1-.23,1.42.22.17.83-.19,1.3-.31.13.86-.93,1.56-.31,2.44-2.29.32-1.65-1.85-2.41-2.84-.15-.87-1.32-1-1.44-1.85-.26-.67-.55-1.34,0-2l.48-1c1.94-.4,1.75,1.8,2.89,2.37Z" style="fill:#070707"/><path d="M133.68,60.35l-1.31.45a18.73,18.73,0,0,0-7.53-1,3,3,0,0,0-2.57,1c0-1.06,0-1.22.68-1.27,4.6-.33,9.25-1.27,13.72.79Z" style="fill:#1f1f1f"/><path d="M139.06,72.88c-4-.63-7.86-2.12-11.91-2.69A42.48,42.48,0,0,1,140,72.39Z" style="fill:#0c0c0c"/><path d="M151.11,59.41l.91,1.43c.08,1.66-1,1.14-1.88,1a16.58,16.58,0,0,0-4.45-4C148.14,57.11,149.5,58.69,151.11,59.41Z" style="fill:#404040"/><path d="M129.94,68.54a26.28,26.28,0,0,1,9.23.35,3.14,3.14,0,0,0,2.3-.35,2.72,2.72,0,0,1,2,1.08c-2.72.68-5.24-1.17-7.75-.11C133.77,69.16,131.79,69.24,129.94,68.54Z" style="fill:#0f0f0f"/><path d="M205.08,179.37a13.24,13.24,0,0,0,10.52-1.23c-.31,2.56-2.76,2.12-3.32,3.64-.61-.86-1.09-1.53-2.49-1.19A5.75,5.75,0,0,1,205.08,179.37Z" style="fill:#2e2e2e"/><path d="M175.7,81l-1.49.52c-3.36.49-6.7.11-10.5.26,1-1.43,2.13-.68,2.84-1.21l9.1,0C176,80.72,176,80.86,175.7,81Z" style="fill:#434343"/><path d="M94.74,91.18c3.48-1.67,7.24-1.54,11-1.65l-8.55,2.11c.23-.36.46-.77-.28-.72S95.45,91.09,94.74,91.18Z" style="fill:#0b0b0b"/><path d="M83.19,109a17.22,17.22,0,0,1,4.41-2.71,1.77,1.77,0,0,1,2.35.32l-5.3,2.91A1.07,1.07,0,0,1,83.19,109Z" style="fill:#363636"/><path d="M145.35,87.36c.28-1.61,1.08-2.62,2.88-2.44.65.39,1.79.46,1.62,1.48-.2,1.19-1.29.53-2,.59S146.28,87.93,145.35,87.36Z" style="fill:#0c0c0c"/><path d="M143.17,187.53c-2.55,1.44-5.12,1.14-7.68-.05C138,186.83,140.59,188,143.17,187.53Z" style="fill:#575757"/><path d="M207.11,175.12c-.16-2.21-1-3.75-3.56-3.52-1.09-1.58.14-1.64,1.19-1.81.3,1,1.41.93,2.07,1.47C208.25,172.44,209,173.68,207.11,175.12Z" style="fill:#262626"/><path d="M149.25,184.63l3.79-.88a13.15,13.15,0,0,1-7.35,1.81c1.95-.27,2.56-1.31,2.42-3.29a68.92,68.92,0,0,1,.18-7.18c1.32.26.56,1.28.63,1.92C149.17,179.54,148.59,182.11,149.25,184.63Z" style="fill:#1c1c1c"/><path d="M94.67,179.41l5.41.88c-5.53.06-11.08-1-16.57.44,2.69-1.51,5.64-1.28,8.55-1.33C92.93,179.39,93.8,179.41,94.67,179.41Z" style="fill:#8f8f8f"/><path d="M98.15,74.81a1.89,1.89,0,0,1,1.41,1.91l-3.94,1.41C95.42,76,96.81,75.43,98.15,74.81Z" style="fill:#141414"/><path d="M114.49,68.05l-1.91,0,2.89-2.38c1.34,1.64,3.19.7,4.8,1,1,.74.52.89-.37.95C118.1,67.7,116.24,67.22,114.49,68.05Z" style="fill:#0a0a0a"/><path d="M166.55,80.61l-1.3.57,0,.38h9c0,.15,0,.31,0,.46H162.91C163.92,80.47,165.25,80.6,166.55,80.61Z" style="fill:#1f1f1f"/><path d="M147.26,66.13l.51-.49c1.29,1,1.52,2.52,2,3.93.15.48.15,1-.47,1.14s-1.46.52-1.52-.69c-1.14-1.16-.46-2.57-.53-3.87Z" style="fill:#101010"/><path d="M108.21,182.28c1.26-.24,2.61.27,3.82-.46a7.54,7.54,0,0,1,4.71,1.35A31.37,31.37,0,0,1,108.21,182.28Z" style="fill:#595959"/><path d="M192.05,83.48c2.69-.43,4.67,1.18,6.8,2.37a.83.83,0,0,0-.54,1.07Z" style="fill:#0e0e0e"/><path d="M102,80.58c-1,.62,2.46,1.33,0,1.92-1.38-1-2.9.36-4.61-.31C99,81.42,100.15,80.16,102,80.58Z" style="fill:#1e1e1e"/><path d="M209.91,123.94a3.45,3.45,0,0,1-1.09-2.26c.82-.66,1.33.73,2.09.33a3.75,3.75,0,0,1,1.66,3.1C211.17,125.52,211.5,122.84,209.91,123.94Z" style="fill:#161616"/><path d="M104.41,72.88a14.61,14.61,0,0,1-4.38,1c.12-2.24,2.16-1.75,3.41-2.39.45,1,1.62.87,2.37,1.4A1.05,1.05,0,0,1,104.41,72.88Z" style="fill:#0f0f0f"/><path d="M88.51,127.36l.44-.06c.77.3.75.85.5,1.49-.19.47-.61,1,0,1.42-.46,1.6-.91,3.21-1.37,4.82l-.57,0v-2.88C87.85,130.54,88.18,129,88.51,127.36Z" style="fill:#363636"/><path d="M168,72.88c-1.67.9-3.77.59-5.29,1.9l-2.09.31C162.6,72.75,165.27,72.8,168,72.88Z" style="fill:#2c2c2c"/><path d="M205,103.27c.93-.47.25-1,.08-1.57a6.7,6.7,0,0,1,3.73,4.88Z" style="fill:#393939"/><path d="M71.05,192.43l-2.81-3,.93-.37c.27-.85,1-.61,1.59-.63l.91.55c0,.79,0,1.58,0,2.36C72,192,71.93,192.46,71.05,192.43Z" style="fill:#010101"/><path d="M150.14,61.84l1.88-1c.71.69,1.14,1.44.54,2.42-.71,1.26-1.36,1.79-1.89-.11C150.54,62.7,150.31,62.27,150.14,61.84Z" style="fill:#242424"/><path d="M168.44,99.31l3.42-.89c2.41,1,4.81-.47,7.22,0,.32.18.31.32-.05.43a67.14,67.14,0,0,0-8,.82C170.16,99.77,169.17,100.37,168.44,99.31Z" style="fill:#353535"/><path d="M74,147.56c.86-.32.82-1.22,1.33-2.18.23,1.24.42,2.2.6,3.15l-.85,2.34C74,149.88,74.08,148.69,74,147.56Z" style="fill:#121212"/><path d="M185.34,70c-2.74.17-4.75-1.83-7.24-2.41A9.48,9.48,0,0,1,185.34,70Z" style="fill:#151515"/><path d="M185.74,222.15a2.78,2.78,0,0,1-.38.12c-.52-.87,1-2.1-.49-2.79a3,3,0,0,1,.33-.89c.47-.59.88-1.81,1.67-1.36,1,.56.11,1.43-.27,2.19A19.25,19.25,0,0,0,185.74,222.15Z" style="fill:#010101"/><path d="M108.24,110l2.42-.47c-.48,1.2.18,1.85,1.14,2.58l-4.07-.2Z" style="fill:#747474"/><path d="M242.23,214l2.85.54c1.72.78.8,1.41-.13,2l-3.35-1.91C241.48,214.12,241.67,213.88,242.23,214Z" style="fill:#333"/><path d="M196.89,90.22c.65.1,1.31.39,2,0a8,8,0,0,1,3.13,4Z" style="fill:#212121"/><path d="M175.7,81c0-.14,0-.28,0-.41,2.24-.52,4.5,1,6.74,0a1.69,1.69,0,0,1,1.51,1C181.06,81.93,178.4,80.9,175.7,81Z" style="fill:#1f1f1f"/><path d="M76.43,113.83a.71.71,0,0,0,.95.47c-.43,1.61-1.88,2.44-2.58,3.83l-.7-.38Z" style="fill:#313131"/><path d="M179,98.85c0-.14,0-.29.05-.43,3.69.17,7.42-.55,11.08.45Z" style="fill:#1b1b1b"/><path d="M154.48,60.82c-1.38-.28-1.73-1.82-2.89-2.37-.18-.25-.54-.53-.5-.75.1-.62.59-.39.93-.21A4.61,4.61,0,0,1,154.48,60.82Z" style="fill:#232323"/><path d="M158,184.88a13.59,13.59,0,0,1-5.22,1.08A4.83,4.83,0,0,1,158,184.88Z" style="fill:#303030"/><path d="M83.19,109l1.46.52c-1.18.88-2,2.52-3.9,1.83Z" style="fill:#1f1f1f"/><path d="M147.22,66.15c.79.72,2,1.34.38,2.5-.18.12.09.89.15,1.37l-1.46-1.46C146.69,67.79,146.44,66.77,147.22,66.15Z" style="fill:#303030"/><path d="M175.21,67.59c-1.21-.12-2.47.21-4-.49,1.66-1.3,3.35-.86,4.91-1l-2.4.76Z" style="fill:#080808"/><path d="M165.64,95.05a3.67,3.67,0,0,0,2.34.45,10.2,10.2,0,0,1-4.85,1.23C163.65,95.39,164.84,95.5,165.64,95.05Z" style="fill:#0e0e0e"/><path d="M160.74,62.26l2.88-1.43,1.49.52-3.41,1.83Z" style="fill:#070707"/><path d="M179.56,231.39a19.74,19.74,0,0,0,0,7.23C178.28,236.21,178,233.8,179.56,231.39Z" style="fill:#1a1a1a"/><path d="M211.36,134.51c.16-.47.31-.94.46-1.41a8.83,8.83,0,0,1,1.25,4.46C211.69,136.65,211.66,135.51,211.36,134.51Z" style="fill:#1e1e1e"/><path d="M210.31,188.91l1.51-2.34c.2.52.64.59,1.12.57l-2,2.4C210.41,189.64,210.21,189.43,210.31,188.91Z" style="fill:#2d2d2d"/><path d="M210.87,142.74c-1.15-1.35.19-1.5.94-1.92C212.17,141.79,213,143,210.87,142.74Z" style="fill:#111"/><path d="M171.8,268c0,.59.27,1.25-.5,1.8-.89-1.08-.85-2.52-1.5-3.65Z" style="fill:#252525"/><path d="M184.41,234.29l.73-2c.51,4.16-.58,8.27,1.21,12.07,1,3.36,2.13,6.7,3.12,10.07,1.7,5.81,5.8,10.5,7.56,16.28a7.06,7.06,0,0,1,.73,2.5c-2.31.46-3.24-.58-4-2.79a82.22,82.22,0,0,0-6.44-14.71c-3.07-5.39-3.71-11.15-3.34-17.15C184.1,237.15,184.28,235.72,184.41,234.29Z" style="fill:#080808"/><path d="M189.8,155.05c-1,.49-1.39-.36-2-.68-4-2.21-8.12-1.81-12.33-.67-5.48,1.5-10.91,3.15-16.29,5-1,.35-2.21,1.17-3-.23s.23-2.27,1.17-3.07a11.38,11.38,0,0,1,3.76-2.08,159.27,159.27,0,0,1,15.43-4.51C182.57,147.4,186.93,149.6,189.8,155.05Z" style="fill:#030303"/><path d="M97.65,150.93c3.53-2.41,7-4.87,11.68-4,7.15,1.32,13.33,4.88,19.41,8.61a2,2,0,0,1,.63,2.93c-.85,1.33-2,1.43-3.31.65A116.81,116.81,0,0,0,112,151.84a16.48,16.48,0,0,0-14.37.55c-.35.25-.81.33-.95-.1C96.44,151.52,97.19,151.29,97.65,150.93Z" style="fill:#040404"/><path d="M149.25,184.63c-1.05-1.43-.44-3.07-.58-4.61s.35-3.33-.38-4.93a16,16,0,0,1,.84-5.86c.8-.4-.42-1.92,1.08-1.94C149.67,173.06,148.67,178.8,149.25,184.63Z" style="fill:#545454"/><path d="M104.28,141.12c4.33-2,7.69.62,11.27,2.26C111.67,143.28,108.28,140.7,104.28,141.12Z" style="fill:#575757"/><path d="M137.62,169.88c-.55-2.24-.75-4.53-2.32-6.81C138,164.46,138.64,166.62,137.62,169.88Z" style="fill:#585858"/><path d="M182,144.17l-9.33.83c1.93-1.49,4.09-1.25,6-1.73a7,7,0,0,0,2.46.19C181.57,143.51,182.1,143.45,182,144.17Z" style="fill:#868686"/><path d="M182,144.17l-3.28-.9c4.51-.21,6.22.39,7.93,3Z" style="fill:#6a6a6a"/><path d="M180.8,140c2.56-1.39,3.69-1.15,5.15,1A15.87,15.87,0,0,0,180.8,140Z" style="fill:#909090"/><path d="M97.65,150.93c.07.49-1.46,1,0,1.46a3.45,3.45,0,0,1-.65.67c-.5.32-1.15.93-1.64.3s.27-1.14.71-1.51A9.65,9.65,0,0,1,97.65,150.93Z" style="fill:#fcc8a0"/><path d="M103.58,138.15c1.54-1.4,2.61-1.1,3.74-.37Z" style="fill:#6d6d6d"/><path d="M150.21,167.29l-1.07,1.94a6.06,6.06,0,0,1,1.51-4.14A2.68,2.68,0,0,1,150.21,167.29Z" style="fill:#5b5b5b"/><path d="M70.65,232.82c3.15-4.79,3.7-9.55.16-14.47a50,50,0,0,1-3.08-5.68c-.39-1.1,0-1.43,1.07-1.07,1.3.29,2.34.3,2,2.45-.25,1.7,1.48,3.71,3.11,4.14a4,4,0,0,0,4.26-2.43c1.48-3.29,3-6.61,1.06-10.27a14.59,14.59,0,0,0-.57-1.73.55.55,0,0,1,.22-.78c.43-.19.69.13.9.46a14.64,14.64,0,0,1,1.82,9.48A11.24,11.24,0,0,1,79,219c-2.56,3-3,6.83-3.69,10.49-.3,1.5,1.47,2.25,1.9,3.46.49,1.38-2.32,1.45-1.67,3.17.72,1.9,0,2.39-1.92,2.67-2.37.34-3.42,2.17-3.18,4.91-1.12-2.36-3-2.53-5-2.15-.28.44-.6.8-1.19.52a3,3,0,0,0-2.5-.82c-1.27,0-.94-.65-.33-1.26l-.07,0c.53-1.19.15-3.09,2.34-3,1,.33,1.81.88,2.8,1.12,1.91.06,2.47-1.35,3-2.77A14.37,14.37,0,0,1,70.65,232.82Z" style="fill:#040404"/><path d="M51.33,238.1c0-.6-.19-1.25-.79-1.32-1.23-.16-1.65-.69-1.72-1.95,0-.91-.87-1.25-1.8-.73-.75.43-1.53.81-2.3,1.21-.58.16-.73-.1-.62-.62.3-.26.63-.49.9-.77.74-.78,1.71-2.38,2.13-2.24a15.57,15.57,0,0,1,4.61,1.85c1.26,1,1.86,2.81,3.11,4-.69,1.61-2.32.71-3.4,1.27A.46.46,0,0,1,51.33,238.1Z" style="fill:#101010"/><path d="M65.84,239.58a4.92,4.92,0,0,0-2-1.94c-1.73-1-2.16-2.71-2.17-4.54a28.92,28.92,0,0,1,.06-3.09,5.21,5.21,0,0,0,.45-2.52c0-.47,0-1,.71-.91.64,1.63,1.41,3.12.83,5.11-.36,1.21.4,2.77.74,4.15s1,1.52,1.87.36c1.14-1.48,2.8-2.31,4.27-3.38a5.27,5.27,0,0,1-.48,2.9C68.64,236.91,67.34,238.35,65.84,239.58Z" style="fill:#1c1c1c"/><path d="M68.8,211.6a2,2,0,0,0-1.07,1.07c-1.47-1.89-2.42-4.14-4.17-5.83-1.54-1.48-2.93-3.21-5.42-3.53a2.72,2.72,0,0,0,2-3.22C62.91,204.22,66.45,207.47,68.8,211.6Z" style="fill:#151515"/><path d="M51.49,238.59c1.11-.38,2.36-.32,3.36-1.06,1.94,1.52,3.58,3.83,6.6,2.46.27,1.75,2.42.65,3,2-.15.24-.32.24-.5,0a6.32,6.32,0,0,0-6.64,1.68c-1.25-2.2-1.14-6.19-5.43-4.56C51.43,239.16,51.17,239.08,51.49,238.59Z" style="fill:#222"/><path d="M62.06,230c-.9,2.92,1.7,5,1.83,7.67L61.38,240c-1.46-1.71-1.4-3.52-.48-5.47.83-1.77.46-3.79,1-5.63C62.31,229.19,62.24,229.57,62.06,230Z" style="fill:#ec008c;stroke:#231f20;stroke-miterlimit:10"/><path d="M69.19,248.78a12.7,12.7,0,0,1-.34,11.31,11.13,11.13,0,0,1-.13-6.91,2.27,2.27,0,0,1-.65-2.62C68.69,250.12,68.6,249.24,69.19,248.78Z" style="fill:#d3ab90"/><path d="M62.06,230c-.05-.37-.1-.74-.14-1.1.14-3.19-1.48-5.35-4-7-.65-.43-1.25-.94-1.87-1.42a.65.65,0,0,1,.66-.63c2.77,1.62,6,2.79,6.25,6.76Z" style="fill:#343434"/><path d="M77.4,244.39a25.88,25.88,0,0,1,4.32,11.32l-4.81-10.34C76.57,244.79,76.57,244.38,77.4,244.39Z" style="fill:#d3ab90"/><path d="M79.81,203.44c-1.47.34-.14,1.43-.55,2.05L75,197.66c-.34-.59-.35-1,.51-1C77.16,198.79,79,200.81,79.81,203.44Z" style="fill:#252525"/><path d="M45.48,223.21c-.77-3.84.05-5.24,3.21-5.65A12.36,12.36,0,0,1,45.48,223.21Z" style="fill:#d3ab90"/><path d="M69.19,248.78l-.47,1.93a.55.55,0,0,1-.15-.74,21.15,21.15,0,0,0-4.64-8l.5,0,1-.4A17.89,17.89,0,0,1,69.19,248.78Z" style="fill:#2d2d2d"/><path d="M47.46,269.06c1.78-.28,3.59,1,5.37-.09h5.9C54.93,270.79,51.18,270.44,47.46,269.06Z" style="fill:#4f4f4f"/><path d="M49,241.55a13.22,13.22,0,0,1-6.92,3.78l-.3-.54,6.6-3.88C48.9,240.83,49.11,241,49,241.55Z" style="fill:#373737"/><path d="M87.75,227.46l-7-2.07a10.16,10.16,0,0,1,7.16,1.46Z" style="fill:#d3ab90"/><path d="M57,213.66c-.87-3.1-.22-5.27,1.73-7.13Z" style="fill:#d3ab90"/><path d="M56.69,219.82l-.66.63c-.84-.45-1.69-.87-2.51-1.34-.49-.29-1.38-.57-.72-1.33a1.39,1.39,0,0,1,2.1-.16A23.85,23.85,0,0,1,56.69,219.82Z" style="fill:#212121"/><path d="M75.5,196.68l-.51,1-3.94-5.23.57-1A40.14,40.14,0,0,1,75.5,196.68Z" style="fill:#3b3b3b"/><path d="M44.1,234.69l.62.62c-2.06,1.29-4.22,1.88-6.63.88C40.15,235.85,42.31,236,44.1,234.69Z" style="fill:#252525"/><path d="M47.75,215a5.33,5.33,0,0,1,3.86,2.26A4.44,4.44,0,0,1,47.75,215Z" style="fill:#6d6d6d"/><path d="M57.23,204.06l-4.88,1.7C53.38,204.24,54.68,203.42,57.23,204.06Z" style="fill:#d3ab90"/><path d="M58.48,228.13A4.17,4.17,0,0,1,55,231.2Z" style="fill:#4c4c4c"/><path d="M68.57,250l.15.74a2.66,2.66,0,0,0,0,2.47c-1.56-.82-1.14-2.45-1.66-3.71C67.88,249,68.11,249.79,68.57,250Z" style="fill:#404040"/><path d="M49,241.55l-.62-.64c1-.94,2.23-1.59,2.94-2.81.05.16.11.32.16.49l.37.51A8.62,8.62,0,0,1,49,241.55Z" style="fill:#555"/><path d="M65.83,191.87c-.88,1.1-2,2.07-2.07,3.61l-.93.19a8.79,8.79,0,0,1,2.49-4.31Z" style="fill:#d3ab90"/><path d="M77.4,244.39l-.49,1a8.91,8.91,0,0,1-1.7-3.55A5,5,0,0,1,77.4,244.39Z" style="fill:#d3ab90"/><path d="M201.33,238.72c1.46,2.07,3.1,2.6,5,1.35,1.76-1.16,3.85-2,4.61-4.32a1.92,1.92,0,0,1,1.67-.67c1.19.19,1,1.29,1.3,2,4.43,1.34,8.16.43,11.08-3.33a4.67,4.67,0,0,1,2.61-2c.56-.12.79.1.67.67-.14,1.7,1.52,2.72,1.77,4.35-5.48-.91-5.51-.93-7.86,4.18-1.07,2.31-3.06,3.86-4.52,5.85-.95.93-1.46.56-1.21-.59a12.71,12.71,0,0,1,1.16-3.28l1.17-2.45c-2.88.21-3.56,2.7-5,4.24-.61-.48,0-1.62-1-1.71a2.39,2.39,0,0,0-2,1.1c-1.39,1.69-1.58,4-3,6.07-.44-1.95.2-3.8-1-5.37a3.86,3.86,0,0,0-3.08-1.89,5.9,5.9,0,0,1-4.86-8.22c.51-.31.9-.06,1.27.28.82.49.49,1.51,1,2.15A1.53,1.53,0,0,1,201.33,238.72Z" style="fill:#040404"/><path d="M212.39,235.7l-1.44.05a6.58,6.58,0,0,1,1.77-5.69,85.73,85.73,0,0,0,5.38-7.4,19.48,19.48,0,0,1,3.81-3.56c2.76-2.38,6.36-3.18,9.18-5.37a7.32,7.32,0,0,1,7.25-1.14c.07.94-.5.73-1,.57a3.64,3.64,0,0,0-1,.12c-7.42,3.43-14.62,7.15-19.3,14.28a1.08,1.08,0,0,0,0,1.5c.6.57.53,1.33-.1,1.58-2.2.86-3.23,2.62-4,4.66C212.89,235.49,212.59,235.58,212.39,235.7Z" style="fill:#0a0a0a"/><path d="M197.39,220.81c1.06-2,.78-4.21.81-6.35.06-3.12,0-6.25,1.54-9.13.89-.1.75.54.76,1.07a49.79,49.79,0,0,0-1,8.35c0,1,1,1.42,1.27,2.27.28,1.42-.59,2.76-.25,4.19.15.61.18,1.34,1,1.45s.87-.54,1.12-1c.5-.95.77-2.24,2.35-1.58.87,1.77-.59,3.13-.82,4.7l-.55,1.33c-.66,1.48.37,3.28-.87,4.65-.63.76-.85,2-2.26,1.82-.75-.5-.47-1.17-.29-1.82-.42-1.18.9-2.31-.2-3.63-2.5-3-2.41-3.08-6.25-1.56C194,223.1,196.64,222.66,197.39,220.81Z" style="fill:#0a0a0a"/><path d="M212.39,235.7c-.19-3.09.63-4.52,3.36-5.77.49-.22,1.1-.25,1.32-.87a4.45,4.45,0,0,1-1,7.13c-.69.36-1.44.61-2.16.92Z" style="fill:#ec008c;stroke:#231f20;stroke-miterlimit:10"/><path d="M228.28,232.46l-.67-.67c2-2.79,5.39-2.14,8.07-3.25.34-.15.82.09,1.19,0,1.17-.35,2.21-.81,2.46,1.13a1.93,1.93,0,0,0,1.87,1.28c-.25,1.25-1.24.77-1.79.56-1.63-.62-3.28-.18-4.91-.34-1.16-.12-1.27.62-1.27,1.48a.38.38,0,0,1-.63.18A2.93,2.93,0,0,0,228.28,232.46Z" style="fill:#191919"/><path d="M232.6,232.81h.33c.22-.31.44-.31.68,0a39.68,39.68,0,0,0,10,6.79c-.16,1.16-.81,1-1.57.6C238.64,238.07,235.05,236.17,232.6,232.81Z" style="fill:#454545"/><path d="M233.61,232.79l-.68,0c0-1.6,1-1.85,2.39-1.93,2-.13,3.92.72,5.88.05,1.65.08,3.33.08,4.76,1.11l0,0c-2.59.7-5.06-.39-7.6-.51-1.12-.06-2.23-.15-3.35-.19C234.08,231.35,233.47,231.71,233.61,232.79Z" style="fill:#4e4e4e"/><path d="M243.17,241.48,247,243c-2.69.64-4.85-.54-6.91-1.76-.75-.44.17-.59.57-.68C241.45,241.06,242.63,240.37,243.17,241.48Z" style="fill:#444"/><path d="M217.62,243c-.23.93-.46,1.87-.7,2.8-.18.67-.09,1.13.75,1.07a7.59,7.59,0,0,1-2,3.14A12.34,12.34,0,0,1,217.62,243Z" style="fill:#2b2b2b"/><path d="M243.17,241.48a6.09,6.09,0,0,1-2.5-.88l1.4-.42c.55-.14,1.17-.08,1.57-.6.7.32,1.53.43,2.07,1.33Z" style="fill:#d3ab90"/><path d="M200.2,230.74l.53,1.61c1.3,1.87.86,3-1.39,3.42l-.56-1A12.34,12.34,0,0,1,200.2,230.74Z" style="fill:#171717"/><path d="M230.13,262.27a9.34,9.34,0,0,1,4.34,1.12,6.11,6.11,0,0,1-4.33-.2A.6.6,0,0,1,230.13,262.27Z" style="fill:#d3ab90"/><path d="M246,232.08l0,0a6.47,6.47,0,0,1,4.63.36C249,233,247.48,233.25,246,232.08Z" style="fill:#d3ab90"/><path d="M237.3,213.16l1-.57a6.94,6.94,0,0,1,3.89,1.41l-.63.66Z" style="fill:#484848"/><path d="M245.27,234.79h5.08A5.27,5.27,0,0,1,245.27,234.79Z" style="fill:#202020"/><path d="M230.13,262.27v.92a4.54,4.54,0,0,1-3.76-1.93Z" style="fill:#d3ab90"/><path d="M103.43,216.09c.08-1,.45-1.2,1.54-1.21,3.72,0,7.3,1.26,11.1.85,2.36-.25,4.75-.35,7.1-.71-.88,2.49-1.42,2.75-6.08,2.83.27,1,2,.54,1.71,1.86a1.43,1.43,0,0,1-1.5,1c-1.13,0-2.47.58-3.13-.94-.16-.36.09-1-.81-.54-1.4.68-3.11.84-4.38,1.68-2.35,1.56-3.28.31-4.09-1.61.61-1.23-1-1.6-1-2.59Z" style="fill:#fcc8a0"/><path d="M138.31,217.71a11.89,11.89,0,0,0,3.65,5.06C139.06,223.39,137.87,221.88,138.31,217.71Z" style="fill:#414141"/><path d="M149.18,209.77c.17,0,1.18-.17.91.77s-1.43,1.44-2.5,1.56c-.64.06-1.16-.3-1-1C146.81,210,147.69,209.65,149.18,209.77Z" style="fill:#0f0f0f"/><path d="M134.3,209.28c1.13,0,2.12.31,2.33,1.56.13.75-.5,1-1.08.82-1.05-.28-2.34-.55-2.64-1.67C132.69,209.16,133.75,209.36,134.3,209.28Z" style="fill:#121212"/><path d="M178.59,215.52l1-.06c-.42,2.21-2.24,3.32-3.75,4.69C176.33,218.36,177.67,217.06,178.59,215.52Z" style="fill:#fcc8a0"/><path d="M103.89,216.69a5.8,5.8,0,0,1,2,1.95c.19.39.7.89.17,1.22s-.8-.36-1.19-.58A3.89,3.89,0,0,1,103.89,216.69Z" style="fill:#fcc8a0"/><path d="M97.21,116.75a3.57,3.57,0,0,0-3.43,0c-6.65,1.35-10.28,6.22-13.5,11.57-.44.85,0,1.91-.66,2.71-.45.59-.63,1.59-1.75,1.16.49-5.82,4.18-9.86,7.72-14,1,1.13,1.75,0,2.46-.39a34.18,34.18,0,0,1,13.55-4.44c.83-.08,1.78-.47,2.35.59-.21.44-.41.87-.61,1.31a9.07,9.07,0,0,1-3.81,2C98.7,117.46,97.82,117.72,97.21,116.75Z" style="fill:#070707"/><path d="M173.74,106.74c-.62-.94-1.78-.92-3-1.62,2.15-1.27,4.38-1,6.41-1.42,1.47-.1,3-.92,4.32.48-.24,0-.61,0-.68.09-.33.53.22.37.4.39,2.83.29,5.69.45,8.5.86,2.59.38,5.13,1,7.69,1.57-.58,1.26-1.53.66-2.4.48a91.06,91.06,0,0,0-20.41-.41Z" style="fill:#050505"/><path d="M97.21,116.75l6.13-1.53c-1.35,2.26-3.65,3.83-4.72,6.3.72.5.89,1-.08,1.39l-1.32.18c.48-.71,1.29-1.56.49-2.3s-1.64.15-2.3.65c-3,2.23-4.38,5.56-6,8.77-.5.33-.89.35-.83-.4s.22-1.67.33-2.51C90.21,122.61,93.24,119.32,97.21,116.75Z" style="fill:#444"/><path d="M112.11,107.58c-3.45,0-6.78.84-10.14,1.44,2.57-1.89,5.6-2.18,8.63-2.46l2,.52Z" style="fill:#010101"/><path d="M98.54,122.91a1.62,1.62,0,0,0,.08-1.39,6.4,6.4,0,0,1,3.89.84C101.14,123.36,99.79,122.81,98.54,122.91Z" style="fill:#7b7b7b"/><path d="M216,205.31l.67.64c-1.51,3.35-4.12,5.85-6.55,8.5-1.35,1.47-2.68,3-4,4.43-.47,1.25-1.22,1.26-2.14.48a1.3,1.3,0,0,1-.35-1c.14-1.13,1.63-.48,1.9-1.44,1-2.24,3-3.67,4.63-5.45.61-.68,1.58-1.24.88-2.43-.43-.75.26-.76.67-.84C213.59,207.85,214.77,206.51,216,205.31Z" style="fill:#0d0d0d"/><path d="M201.7,229.94l1.92-3.85a4.41,4.41,0,0,0,.47,2.27c2.6,3.8,2.25,6.16-1.23,9.23a18.86,18.86,0,0,1-1.53,1.13l-1.09-1c0-1.08.89-1.65,1.52-2.36C203.64,233.19,203.63,232.16,201.7,229.94Z" style="fill:#2a2a2a"/><path d="M220.54,202.53a5.36,5.36,0,0,1,5.25-.52c-1.27.11-.8.81-.54,1.5.44,1.18.92,2.39-.06,3.65C223.12,206,223.61,202.47,220.54,202.53Z" style="fill:#d3ab90"/><path d="M204.53,218.9a1.14,1.14,0,0,0,1.61,0,21.34,21.34,0,0,1-2,5.88c-.24-1.53,1.28-2.93.34-4.51A.89.89,0,0,1,204.53,218.9Z" style="fill:#1a1a1a"/><path d="M209.49,150.55c-.68-5.26-2.49-10.25-3.09-15.49C208.54,140,210,145.09,209.49,150.55Z" style="fill:#121212"/><path d="M200.74,135c.33-.8.65-1.61,1-2.41A25.92,25.92,0,0,1,206,143.9a14.72,14.72,0,0,1,.38,5.56c-1-4-1.83-7.48-2.69-10.93-.41-1.62-.45-1.55-2.27-2C201.06,136.4,201,135.54,200.74,135Z" style="fill:#151515"/><path d="M204.15,155.89c-.52-3.86-2.21-7.52-2-11.5C203.74,148.07,205,151.79,204.15,155.89Z" style="fill:#191919"/><path d="M201.65,201.48q2.41-3.61,4.82-7.24c.84-.07.9.29.51.91a53.61,53.61,0,0,1-4.81,7.22A1,1,0,0,1,201.65,201.48Z" style="fill:#343434"/><path d="M205.55,216.91c-.2.76-.88,1.05-1.43,1.47-1.68.68-3-.24-4.35-1l-.43-2.43c.18-.32.33-.31.44,0C202.05,214.6,203.47,216.77,205.55,216.91Z" style="fill:#1a1a1a"/><path d="M215.59,187.16a2,2,0,0,1,2-.19,1.85,1.85,0,0,1,1.05,1.76,1.16,1.16,0,0,1-.74,1.14c-.8.19-1-.6-1.4-1.08S215.54,187.93,215.59,187.16Z" style="fill:#d3ab90"/><path d="M207,195.15l-.51-.91,3.84-5.33.63.63Z" style="fill:#464646"/><path d="M201.65,201.48l.52.89c-.49,1.32-1,2.63-1.48,3.95-.08.35-.2.37-.38.06l-.57-1,0-.92Z" style="fill:#232323"/><path d="M200.31,206.38l.38-.06c-.3,2.9-.61,5.79-.91,8.69a3.12,3.12,0,0,1-.44,0A34.44,34.44,0,0,1,200.31,206.38Z" style="fill:#454545"/><path d="M86.07,114.78c-4.46,4.15-8.87,8.32-10.59,14.47-.22.51-.42,1-.65,1.53,0,.06-.12.08-.2.13-.54-.16-.45-.59-.35-1a28.51,28.51,0,0,1,9.9-14.83C85.1,114.38,85.15,114.4,86.07,114.78Z" style="fill:#0f0f0f"/><path d="M77.87,132.15l2.41-3.87c.87.84,1-.23,1.36-.56.64-.57.91-1.51,2-1.72-2.45,4.13-5.16,8.12-6.77,12.78,1.15-2.12-.24-4.13,0-6.16Z" style="fill:#181818"/><path d="M85.23,128.6c-2.57,6-3.44,12.39-4.19,18.79C80.14,140.6,81.3,134.27,85.23,128.6Z" style="fill:#0d0d0d"/><path d="M128.47,90A85.15,85.15,0,0,0,105,87.64C113.06,86.3,120.93,86.45,128.47,90Z" style="fill:#101010"/><path d="M120.76,85.41a6.65,6.65,0,0,1,.91.61c-.3.64-.93.21-1.4.35-3.19,0-6.16-1.25-9.75-1,1-1.21,1.89-1,2.53-1.42a37.48,37.48,0,0,0,6.65-.52c0,.84-1.11.39-1.06,1.18C119.19,85.21,120,85.15,120.76,85.41Z" style="fill:#030303"/><path d="M110.16,98.39l-6.92.71c1.75-1.59,3.84-1.68,6-1.69a8.17,8.17,0,0,1,4.13.06C112.31,98.68,111,97.75,110.16,98.39Z" style="fill:#252525"/><path d="M87.78,104.25c1.92-1.93,4.43-2.35,7-2.69A19,19,0,0,1,87.78,104.25Z" style="fill:#2e2e2e"/><path d="M110.16,98.39l1.84-.7,0-.28h-2.77c1.68-.71,3.36-.47,5.71-.21C113.1,98.62,111.59,98.35,110.16,98.39Z" style="fill:#333"/><path d="M181.45,104.18c-1.38-.74-2.88-.37-4.32-.48,6.62-1.22,13.22-1.67,19.73.66C191.72,104.25,186.59,103.4,181.45,104.18Z" style="fill:#101010"/><path d="M189.64,108.82c6.68.91,11.77,4.42,15.68,9.82A46.1,46.1,0,0,0,189.64,108.82Z" style="fill:#101010"/><path d="M195,107.57a4.53,4.53,0,0,0,2.4-.48c.6.14,1.21.26,1.81.42a10.87,10.87,0,0,1,1.19.6A11,11,0,0,1,195,107.57Z" style="fill:#101010"/><path d="M104.41,72.88l1.4,0c4.85-.89,9.74-.33,14.62-.41a.31.31,0,0,1,.21.08c.13.37-.2.3-.37.39a112,112,0,0,0-13.46.49A4.37,4.37,0,0,1,104.41,72.88Z" style="fill:#383838"/><path d="M179.54,72.39c-1.74.6-3.45,1.09-4.83-1.14,1.71-.61,3.41.07,4.82-.78C182.49,71.09,178.43,71.76,179.54,72.39Z" style="fill:#181818"/><path d="M175.21,70a22.09,22.09,0,0,1-9.16,0A18.93,18.93,0,0,1,175.21,70Z" style="fill:#171717"/><path d="M172.8,78.64c-3.22.13-6.29-1.64-9.59-.47,1.29-1.19,3-.71,4.29-1.48a1.67,1.67,0,0,1,.69-.54,20.88,20.88,0,0,1,8.33.65c-1.81,1.25-3.65.15-5.16.89Z" style="fill:#363636"/><path d="M171.36,77.69c1.12-.75,2.49-.24,3.67-1H168c.06-1.1.93-.91,1.58-.93a18.63,18.63,0,0,1,5.62.45,12,12,0,0,1,6.3,1.46l-.43.45-.54,0C177.48,77.48,174.41,77.74,171.36,77.69Z" style="fill:#222"/><path d="M178.1,85.89a6.37,6.37,0,0,1-5.3,0L176,85C176.92,84.75,177.08,86.36,178.1,85.89Z" style="fill:#313131"/><path d="M175.17,76.23c-2.4.19-4.85-.41-7.2.48l-.47,0-.95-1.4,1.91,0C170.74,75.32,173.06,75,175.17,76.23Z" style="fill:#040404"/><path d="M129,86.35l-1.43.48c-2.34-.07-4.38-1.55-6.76-1.44C123.65,84.52,126.28,85.64,129,86.35Z" style="fill:#2a2a2a"/><path d="M65.84,239.58c-.07-2.42,2-3.14,3.45-4.37.33-.28.69.14.88.51C69.44,238.86,68.79,239.45,65.84,239.58Z" style="fill:#ec008c"/><path d="M201.7,229.94c1.54-1.18,2.26-.45,2.67,1.12.71,2.71-.86,5.24-4.13,6.62a2.25,2.25,0,0,1-.9-1.91,6.1,6.1,0,0,0,1.39-3.42Z" style="fill:#ec008c"/><path d="M199.77,217.39c2-1.93,3,.19,4.35,1l.42.52,0,1.35c-.3.9-.65,1.78-.88,2.7-.26,1.08-.67,2-1.94,2a2.19,2.19,0,0,1-2.11-1.94A10.56,10.56,0,0,1,199.77,217.39Z" style="fill:#ec008c"/><path d="M147.52,107.36c-3.56,9.15-2.83,19.6,6,25.37,8.1,5.31,15.62-7.67,7.58-12.95a3.2,3.2,0,0,1-.72-1.93c-.17-2.21.85-4.49,1.63-6.51,1.47-3.77-1.62-8.23-5.24-9.22-4.24-1.17-7.75,1.45-9.22,5.24Z" style="fill:#d3ab90"/></g><g id="Layer_3" data-name="Layer 3"><path d="M93.29,182.19s22.67-.35,37.92,6.23c0,0,4.13,4.74-1.43,12.58,0,0-2.94,10.12-19.34,7.23,0,0-17.73-1.08-19.77-9.07a10.34,10.34,0,0,0-.64-1.71C88.52,194.08,84.71,183.85,93.29,182.19Z" style="stroke:#231f20;stroke-miterlimit:10;fill:url(#linear-gradient)"/><path d="M190.45,182.69s-22.66-.34-37.91,6.24c0,0-4.13,4.74,1.43,12.58,0,0,2.93,10.12,19.33,7.23,0,0,17.74-1.08,19.78-9.07a10.45,10.45,0,0,1,.64-1.72C195.22,194.59,199,184.36,190.45,182.69Z" style="stroke:#231f20;stroke-miterlimit:10;fill:url(#linear-gradient-2)"/></g><g id="Layer_2-2" data-name="Layer 2"><ellipse cx="169.74" cy="169.94" rx="10.81" ry="3.75" style="fill:#fff"/><path d="M163.14,172.05a12.5,12.5,0,0,0,4.32,1,33.34,33.34,0,0,0,4.47,0,24.27,24.27,0,0,0,4.42-.54,9.87,9.87,0,0,0,4-1.79,8.07,8.07,0,0,1-3.91,2.3,19.81,19.81,0,0,1-4.52.71,25.81,25.81,0,0,1-4.56-.17A9.77,9.77,0,0,1,163.14,172.05Z"/><path d="M164.36,175.61a12.5,12.5,0,0,0,4.32,1,31.75,31.75,0,0,0,4.47,0,24.26,24.26,0,0,0,4.42-.53,9.87,9.87,0,0,0,4-1.79,8.11,8.11,0,0,1-3.91,2.3,20.37,20.37,0,0,1-4.52.71,25.81,25.81,0,0,1-4.56-.17A9.73,9.73,0,0,1,164.36,175.61Z"/><path d="M171.9,178c1.11-.11,2.18,0,3.22-.09a7.12,7.12,0,0,0,3-.77,2.88,2.88,0,0,1-1.32,1.06,4.74,4.74,0,0,1-1.66.39A7.53,7.53,0,0,1,171.9,178Z"/><path d="M160.28,168.64c-.27.48-.52.83-.76,1.2s-.46.71-.76,1.18a1.59,1.59,0,0,1,.19-1.56A1.74,1.74,0,0,1,160.28,168.64Z"/><path d="M156.29,170.57a5.22,5.22,0,0,1,1.16-1.32c.44-.39.92-.73,1.39-1.08a23,23,0,0,1,3.06-1.74,20.29,20.29,0,0,1,6.85-1.89,15.35,15.35,0,0,1,3.64.16,10.29,10.29,0,0,1,3.47,1.27,9.69,9.69,0,0,1,2.74,2.39,10.72,10.72,0,0,1,1.6,3.14,17.52,17.52,0,0,0-2.31-2.46,11.17,11.17,0,0,0-2.74-1.68,13.17,13.17,0,0,0-6.24-.83,28.54,28.54,0,0,0-6.44,1.35c-1.06.35-2.12.72-3.16,1.15-.53.21-1,.44-1.55.68A6.74,6.74,0,0,0,156.29,170.57Z"/><path d="M157.08,169.79a3.19,3.19,0,0,1-.31.9,5.44,5.44,0,0,1-.45.76.48.48,0,0,0-.1.21.36.36,0,0,0,0,.22.52.52,0,0,0,.6.26.67.67,0,0,1-1,.14.9.9,0,0,1-.31-.6,1.08,1.08,0,0,1,.18-.64,4.69,4.69,0,0,1,.62-.7A3.44,3.44,0,0,1,157.08,169.79Z"/><path d="M161.6,167.1a4.41,4.41,0,0,1,2.06-2.47,3.73,3.73,0,0,1,.75-.33l.74-.25.75-.22.68-.18a12.41,12.41,0,0,0,2.47-.87,5.89,5.89,0,0,0,1.1-.71,5.7,5.7,0,0,0,.51-.48,3.7,3.7,0,0,0,.24-.29.4.4,0,0,1,.22-.17c.15,0,.19.16.11.18s-.09-.07-.06,0,0,.06,0,.12,0,.27,0,.41a3.71,3.71,0,0,1-.21.81,4.52,4.52,0,0,1-1,1.41,6.32,6.32,0,0,1-2.91,1.55,7.64,7.64,0,0,1-.77.17l-.69.13c-.44.09-1,.1-1.37.2A10.4,10.4,0,0,0,161.6,167.1Z"/><path d="M171.55,165.8a4.43,4.43,0,0,1,3-1.09,2.91,2.91,0,0,1,.81.09c.26,0,.51.1.77.16l.76.18.68.2a12.63,12.63,0,0,0,2.57.49,5.83,5.83,0,0,0,1.31-.06,4.44,4.44,0,0,0,.68-.16,2.42,2.42,0,0,0,.35-.12.36.36,0,0,1,.28,0c.13.06.08.22,0,.21s0-.11,0-.06,0,0,0,.11a3.26,3.26,0,0,1-.22.34,3.41,3.41,0,0,1-.6.6,4.29,4.29,0,0,1-1.54.73,6.3,6.3,0,0,1-3.29-.13q-.39-.1-.75-.24l-.66-.24c-.43-.15-.89-.41-1.29-.52A10.19,10.19,0,0,0,171.55,165.8Z"/><path d="M166.9,165.84a4.43,4.43,0,0,1,2.37-2.19,3.48,3.48,0,0,1,.78-.24c.25-.06.51-.1.77-.15l.77-.12.69-.09a12,12,0,0,0,2.56-.55,5.89,5.89,0,0,0,1.19-.57,3.65,3.65,0,0,0,.56-.41l.28-.25a.34.34,0,0,1,.24-.14c.15,0,.17.18.08.19s-.08-.08-.05,0v.12a2.79,2.79,0,0,1-.07.4,3.81,3.81,0,0,1-.31.79,4.42,4.42,0,0,1-1.13,1.27,6.43,6.43,0,0,1-3.09,1.17c-.26,0-.52.06-.78.07l-.7,0c-.45,0-1,0-1.39,0A10.53,10.53,0,0,0,166.9,165.84Z"/><path d="M176.63,167.18a10.1,10.1,0,0,1,4,1.17,9.22,9.22,0,0,0,1.56.57,4,4,0,0,0,1.9.05,2.33,2.33,0,0,1-1.85,1.52,4,4,0,0,1-2.42-.31,6.27,6.27,0,0,1-1.8-1.25A6.65,6.65,0,0,1,176.63,167.18Z"/><path d="M165.05,170.87c2,3.07,8.78,1.59,9-.62a3.56,3.56,0,0,0,.24-1.12,3.72,3.72,0,0,0-1.3-2.9h0s-2.51-1.72-7-.15h0a3.74,3.74,0,0,0-1.43,3.51A3.56,3.56,0,0,0,165.05,170.87Z" style="fill:#00aeef;stroke:#000;stroke-miterlimit:10;stroke-width:0.9169445259410551px"/><path d="M179.37,167.82c.07.53.49.85.8,1.24s.69.72,1.06,1.05a7.89,7.89,0,0,0,1.11.91,1.63,1.63,0,0,0,1.34.34,1.27,1.27,0,0,1-.31.3,1.37,1.37,0,0,1-.44.16,2,2,0,0,1-.91-.09,3.84,3.84,0,0,1-1.48-.89,5.13,5.13,0,0,1-1-1.35,3.12,3.12,0,0,1-.29-.81C179.21,168.4,179.14,168.05,179.37,167.82Z"/><path d="M178.87,168.57c.07.53.49.85.8,1.24s.69.72,1.05,1.05a8.5,8.5,0,0,0,1.11.91,1.6,1.6,0,0,0,1.35.33,1.58,1.58,0,0,1-.32.31,1.29,1.29,0,0,1-.44.16,2,2,0,0,1-.91-.09,3.73,3.73,0,0,1-1.47-.89,5,5,0,0,1-1-1.35,3.72,3.72,0,0,1-.29-.81C178.7,169.15,178.63,168.8,178.87,168.57Z"/><ellipse cx="169.44" cy="169.17" rx="2.51" ry="2.11"/><ellipse cx="172.31" cy="167.74" rx="1.06" ry="0.89" style="fill:#fff"/><ellipse cx="166.65" cy="168.92" rx="0.45" ry="0.38" style="fill:#fff"/><ellipse cx="114.67" cy="169.85" rx="10.81" ry="3.75" style="fill:#fff"/><path d="M121.28,172a9.81,9.81,0,0,1-4.27,1.57,25.74,25.74,0,0,1-4.56.17,20.37,20.37,0,0,1-4.52-.71,8.11,8.11,0,0,1-3.91-2.3,9.87,9.87,0,0,0,4,1.79,24.26,24.26,0,0,0,4.42.53,31.75,31.75,0,0,0,4.47,0A12.61,12.61,0,0,0,121.28,172Z"/><path d="M120.06,175.52a9.81,9.81,0,0,1-4.27,1.57,25.74,25.74,0,0,1-4.56.17,21.17,21.17,0,0,1-4.52-.71,8.21,8.21,0,0,1-3.91-2.31,9.79,9.79,0,0,0,4,1.8,24.05,24.05,0,0,0,4.42.53,31.61,31.61,0,0,0,4.46,0A12.61,12.61,0,0,0,120.06,175.52Z"/><path d="M112.52,177.88a7.44,7.44,0,0,1-3.27.6,4.74,4.74,0,0,1-1.66-.39,2.93,2.93,0,0,1-1.32-1.06,7.15,7.15,0,0,0,3,.77C110.33,177.87,111.4,177.78,112.52,177.88Z"/><path d="M124.13,168.55a1.77,1.77,0,0,1,1.34.82,1.64,1.64,0,0,1,.19,1.56c-.31-.47-.52-.82-.77-1.18S124.4,169,124.13,168.55Z"/><path d="M128.12,170.47a6.55,6.55,0,0,0-1.46-.87c-.52-.24-1-.47-1.56-.68-1-.43-2.1-.8-3.16-1.15a28.57,28.57,0,0,0-6.43-1.35,13.19,13.19,0,0,0-6.25.83,10.93,10.93,0,0,0-2.73,1.68,17.7,17.7,0,0,0-2.32,2.47,10.65,10.65,0,0,1,1.6-3.15,9.59,9.59,0,0,1,2.75-2.39,10.54,10.54,0,0,1,3.46-1.27,15.41,15.41,0,0,1,3.65-.16,20.23,20.23,0,0,1,6.84,1.89,23,23,0,0,1,3.06,1.74c.48.35,1,.69,1.39,1.08A4.92,4.92,0,0,1,128.12,170.47Z"/><path d="M127.33,169.68a3.24,3.24,0,0,1,.78.56,4.12,4.12,0,0,1,.61.69,1.08,1.08,0,0,1,.18.64.83.83,0,0,1-.3.6.68.68,0,0,1-1-.14.54.54,0,0,0,.61-.26.43.43,0,0,0,0-.22.53.53,0,0,0-.1-.21,6.63,6.63,0,0,1-.45-.76A3.54,3.54,0,0,1,127.33,169.68Z"/><path d="M122.82,167a10.54,10.54,0,0,0-2.66-1c-.4-.1-.93-.11-1.38-.2l-.69-.13c-.25,0-.51-.1-.76-.16a6.49,6.49,0,0,1-2.92-1.55,4.33,4.33,0,0,1-1-1.41,4,4,0,0,1-.22-.82,2.84,2.84,0,0,1,0-.41c0-.06,0-.09,0-.12s-.09,0-.06,0,0-.2.11-.18a.31.31,0,0,1,.22.17l.24.28a4.55,4.55,0,0,0,.51.48,6.62,6.62,0,0,0,1.1.71,12,12,0,0,0,2.47.87l.68.18.75.22.75.25a3.66,3.66,0,0,1,.74.33A4.43,4.43,0,0,1,122.82,167Z"/><path d="M112.86,165.69a10.58,10.58,0,0,0-2.81.46c-.4.12-.86.37-1.29.52l-.66.24c-.24.09-.49.17-.74.24a6.34,6.34,0,0,1-3.3.13,4.13,4.13,0,0,1-1.54-.73,3,3,0,0,1-.59-.6,3.39,3.39,0,0,1-.23-.34.28.28,0,0,0,0-.11c0-.05-.09,0,0,.06s-.13-.15,0-.21a.36.36,0,0,1,.28,0l.35.13a6.12,6.12,0,0,0,.69.15,5.78,5.78,0,0,0,1.31.06,12.1,12.1,0,0,0,2.57-.49l.67-.19.76-.19c.26-.06.51-.12.77-.16a3.47,3.47,0,0,1,.81-.09A4.41,4.41,0,0,1,112.86,165.69Z"/><path d="M117.51,165.73a10.74,10.74,0,0,0-2.77-.68c-.41,0-.93,0-1.39,0l-.7,0c-.26,0-.52,0-.78-.07a6.43,6.43,0,0,1-3.09-1.17,4.26,4.26,0,0,1-1.12-1.27,3.47,3.47,0,0,1-.32-.78c0-.14,0-.28-.07-.41a.47.47,0,0,0,0-.12s-.09,0,0,0-.07-.18.08-.19a.34.34,0,0,1,.24.14,3.15,3.15,0,0,0,.28.25,3.55,3.55,0,0,0,.57.41,5.57,5.57,0,0,0,1.18.57,12.1,12.1,0,0,0,2.56.55l.69.09.78.12.77.16a3.11,3.11,0,0,1,.78.23A4.45,4.45,0,0,1,117.51,165.73Z"/><path d="M107.78,167.07a7,7,0,0,1-3.14,3,4,4,0,0,1-2.42.31,2.35,2.35,0,0,1-1.85-1.51,4.07,4.07,0,0,0,1.9-.06,9,9,0,0,0,1.57-.57A10,10,0,0,1,107.78,167.07Z"/><path d="M119.36,170.78c-2,3.07-8.77,1.59-9-.62a3.32,3.32,0,0,1-.25-1.13,3.78,3.78,0,0,1,1.3-2.89h0s2.51-1.73,7-.16h0a3.76,3.76,0,0,1,1.43,3.52A3.56,3.56,0,0,1,119.36,170.78Z" style="fill:#00aeef;stroke:#000;stroke-miterlimit:10;stroke-width:0.9169445259410551px"/><path d="M105,167.71c.23.23.16.58.13.86a3.33,3.33,0,0,1-.29.82,5.08,5.08,0,0,1-1,1.34,3.8,3.8,0,0,1-1.47.89,1.9,1.9,0,0,1-.92.09,1.76,1.76,0,0,1-.44-.15,1.52,1.52,0,0,1-.31-.31,1.66,1.66,0,0,0,1.35-.34,8.5,8.5,0,0,0,1.11-.91c.36-.33.71-.69,1-1.05S105,168.24,105,167.71Z"/><path d="M105.55,168.46c.23.23.16.58.13.86a3.12,3.12,0,0,1-.29.81,5,5,0,0,1-1,1.35,3.84,3.84,0,0,1-1.48.89,2,2,0,0,1-.91.09,1.37,1.37,0,0,1-.44-.16,1.11,1.11,0,0,1-.31-.3,1.63,1.63,0,0,0,1.34-.34,7.89,7.89,0,0,0,1.11-.91c.37-.33.71-.69,1.06-1.05S105.48,169,105.55,168.46Z"/><ellipse cx="114.97" cy="169.08" rx="2.51" ry="2.11"/><ellipse cx="112.11" cy="167.65" rx="1.06" ry="0.89" style="fill:#fff"/><ellipse cx="117.76" cy="168.83" rx="0.45" ry="0.38" style="fill:#fff"/></g><g id="Layer_4" data-name="Layer 4"><path d="M275.29,110.82c-1.18-8-5.9-14.5-11.68-20a47,47,0,0,0-21.88-11.88,21.79,21.79,0,0,0-3.67-.46c2-12.82,2.31-25.93-5.44-37.21-8.11-11.82-23.3-20-36.61-24.8-24-8.69-59.29-5.83-70,20.76a1.65,1.65,0,0,0-.11.83,9.58,9.58,0,0,0-2.37-3.18C108.9,21.71,87.33,25,72.35,35.58A37.4,37.4,0,0,0,58.05,55a32.88,32.88,0,0,0-1.3,7.32,38.12,38.12,0,0,0-1.39,6.78c-9.25-4-21-1.78-29.8,2.8-11.39,6-20.73,16.19-24.1,28.56-5.16,18.91,3.7,43.11,21.48,52.15a33,33,0,0,0-3.15,14.72,26,26,0,0,0-.65,7.93c.62,9.06,5.6,17.05,12.27,23.11a40.64,40.64,0,0,0,14,8.21,30.5,30.5,0,0,1,3.1-3.82,50.55,50.55,0,0,1,2.56-6.38,2.1,2.1,0,0,1,1.18-1.14,2.19,2.19,0,0,1,.84-.87,1.9,1.9,0,0,1,.62-1c1.76-1.39,3.06-3.26,5.09-4.3a2.75,2.75,0,0,1,1.48-.28c2.83-1.37,6.46-2.2,8.42.27.22-.05.44-.11.66-.14a5.92,5.92,0,0,1,3.42-4.78h0c1.31-1.64,4-1.88,5.87-1.39a5.35,5.35,0,0,1,.74.25,3.78,3.78,0,0,1,.52-1.32c1.06-1.68,3.17-2.36,5.12-2.47a2.53,2.53,0,0,1,1-.23,28.44,28.44,0,0,1,3.69,0,26.3,26.3,0,0,1,3.07-.26c7-13.6,6.52-30.77-5-41.69a39.81,39.81,0,0,0,4.8-5.85,44,44,0,0,0,8.5-12.82,22.5,22.5,0,0,0,1.54-5.63,40.77,40.77,0,0,0,15.1-3.9,34.25,34.25,0,0,0,8.64-6.08,24.28,24.28,0,0,0,12.45-5.56c.51.59,1.06,1.17,1.62,1.72-2.8,4.88-4.5,10.35-3.78,16a18.36,18.36,0,0,0,8.12,13c4.68,3.2,10.34,6.35,16.2,5.47a3.25,3.25,0,0,0,.71-6.22c-6.54-2.54-10.16-7-8.4-14a22,22,0,0,1,2-5.2q1.6.57,3.27,1a55.93,55.93,0,0,0,14.13,3.46c.88.17,1.76.3,2.63.4A37.07,37.07,0,0,0,178,124.45c.59,9.8,5.67,18.16,13.06,24-5.41,9.92-6,22,.32,31.64a2.63,2.63,0,0,1,.58-.07c5-.08,12.67-2.3,17,1a2.7,2.7,0,0,1,.72.8,5.91,5.91,0,0,1,1.66,1.17,6,6,0,0,1,2.7,2.28,34,34,0,0,1,8.94,1.56,19.85,19.85,0,0,1,7.47,4.79,41,41,0,0,0,19.24-9.76c7-6.63,11.6-14.78,15.35-23.54C268,151.52,269.5,144,267.87,137a7.94,7.94,0,0,0,3.67-2.51C276.16,129.07,276.29,117.57,275.29,110.82Z"/><path d="M270.89,112.08c-1.14-7.68-5.67-13.94-11.23-19.24a45.1,45.1,0,0,0-21-11.43,21.71,21.71,0,0,0-3.19-.42.29.29,0,0,1-.28-.33c1.84-12.22,2.1-24.7-5.28-35.45C222.09,33.86,207.49,26,194.7,21.39c-23-8.36-57-5.61-67.24,20a1.52,1.52,0,0,0-.1.8,9,9,0,0,0-2.29-3.06c-14.07-12.63-34.8-9.5-49.21.7A36,36,0,0,0,62.12,58.44a32.13,32.13,0,0,0-1.25,7,.09.09,0,0,1,0,0,37.46,37.46,0,0,0-1.27,6.11.29.29,0,0,1-.4.23c-8.84-3.69-20-1.5-28.28,2.85C20,80.43,11,90.24,7.74,102.13c-4.93,18.08,3.48,41.2,20.41,50a.28.28,0,0,1,.13.37,31.71,31.71,0,0,0-2.92,13.88s0,0,0,.06a25.35,25.35,0,0,0-.62,7.58c.6,8.71,5.39,16.39,11.8,22.21A38.83,38.83,0,0,0,48,203.35c.18-.2.37-.39.56-.59a50.55,50.55,0,0,1,2.56-6.38,20.83,20.83,0,0,1,2.64-3,8.8,8.8,0,0,1,2.91-1.78c.47-.24,4.13-3.88,4.62-3.84,2.83-1.36,5.5-1.16,7.46,1.31.22-.05.44-.11.66-.14a5.92,5.92,0,0,1,3.42-4.78h0c1.31-1.64,4-1.88,5.87-1.39a5.35,5.35,0,0,1,.74.25,3.78,3.78,0,0,1,.52-1.32c1.06-1.68,3.17-2.36,5.12-2.47a2.53,2.53,0,0,1,1-.23,28.58,28.58,0,0,1,3.7,0,32.5,32.5,0,0,1,5-.28c7.4-13.18,7.4-30.36-3.89-41.23a.28.28,0,0,1,0-.4,39.72,39.72,0,0,0,4.4-5.41s0,0,0,0a42.22,42.22,0,0,0,8.16-12.3,21.67,21.67,0,0,0,1.45-5.19.28.28,0,0,1,.26-.24,39,39,0,0,0,14.28-3.73,33.09,33.09,0,0,0,7.62-5.23,22.2,22.2,0,0,0,4.12-.71,7.08,7.08,0,0,0,3.22-1.65.37.37,0,0,0,.16-.28,20.29,20.29,0,0,0,6.12-1.77.5.5,0,0,0,.16-.11,1.28,1.28,0,0,1-.06,1.08,24.1,24.1,0,0,0-3.16,14.5,17.65,17.65,0,0,0,7.81,12.45c4.06,2.79,8.9,5.52,13.95,5.4a3.41,3.41,0,0,0,1.32-6.52c-5.66-2.49-8.69-6.65-7.1-13a21.3,21.3,0,0,1,1.82-4.77.29.29,0,0,1,.36-.14c1,.33,1.92.64,2.9.92h0a53.79,53.79,0,0,0,13.56,3.33h0c.76.15,1.52.26,2.28.36a.28.28,0,0,1,.25.26,36,36,0,0,0,2.54,10.9.11.11,0,0,1,0,.08c.57,9.31,5.37,17.28,12.37,22.91a.26.26,0,0,1,.07.35c-5.37,10-5.67,22.24,1.44,31.67a2.5,2.5,0,0,1,.69-.1c5-.08,12.67-2.3,17,1a2.7,2.7,0,0,1,.72.8,5.91,5.91,0,0,1,1.66,1.17,6,6,0,0,1,2.7,2.28c3.06.16,5.62-2.44,12,3.33,1.54,1.39.57-.13,2.09,1a39.31,39.31,0,0,0,18.14-9.29c6.76-6.38,11.14-14.2,14.74-22.63,2.78-6.49,4.2-13.63,2.73-20.25a.26.26,0,0,1,.18-.32,7.62,7.62,0,0,0,3.29-2.33C271.72,129.62,271.85,118.57,270.89,112.08Z" style="fill:#ff2387"/><path d="M229.06,120.59c-3.19,2.33-6.55,4.63-10.49,5.71a16.13,16.13,0,0,1-6.08.54,11.77,11.77,0,0,1-5.8-2.27,13.76,13.76,0,0,1-4.87-11.25,17.2,17.2,0,0,1,5.33-11.21,27.22,27.22,0,0,1,10.56-6.42A34.29,34.29,0,0,1,229.93,94a34.77,34.77,0,0,1,12,2.65,33,33,0,0,1,10.41,6.71c.71.76,1.48,1.48,2.14,2.29a26.38,26.38,0,0,1,1.87,2.54,18,18,0,0,1,2.52,5.93c.92,4.24.39,8.44-.26,12.38a47.44,47.44,0,0,1-3.38,11.75,29.4,29.4,0,0,1-7.33,9.91,41.4,41.4,0,0,1-22.07,9.53,39.45,39.45,0,0,1-12-.13,22.54,22.54,0,0,1-5.74-1.8,16.34,16.34,0,0,1-4.82-3.51A19.07,19.07,0,0,0,214,156.72a37.93,37.93,0,0,0,11.69-.53c7.67-1.36,15.1-4.58,20.71-9.8a28.5,28.5,0,0,0,6.51-9.26,44.8,44.8,0,0,0,3-11.13c.59-3.86,1-7.73.21-11.29s-3.05-6.62-5.76-9.25a32,32,0,0,0-20.51-8.68,31.51,31.51,0,0,0-11.25,1.39,26,26,0,0,0-9.76,5.61,15.3,15.3,0,0,0-5,9.65,12.09,12.09,0,0,0,3.83,10,10.36,10.36,0,0,0,5,2.29,15,15,0,0,0,5.73-.19C222.2,124.69,225.69,122.66,229.06,120.59Z"/><path d="M104.05,72.07a23.21,23.21,0,0,1-7.29,4.12,11.1,11.1,0,0,1-4.3.42A8.4,8.4,0,0,1,88.29,75a9.86,9.86,0,0,1-3.55-8,12.25,12.25,0,0,1,3.77-8c4.24-4.27,10.34-6.07,16.16-5.88a24.6,24.6,0,0,1,8.57,1.87,23.59,23.59,0,0,1,7.41,4.77,20.73,20.73,0,0,1,2.86,3.45,13.06,13.06,0,0,1,1.81,4.29,23,23,0,0,1-.19,8.81,34,34,0,0,1-2.41,8.29,21,21,0,0,1-5.24,7,29.09,29.09,0,0,1-15.62,6.61A27.22,27.22,0,0,1,93.41,98a16.09,16.09,0,0,1-4-1.33,11.63,11.63,0,0,1-3.33-2.52,13.15,13.15,0,0,0,7.48,3,26.89,26.89,0,0,0,8.1-.45,28.37,28.37,0,0,0,14.25-6.89,19.43,19.43,0,0,0,4.42-6.36,31.13,31.13,0,0,0,2-7.68,21.14,21.14,0,0,0,.13-7.71,12.89,12.89,0,0,0-3.9-6.23,22.42,22.42,0,0,0-21.73-5,17.81,17.81,0,0,0-6.69,3.8,10.41,10.41,0,0,0-3.45,6.49,8.21,8.21,0,0,0,2.53,6.8c1.87,1.68,4.74,2,7.34,1.5A24.62,24.62,0,0,0,104.05,72.07Z"/><path d="M230.25,172.38a13.81,13.81,0,0,1-4.2,3.14,10.83,10.83,0,0,1-5.33,1,7.61,7.61,0,0,1-5.16-2.49,4.25,4.25,0,0,1-.8-1.47,3.86,3.86,0,0,1-.08-1.75,5.72,5.72,0,0,1,1.45-2.82,13.19,13.19,0,0,1,4.69-3.19,24.63,24.63,0,0,1,5.25-1.54,29.88,29.88,0,0,1,10.83.14,20.3,20.3,0,0,1,5.27,1.84,8.42,8.42,0,0,1,2.43,1.93,8.92,8.92,0,0,1,1.54,2.62,17.23,17.23,0,0,1,.8,2.73,8.64,8.64,0,0,1,.07,3.05,8.42,8.42,0,0,1-3.18,5,23.34,23.34,0,0,1-9.83,4.31,25.83,25.83,0,0,1-5.26.57,14.22,14.22,0,0,1-5.15-.9,20.82,20.82,0,0,0,10-1.09,23.86,23.86,0,0,0,8.66-4.64,6.44,6.44,0,0,0,2.13-3.65,8.67,8.67,0,0,0-.9-4.3,5.61,5.61,0,0,0-2.73-3,17.8,17.8,0,0,0-4.49-1.48,27.64,27.64,0,0,0-9.77-.28,22,22,0,0,0-4.72,1.17,12.08,12.08,0,0,0-4,2.35,3.67,3.67,0,0,0-1,1.64,1.91,1.91,0,0,0,.34,1.63,5.92,5.92,0,0,0,3.78,2.22,10.11,10.11,0,0,0,4.84-.3A15.57,15.57,0,0,0,230.25,172.38Z"/><path d="M71.58,167a30.36,30.36,0,0,1-5.32,3.42A16.42,16.42,0,0,1,60,172.26a9.5,9.5,0,0,1-10-7.89,12.64,12.64,0,0,1,.91-6.8,18.17,18.17,0,0,1,3.69-5.68A22.28,22.28,0,0,1,66.5,146a30.12,30.12,0,0,1,9.9.17c.54.09,1.07.25,1.61.37a14.25,14.25,0,0,1,1.58.45l1.56.55c.52.19,1,.45,1.52.67a27.12,27.12,0,0,1,2.91,1.56,21.64,21.64,0,0,1,5,4.33,17.27,17.27,0,0,1,3.33,5.73A20.1,20.1,0,0,1,95,166.23a27.55,27.55,0,0,1-3,12.29,30.88,30.88,0,0,0,1.55-12.22,17.31,17.31,0,0,0-4.68-10.68c-.36-.34-.68-.71-1-1l-1.15-.93a10.5,10.5,0,0,0-1.2-.87c-.41-.26-.8-.57-1.24-.8a22.61,22.61,0,0,0-2.66-1.31c-.47-.18-.91-.41-1.38-.55l-1.42-.45A26.13,26.13,0,0,0,67,148.92a19.77,19.77,0,0,0-10.36,5C54,156.55,52,160.38,52.36,164a7.27,7.27,0,0,0,2.49,4.74,7.69,7.69,0,0,0,5.17,2,16.17,16.17,0,0,0,5.92-1.11A37.13,37.13,0,0,0,71.58,167Z"/><path d="M46.12,118.36a25.22,25.22,0,0,1,5.25,7.93,12.19,12.19,0,0,1,.75,4.85,8.87,8.87,0,0,1-1.65,4.76,10.31,10.31,0,0,1-4,3.18,12.78,12.78,0,0,1-5,1.17,14.42,14.42,0,0,1-9.39-3.51,20.64,20.64,0,0,1-5.92-8,29.36,29.36,0,0,1-.54-19.52A21.37,21.37,0,0,1,31,100.61a21,21,0,0,1,8.77-5,31.56,31.56,0,0,1,9.83-1.11,30.19,30.19,0,0,1,9.64,2.13,28.58,28.58,0,0,1,4.44,2.19,24.33,24.33,0,0,1,3.94,3,29.85,29.85,0,0,1,5.84,7.86,36.07,36.07,0,0,1,3.15,9.15,30,30,0,0,1,.44,9.59,17.64,17.64,0,0,1-1.23,4.65,13.13,13.13,0,0,1-2.68,3.92,14.75,14.75,0,0,0,3.09-8.64,29.34,29.34,0,0,0-1.11-9.18A31.25,31.25,0,0,0,66,103.67a24.61,24.61,0,0,0-3.63-2.62,27.42,27.42,0,0,0-4.07-1.89,28.16,28.16,0,0,0-8.8-1.75,28.49,28.49,0,0,0-8.89,1,17.7,17.7,0,0,0-12.1,11.66,27.65,27.65,0,0,0,.24,17.61,19.28,19.28,0,0,0,5,7.19,12.29,12.29,0,0,0,7.83,3.31A9.84,9.84,0,0,0,49.27,135c1.89-2.2,2.16-5.52,1.32-8.44A28,28,0,0,0,46.12,118.36Z"/><path d="M171.18,75.17c4.74-1.93,9.66-3.76,14.92-3.92a20.61,20.61,0,0,1,7.76,1.17,15.72,15.72,0,0,1,3.55,1.83,14.84,14.84,0,0,1,3,2.75,15.69,15.69,0,0,1,3.08,7.42A18.65,18.65,0,0,1,199,99.49a26,26,0,0,1-6.14,5.17,35.54,35.54,0,0,1-15.08,4.83A43.89,43.89,0,0,1,162,108a44.37,44.37,0,0,1-14.24-6.9,41.66,41.66,0,0,1-10.94-11.51c-.65-1.17-1.39-2.29-1.95-3.5a32.92,32.92,0,0,1-1.55-3.73A22.62,22.62,0,0,1,132,74.29c.19-5.51,2.15-10.56,4.18-15.3A62,62,0,0,1,144,45.35a38.87,38.87,0,0,1,12.13-10.14c9.37-5,20.16-6.45,30.47-5.46a51.26,51.26,0,0,1,15.09,3.65,29.38,29.38,0,0,1,6.69,3.93,21.11,21.11,0,0,1,5,5.83,24.34,24.34,0,0,0-12-9,49.89,49.89,0,0,0-14.91-2.92c-10.1-.63-20.47,1.16-29.22,6A37.51,37.51,0,0,0,146.11,47a58.39,58.39,0,0,0-7.28,13.14c-2,4.67-3.75,9.43-3.87,14.26s1.76,9.47,4.37,13.64a38.48,38.48,0,0,0,10.12,10.74,42.66,42.66,0,0,0,13.3,6.55,41.51,41.51,0,0,0,14.74,1.58,34,34,0,0,0,14.12-4.23A20.21,20.21,0,0,0,201,91.85c1.5-4.59,1.08-10-1.79-14a13.36,13.36,0,0,0-2.56-2.59,14.67,14.67,0,0,0-3.2-1.83A19.7,19.7,0,0,0,186.11,72C181,72,176,73.54,171.18,75.17Z"/><path d="M37.82,142.62a30.14,30.14,0,0,1-7.63-.54,25.65,25.65,0,0,1-7.32-2.57,18.39,18.39,0,0,1-6-5.15,18.81,18.81,0,0,1-3.24-7.31,26.43,26.43,0,0,1-.55-4,34.8,34.8,0,0,1,.09-4,46.61,46.61,0,0,1,1.33-7.73c.36-1.24.72-2.49,1.12-3.72L17,104.05l1.49-3.54a34.43,34.43,0,0,1,1.72-3.57A32.86,32.86,0,0,1,30.75,85.25a20.28,20.28,0,0,1,15.56-2.68l1.93.5,1.86.68a14.52,14.52,0,0,1,1.81.78c.58.28,1.19.55,1.75.87a44.38,44.38,0,0,1,6.4,4.38,71.7,71.7,0,0,1,10.62,11A92.3,92.3,0,0,0,59.17,91a34.25,34.25,0,0,0-13.32-6.08,19.64,19.64,0,0,0-7.09,0,18.25,18.25,0,0,0-6.48,2.73,30.47,30.47,0,0,0-9.5,10.76,31,31,0,0,0-1.61,3.27l-1.5,3.46-1.31,3.49-1.13,3.54a42.93,42.93,0,0,0-1.44,7.22,25.29,25.29,0,0,0,.12,7.22,17.33,17.33,0,0,0,2.56,6.63,17,17,0,0,0,5.15,5,25.67,25.67,0,0,0,6.77,3,32,32,0,0,0,3.66.87A29.64,29.64,0,0,0,37.82,142.62Z"/><path d="M194,113.2a22.89,22.89,0,0,0-4.12,8.2,13.87,13.87,0,0,0,.45,8.63,18.86,18.86,0,0,0,5.25,6.91,40.53,40.53,0,0,0,7.53,5l-.15-.07a46.51,46.51,0,0,0,9.45,2.25,39.62,39.62,0,0,0,9.73.2,27.65,27.65,0,0,0,4.76-.94,22.86,22.86,0,0,0,4.55-1.75,26.8,26.8,0,0,0,7.84-6.05,22.84,22.84,0,0,1-7.09,7.36,26.21,26.21,0,0,1-9.71,3.74,37.54,37.54,0,0,1-10.42.3,49.68,49.68,0,0,1-5.14-.87,36,36,0,0,1-5.05-1.47l-.09,0-.06,0a38.36,38.36,0,0,1-8-5.52,19.77,19.77,0,0,1-5.54-8.22,14.75,14.75,0,0,1,.35-9.82A19.94,19.94,0,0,1,194,113.2Z"/><path d="M201,154.14a44.21,44.21,0,0,0-2.41,4A19.47,19.47,0,0,0,197,162a19,19,0,0,0-.77,4.12c-.13.73-.07,1.46-.14,2.24s0,1.54-.09,2.41a11.22,11.22,0,0,1-1.35-2.1,10.59,10.59,0,0,1-.52-7.54,10.65,10.65,0,0,1,2.59-4.43A9,9,0,0,1,201,154.14Z"/><path d="M131.67,45.46a73.15,73.15,0,0,0-21.2-3.52,50.45,50.45,0,0,0-20.76,3.83,39.65,39.65,0,0,0-8.95,5.44,40.5,40.5,0,0,0-7.17,7.58,25.63,25.63,0,0,0-4.34,19.5,28.61,28.61,0,0,0,3.56,9.62,46,46,0,0,0,6.28,8.4,38.78,38.78,0,0,0,3.83,3.53,34.62,34.62,0,0,0,4.33,2.88A30.28,30.28,0,0,0,92,104.8l5.18,1.59a36,36,0,0,0,10.31,1.89,21.19,21.19,0,0,0,10.12-2,17.64,17.64,0,0,0,7.48-7.17,25.5,25.5,0,0,0,2.16-4.89A38.57,38.57,0,0,0,128.63,89a30.46,30.46,0,0,1-2.86,10.49,18.77,18.77,0,0,1-7.48,8.09,22.73,22.73,0,0,1-10.82,2.68,37,37,0,0,1-11-1.63l-5.24-1.42A30.91,30.91,0,0,1,86,105a35.7,35.7,0,0,1-4.75-3A42.56,42.56,0,0,1,77,98.28a47,47,0,0,1-6.76-8.88,31.67,31.67,0,0,1-4-10.59,29.31,29.31,0,0,1,.29-11.35,28.56,28.56,0,0,1,4.7-10.32,43.37,43.37,0,0,1,7.85-8,40.1,40.1,0,0,1,9.68-5.53,49.84,49.84,0,0,1,21.71-3.14,71.24,71.24,0,0,1,10.81,1.65A59.94,59.94,0,0,1,131.67,45.46Z"/><path d="M211.66,101.1a54.06,54.06,0,0,0,5.4-19.19,40,40,0,0,0-2.83-19.3,40.77,40.77,0,0,0-11.72-15.37,31.16,31.16,0,0,0-8.37-4.67,30.29,30.29,0,0,0-9.41-1.74,28.73,28.73,0,0,0-9.48,1.28,41.23,41.23,0,0,0-8.87,4,27.18,27.18,0,0,0-7.31,6.17,22.34,22.34,0,0,0-2.57,4c-.37.73-.63,1.39-1,2.21s-.76,1.65-1.11,2.34a26.51,26.51,0,0,0-2.61,9.27,17.11,17.11,0,0,0,1.77,9.33,19.69,19.69,0,0,0,6.55,7.16,40.78,40.78,0,0,0,9,4.45,35.69,35.69,0,0,1-9.4-3.78,20.86,20.86,0,0,1-7.41-7.12A18.71,18.71,0,0,1,149.8,70a28,28,0,0,1,2.44-10.16c.39-.82.65-1.5,1-2.25s.64-1.63,1-2.41A24.48,24.48,0,0,1,157,50.61a30.09,30.09,0,0,1,7.89-7,35.78,35.78,0,0,1,4.61-2.46,41.93,41.93,0,0,1,4.87-1.88,31.49,31.49,0,0,1,10.42-1.48,33.45,33.45,0,0,1,10.34,2A32.56,32.56,0,0,1,204.27,45a35.18,35.18,0,0,1,3.8,3.61c.61.61,1.16,1.28,1.71,2a24.49,24.49,0,0,1,1.6,2,38.21,38.21,0,0,1,5,9.09,40.2,40.2,0,0,1,2.12,20.35A52,52,0,0,1,216,92,46.43,46.43,0,0,1,211.66,101.1Z"/><path d="M37.91,159a22.94,22.94,0,0,0-2.72,10.4,26.06,26.06,0,0,0,2.27,10.23,51,51,0,0,0,5.36,9.34,107.59,107.59,0,0,0,7,8.61A36,36,0,0,1,41,190.42a34,34,0,0,1-6.3-9.66,22.37,22.37,0,0,1-1.84-11.55A17.1,17.1,0,0,1,37.91,159Z"/><path d="M43.26,165.13c.82,2.59,1.59,5.08,2.53,7.48a40.54,40.54,0,0,0,3.3,6.82A21.09,21.09,0,0,0,53.86,185a18.51,18.51,0,0,0,6.84,3.33A12.07,12.07,0,0,1,52.56,187a16.7,16.7,0,0,1-6-6,23.78,23.78,0,0,1-3-7.73A23.22,23.22,0,0,1,43.26,165.13Z"/><path d="M58.09,108A28.77,28.77,0,0,1,67,117.13a23.34,23.34,0,0,1,2.62,6.05,19.36,19.36,0,0,1,.56,6.71,17.39,17.39,0,0,1-1.95,6.45,12.17,12.17,0,0,1-.84,1.45,14.48,14.48,0,0,1-.93,1.38l-1,1.31c-.37.41-.76.79-1.13,1.19a31.59,31.59,0,0,1-10.62,7.06,58.39,58.39,0,0,0,8.86-8.61,20.29,20.29,0,0,0,4.64-10.54,21.38,21.38,0,0,0-2.26-11.34A48.08,48.08,0,0,0,58.09,108Z"/><path d="M214.69,161.31c-2.17.78-4.27,1.4-6.15,2.3a11.47,11.47,0,0,0-4.56,3.48,7.35,7.35,0,0,0-1.29,5.21,26.27,26.27,0,0,0,1.65,6.22,12,12,0,0,1-4-5.74,8.93,8.93,0,0,1-.32-3.8,8.29,8.29,0,0,1,1.49-3.66,10.73,10.73,0,0,1,6.23-3.94A16.12,16.12,0,0,1,214.69,161.31Z"/><path d="M165.51,67.72a21.5,21.5,0,0,1,8.61-8.64A21.22,21.22,0,0,1,180,56.84a23.69,23.69,0,0,1,6.34-.43A28,28,0,0,1,198.2,60.3a37,37,0,0,1,9.34,7.78,91.63,91.63,0,0,0-10.41-5.7,34.13,34.13,0,0,0-11-3,23.44,23.44,0,0,0-11,1.77A31.07,31.07,0,0,0,165.51,67.72Z"/><path d="M110,85.4a35.67,35.67,0,0,1-12.12,4.38,25.31,25.31,0,0,1-6.64.27A16.31,16.31,0,0,1,84.7,88a12.63,12.63,0,0,1-4.8-5.14l-.4-.78-.29-.82a10.64,10.64,0,0,1-.52-1.63L78.31,78l-.17-1.67A31.57,31.57,0,0,1,80,63.51c-.14,4.26-.3,8.5.47,12.47s2.55,7.57,5.78,9.44a14.16,14.16,0,0,0,5.4,1.82,28.65,28.65,0,0,0,6,.22A71.89,71.89,0,0,0,110,85.4Z"/><path d="M37,114.88a16.06,16.06,0,0,1,7.35-2.9,14.83,14.83,0,0,1,8.14,1.15,13.1,13.1,0,0,1,3.49,2.34,14,14,0,0,1,2.61,3.2,17,17,0,0,1,2.38,7.53,44,44,0,0,0-4.29-6.15c-.38-.47-.82-.86-1.22-1.29s-.85-.8-1.32-1.13a13.85,13.85,0,0,0-2.91-1.78,17.68,17.68,0,0,0-6.76-1.52A37,37,0,0,0,37,114.88Z"/><path d="M56.64,161.91a22.48,22.48,0,0,1,9.5-3.09,17.22,17.22,0,0,1,5.2.24,13.2,13.2,0,0,1,5,2,11.58,11.58,0,0,1,3.7,4,14.16,14.16,0,0,1,1.74,5,22.76,22.76,0,0,1-.77,10,48,48,0,0,0-1.51-9.45,12.83,12.83,0,0,0-4.84-7,12.18,12.18,0,0,0-4-1.76,22,22,0,0,0-4.5-.67A46.84,46.84,0,0,0,56.64,161.91Z"/><path d="M210.29,32A36.56,36.56,0,0,1,217,37a45.79,45.79,0,0,1,5.66,6.3,47.33,47.33,0,0,1,4.47,7.26,49.45,49.45,0,0,1,3.05,8,45.78,45.78,0,0,1,1.43,16.94,50.48,50.48,0,0,1-4.42,16.2,86.31,86.31,0,0,0,2.08-16.33c0-.68,0-1.36,0-2s0-1.35,0-2c-.1-1.34-.16-2.69-.36-4s-.39-2.66-.6-4-.57-2.63-1-3.91a54.32,54.32,0,0,0-6.55-14.74A62.83,62.83,0,0,0,216,38,57.62,57.62,0,0,0,210.29,32Z"/><path d="M245.17,92.13A28.81,28.81,0,0,1,255.89,98a34,34,0,0,1,4.38,4.43,35.68,35.68,0,0,1,3.46,5.21c.51.92.92,1.88,1.35,2.83s.77,2,1.05,3a32.66,32.66,0,0,1,1.23,6.1,33.72,33.72,0,0,1-.89,12.19,72.34,72.34,0,0,0-1.42-11.82,42.49,42.49,0,0,0-1.62-5.58,36.94,36.94,0,0,0-2.34-5.26,41.38,41.38,0,0,0-6.79-9.35A51.69,51.69,0,0,0,245.17,92.13Z"/><path d="M156.27,129.9a14.77,14.77,0,0,1-8.18-3.16,15,15,0,0,1-5.14-7.53,18.57,18.57,0,0,1-.25-9,23.41,23.41,0,0,1,3.32-8,83.69,83.69,0,0,0-1,8.35,23.69,23.69,0,0,0,.79,7.84,16.48,16.48,0,0,0,3.84,6.65A24.41,24.41,0,0,0,156.27,129.9Z"/><path d="M77.27,102.37a21.51,21.51,0,0,1,9.61,7.31,21,21,0,0,1,3,5.53,22.58,22.58,0,0,1,1.16,6.2,26.52,26.52,0,0,1-2.65,12.05,36.1,36.1,0,0,1-6.84,9.9,90.84,90.84,0,0,0,4.67-10.77A32.26,32.26,0,0,0,88,121.52,22.2,22.2,0,0,0,84.93,111,31,31,0,0,0,77.27,102.37Z"/><path d="M221.51,108.72a30.84,30.84,0,0,1,10.36,1.63,25.19,25.19,0,0,1,9.38,5.25,17.42,17.42,0,0,1,3.47,4.37,13.54,13.54,0,0,1,1.63,5.35,8,8,0,0,1,.08,1.38,12.57,12.57,0,0,1,0,1.38,19.35,19.35,0,0,1-.48,2.67,18.74,18.74,0,0,1-2.07,4.86,36.42,36.42,0,0,0,.61-5.08,16.43,16.43,0,0,0-.41-4.83,15.29,15.29,0,0,0-4.82-7.89,33.82,33.82,0,0,0-8.21-5.3A94.46,94.46,0,0,0,221.51,108.72Z"/></g><g id="Layer_5" data-name="Layer 5"><polygon points="204.31 139.03 190.79 133.19 186.5 147.29 180.96 133.57 168.01 140.4 173.7 126.83 159.67 122.41 173.26 116.94 166.37 103.85 179.89 109.69 184.18 95.6 189.71 109.32 202.67 102.48 196.97 116.05 211.01 120.47 197.42 125.94 204.31 139.03" style="fill:#231f20;stroke:#231f20;stroke-miterlimit:10;stroke-width:1.074778466102238px"/><polygon points="199.96 134.65 188.96 130.37 185.13 141.53 180.88 130.88 170.07 136.53 175.05 125.75 163.6 122.59 174.9 118 169.52 107.87 180.52 112.15 184.36 100.99 188.61 111.64 199.42 105.99 194.43 116.77 205.88 119.93 194.58 124.53 199.96 134.65" style="fill:#2bb673;stroke:#231f20;stroke-miterlimit:10;stroke-width:1.074778466102238px"/><polygon points="228.25 52.35 212.63 45.52 207.75 61.85 201.31 45.91 186.41 53.78 192.92 38.07 176.72 32.88 192.36 26.59 184.36 11.38 199.97 18.2 204.85 1.88 211.29 17.82 226.2 9.94 219.69 25.66 235.89 30.85 220.25 37.13 228.25 52.35" style="fill:#231f20;stroke:#231f20;stroke-miterlimit:10;stroke-width:1.2427040338516235px"/><polygon points="223.21 47.25 210.52 42.23 206.15 55.16 201.2 42.79 188.77 49.3 194.47 36.82 181.26 33.1 194.26 27.82 188.02 16.05 200.71 21.06 205.08 8.14 210.03 20.51 222.46 14 216.76 26.48 229.97 30.2 216.97 35.48 223.21 47.25" style="fill:#f9ed32;stroke:#231f20;stroke-miterlimit:10;stroke-width:1.2427040338516235px"/><polygon points="106.68 126.31 87.76 118.15 81.76 137.87 74.01 118.67 55.88 128.23 63.85 109.25 44.22 103.06 63.23 95.41 53.59 77.09 72.51 85.25 78.51 65.53 86.26 84.73 104.39 75.17 96.42 94.15 116.06 100.34 97.04 107.99 106.68 126.31" style="fill:#231f20;stroke:#231f20;stroke-miterlimit:10;stroke-width:3px"/><polygon points="102.28 121.63 85.66 115.15 79.85 132.03 73.42 115.92 57.08 124.47 64.62 108.17 47.31 103.39 64.39 96.44 56.26 81.13 72.89 87.6 78.69 70.73 85.12 86.83 101.46 78.28 93.93 94.59 111.24 99.37 94.15 106.31 102.28 121.63" style="fill:#1b75bc;stroke:#231f20;stroke-miterlimit:10;stroke-width:3px"/></g><g id="Layer_6" data-name="Layer 6"><path d="M158.94,231.2s.39-1.26,1.23-.88,1.18,4.14-1.23,1.76Z" style="fill:#231f20;opacity:0.25;mix-blend-mode:multiply"/><path d="M121.24,231.2s-.39-1.26-1.22-.88-1.18,4.14,1.22,1.76Z" style="fill:#231f20;opacity:0.25;mix-blend-mode:multiply"/><path d="M140.09,235.08a60.38,60.38,0,0,1-19.47-3.47s3.54,3.87,6,7.21c2.91,4.08,9.2,5.86,13.45,5.76,4.25.1,10.55-1.68,13.45-5.76,2.48-3.34,6-7.19,6-7.21A60.38,60.38,0,0,1,140.09,235.08Z" style="fill:#bd1e2d"/><path d="M153.85,234.48c0,4.25-6,8.05-13.76,8s-13.77-3.76-13.75-8v-.14a10.93,10.93,0,0,0,3.92.8c2.86.08,7,1.65,8.84,2.28a2.93,2.93,0,0,0,2,0c1.87-.63,6-2.2,8.85-2.28a11,11,0,0,0,3.92-.8Z" style="fill:#cc364b"/><path d="M159.56,231.61s-5.8,3-9.63,2.89c-2.87.05-7,1.26-8.85,1.74a3.7,3.7,0,0,1-2,0c-1.86-.48-6-1.69-8.84-1.74-3.84.07-9.65-2.84-9.64-2.89s1.5-.51,3.54-1.16c2.82-.87,6.71-2.18,8.85-1.95a28,28,0,0,1,5.28,1.25,5.45,5.45,0,0,0,3.61,0,27.68,27.68,0,0,1,5.27-1.25c2.15-.23,6,1.08,8.86,1.95C158.06,231.1,159.56,231.61,159.56,231.61Z" style="fill:#a0071d"/><path d="M159.56,231.61s-5.8,3-9.63,2.89c-2.87.05-7,1.26-8.85,1.74a3.7,3.7,0,0,1-2,0c-1.86-.48-6-1.69-8.84-1.74-3.84.07-9.65-2.84-9.64-2.89s1.5-.51,3.54-1.16a20.38,20.38,0,0,0,8.32,3.31c5.6.64,7.62,1.26,7.61,1.32s2-.68,7.62-1.32a20.44,20.44,0,0,0,8.32-3.31C158.06,231.1,159.56,231.61,159.56,231.61Z" style="fill:#7f0018"/><path d="M133.94,239.36c-.07.45-.83.72-1.71.59s-1.53-.6-1.47-1.06.84-.73,1.71-.6S134,238.9,133.94,239.36Z" style="fill:#fff"/><path d="M135.71,239.88c0,.23-.42.37-.86.3s-.76-.3-.73-.53.42-.36.86-.3S135.74,239.65,135.71,239.88Z" style="fill:#fff"/></g></g></g></svg>