<svg xmlns="http://www.w3.org/2000/svg" xmlns:xlink="http://www.w3.org/1999/xlink" viewBox="0 0 365.54 325.74"><defs><clipPath id="clip-path"><rect width="28.8" height="28.8" style="fill:none"/></clipPath><pattern id="Nueva_muestra_de_motivo_2" data-name="Nueva muestra de motivo 2" width="28.8" height="28.8" patternTransform="translate(-1.19)" patternUnits="userSpaceOnUse" viewBox="0 0 28.8 28.8"><rect width="28.8" height="28.8" style="fill:none"/><g style="clip-path:url(#clip-path)"><rect width="28.8" height="28.8" style="fill:#fff"/><path d="M28.8,31.39a2.59,2.59,0,1,0-2.59-2.59A2.59,2.59,0,0,0,28.8,31.39Z" style="fill:#d14c4c"/><path d="M14.4,31.39a2.59,2.59,0,1,0-2.59-2.59A2.59,2.59,0,0,0,14.4,31.39Z" style="fill:#d14c4c"/><path d="M0,31.39A2.59,2.59,0,0,0,2.59,28.8,2.59,2.59,0,0,0,0,26.21a2.59,2.59,0,1,0,0,5.18Z" style="fill:#d14c4c"/><path d="M28.8,17a2.59,2.59,0,1,0-2.59-2.59A2.59,2.59,0,0,0,28.8,17Z" style="fill:#d14c4c"/><path d="M14.4,17a2.59,2.59,0,1,0-2.59-2.59A2.59,2.59,0,0,0,14.4,17Z" style="fill:#d14c4c"/><path d="M0,17A2.59,2.59,0,0,0,2.59,14.4,2.59,2.59,0,0,0,0,11.81,2.59,2.59,0,0,0,0,17Z" style="fill:#d14c4c"/><path d="M28.8,2.59A2.59,2.59,0,0,0,31.39,0a2.59,2.59,0,1,0-5.18,0A2.59,2.59,0,0,0,28.8,2.59Z" style="fill:#d14c4c"/><path d="M14.4,2.59A2.59,2.59,0,0,0,17,0a2.59,2.59,0,1,0-5.18,0A2.59,2.59,0,0,0,14.4,2.59Z" style="fill:#d14c4c"/><path d="M0,2.59A2.59,2.59,0,0,0,2.59,0,2.59,2.59,0,0,0,0-2.59,2.59,2.59,0,0,0-2.59,0,2.59,2.59,0,0,0,0,2.59Z" style="fill:#d14c4c"/><path d="M-14.4,2.59A2.59,2.59,0,0,0-11.81,0,2.59,2.59,0,0,0-14.4-2.59,2.59,2.59,0,0,0-17,0,2.59,2.59,0,0,0-14.4,2.59Z" style="fill:#d14c4c"/><path d="M-14.4,0" style="fill:#d14c4c"/><path d="M7.2,24.19A2.59,2.59,0,1,0,4.61,21.6,2.59,2.59,0,0,0,7.2,24.19Z" style="fill:#d14c4c"/><path d="M21.6,24.19A2.59,2.59,0,1,0,19,21.6,2.59,2.59,0,0,0,21.6,24.19Z" style="fill:#d14c4c"/><path d="M7.2,9.79A2.59,2.59,0,1,0,4.61,7.2,2.59,2.59,0,0,0,7.2,9.79Z" style="fill:#d14c4c"/><path d="M21.6,9.79A2.59,2.59,0,1,0,19,7.2,2.59,2.59,0,0,0,21.6,9.79Z" style="fill:#d14c4c"/><path d="M-7.2,9.79A2.59,2.59,0,0,0-4.61,7.2,2.59,2.59,0,0,0-7.2,4.61,2.59,2.59,0,0,0-9.79,7.2,2.59,2.59,0,0,0-7.2,9.79Z" style="fill:#d14c4c"/><path d="M-7.2,7.2" style="fill:#d14c4c"/></g></pattern><pattern id="Nueva_muestra_de_motivo_2-3" data-name="Nueva muestra de motivo 2" width="28.8" height="28.8" patternTransform="translate(35.12 -6.25) scale(0.45)" patternUnits="userSpaceOnUse" viewBox="0 0 28.8 28.8"><rect width="28.8" height="28.8" style="fill:none"/><g style="clip-path:url(#clip-path)"><rect width="28.8" height="28.8" style="fill:#fff"/><path d="M28.8,31.39a2.59,2.59,0,1,0-2.59-2.59A2.59,2.59,0,0,0,28.8,31.39Z" style="fill:#d14c4c"/><path d="M14.4,31.39a2.59,2.59,0,1,0-2.59-2.59A2.59,2.59,0,0,0,14.4,31.39Z" style="fill:#d14c4c"/><path d="M0,31.39A2.59,2.59,0,0,0,2.59,28.8,2.59,2.59,0,0,0,0,26.21a2.59,2.59,0,1,0,0,5.18Z" style="fill:#d14c4c"/><path d="M28.8,17a2.59,2.59,0,1,0-2.59-2.59A2.59,2.59,0,0,0,28.8,17Z" style="fill:#d14c4c"/><path d="M14.4,17a2.59,2.59,0,1,0-2.59-2.59A2.59,2.59,0,0,0,14.4,17Z" style="fill:#d14c4c"/><path d="M0,17A2.59,2.59,0,0,0,2.59,14.4,2.59,2.59,0,0,0,0,11.81,2.59,2.59,0,0,0,0,17Z" style="fill:#d14c4c"/><path d="M28.8,2.59A2.59,2.59,0,0,0,31.39,0a2.59,2.59,0,1,0-5.18,0A2.59,2.59,0,0,0,28.8,2.59Z" style="fill:#d14c4c"/><path d="M14.4,2.59A2.59,2.59,0,0,0,17,0a2.59,2.59,0,1,0-5.18,0A2.59,2.59,0,0,0,14.4,2.59Z" style="fill:#d14c4c"/><path d="M0,2.59A2.59,2.59,0,0,0,2.59,0,2.59,2.59,0,0,0,0-2.59,2.59,2.59,0,0,0-2.59,0,2.59,2.59,0,0,0,0,2.59Z" style="fill:#d14c4c"/><path d="M-14.4,2.59A2.59,2.59,0,0,0-11.81,0,2.59,2.59,0,0,0-14.4-2.59,2.59,2.59,0,0,0-17,0,2.59,2.59,0,0,0-14.4,2.59Z" style="fill:#d14c4c"/><path d="M-14.4,0" style="fill:#d14c4c"/><path d="M7.2,24.19A2.59,2.59,0,1,0,4.61,21.6,2.59,2.59,0,0,0,7.2,24.19Z" style="fill:#d14c4c"/><path d="M21.6,24.19A2.59,2.59,0,1,0,19,21.6,2.59,2.59,0,0,0,21.6,24.19Z" style="fill:#d14c4c"/><path d="M7.2,9.79A2.59,2.59,0,1,0,4.61,7.2,2.59,2.59,0,0,0,7.2,9.79Z" style="fill:#d14c4c"/><path d="M21.6,9.79A2.59,2.59,0,1,0,19,7.2,2.59,2.59,0,0,0,21.6,9.79Z" style="fill:#d14c4c"/><path d="M-7.2,9.79A2.59,2.59,0,0,0-4.61,7.2,2.59,2.59,0,0,0-7.2,4.61,2.59,2.59,0,0,0-9.79,7.2,2.59,2.59,0,0,0-7.2,9.79Z" style="fill:#d14c4c"/><path d="M-7.2,7.2" style="fill:#d14c4c"/></g></pattern></defs><title>Asset 3</title><g id="Layer_2" data-name="Layer 2"><g id="objects"><path d="M29.63,104c1.16-.39,2.31-.77,3.44-1.22,2.09-.82,4-1.81,6.19-2.43,2.42-9.85,4.41-21.27-1-23C31.19,75.12,25.71,81.48,22.92,94c-1.09,4.87-2.2,9.34-2.43,13.63,0-.26,2.77-1.18,3.12-1.32,1-.42,2-.82,3-1.21S28.63,104.35,29.63,104Z" style="fill:none;stroke:#000;stroke-miterlimit:10;stroke-width:2.72064344571761px"/><path d="M89.83,42S66.71,57,62,63.09,55.14,87.57,49.7,93.69s-34,15-36.72,17.69-8.17,16,.4,19c8.16,3,9.53,2.27,10.48,7.48,0,0,2,7.48-2.72,8.84s-10.2,8.84-7.48,14.28c0,0-8.16,7.49-5.44,11.57s3.4,11.56.68,15.64-16.33,16.32,5.44,29.93,42.85,13.6,53.05,13.6c6.72-.8,30.18,55.42,27.42,72.63.93.07,75.47,47.7,96.54-3.05,1.13-2.74-3.57-61.15-3.58-64.14C187.69,200.42,198,193,198,193s-16.32-57.81-21.76-73.45S147.64,33.16,89.83,42Z" style="fill:#fcc8a0;stroke:#000;stroke-miterlimit:10;stroke-width:2.02118043215632px;opacity:0.8"/><path d="M80.27,81.45s-.91-5.89,3.62-8.16,32.2,8.61,38.55,28.57C122.44,101.86,114.73,77.37,80.27,81.45Z"/><path d="M39,103.67C43.6,90.45,51.7,81,62.13,85.08s8.16,22,3.63,33.1c-4.15,10.15-15,19.41-24.26,12.47C34.24,125.21,35.37,114.1,39,103.67Z" style="fill:none;stroke:#000;stroke-miterlimit:10;stroke-width:2.72064344571761px"/><path d="M23.81,136.77c1.21.83,2.36,1.67,3.52,2.5s2.31,1.63,3.51,2.33a12.87,12.87,0,0,0,3.7,1.63,3.6,3.6,0,0,0,1.9-.06A3.81,3.81,0,0,0,38.1,142a3.33,3.33,0,0,1-1.37,1.79,3.92,3.92,0,0,1-2.32.5,9.89,9.89,0,0,1-4.26-1.51,20.86,20.86,0,0,1-3.49-2.68A19.61,19.61,0,0,1,23.81,136.77Z"/><path d="M14.29,152.64s5.89-.68,9.07,2.5,2,8.61,4.53,12.92,5.22,7.71,4.31,8.84-20.08.9-24-4.31c0,0-3-4.76,5.39-10.88C13.61,161.71,11.34,156.72,14.29,152.64Z" style="fill:#d14c4c;stroke:#000;stroke-miterlimit:10;stroke-width:2.02118043215632px"/><path d="M15.65,162.84a34.05,34.05,0,0,1,3.71,2.27c1.19.81,2.33,1.69,3.46,2.58s2.21,1.84,3.25,2.84a28.12,28.12,0,0,1,3,3.2,61.28,61.28,0,0,1-7.06-5A52.56,52.56,0,0,1,15.65,162.84Z"/><path d="M90.92,120S73,113.87,67.57,108c0,0-1.36,6.35-1.59,9.07C66,117.05,83.44,121.58,90.92,120Z" style="fill:#fff;stroke:#000;stroke-miterlimit:10;stroke-width:2.02118043215632px"/><path d="M62.81,103.67l6.81,4.6c2.27,1.51,4.51,3,6.82,4.43,1.15.7,2.29,1.42,3.47,2.06s2.37,1.27,3.54,1.95c2.41,1.2,4.87,2.29,7.47,3.28a26.25,26.25,0,0,1-8.18-1.66,46.23,46.23,0,0,1-7.5-3.7,55.13,55.13,0,0,1-6.69-5A39.73,39.73,0,0,1,62.81,103.67Z"/><path d="M93,119.91c.29-1.36.55-2.74.76-4.12a25.5,25.5,0,0,0,.38-4.19,25.77,25.77,0,0,1,.75,4.21c.17,1.42.29,2.83.38,4.27Z"/><path d="M66.69,107.26c1.16-1.23,2.33-2.35,3.54-3.46s2.46-2.17,3.75-3.19a36.25,36.25,0,0,1,8.33-5.1,35.63,35.63,0,0,0-7.58,5.95c-1.14,1.14-2.23,2.32-3.28,3.52s-2.07,2.47-3,3.72Z"/><line x1="65.98" y1="117.05" x2="151.61" y2="147.5" style="fill:none;stroke:#000;stroke-miterlimit:10;stroke-width:2.72064344571761px"/><path d="M112,168.36a44.85,44.85,0,0,1-12.73,5.69,41.36,41.36,0,0,1-6.88,1.32,30.34,30.34,0,0,1-7-.06c2.32-.26,4.59-.55,6.84-1s4.48-.93,6.68-1.58,4.39-1.29,6.57-2S109.84,169.2,112,168.36Z"/><path d="M67.38,230.62c5.54,0,11.11-.1,16.66-.3s11.12-.52,16.66-1,11.07-1.09,16.54-2.07a74.68,74.68,0,0,0,8.12-1.88,22.42,22.42,0,0,0,7.5-3.51,22.42,22.42,0,0,1-7.41,3.78,75.51,75.51,0,0,1-8.1,2.16c-5.46,1.18-11,2-16.54,2.64s-11.1,1.17-16.67,1.56-11.14.71-16.74.88Z"/><path d="M172.13,148.78s17.41-10.65,26-2.94,4.53,26.3-6.35,28.57-16.78,5-20.4,7.7-16.78,12.7-22.22-2.72" style="fill:#fcc8a0;stroke:#000;stroke-miterlimit:10;stroke-width:2.02118043215632px;opacity:0.8"/><path d="M88.64,42S65.52,57,60.75,63.09,54,87.57,48.51,93.69s-34,15-36.72,17.69-8.18,16,.4,19c8.16,3,9.52,2.27,10.48,7.48,0,0,2,7.48-2.72,8.84S9.75,155.58,12.47,161c0,0-8.17,7.49-5.45,11.57s3.41,11.56.68,15.64-16.32,16.32,5.45,29.93S56,231.76,66.2,231.76c6.72-.8,30.18,55.42,27.42,72.63.93.07,75.47,47.7,96.53-3.05,1.14-2.74-3.57-61.15-3.57-64.14-.08-36.78,10.2-44.21,10.2-44.21S180.46,135.18,175,119.54,146.45,33.16,88.64,42Z" style="stroke:#000;stroke-miterlimit:10;stroke-width:2.02118043215632px;opacity:0.21;fill:url(#Nueva_muestra_de_motivo_2)"/><path d="M170.94,148.78s17.41-10.65,26-2.94,4.53,26.3-6.35,28.57-16.78,5-20.4,7.7-16.78,12.7-22.22-2.72" style="stroke:#000;stroke-miterlimit:10;stroke-width:2.02118043215632px;opacity:0.21;fill:url(#Nueva_muestra_de_motivo_2-3)"/><path d="M176.09,153.55s18.74-7.56,20.56-.61-1.82,16.33-11.19,17.23-18.44,7.26-23,9.38-5.44-4.84-4.84-6.35" style="fill:none;stroke:#000;stroke-miterlimit:10;stroke-width:2.02118043215632px"/><path d="M179.42,155.36s-1.51,7.26-5.75,10.28-9.06,2.12-10.58,4.23" style="fill:none;stroke:#000;stroke-miterlimit:10;stroke-width:2.02118043215632px"/><path d="M218.38,36.56S224.5-2.21,285.71,1.19s66,52.37,68,63.94-2,48.29,9.52,61.89a23.38,23.38,0,0,1-19.72-18.36s0,32,6.12,50.32S368,248.76,332,265.76c0,0-29.93,32.65-63.26-3.4,0,0,12.93,8.17,26.53,2,0,0-14.28-5.44-21.08-15.64,0,0-24.49,7.48-40.81-21.76,0,0,17.68,8.16,24.48-6.12s6.8-71.42,6.8-71.42Z" style="fill:#d14c4c;stroke:#000;stroke-miterlimit:10;stroke-width:1.96730065040483px"/><path d="M337.85,132.52a57.56,57.56,0,0,0,2,18c2.67,9.33,23.34,88.66-5.33,108,0,0,8.67-12,6.67-40S331.19,147.85,337.85,132.52Z" style="fill:#fff"/><path d="M330.52,153.85s-1.33,35.33,1.33,46.67,8.67,62.66-15.33,70.66c0,0,10.67-9.33,10.67-30.66S315.19,183.18,330.52,153.85Z" style="fill:#fff"/><path d="M317.85,127.68s6.5,16,1.5,30.5c-5.11,14.85-4.5,23-3.5,39,0,0-11-10-9.5-21.5S318.85,136.68,317.85,127.68Z" style="fill:#fff"/><path d="M250.35,237.68s19.5,11.5,26,4,11.5-32,8-49c0,0-7.11,37.5-15,41A53.07,53.07,0,0,1,250.35,237.68Z" style="fill:#fff"/><path d="M237.35,28.68s25-4,39.5,26,11,78,4,110-9.5,51-9.5,51-.5-54,2.5-78.5S278.85,36.68,237.35,28.68Z" style="fill:#fff"/><path d="M303.19,124.52s-6.67,48,0,69.33,3.33,57.33-11.34,64c0,0,6.67-21.33,5.34-34.67-.93-9.28-10-35.33-7.34-52.66S303.19,124.52,303.19,124.52Z" style="fill:#fff"/><path d="M280.19,44.6s19.95,18.14,14.51,71.65a71.53,71.53,0,0,0,10-33.56s9.07,10,3.63,43.53c0,0,12.7-24.48,10.88-48.06,0,0,10,28.11,7.26,59,0,0,15.41-35.37,4.53-75.27,0,0,6,21.76,12,35.82,0,0,3.37-22.22-6.61-47.61s-29-41.72-47.16-43.53c0,0,20,15.41,24.49,29.92,0,0-15.42-23.58-35.37-26.3,0,0,13.61,11.79,17.23,22.68,0,0-25.39-17.24-39.9-12.7C255.7,20.12,269.3,27.37,280.19,44.6Z" style="fill:#fff"/><path d="M119.08,25.68s30.6-12.24,95.89,6.8,84.34,150.31,2,172.07a7.78,7.78,0,0,0,8.17,6.8s-11.57,6.13-24.49,2c0,0-.68,4.09,4.76,6.81,0,0-29.92-6.81-32-33.33S164,151.5,164,151.5s-25.85,25.17-42.17,10.89c0,0,32.64-2.73,32-24.49s-4.08-42.17-36-61.89Z" style="fill:#d14c4c;stroke:#000;stroke-miterlimit:10;stroke-width:1.96730065040483px"/><path d="M225.19,49.18s32.66,30,32.66,66-16.66,57.34-22,61.34c0,0,15.45-36.57,11.34-60A257.69,257.69,0,0,0,225.19,49.18Z" style="fill:#fff"/><path d="M238.52,145.18s1.33,38-23.33,46.67A411.44,411.44,0,0,0,238.52,145.18Z" style="fill:#fff"/><path d="M264.52,136.52s-7.33,38.66-52.67,62C211.85,198.52,263.85,192.52,264.52,136.52Z" style="fill:#fff"/><path d="M140.16,19.56s53.05,40.81,32,129.22l19.72-2.72s27.21-59.17,1.36-122.42C193.21,23.64,167.37,14.8,140.16,19.56Z" style="fill:#526cff;stroke:#000;stroke-miterlimit:10;stroke-width:2.02118043215632px"/><path d="M140.16,19.56S110.92-9.69,84.39,11.4,83,96.41,134.72,91c0,0,2,3.4,15.64,3.4,0,0,46.93,13.6,59.85-14.28,0,0-28.56,14.28-49-12.24S149,27,140.16,19.56Z" style="fill:#d14c4c;stroke:#000;stroke-miterlimit:10;stroke-width:1.96730065040483px"/><path d="M96.59,55.6s11.79,26.3,51.69,27.21C148.28,82.81,111.1,74.65,96.59,55.6Z" style="fill:#fff"/><path d="M102.94,30.21s29,51.69,84.34,61.67C187.28,91.88,130.14,62,102.94,30.21Z" style="fill:#fff"/><circle cx="117.08" cy="267.51" r="10.27" style="fill:#d62800"/><circle cx="117.08" cy="267.51" r="18.04" style="fill:#d62800;opacity:0.4"/><circle cx="117.08" cy="267.51" r="25.77" style="fill:#d62800;opacity:0.39"/></g></g></svg>