<svg xmlns="http://www.w3.org/2000/svg" viewBox="0 0 387.36 326.05"><title>Asset 3</title><g id="Layer_2" data-name="Layer 2"><g id="Layer_3" data-name="Layer 3"><path d="M205.57,185.53a4.8,4.8,0,1,1,4.81-4.79A4.82,4.82,0,0,1,205.57,185.53Z" style="fill:#942884"/><path d="M193.59,163.93a4.8,4.8,0,1,1-4.81,4.8A4.83,4.83,0,0,1,193.59,163.93Z" style="fill:#942884"/><path d="M193.58,197.5a4.77,4.77,0,1,1,4.77-4.71A4.82,4.82,0,0,1,193.58,197.5Z" style="fill:#942884"/><path d="M181.62,185.5a4.77,4.77,0,1,1,4.73-4.75A4.81,4.81,0,0,1,181.62,185.5Z" style="fill:#942884"/><path d="M205.48,161.5a4.77,4.77,0,1,1,4.87-4.61A4.82,4.82,0,0,1,205.48,161.5Z" style="fill:#942884"/><path d="M222.35,168.73a4.77,4.77,0,1,1-4.71-4.77A4.82,4.82,0,0,1,222.35,168.73Z" style="fill:#942884"/><path d="M186.32,156.71a4.74,4.74,0,1,1-4.76-4.71A4.8,4.8,0,0,1,186.32,156.71Z" style="fill:#942884"/><path d="M210.32,204.73a4.74,4.74,0,1,1-4.74-4.73A4.8,4.8,0,0,1,210.32,204.73Z" style="fill:#942884"/><path d="M181.55,200a4.74,4.74,0,1,1-4.71,4.76A4.79,4.79,0,0,1,181.55,200Z" style="fill:#942884"/><path d="M157.6,185.47a4.74,4.74,0,1,1,4.72-4.76A4.81,4.81,0,0,1,157.6,185.47Z" style="fill:#942884"/><path d="M241.6,164a4.74,4.74,0,1,1-4.76,4.71A4.79,4.79,0,0,1,241.6,164Z" style="fill:#942884"/><path d="M169.59,164a4.74,4.74,0,1,1-4.75,4.72A4.79,4.79,0,0,1,169.59,164Z" style="fill:#942884"/><path d="M169.62,197.47a4.74,4.74,0,1,1,4.7-4.78A4.81,4.81,0,0,1,169.62,197.47Z" style="fill:#942884"/><path d="M222.32,192.7a4.74,4.74,0,1,1-4.77-4.7A4.8,4.8,0,0,1,222.32,192.7Z" style="fill:#942884"/><path d="M193.59,140a4.74,4.74,0,1,1-4.75,4.72A4.79,4.79,0,0,1,193.59,140Z" style="fill:#942884"/><path d="M234.32,156.76a4.74,4.74,0,1,1-4.71-4.76A4.8,4.8,0,0,1,234.32,156.76Z" style="fill:#942884"/><path d="M229.6,176a4.74,4.74,0,1,1-4.76,4.71A4.79,4.79,0,0,1,229.6,176Z" style="fill:#942884"/><path d="M157.53,200.06a4.68,4.68,0,1,1-4.63,4.66A4.67,4.67,0,0,1,157.53,200.06Z" style="fill:#942884"/><path d="M186.26,132.73a4.68,4.68,0,1,1-4.62-4.67A4.69,4.69,0,0,1,186.26,132.73Z" style="fill:#942884"/><path d="M210.26,132.79a4.68,4.68,0,1,1-4.56-4.73A4.69,4.69,0,0,1,210.26,132.79Z" style="fill:#942884"/><path d="M157.53,152.06a4.68,4.68,0,1,1-4.63,4.66A4.67,4.67,0,0,1,157.53,152.06Z" style="fill:#942884"/><path d="M169.64,149.41a4.68,4.68,0,1,1,4.62-4.68A4.68,4.68,0,0,1,169.64,149.41Z" style="fill:#942884"/><path d="M222.26,144.78a4.68,4.68,0,1,1-4.57-4.72A4.69,4.69,0,0,1,222.26,144.78Z" style="fill:#942884"/><path d="M150.26,168.83a4.68,4.68,0,1,1-4.52-4.77A4.67,4.67,0,0,1,150.26,168.83Z" style="fill:#942884"/><path d="M198.26,216.73a4.68,4.68,0,1,1-4.63-4.67A4.68,4.68,0,0,1,198.26,216.73Z" style="fill:#942884"/><path d="M145.6,188.06a4.68,4.68,0,1,1-4.7,4.59A4.67,4.67,0,0,1,145.6,188.06Z" style="fill:#942884"/><path d="M193.69,116.11a4.62,4.62,0,1,1-4.73,4.52A4.57,4.57,0,0,1,193.69,116.11Z" style="fill:#942884"/><path d="M246.2,144.71a4.62,4.62,0,1,1-4.64-4.6A4.56,4.56,0,0,1,246.2,144.71Z" style="fill:#942884"/><path d="M229.62,128.11A4.62,4.62,0,1,1,225,132.7,4.56,4.56,0,0,1,229.62,128.11Z" style="fill:#942884"/><path d="M133.54,176.11a4.62,4.62,0,1,1-4.58,4.66A4.57,4.57,0,0,1,133.54,176.11Z" style="fill:#942884"/><path d="M253.56,176.11a4.62,4.62,0,1,1-4.6,4.64A4.57,4.57,0,0,1,253.56,176.11Z" style="fill:#942884"/><path d="M169.56,221.35a4.62,4.62,0,1,1,4.64-4.6A4.56,4.56,0,0,1,169.56,221.35Z" style="fill:#942884"/><path d="M253.62,161.35a4.62,4.62,0,1,1,4.58-4.65A4.56,4.56,0,0,1,253.62,161.35Z" style="fill:#942884"/><path d="M246.2,192.76a4.62,4.62,0,1,1-4.59-4.65A4.56,4.56,0,0,1,246.2,192.76Z" style="fill:#942884"/><path d="M229.47,209.35a4.62,4.62,0,1,1,4.73-4.51A4.56,4.56,0,0,1,229.47,209.35Z" style="fill:#942884"/><path d="M222.2,216.71a4.62,4.62,0,1,1-4.64-4.6A4.56,4.56,0,0,1,222.2,216.71Z" style="fill:#942884"/><path d="M186.16,228.69a4.58,4.58,0,1,1-4.56-4.54A4.54,4.54,0,0,1,186.16,228.69Z" style="fill:#942884"/><path d="M217.53,116.15a4.59,4.59,0,1,1-4.53,4.58A4.52,4.52,0,0,1,217.53,116.15Z" style="fill:#942884"/><path d="M162.16,132.79a4.58,4.58,0,1,1-4.47-4.64A4.54,4.54,0,0,1,162.16,132.79Z" style="fill:#942884"/><path d="M133.58,152.15a4.59,4.59,0,1,1-4.58,4.53A4.53,4.53,0,0,1,133.58,152.15Z" style="fill:#942884"/><path d="M210.16,228.72a4.58,4.58,0,1,1-4.53-4.57A4.54,4.54,0,0,1,210.16,228.72Z" style="fill:#942884"/><path d="M145.53,140.15a4.59,4.59,0,1,1-4.53,4.57A4.53,4.53,0,0,1,145.53,140.15Z" style="fill:#942884"/><path d="M265.52,173.32a4.59,4.59,0,1,1,4.64-4.47A4.55,4.55,0,0,1,265.52,173.32Z" style="fill:#942884"/><path d="M145.55,221.32a4.59,4.59,0,1,1,4.61-4.5A4.55,4.55,0,0,1,145.55,221.32Z" style="fill:#942884"/><path d="M270.14,192.77a4.56,4.56,0,1,1-4.52-4.6A4.56,4.56,0,0,1,270.14,192.77Z" style="fill:#942884"/><path d="M133.54,209.29a4.56,4.56,0,1,1,4.6-4.52A4.56,4.56,0,0,1,133.54,209.29Z" style="fill:#942884"/><path d="M277.58,161.27a4.54,4.54,0,1,1,4.54-4.47A4.58,4.58,0,0,1,277.58,161.27Z" style="fill:#942884"/><path d="M258.14,204.77a4.56,4.56,0,1,1-4.52-4.6A4.56,4.56,0,0,1,258.14,204.77Z" style="fill:#942884"/><path d="M157.55,224.17a4.56,4.56,0,1,1-4.53,4.59A4.57,4.57,0,0,1,157.55,224.17Z" style="fill:#942884"/><path d="M229.53,224.19a4.54,4.54,0,1,1-4.49,4.53A4.59,4.59,0,0,1,229.53,224.19Z" style="fill:#942884"/><path d="M198.12,240.73a4.54,4.54,0,1,1-4.48-4.54A4.58,4.58,0,0,1,198.12,240.73Z" style="fill:#942884"/><path d="M174.14,120.71a4.56,4.56,0,1,1-4.58-4.54A4.56,4.56,0,0,1,174.14,120.71Z" style="fill:#942884"/><path d="M121.61,173.29a4.56,4.56,0,1,1,4.53-4.58A4.56,4.56,0,0,1,121.61,173.29Z" style="fill:#942884"/><path d="M258.14,132.69a4.56,4.56,0,1,1-4.6-4.52A4.56,4.56,0,0,1,258.14,132.69Z" style="fill:#942884"/><path d="M138.12,132.68a4.54,4.54,0,1,1-4.53-4.49A4.59,4.59,0,0,1,138.12,132.68Z" style="fill:#942884"/><path d="M246.14,120.76a4.56,4.56,0,1,1-4.53-4.59A4.56,4.56,0,0,1,246.14,120.76Z" style="fill:#942884"/><path d="M265.62,140.17a4.56,4.56,0,1,1-4.6,4.52A4.56,4.56,0,0,1,265.62,140.17Z" style="fill:#942884"/><path d="M126.14,192.78a4.56,4.56,0,1,1-4.51-4.61A4.56,4.56,0,0,1,126.14,192.78Z" style="fill:#942884"/><path d="M205.68,104.19a4.54,4.54,0,1,1-4.64,4.38A4.6,4.6,0,0,1,205.68,104.19Z" style="fill:#942884"/><path d="M246.14,216.76a4.56,4.56,0,1,1-4.53-4.59A4.56,4.56,0,0,1,246.14,216.76Z" style="fill:#942884"/><path d="M282.08,180.75a4.5,4.5,0,1,1-4.48-4.52A4.55,4.55,0,0,1,282.08,180.75Z" style="fill:#942884"/><path d="M109.55,185.23a4.5,4.5,0,1,1,4.53-4.47A4.57,4.57,0,0,1,109.55,185.23Z" style="fill:#942884"/><path d="M174.08,240.72a4.5,4.5,0,1,1-4.51-4.49A4.56,4.56,0,0,1,174.08,240.72Z" style="fill:#942884"/><path d="M181.75,104.23a4.5,4.5,0,1,1-4.67,4.33A4.57,4.57,0,0,1,181.75,104.23Z" style="fill:#942884"/><path d="M229.54,113.23a4.5,4.5,0,1,1,4.54-4.45A4.57,4.57,0,0,1,229.54,113.23Z" style="fill:#942884"/><path d="M150.08,120.71a4.5,4.5,0,1,1-4.52-4.48A4.55,4.55,0,0,1,150.08,120.71Z" style="fill:#942884"/><path d="M265.56,116.23a4.5,4.5,0,1,1-4.48,4.52A4.56,4.56,0,0,1,265.56,116.23Z" style="fill:#942884"/><path d="M126.08,144.7a4.5,4.5,0,1,1-4.54-4.47A4.56,4.56,0,0,1,126.08,144.7Z" style="fill:#942884"/><path d="M138.08,228.7a4.5,4.5,0,1,1-4.54-4.47A4.56,4.56,0,0,1,138.08,228.7Z" style="fill:#942884"/><path d="M217.74,236.29a4.44,4.44,0,1,1-4.6,4.25A4.44,4.44,0,0,1,217.74,236.29Z" style="fill:#942884"/><path d="M265.54,212.29a4.44,4.44,0,1,1-4.4,4.46A4.44,4.44,0,0,1,265.54,212.29Z" style="fill:#942884"/><path d="M121.63,221.17a4.44,4.44,0,1,1,4.39-4.46A4.44,4.44,0,0,1,121.63,221.17Z" style="fill:#942884"/><path d="M141.14,240.78a4.44,4.44,0,1,1,4.46,4.39A4.44,4.44,0,0,1,141.14,240.78Z" style="fill:#942884"/><path d="M253.75,104.29a4.44,4.44,0,1,1-4.6,4.24A4.44,4.44,0,0,1,253.75,104.29Z" style="fill:#942884"/><path d="M105.14,204.55a4.44,4.44,0,1,1,4.23,4.62A4.44,4.44,0,0,1,105.14,204.55Z" style="fill:#942884"/><path d="M282,132.77a4.44,4.44,0,1,1-4.37-4.48A4.44,4.44,0,0,1,282,132.77Z" style="fill:#942884"/><path d="M186,252.78a4.38,4.38,0,1,1-4.37-4.43A4.32,4.32,0,0,1,186,252.78Z" style="fill:#942884"/><path d="M277.63,200.35a4.38,4.38,0,1,1-4.43,4.36A4.32,4.32,0,0,1,277.63,200.35Z" style="fill:#942884"/><path d="M198,96.79a4.38,4.38,0,1,1-4.36-4.44A4.32,4.32,0,0,1,198,96.79Z" style="fill:#942884"/><path d="M217.51,101.11A4.38,4.38,0,1,1,222,96.77,4.33,4.33,0,0,1,217.51,101.11Z" style="fill:#942884"/><path d="M294,168.78a4.38,4.38,0,1,1-4.36-4.43A4.32,4.32,0,0,1,294,168.78Z" style="fill:#942884"/><path d="M114,156.69a4.38,4.38,0,1,1-4.45-4.34A4.32,4.32,0,0,1,114,156.69Z" style="fill:#942884"/><path d="M289.64,140.35a4.38,4.38,0,1,1-4.44,4.35A4.33,4.33,0,0,1,289.64,140.35Z" style="fill:#942884"/><path d="M162,108.79a4.38,4.38,0,1,1-4.35-4.44A4.32,4.32,0,0,1,162,108.79Z" style="fill:#942884"/><path d="M258,228.75a4.38,4.38,0,1,1-4.4-4.4A4.33,4.33,0,0,1,258,228.75Z" style="fill:#942884"/><path d="M97.65,164.39a4.34,4.34,0,1,1-4.41,4.24A4.29,4.29,0,0,1,97.65,164.39Z" style="fill:#942884"/><path d="M241.67,236.39a4.34,4.34,0,1,1-4.43,4.22A4.29,4.29,0,0,1,241.67,236.39Z" style="fill:#942884"/><path d="M241.57,101.08a4.35,4.35,0,1,1,4.35-4.31A4.3,4.3,0,0,1,241.57,101.08Z" style="fill:#942884"/><path d="M93.24,192.64a4.34,4.34,0,1,1,4.21,4.44A4.3,4.3,0,0,1,93.24,192.64Z" style="fill:#942884"/><path d="M209.92,252.63a4.34,4.34,0,1,1-4.41-4.24A4.29,4.29,0,0,1,209.92,252.63Z" style="fill:#942884"/><path d="M301.55,152.41a4.32,4.32,0,1,1-4.29,4.39A4.32,4.32,0,0,1,301.55,152.41Z" style="fill:#942884"/><path d="M289.55,188.41a4.32,4.32,0,1,1-4.29,4.39A4.32,4.32,0,0,1,289.55,188.41Z" style="fill:#942884"/><path d="M133.53,113.05a4.32,4.32,0,1,1,4.37-4.3A4.31,4.31,0,0,1,133.53,113.05Z" style="fill:#942884"/><path d="M277.6,113.05a4.32,4.32,0,1,1,4.3-4.37A4.32,4.32,0,0,1,277.6,113.05Z" style="fill:#942884"/><path d="M113.9,132.77a4.32,4.32,0,1,1-4.31-4.36A4.32,4.32,0,0,1,113.9,132.77Z" style="fill:#942884"/><path d="M165.26,96.63a4.32,4.32,0,1,1,4.25,4.42A4.32,4.32,0,0,1,165.26,96.63Z" style="fill:#942884"/><path d="M109.53,224.41a4.32,4.32,0,1,1-4.27,4.4A4.32,4.32,0,0,1,109.53,224.41Z" style="fill:#942884"/><path d="M157.54,248.41a4.32,4.32,0,1,1-4.28,4.39A4.32,4.32,0,0,1,157.54,248.41Z" style="fill:#942884"/><path d="M125.9,120.71a4.32,4.32,0,1,1-4.37-4.3A4.32,4.32,0,0,1,125.9,120.71Z" style="fill:#942884"/><path d="M97.58,149a4.3,4.3,0,1,1,4.29-4.26A4.34,4.34,0,0,1,97.58,149Z" style="fill:#942884"/><path d="M201.29,84.56A4.3,4.3,0,1,1,205.37,89,4.35,4.35,0,0,1,201.29,84.56Z" style="fill:#942884"/><path d="M121.61,236.44a4.3,4.3,0,1,1-4.32,4.23A4.34,4.34,0,0,1,121.61,236.44Z" style="fill:#942884"/><path d="M233.87,252.74a4.29,4.29,0,1,1-4.25-4.3A4.35,4.35,0,0,1,233.87,252.74Z" style="fill:#942884"/><path d="M305.87,180.76a4.29,4.29,0,1,1-4.24-4.32A4.34,4.34,0,0,1,305.87,180.76Z" style="fill:#942884"/><path d="M89.87,180.74a4.29,4.29,0,1,1-4.26-4.3A4.34,4.34,0,0,1,89.87,180.74Z" style="fill:#942884"/><path d="M101.87,216.78a4.29,4.29,0,1,1-4.22-4.34A4.35,4.35,0,0,1,101.87,216.78Z" style="fill:#942884"/><path d="M269.87,96.7a4.29,4.29,0,1,1-4.29-4.26A4.35,4.35,0,0,1,269.87,96.7Z" style="fill:#942884"/><path d="M293.87,120.73a4.29,4.29,0,1,1-4.27-4.29A4.34,4.34,0,0,1,293.87,120.73Z" style="fill:#942884"/><path d="M185.83,84.74a4.25,4.25,0,1,1-4.27-4.26A4.3,4.3,0,0,1,185.83,84.74Z" style="fill:#942884"/><path d="M85.59,161a4.25,4.25,0,1,1,4.24-4.29A4.3,4.3,0,0,1,85.59,161Z" style="fill:#942884"/><path d="M149.83,96.7a4.25,4.25,0,1,1-4.31-4.22A4.3,4.3,0,0,1,149.83,96.7Z" style="fill:#942884"/><path d="M229.6,80.48a4.25,4.25,0,1,1-4.27,4.26A4.31,4.31,0,0,1,229.6,80.48Z" style="fill:#942884"/><path d="M193.59,269a4.25,4.25,0,1,1,4.24-4.29A4.3,4.3,0,0,1,193.59,269Z" style="fill:#942884"/><path d="M301.54,128.48a4.25,4.25,0,1,1-4.21,4.32A4.31,4.31,0,0,1,301.54,128.48Z" style="fill:#942884"/><path d="M137.83,252.83a4.25,4.25,0,1,1-4.18-4.35A4.31,4.31,0,0,1,137.83,252.83Z" style="fill:#942884"/><path d="M289.53,212.55a4.18,4.18,0,1,1-4.13,4.23A4.16,4.16,0,0,1,289.53,212.55Z" style="fill:#942884"/><path d="M317.76,168.7a4.18,4.18,0,1,1-4.21-4.15A4.15,4.15,0,0,1,317.76,168.7Z" style="fill:#942884"/><path d="M253.61,80.55a4.18,4.18,0,1,1-4.21,4.15A4.15,4.15,0,0,1,253.61,80.55Z" style="fill:#942884"/><path d="M169.64,260.55a4.18,4.18,0,1,1-4.24,4.12A4.15,4.15,0,0,1,169.64,260.55Z" style="fill:#942884"/><path d="M317.76,144.7a4.18,4.18,0,1,1-4.21-4.15A4.15,4.15,0,0,1,317.76,144.7Z" style="fill:#942884"/><path d="M89.76,204.72a4.18,4.18,0,1,1-4.2-4.17A4.15,4.15,0,0,1,89.76,204.72Z" style="fill:#942884"/><path d="M281.76,228.77a4.18,4.18,0,1,1-4.14-4.22A4.15,4.15,0,0,1,281.76,228.77Z" style="fill:#942884"/><path d="M269.76,240.75a4.18,4.18,0,1,1-4.17-4.2A4.15,4.15,0,0,1,269.76,240.75Z" style="fill:#942884"/><path d="M253.63,248.6a4.13,4.13,0,1,1-4.18,4A4.08,4.08,0,0,1,253.63,248.6Z" style="fill:#942884"/><path d="M161.71,84.79a4.13,4.13,0,1,1-4-4.19A4.08,4.08,0,0,1,161.71,84.79Z" style="fill:#942884"/><path d="M301.58,200.6a4.13,4.13,0,1,1-4.13,4.08A4.08,4.08,0,0,1,301.58,200.6Z" style="fill:#942884"/><path d="M297.49,108.71a4.09,4.09,0,1,1,4.07,4.12A4.05,4.05,0,0,1,297.49,108.71Z" style="fill:#942884"/><path d="M97.54,116.64a4.1,4.1,0,1,1-4.05,4.13A4,4,0,0,1,97.54,116.64Z" style="fill:#942884"/><path d="M89.67,132.74a4.09,4.09,0,1,1-4.08-4.1A4.06,4.06,0,0,1,89.67,132.74Z" style="fill:#942884"/><path d="M289.56,100.83a4.1,4.1,0,1,1,4.11-4.07A4.05,4.05,0,0,1,289.56,100.83Z" style="fill:#942884"/><path d="M77.67,168.68a4.09,4.09,0,1,1-4.15-4A4.06,4.06,0,0,1,77.67,168.68Z" style="fill:#942884"/><path d="M77.67,192.7a4.09,4.09,0,1,1-4.12-4.06A4.07,4.07,0,0,1,77.67,192.7Z" style="fill:#942884"/><path d="M317.67,192.76a4.09,4.09,0,1,1-4.06-4.12A4.07,4.07,0,0,1,317.67,192.76Z" style="fill:#942884"/><path d="M197.67,72.77a4.09,4.09,0,1,1-4-4.13A4.07,4.07,0,0,1,197.67,72.77Z" style="fill:#942884"/><path d="M221.67,72.76a4.09,4.09,0,1,1-4.06-4.12A4.06,4.06,0,0,1,221.67,72.76Z" style="fill:#942884"/><path d="M145.6,260.64a4.1,4.1,0,1,1-4.11,4.08A4.05,4.05,0,0,1,145.6,260.64Z" style="fill:#942884"/><path d="M217.55,268.83a4.1,4.1,0,1,1,4.12-4.07A4.05,4.05,0,0,1,217.55,268.83Z" style="fill:#942884"/><path d="M109.56,112.83a4.1,4.1,0,1,1,4.11-4.08A4.06,4.06,0,0,1,109.56,112.83Z" style="fill:#942884"/><path d="M313.57,116.66a4.07,4.07,0,1,1-4.06,4A4.11,4.11,0,0,1,313.57,116.66Z" style="fill:#942884"/><path d="M245.65,72.77a4.07,4.07,0,1,1-4-4.11A4.09,4.09,0,0,1,245.65,72.77Z" style="fill:#942884"/><path d="M125.65,96.7a4.07,4.07,0,1,1-4.07-4A4.1,4.1,0,0,1,125.65,96.7Z" style="fill:#942884"/><path d="M97.68,236.66a4.07,4.07,0,1,1-4.17,3.94A4.11,4.11,0,0,1,97.68,236.66Z" style="fill:#942884"/><path d="M89.65,228.74a4.07,4.07,0,1,1-4-4.08A4.09,4.09,0,0,1,89.65,228.74Z" style="fill:#942884"/><path d="M277.6,88.8a4.07,4.07,0,1,1,4-4.06A4.11,4.11,0,0,1,277.6,88.8Z" style="fill:#942884"/><path d="M241.6,260.69a4,4,0,1,1-4.06,4.05A4.11,4.11,0,0,1,241.6,260.69Z" style="fill:#942884"/><path d="M173.62,72.72a4,4,0,1,1-4.08-4A4.11,4.11,0,0,1,173.62,72.72Z" style="fill:#942884"/><path d="M109.63,248.69a4,4,0,1,1-4.09,4A4.12,4.12,0,0,1,109.63,248.69Z" style="fill:#942884"/><path d="M137.62,84.77a4,4,0,1,1-4-4.08A4.11,4.11,0,0,1,137.62,84.77Z" style="fill:#942884"/><path d="M325.53,160.77a4,4,0,1,1,4.09-4A4.11,4.11,0,0,1,325.53,160.77Z" style="fill:#942884"/><path d="M77.62,144.75a4,4,0,1,1-4.05-4.06A4.11,4.11,0,0,1,77.62,144.75Z" style="fill:#942884"/><path d="M61.56,184.71a4,4,0,1,1,4-3.93A4,4,0,0,1,61.56,184.71Z" style="fill:#942884"/><path d="M185.56,276.79a4,4,0,1,1-3.89-4A4,4,0,0,1,185.56,276.79Z" style="fill:#942884"/><path d="M77.56,216.75a4,4,0,1,1-3.93-4A4,4,0,0,1,77.56,216.75Z" style="fill:#942884"/><path d="M265.63,76.71a4,4,0,1,1,3.93-4A4,4,0,0,1,265.63,76.71Z" style="fill:#942884"/><path d="M125.49,264.73a3.91,3.91,0,1,1-3.85-3.91A3.86,3.86,0,0,1,125.49,264.73Z" style="fill:#942884"/><path d="M209.49,276.67a3.91,3.91,0,1,1-3.91-3.85A3.87,3.87,0,0,1,209.49,276.67Z" style="fill:#942884"/><path d="M145.62,68.82a3.91,3.91,0,1,1-4,3.82A3.87,3.87,0,0,1,145.62,68.82Z" style="fill:#942884"/><path d="M301.63,232.64a3.91,3.91,0,1,1,3.86-3.9A3.86,3.86,0,0,1,301.63,232.64Z" style="fill:#942884"/><path d="M161.49,276.77a3.91,3.91,0,1,1-3.81-3.95A3.87,3.87,0,0,1,161.49,276.77Z" style="fill:#942884"/><path d="M289.58,244.64a3.91,3.91,0,1,1,3.91-3.85A3.86,3.86,0,0,1,289.58,244.64Z" style="fill:#942884"/><path d="M325.58,128.82a3.91,3.91,0,1,1-3.91,3.85A3.87,3.87,0,0,1,325.58,128.82Z" style="fill:#942884"/><path d="M325.58,184.64a3.91,3.91,0,1,1,3.91-3.85A3.86,3.86,0,0,1,325.58,184.64Z" style="fill:#942884"/><path d="M65.44,204.75a3.86,3.86,0,1,1-3.84-3.88A3.83,3.83,0,0,1,65.44,204.75Z" style="fill:#942884"/><path d="M229.55,56.87a3.87,3.87,0,1,1-3.83,3.89A3.82,3.82,0,0,1,229.55,56.87Z" style="fill:#942884"/><path d="M277.52,248.87a3.87,3.87,0,1,1-3.8,3.92A3.82,3.82,0,0,1,277.52,248.87Z" style="fill:#942884"/><path d="M209.44,60.79a3.86,3.86,0,1,1-3.8-3.92A3.83,3.83,0,0,1,209.44,60.79Z" style="fill:#942884"/><path d="M317.44,216.79a3.86,3.86,0,1,1-3.8-3.92A3.83,3.83,0,0,1,317.44,216.79Z" style="fill:#942884"/><path d="M313.55,92.87a3.87,3.87,0,1,1-3.83,3.89A3.82,3.82,0,0,1,313.55,92.87Z" style="fill:#942884"/><path d="M65.44,156.76a3.86,3.86,0,1,1-3.83-3.89A3.83,3.83,0,0,1,65.44,156.76Z" style="fill:#942884"/><path d="M89.42,108.79a3.84,3.84,0,1,1-3.73-3.9A3.86,3.86,0,0,1,89.42,108.79Z" style="fill:#942884"/><path d="M73.52,116.89a3.84,3.84,0,1,1-3.78,3.84A3.86,3.86,0,0,1,73.52,116.89Z" style="fill:#942884"/><path d="M253.53,64.57a3.84,3.84,0,1,1,3.89-3.73A3.86,3.86,0,0,1,253.53,64.57Z" style="fill:#942884"/><path d="M301.57,88.57a3.84,3.84,0,1,1,3.85-3.77A3.86,3.86,0,0,1,301.57,88.57Z" style="fill:#942884"/><path d="M101.42,96.73a3.84,3.84,0,1,1-3.78-3.84A3.85,3.85,0,0,1,101.42,96.73Z" style="fill:#942884"/><path d="M181.64,64.57a3.84,3.84,0,1,1,3.78-3.84A3.85,3.85,0,0,1,181.64,64.57Z" style="fill:#942884"/><path d="M269.39,264.76a3.81,3.81,0,1,1-3.81-3.83A3.89,3.89,0,0,1,269.39,264.76Z" style="fill:#942884"/><path d="M325.54,208.54a3.81,3.81,0,1,1,3.85-3.8A3.89,3.89,0,0,1,325.54,208.54Z" style="fill:#942884"/><path d="M325.59,112.54a3.81,3.81,0,1,1,3.8-3.85A3.87,3.87,0,0,1,325.59,112.54Z" style="fill:#942884"/><path d="M113.39,84.78a3.81,3.81,0,1,1-3.79-3.85A3.88,3.88,0,0,1,113.39,84.78Z" style="fill:#942884"/><path d="M137.39,276.73a3.81,3.81,0,1,1-3.84-3.8A3.88,3.88,0,0,1,137.39,276.73Z" style="fill:#942884"/><path d="M233.39,276.69a3.81,3.81,0,1,1-3.88-3.76A3.88,3.88,0,0,1,233.39,276.69Z" style="fill:#942884"/><path d="M289.54,76.54a3.81,3.81,0,1,1,3.85-3.8A3.89,3.89,0,0,1,289.54,76.54Z" style="fill:#942884"/><path d="M341.39,144.75a3.81,3.81,0,1,1-3.83-3.82A3.88,3.88,0,0,1,341.39,144.75Z" style="fill:#942884"/><path d="M89.33,252.77A3.75,3.75,0,1,1,85.62,249,3.78,3.78,0,0,1,89.33,252.77Z" style="fill:#942884"/><path d="M61.53,129a3.75,3.75,0,1,1-3.7,3.81A3.79,3.79,0,0,1,61.53,129Z" style="fill:#942884"/><path d="M49.61,189a3.75,3.75,0,1,1-3.78,3.72A3.8,3.8,0,0,1,49.61,189Z" style="fill:#942884"/><path d="M337.62,172.48a3.75,3.75,0,1,1,3.71-3.78A3.78,3.78,0,0,1,337.62,172.48Z" style="fill:#942884"/><path d="M77.33,240.71A3.75,3.75,0,1,1,73.56,237,3.78,3.78,0,0,1,77.33,240.71Z" style="fill:#942884"/><path d="M97.52,261.06a3.67,3.67,0,1,1-3.61,3.67A3.62,3.62,0,0,1,97.52,261.06Z" style="fill:#942884"/><path d="M253.64,273.11A3.63,3.63,0,1,1,250,276.7,3.58,3.58,0,0,1,253.64,273.11Z" style="fill:#942884"/><path d="M161.25,60.75a3.67,3.67,0,1,1-3.59-3.69A3.62,3.62,0,0,1,161.25,60.75Z" style="fill:#942884"/><path d="M61.58,232.4a3.67,3.67,0,1,1,3.67-3.61A3.62,3.62,0,0,1,61.58,232.4Z" style="fill:#942884"/><path d="M121.6,76.4a3.67,3.67,0,1,1,3.65-3.63A3.61,3.61,0,0,1,121.6,76.4Z" style="fill:#942884"/><path d="M197.21,288.79a3.63,3.63,0,1,1-3.6-3.68A3.59,3.59,0,0,1,197.21,288.79Z" style="fill:#942884"/><path d="M341.21,120.79a3.63,3.63,0,1,1-3.61-3.68A3.59,3.59,0,0,1,341.21,120.79Z" style="fill:#942884"/><path d="M337.59,196.36a3.63,3.63,0,1,1,3.62-3.67A3.59,3.59,0,0,1,337.59,196.36Z" style="fill:#942884"/><path d="M273.91,60.63a3.67,3.67,0,1,1,3.51,3.77A3.63,3.63,0,0,1,273.91,60.63Z" style="fill:#942884"/><path d="M49.64,172.4a3.67,3.67,0,1,1,3.61-3.67A3.62,3.62,0,0,1,49.64,172.4Z" style="fill:#942884"/><path d="M193.6,52.33a3.6,3.6,0,1,1,3.58-3.59A3.62,3.62,0,0,1,193.6,52.33Z" style="fill:#942884"/><path d="M49.62,220.33a3.6,3.6,0,1,1,3.56-3.61A3.62,3.62,0,0,1,49.62,220.33Z" style="fill:#942884"/><path d="M217.63,52.33a3.6,3.6,0,1,1,3.55-3.62A3.62,3.62,0,0,1,217.63,52.33Z" style="fill:#942884"/><path d="M49.58,148.33a3.6,3.6,0,1,1,3.6-3.57A3.62,3.62,0,0,1,49.58,148.33Z" style="fill:#942884"/><path d="M169.55,292.33a3.6,3.6,0,1,1,3.63-3.54A3.62,3.62,0,0,1,169.55,292.33Z" style="fill:#942884"/><path d="M145.56,285.17A3.56,3.56,0,1,1,142,288.7,3.62,3.62,0,0,1,145.56,285.17Z" style="fill:#942884"/><path d="M241.58,52.29a3.56,3.56,0,1,1,3.56-3.5A3.62,3.62,0,0,1,241.58,52.29Z" style="fill:#942884"/><path d="M317.14,72.73a3.56,3.56,0,1,1-3.5-3.56A3.62,3.62,0,0,1,317.14,72.73Z" style="fill:#942884"/><path d="M113.14,276.73a3.56,3.56,0,1,1-3.5-3.56A3.62,3.62,0,0,1,113.14,276.73Z" style="fill:#942884"/><path d="M301.6,249.17a3.56,3.56,0,1,1-3.58,3.48A3.63,3.63,0,0,1,301.6,249.17Z" style="fill:#942884"/><path d="M317.14,240.74a3.56,3.56,0,1,1-3.49-3.57A3.63,3.63,0,0,1,317.14,240.74Z" style="fill:#942884"/><path d="M353.14,156.73a3.56,3.56,0,1,1-3.5-3.56A3.62,3.62,0,0,1,353.14,156.73Z" style="fill:#942884"/><path d="M265.6,45.23a3.5,3.5,0,1,1-3.52,3.51A3.53,3.53,0,0,1,265.6,45.23Z" style="fill:#942884"/><path d="M329.08,228.71a3.5,3.5,0,1,1-3.55-3.47A3.52,3.52,0,0,1,329.08,228.71Z" style="fill:#942884"/><path d="M349.54,136.23a3.5,3.5,0,1,1,3.54-3.48A3.52,3.52,0,0,1,349.54,136.23Z" style="fill:#942884"/><path d="M325.57,88.23a3.5,3.5,0,1,1,3.51-3.52A3.53,3.53,0,0,1,325.57,88.23Z" style="fill:#942884"/><path d="M137.08,60.69a3.5,3.5,0,1,1-3.57-3.46A3.53,3.53,0,0,1,137.08,60.69Z" style="fill:#942884"/><path d="M73.57,93.23a3.5,3.5,0,1,1-3.49,3.54A3.53,3.53,0,0,1,73.57,93.23Z" style="fill:#942884"/><path d="M37.58,177.23a3.5,3.5,0,1,1-3.5,3.53A3.53,3.53,0,0,1,37.58,177.23Z" style="fill:#942884"/><path d="M286.08,264.67a3.5,3.5,0,1,1,3.47,3.56A3.52,3.52,0,0,1,286.08,264.67Z" style="fill:#942884"/><path d="M85.59,88.23a3.5,3.5,0,1,1,3.49-3.54A3.52,3.52,0,0,1,85.59,88.23Z" style="fill:#942884"/><path d="M217.55,292.23a3.5,3.5,0,1,1,3.53-3.5A3.52,3.52,0,0,1,217.55,292.23Z" style="fill:#942884"/><path d="M353,180.75a3.42,3.42,0,1,1-3.37-3.44A3.36,3.36,0,0,1,353,180.75Z" style="fill:#942884"/><path d="M305,60.71a3.42,3.42,0,1,1-3.41-3.4A3.37,3.37,0,0,1,305,60.71Z" style="fill:#942884"/><path d="M173,48.71a3.42,3.42,0,1,1-3.41-3.4A3.37,3.37,0,0,1,173,48.71Z" style="fill:#942884"/><path d="M61.68,105.31a3.42,3.42,0,1,1-3.52,3.29A3.37,3.37,0,0,1,61.68,105.31Z" style="fill:#942884"/><path d="M341,96.75a3.42,3.42,0,1,1-3.37-3.44A3.36,3.36,0,0,1,341,96.75Z" style="fill:#942884"/><path d="M101,72.73a3.38,3.38,0,1,1-3.31-3.37A3.36,3.36,0,0,1,101,72.73Z" style="fill:#942884"/><path d="M41,204.78a3.38,3.38,0,1,1-3.26-3.42A3.35,3.35,0,0,1,41,204.78Z" style="fill:#942884"/><path d="M49.54,117.36a3.38,3.38,0,1,1-3.34,3.35A3.34,3.34,0,0,1,49.54,117.36Z" style="fill:#942884"/><path d="M337.54,213.36a3.38,3.38,0,1,1-3.34,3.35A3.34,3.34,0,0,1,337.54,213.36Z" style="fill:#942884"/><path d="M37.56,160.11a3.38,3.38,0,1,1,3.39-3.3A3.36,3.36,0,0,1,37.56,160.11Z" style="fill:#942884"/><path d="M352.92,108.69a3.34,3.34,0,1,1-3.41-3.3A3.38,3.38,0,0,1,352.92,108.69Z" style="fill:#942884"/><path d="M64.92,252.68a3.34,3.34,0,1,1-3.43-3.29A3.38,3.38,0,0,1,64.92,252.68Z" style="fill:#942884"/><path d="M280.92,276.77a3.34,3.34,0,1,1-3.34-3.38A3.38,3.38,0,0,1,280.92,276.77Z" style="fill:#942884"/><path d="M121.55,292.08a3.35,3.35,0,1,1,3.37-3.35A3.38,3.38,0,0,1,121.55,292.08Z" style="fill:#942884"/><path d="M241.55,292.08a3.35,3.35,0,1,1,3.37-3.35A3.38,3.38,0,0,1,241.55,292.08Z" style="fill:#942884"/><path d="M49.6,237.44a3.3,3.3,0,1,1-3.32,3.27A3.35,3.35,0,0,1,49.6,237.44Z" style="fill:#942884"/><path d="M349.52,201.44a3.3,3.3,0,1,1-3.24,3.35A3.35,3.35,0,0,1,349.52,201.44Z" style="fill:#942884"/><path d="M145.61,52a3.3,3.3,0,1,1,3.27-3.33A3.36,3.36,0,0,1,145.61,52Z" style="fill:#942884"/><path d="M292.88,48.72a3.3,3.3,0,1,1-3.31-3.28A3.38,3.38,0,0,1,292.88,48.72Z" style="fill:#942884"/><path d="M76.88,264.71a3.3,3.3,0,1,1-3.32-3.27A3.37,3.37,0,0,1,76.88,264.71Z" style="fill:#942884"/><path d="M109.48,63.94a3.21,3.21,0,1,1,3.31-3.08A3.18,3.18,0,0,1,109.48,63.94Z" style="fill:#942884"/><path d="M364.79,144.78a3.21,3.21,0,1,1-3.13-3.26A3.18,3.18,0,0,1,364.79,144.78Z" style="fill:#942884"/><path d="M88.79,276.78a3.21,3.21,0,1,1-3.13-3.26A3.18,3.18,0,0,1,88.79,276.78Z" style="fill:#942884"/><path d="M37.64,129.52a3.21,3.21,0,1,1-3.27,3.12A3.18,3.18,0,0,1,37.64,129.52Z" style="fill:#942884"/><path d="M361.52,165.58a3.15,3.15,0,1,1-3.09,3.15A3.11,3.11,0,0,1,361.52,165.58Z" style="fill:#942884"/><path d="M208.73,36.7a3.15,3.15,0,1,1-3.13-3.12A3.11,3.11,0,0,1,208.73,36.7Z" style="fill:#942884"/><path d="M253.53,39.88a3.15,3.15,0,1,1,3.2-3A3.11,3.11,0,0,1,253.53,39.88Z" style="fill:#942884"/><path d="M232.73,36.71a3.15,3.15,0,1,1-3.11-3.13A3.11,3.11,0,0,1,232.73,36.71Z" style="fill:#942884"/><path d="M25.64,165.62a3.12,3.12,0,1,1-3.17,3A3.11,3.11,0,0,1,25.64,165.62Z" style="fill:#942884"/><path d="M265.64,291.85a3.12,3.12,0,1,1,3.05-3.18A3.13,3.13,0,0,1,265.64,291.85Z" style="fill:#942884"/><path d="M325.57,57.62a3.12,3.12,0,1,1-3.1,3.12A3.11,3.11,0,0,1,325.57,57.62Z" style="fill:#942884"/><path d="M40.69,228.72a3.11,3.11,0,1,1-3.12-3.1A3.13,3.13,0,0,1,40.69,228.72Z" style="fill:#942884"/><path d="M157.54,303.85a3.12,3.12,0,1,1,3.15-3.08A3.13,3.13,0,0,1,157.54,303.85Z" style="fill:#942884"/><path d="M184.69,300.7a3.11,3.11,0,1,1-3.14-3.08A3.12,3.12,0,0,1,184.69,300.7Z" style="fill:#942884"/><path d="M337.61,75.8a3.07,3.07,0,1,1,3-3.09A3.14,3.14,0,0,1,337.61,75.8Z" style="fill:#942884"/><path d="M364.65,120.7a3.07,3.07,0,1,1-3.1-3A3.14,3.14,0,0,1,364.65,120.7Z" style="fill:#942884"/><path d="M25.52,189.66a3.07,3.07,0,1,1-3,3.13A3.14,3.14,0,0,1,25.52,189.66Z" style="fill:#942884"/><path d="M181.61,33.66a3.07,3.07,0,1,1-3.1,3A3.14,3.14,0,0,1,181.61,33.66Z" style="fill:#942884"/><path d="M325.59,249.66a3.07,3.07,0,1,1-3.08,3.06A3.14,3.14,0,0,1,325.59,249.66Z" style="fill:#942884"/><path d="M205.62,297.66a3.07,3.07,0,1,1-3.11,3A3.14,3.14,0,0,1,205.62,297.66Z" style="fill:#942884"/><path d="M124.56,48.76a3,3,0,1,1-2.92-3A2.95,2.95,0,0,1,124.56,48.76Z" style="fill:#942884"/><path d="M316.56,264.79a3,3,0,1,1-2.89-3A2.95,2.95,0,0,1,316.56,264.79Z" style="fill:#942884"/><path d="M52.56,96.7a3,3,0,1,1-3-3A2.95,2.95,0,0,1,52.56,96.7Z" style="fill:#942884"/><path d="M277.62,33.75a3,3,0,1,1-3,2.91A3,3,0,0,1,277.62,33.75Z" style="fill:#942884"/><path d="M364.56,192.74a3,3,0,1,1-2.95-3A2.95,2.95,0,0,1,364.56,192.74Z" style="fill:#942884"/><path d="M337.58,243.71a3,3,0,1,1,3-3A3,3,0,0,1,337.58,243.71Z" style="fill:#942884"/><path d="M61.55,81.75a3,3,0,1,1-2.95,3A3,3,0,0,1,61.55,81.75Z" style="fill:#942884"/><path d="M97.61,291.71a3,3,0,1,1,3-3A3,3,0,0,1,97.61,291.71Z" style="fill:#942884"/><path d="M73.61,69.75a3,3,0,1,1-3,2.93A3,3,0,0,1,73.61,69.75Z" style="fill:#942884"/><path d="M316.56,48.7a3,3,0,1,1-3-3A2.95,2.95,0,0,1,316.56,48.7Z" style="fill:#942884"/><path d="M349.53,87.71a3,3,0,1,1,3-2.9A3,3,0,0,1,349.53,87.71Z" style="fill:#942884"/><path d="M133.55,297.75a3,3,0,1,1-3,3A3,3,0,0,1,133.55,297.75Z" style="fill:#942884"/><path d="M304.49,276.69a2.91,2.91,0,1,1-2.89-2.87A2.85,2.85,0,0,1,304.49,276.69Z" style="fill:#942884"/><path d="M28.49,144.7a2.91,2.91,0,1,1-2.88-2.88A2.85,2.85,0,0,1,28.49,144.7Z" style="fill:#942884"/><path d="M352.45,228.7a2.87,2.87,0,1,1-2.93-2.84A2.9,2.9,0,0,1,352.45,228.7Z" style="fill:#942884"/><path d="M40.45,108.7a2.87,2.87,0,1,1-2.93-2.84A2.9,2.9,0,0,1,40.45,108.7Z" style="fill:#942884"/><path d="M85.63,57.86a2.88,2.88,0,1,1-2.92,2.85A2.9,2.9,0,0,1,85.63,57.86Z" style="fill:#942884"/><path d="M160.45,36.77a2.87,2.87,0,1,1-2.86-2.91A2.9,2.9,0,0,1,160.45,36.77Z" style="fill:#942884"/><path d="M232.45,300.72a2.87,2.87,0,1,1-2.91-2.86A2.9,2.9,0,0,1,232.45,300.72Z" style="fill:#942884"/><path d="M28.4,216.69a2.82,2.82,0,1,1-2.86-2.78A2.89,2.89,0,0,1,28.4,216.69Z" style="fill:#942884"/><path d="M364.3,96.71a2.72,2.72,0,1,1-2.74-2.7A2.69,2.69,0,0,1,364.3,96.71Z" style="fill:#942884"/><path d="M301.57,34a2.73,2.73,0,1,1-2.71,2.74A2.67,2.67,0,0,1,301.57,34Z" style="fill:#942884"/><path d="M109.57,298a2.73,2.73,0,1,1-2.71,2.74A2.67,2.67,0,0,1,109.57,298Z" style="fill:#942884"/><path d="M361.6,214.07a2.66,2.66,0,1,1-2.68,2.61A2.62,2.62,0,0,1,361.6,214.07Z" style="fill:#942884"/><path d="M64.24,276.71a2.66,2.66,0,1,1-2.66-2.64A2.63,2.63,0,0,1,64.24,276.71Z" style="fill:#942884"/><path d="M100.24,48.7a2.66,2.66,0,1,1-2.66-2.63A2.63,2.63,0,0,1,100.24,48.7Z" style="fill:#942884"/><path d="M52.24,264.74a2.66,2.66,0,1,1-2.63-2.67A2.62,2.62,0,0,1,52.24,264.74Z" style="fill:#942884"/><path d="M376.24,156.77a2.66,2.66,0,1,1-2.6-2.7A2.63,2.63,0,0,1,376.24,156.77Z" style="fill:#942884"/><path d="M292.24,288.76a2.66,2.66,0,1,1-2.6-2.69A2.62,2.62,0,0,1,292.24,288.76Z" style="fill:#942884"/><path d="M256.24,300.75a2.66,2.66,0,1,1-2.61-2.68A2.63,2.63,0,0,1,256.24,300.75Z" style="fill:#942884"/><path d="M40.2,252.79a2.62,2.62,0,1,1-2.53-2.68A2.65,2.65,0,0,1,40.2,252.79Z" style="fill:#942884"/><path d="M25.63,118.11A2.62,2.62,0,1,1,23,120.65,2.66,2.66,0,0,1,25.63,118.11Z" style="fill:#942884"/><path d="M73.56,291.28a2.55,2.55,0,1,1,2.57-2.5A2.6,2.6,0,0,1,73.56,291.28Z" style="fill:#942884"/><path d="M16.13,180.77a2.55,2.55,0,1,1-2.48-2.58A2.6,2.6,0,0,1,16.13,180.77Z" style="fill:#942884"/><path d="M136.13,36.69a2.55,2.55,0,1,1-2.57-2.5A2.6,2.6,0,0,1,136.13,36.69Z" style="fill:#942884"/><path d="M373.63,135.28a2.55,2.55,0,1,1,2.5-2.57A2.6,2.6,0,0,1,373.63,135.28Z" style="fill:#942884"/><path d="M376.13,180.75a2.55,2.55,0,1,1-2.51-2.56A2.59,2.59,0,0,1,376.13,180.75Z" style="fill:#942884"/><path d="M349.6,63.17A2.44,2.44,0,1,1,352,60.74,2.38,2.38,0,0,1,349.6,63.17Z" style="fill:#942884"/><path d="M217.63,22.29a2.44,2.44,0,1,1-2.49,2.36A2.38,2.38,0,0,1,217.63,22.29Z" style="fill:#942884"/><path d="M340,48.69a2.44,2.44,0,1,1-2.45-2.4A2.38,2.38,0,0,1,340,48.69Z" style="fill:#942884"/><path d="M244,24.68a2.44,2.44,0,1,1-2.46-2.39A2.37,2.37,0,0,1,244,24.68Z" style="fill:#942884"/><path d="M268,24.71a2.44,2.44,0,1,1-2.43-2.42A2.38,2.38,0,0,1,268,24.71Z" style="fill:#942884"/><path d="M28,240.71a2.4,2.4,0,1,1-2.36-2.37A2.42,2.42,0,0,1,28,240.71Z" style="fill:#942884"/><path d="M337.55,267.13a2.4,2.4,0,1,1,2.43-2.31A2.43,2.43,0,0,1,337.55,267.13Z" style="fill:#942884"/><path d="M325.58,39.13A2.4,2.4,0,1,1,328,36.8,2.43,2.43,0,0,1,325.58,39.13Z" style="fill:#942884"/><path d="M16,204.79a2.4,2.4,0,1,1-2.28-2.45A2.43,2.43,0,0,1,16,204.79Z" style="fill:#942884"/><path d="M11.18,156.77a2.4,2.4,0,1,1,2.38,2.36A2.41,2.41,0,0,1,11.18,156.77Z" style="fill:#942884"/><path d="M49.58,75.06a2.33,2.33,0,1,1,2.33-2.27A2.38,2.38,0,0,1,49.58,75.06Z" style="fill:#942884"/><path d="M325.63,279.06a2.33,2.33,0,1,1,2.28-2.32A2.38,2.38,0,0,1,325.63,279.06Z" style="fill:#942884"/><path d="M193.58,22.4a2.33,2.33,0,1,1-2.33,2.27A2.39,2.39,0,0,1,193.58,22.4Z" style="fill:#942884"/><path d="M145.63,315.06a2.33,2.33,0,1,1,2.28-2.32A2.38,2.38,0,0,1,145.63,315.06Z" style="fill:#942884"/><path d="M87.91,300.71a2.33,2.33,0,1,1-2.29-2.31A2.38,2.38,0,0,1,87.91,300.71Z" style="fill:#942884"/><path d="M61.54,58.4a2.33,2.33,0,1,1-2.29,2.31A2.39,2.39,0,0,1,61.54,58.4Z" style="fill:#942884"/><path d="M169.63,315.06a2.33,2.33,0,1,1,2.28-2.32A2.38,2.38,0,0,1,169.63,315.06Z" style="fill:#942884"/><path d="M375.79,204.76a2.21,2.21,0,1,1-2.15-2.24A2.15,2.15,0,0,1,375.79,204.76Z" style="fill:#942884"/><path d="M375.79,108.77a2.21,2.21,0,1,1-2.14-2.25A2.14,2.14,0,0,1,375.79,108.77Z" style="fill:#942884"/><path d="M289.63,26.94a2.21,2.21,0,1,1,2.16-2.23A2.14,2.14,0,0,1,289.63,26.94Z" style="fill:#942884"/><path d="M193.56,314.94a2.21,2.21,0,1,1,2.23-2.16A2.15,2.15,0,0,1,193.56,314.94Z" style="fill:#942884"/><path d="M37.61,86.94a2.21,2.21,0,1,1,2.18-2.2A2.15,2.15,0,0,1,37.61,86.94Z" style="fill:#942884"/><path d="M277.58,298.52a2.21,2.21,0,1,1-2.21,2.18A2.15,2.15,0,0,1,277.58,298.52Z" style="fill:#942884"/><path d="M363.79,72.68a2.21,2.21,0,1,1-2.24-2.16A2.15,2.15,0,0,1,363.79,72.68Z" style="fill:#942884"/><path d="M351.79,252.74a2.21,2.21,0,1,1-2.17-2.22A2.14,2.14,0,0,1,351.79,252.74Z" style="fill:#942884"/><path d="M111.74,36.71a2.16,2.16,0,1,1-2.15-2.14A2.18,2.18,0,0,1,111.74,36.71Z" style="fill:#942884"/><path d="M123.74,312.77a2.16,2.16,0,1,1-2.1-2.2A2.18,2.18,0,0,1,123.74,312.77Z" style="fill:#942884"/><path d="M313.53,286.57a2.16,2.16,0,1,1-2.11,2.18A2.19,2.19,0,0,1,313.53,286.57Z" style="fill:#942884"/><path d="M15.66,132.72a2.08,2.08,0,1,1-2.06-2.07A2.13,2.13,0,0,1,15.66,132.72Z" style="fill:#942884"/><path d="M171.66,24.69a2.08,2.08,0,1,1-2.09-2A2.13,2.13,0,0,1,171.66,24.69Z" style="fill:#942884"/><path d="M361.62,238.65a2.08,2.08,0,1,1-2.12,2A2.13,2.13,0,0,1,361.62,238.65Z" style="fill:#942884"/><path d="M75.66,48.68a2.08,2.08,0,1,1-2.1-2A2.13,2.13,0,0,1,75.66,48.68Z" style="fill:#942884"/><path d="M217.57,310.65a2.08,2.08,0,1,1-2.07,2.06A2.13,2.13,0,0,1,217.57,310.65Z" style="fill:#942884"/><path d="M27.54,96.68a2,2,0,1,1-2-1.91A1.91,1.91,0,0,1,27.54,96.68Z" style="fill:#942884"/><path d="M313.62,22.77a2,2,0,1,1-2,1.92A1.91,1.91,0,0,1,313.62,22.77Z" style="fill:#942884"/><path d="M15.48,228.69a1.9,1.9,0,1,1-1.94-1.86A1.94,1.94,0,0,1,15.48,228.69Z" style="fill:#942884"/><path d="M99.48,312.78a1.9,1.9,0,1,1-1.85-1.95A1.95,1.95,0,0,1,99.48,312.78Z" style="fill:#942884"/><path d="M241.58,314.63a1.9,1.9,0,1,1,1.9-1.9A1.95,1.95,0,0,1,241.58,314.63Z" style="fill:#942884"/><path d="M145.54,23a1.78,1.78,0,1,1-1.73,1.75A1.74,1.74,0,0,1,145.54,23Z" style="fill:#942884"/><path d="M51.35,288.75A1.77,1.77,0,1,1,49.66,287,1.75,1.75,0,0,1,51.35,288.75Z" style="fill:#942884"/><path d="M387.35,168.79a1.77,1.77,0,1,1-1.66-1.83A1.74,1.74,0,0,1,387.35,168.79Z" style="fill:#942884"/><path d="M385.53,146.51a1.75,1.75,0,0,1-1.72-1.89,1.77,1.77,0,1,1,1.72,1.89Z" style="fill:#942884"/><path d="M87.26,36.73a1.68,1.68,0,1,1-1.65-1.68A1.68,1.68,0,0,1,87.26,36.73Z" style="fill:#942884"/><path d="M373.59,86.41a1.68,1.68,0,1,1,1.67-1.66A1.68,1.68,0,0,1,373.59,86.41Z" style="fill:#942884"/><path d="M37.61,278.41a1.68,1.68,0,1,1,1.65-1.68A1.68,1.68,0,0,1,37.61,278.41Z" style="fill:#942884"/><path d="M61.63,299.05a1.68,1.68,0,1,1-1.73,1.6A1.69,1.69,0,0,1,61.63,299.05Z" style="fill:#942884"/><path d="M301.61,299.05a1.68,1.68,0,1,1-1.71,1.62A1.68,1.68,0,0,1,301.61,299.05Z" style="fill:#942884"/><path d="M1.61,167.15a1.6,1.6,0,0,1,1.55,1.64,1.58,1.58,0,0,1-1.67,1.52A1.52,1.52,0,0,1,0,168.73,1.56,1.56,0,0,1,1.61,167.15Z" style="fill:#942884"/><path d="M351.16,36.69a1.59,1.59,0,0,1-1.56,1.62A1.57,1.57,0,0,1,348,36.72a1.52,1.52,0,0,1,1.5-1.56A1.57,1.57,0,0,1,351.16,36.69Z" style="fill:#942884"/><path d="M373.53,227.15a1.61,1.61,0,0,1,1.63,1.56,1.58,1.58,0,0,1-1.59,1.6,1.53,1.53,0,0,1-1.56-1.5A1.57,1.57,0,0,1,373.53,227.15Z" style="fill:#942884"/><path d="M1.55,191.15a1.6,1.6,0,0,1,1.61,1.58,1.58,1.58,0,0,1-1.61,1.58A1.52,1.52,0,0,1,0,192.79,1.57,1.57,0,0,1,1.55,191.15Z" style="fill:#942884"/><path d="M267.16,312.73a1.6,1.6,0,0,1-1.61,1.58,1.56,1.56,0,0,1-1.54-1.64,1.52,1.52,0,0,1,1.54-1.51A1.57,1.57,0,0,1,267.16,312.73Z" style="fill:#942884"/><path d="M339,24.82a1.36,1.36,0,0,1-1.38,1.35,1.39,1.39,0,0,1-1.51-1.45,1.36,1.36,0,0,1,1.42-1.43A1.45,1.45,0,0,1,339,24.82Z" style="fill:#942884"/><path d="M121.81,23.29A1.38,1.38,0,0,1,123,24.8a1.4,1.4,0,0,1-1.59,1.37,1.37,1.37,0,0,1-1.29-1.56A1.46,1.46,0,0,1,121.81,23.29Z" style="fill:#942884"/><path d="M385.46,194.19a1.42,1.42,0,0,1-1.32-1.52,1.39,1.39,0,0,1,1.59-1.37,1.34,1.34,0,0,1,1.28,1.55A1.4,1.4,0,0,1,385.46,194.19Z" style="fill:#942884"/><path d="M349.65,275.27a1.45,1.45,0,1,1-.19,2.9,1.34,1.34,0,0,1-1.31-1.53A1.39,1.39,0,0,1,349.65,275.27Z" style="fill:#942884"/><path d="M15,108.67a1.41,1.41,0,0,1-1.39,1.5,1.39,1.39,0,0,1-1.51-1.45,1.33,1.33,0,0,1,1.42-1.42A1.38,1.38,0,0,1,15,108.67Z" style="fill:#942884"/><path d="M385.41,122.18a1.37,1.37,0,0,1-1.27-1.44,1.39,1.39,0,0,1,1.52-1.45,1.37,1.37,0,0,1,1.36,1.5A1.46,1.46,0,0,1,385.41,122.18Z" style="fill:#942884"/><path d="M27,264.87a1.37,1.37,0,0,1-1.42,1.3,1.39,1.39,0,0,1-1.47-1.49,1.36,1.36,0,0,1,1.47-1.39A1.45,1.45,0,0,1,27,264.87Z" style="fill:#942884"/><path d="M337.66,287.28a1.37,1.37,0,0,1,1.36,1.37,1.39,1.39,0,0,1-1.44,1.52,1.36,1.36,0,0,1-1.44-1.41A1.44,1.44,0,0,1,337.66,287.28Z" style="fill:#942884"/><path d="M229.63,11.27a1.45,1.45,0,1,1-.15,2.9,1.35,1.35,0,0,1-1.34-1.51A1.4,1.4,0,0,1,229.63,11.27Z" style="fill:#942884"/><path d="M252.14,12.5a1.38,1.38,0,0,1,1.5-1.21A1.4,1.4,0,0,1,255,12.88a1.37,1.37,0,0,1-1.56,1.29A1.46,1.46,0,0,1,252.14,12.5Z" style="fill:#942884"/><path d="M277.55,11.4a1.28,1.28,0,0,1,1.34,1.22,1.31,1.31,0,1,1-2.62.1C276.26,11.94,276.75,11.51,277.55,11.4Z" style="fill:#942884"/><path d="M1.61,143.4a1.28,1.28,0,0,1,1.28,1.43A1.21,1.21,0,0,1,1.54,146a1.22,1.22,0,0,1-1.27-1.4A1.28,1.28,0,0,1,1.61,143.4Z" style="fill:#942884"/><path d="M362.92,264.74c-.12.86-.59,1.35-1.43,1.3a1.21,1.21,0,0,1-1.22-1.34,1.23,1.23,0,0,1,1.4-1.28A1.29,1.29,0,0,1,362.92,264.74Z" style="fill:#942884"/><path d="M2.91,216.72A1.27,1.27,0,0,1,1.54,218a1.2,1.2,0,0,1-1.27-1.29,1.22,1.22,0,0,1,1.35-1.33A1.27,1.27,0,0,1,2.91,216.72Z" style="fill:#942884"/><path d="M301.62,14.06a1.27,1.27,0,0,1-1.35-1.21,1.31,1.31,0,1,1,2.62-.12A1.27,1.27,0,0,1,301.62,14.06Z" style="fill:#942884"/><path d="M38.91,60.73A1.27,1.27,0,0,1,37.55,62a1.2,1.2,0,0,1-1.28-1.28,1.22,1.22,0,0,1,1.34-1.34C38.4,59.43,38.82,59.93,38.91,60.73Z" style="fill:#942884"/><path d="M49.6,50.06a1.27,1.27,0,0,1-1.33-1.34,1.21,1.21,0,0,1,1.26-1.3,1.22,1.22,0,0,1,1.36,1.32A1.27,1.27,0,0,1,49.6,50.06Z" style="fill:#942884"/><path d="M362.91,48.7A1.28,1.28,0,0,1,361.69,50a1.31,1.31,0,1,1-.1-2.62A1.27,1.27,0,0,1,362.91,48.7Z" style="fill:#942884"/><path d="M73.58,311.4c.85.1,1.35.56,1.31,1.4A1.2,1.2,0,0,1,73.57,314a1.22,1.22,0,0,1-1.3-1.38A1.27,1.27,0,0,1,73.58,311.4Z" style="fill:#942884"/><path d="M134.92,324.73c-.11.86-.58,1.36-1.42,1.31a1.2,1.2,0,0,1-1.23-1.33,1.23,1.23,0,0,1,1.39-1.29A1.29,1.29,0,0,1,134.92,324.73Z" style="fill:#942884"/><path d="M158.92,324.73c-.12.87-.59,1.36-1.43,1.31a1.21,1.21,0,0,1-1.22-1.34,1.22,1.22,0,0,1,1.4-1.28A1.28,1.28,0,0,1,158.92,324.73Z" style="fill:#942884"/><path d="M182.91,324.72a1.27,1.27,0,0,1-1.36,1.32,1.2,1.2,0,0,1-1.28-1.28,1.22,1.22,0,0,1,1.34-1.34A1.27,1.27,0,0,1,182.91,324.72Z" style="fill:#942884"/><path d="M13.57,251.53c.72.1,1.2.47,1.18,1.22a1.09,1.09,0,0,1-1.22,1.16,1.1,1.1,0,0,1-1.13-1.14C12.38,252,12.85,251.64,13.57,251.53Z" style="fill:#942884"/><path d="M289.58,311.53c.72.1,1.2.48,1.17,1.23a1.18,1.18,0,0,1-2.35,0C288.39,312,288.86,311.63,289.58,311.53Z" style="fill:#942884"/><path d="M326.78,300.75c-.11.72-.5,1.19-1.25,1.16a1.18,1.18,0,0,1,0-2.35C326.32,299.55,326.69,300,326.78,300.75Z" style="fill:#942884"/><path d="M109.58,325.93c-.72-.1-1.2-.48-1.17-1.23a1.18,1.18,0,0,1,2.35,0C110.77,325.45,110.3,325.83,109.58,325.93Z" style="fill:#942884"/><path d="M373.63,253.73a.93.93,0,0,1-1-.92.91.91,0,0,1,1-1.07.89.89,0,0,1,1,1A.93.93,0,0,1,373.63,253.73Z" style="fill:#942884"/><path d="M26.59,72.65c0,.67-.34,1.06-1,1.07a1,1,0,1,1,0-2A.93.93,0,0,1,26.59,72.65Z" style="fill:#942884"/><path d="M92.52,323.67a.93.93,0,0,1-1-1,1,1,0,1,1,2,0A.93.93,0,0,1,92.52,323.67Z" style="fill:#942884"/><path d="M205.64,325c-.37-.3-1.16.41-1.2-.48a1.15,1.15,0,0,1,2.28,0C206.75,325.38,206,324.76,205.64,325Z" style="fill:#942884"/><path d="M205.59,12.66c.37.32,1.18-.4,1.19.48,0,.62-.61.91-1.21.91s-1.22-.31-1.19-.93C204.41,12.27,205.21,13,205.59,12.66Z" style="fill:#942884"/><path d="M386.05,216.57c-.29.27.1,1.13-.71,1.11-.55,0-.79-.49-.75-1a.93.93,0,0,1,1-.92C386.2,215.71,386.07,216.13,386.05,216.57Z" style="fill:#942884"/><path d="M54.7,40.45c-11,8.47-7.48,168.35,9.73,214.74,3.9,10.52,103.25.75,103.25.75-3,19.45-18.81,39.33-34.42,47.14-9,4.49,86.8-4.49,111.49-53.87,46.39-9,92-17.21,96.52-22.45S346.51,83.85,313.59,5.28C306.44-11.76,86.87,15.76,54.7,40.45Z"/><path d="M70,232C66.11,216.28,50.73,76.05,66.67,46.44c5.24-9.73,181.54-44.6,238.69-32.18C322.56,18,331,199.65,330.05,211.79c-.75,9.54-72.95,21.52-105.88,26.75-10.28,1.87.75,3.93,3.37,4.68-6,13.47-31.43,35.17-62.1,43.4,11.22-9.73,18.7-32.18,17.21-44.15-15.72,2.25-47.89,3.56-67.16,3.56C72.66,246,72,239.7,70,232Z" style="fill:#fff"/></g></g></svg>