<svg xmlns="http://www.w3.org/2000/svg" viewBox="0 0 444.61 442.74"><title>Asset 2</title><g id="Layer_2" data-name="Layer 2"><g id="Layer_3" data-name="Layer 3"><path d="M217.26,264.38a9.24,9.24,0,0,1-3.88,1.42,6.41,6.41,0,0,1-6.13-9.23c.15-.31.32-.6.63-1.18-3.34,1.87-6.31,1.81-8.86-.87-2-2-2.13-4.61-.6-8.1a7,7,0,0,1-7.95-.24,7.11,7.11,0,0,1,1.21,5,6.2,6.2,0,0,1-2.88,4.36,6.32,6.32,0,0,1-7.84-.86c-2.36-2.34-2.45-5.29-.13-9.09-3.28,2.31-6.42,2.57-9.14-.22-2.52-2.57-2.32-5.55-.19-8.83a8.82,8.82,0,0,1-3.65,1.56,6.35,6.35,0,0,1-5.91-10.06c.19-.28.43-.54.64-.81h0c2.65-2.19,5.46-2.34,8.72-.31a6.89,6.89,0,0,1-.55-7.91c-4.16,1.29-5.75,1.12-8.1-.83l-.35-.36c-2.16-2.47-2.22-5.16-.63-8.21-3.34,1.65-6.29,1.52-8.66-1.17-2.17-2.46-2.07-5.23-.46-8-.33-.24-.51.07-.71.17a6.41,6.41,0,0,1-8.18-9.58c.13-.18.27-.34.41-.51l.12-.11c2.51-2.15,5.22-2.3,8.36-.61a7,7,0,0,1-.18-7.69c-3.65,1.5-5.5,1.31-8.14-.72l-.3-.3c-2.25-2.93-2.31-5.61-.19-8.67l.72-.73c2.42-1.82,5-2,7.92-.46a7.12,7.12,0,0,1-.17-7.31c-3.86,1.22-5.19,1.1-7.71-.65l-.84-.84a6.78,6.78,0,0,1-.28-8.16,7.06,7.06,0,0,1-5,1.07,6.17,6.17,0,0,1-4.31-2.94,6.44,6.44,0,0,1,.85-7.76c2.18-2.26,5.17-2.53,8.65-.63-2-3.23-1.94-6.29.66-8.82,2.27-2.21,5.05-2.38,8.15-.74a7.18,7.18,0,0,1,.3-7.87,7.08,7.08,0,0,1-5.14,1.16,6.16,6.16,0,0,1-4.07-2.64,6.39,6.39,0,0,1,.44-7.79c2.16-2.51,5-2.78,9.08-.77-2-3.26-2.1-6.31.69-9,2.19-2.09,4.74-2.11,8.61-.16a7.15,7.15,0,0,1-1.49-5.05A6.17,6.17,0,0,1,163.32,98a6.32,6.32,0,0,1,7.58.11c2.54,1.94,3,4.69,1.5,8.72a7.22,7.22,0,0,1,7.41-.14,7.29,7.29,0,0,1,.36-7.76,3.29,3.29,0,0,0,1.05-1c2.48-1.46,5-1.92,7.86-.25a9.84,9.84,0,0,1-1-3.89,8.54,8.54,0,0,1,1.66-4.31l.37-.38c1.88-1.23,3.85-2.09,6.15-1.4.73.23,1.43.58,2.39,1a6.77,6.77,0,0,1-1.12-5.06,6.14,6.14,0,0,1,2.75-4.13,6.45,6.45,0,0,1,7.68.46c2.32,2,2.82,4.8,1.31,8.37a7.51,7.51,0,0,1,7.39,0c-1.66-3-1-5.58.58-8l.48-.48c1.85-1.15,3.77-2,6.05-1.38a12.57,12.57,0,0,1,2.68,1.24,6.91,6.91,0,0,1-1.34-5,6.18,6.18,0,0,1,2.58-4.25,6.36,6.36,0,0,1,7.79.31c2.43,2,2.88,5,1.13,8.6a7.29,7.29,0,0,1,8,.14,7.13,7.13,0,0,1-1-5.39A6.21,6.21,0,0,1,246.67,70a6.4,6.4,0,0,1,7.53,1c2.19,2.12,2.5,5,.74,8.47a7.2,7.2,0,0,1,8.23,0,3.29,3.29,0,0,0,1.05,1.05,7.32,7.32,0,0,1,.51,7.43,7.4,7.4,0,0,1,6.95.07,7.54,7.54,0,0,1-.49-5.19,6.32,6.32,0,0,1,3.07-3.76,6.43,6.43,0,0,1,7.44.9c2.27,2.09,2.66,4.91,1.05,8.45a9.41,9.41,0,0,1,3.52-1.1,9.16,9.16,0,0,1,4.57,1.38l.94,1c1.69,3.74,1.72,4.13.6,7.61a7.3,7.3,0,0,1,7.37.44,7.28,7.28,0,0,1-.94-5.24A6.29,6.29,0,1,1,310,97.65c-2,2.65-5,3.23-8.79,1.51a7.52,7.52,0,0,1,.44,7.19,7.5,7.5,0,0,1,7.06.36,7.47,7.47,0,0,1-.7-5.29,6.21,6.21,0,0,1,3.11-3.88,6.35,6.35,0,0,1,7.5,1.11c2.24,2.26,2.41,5.17.33,8.78,3.88-2.23,7.25-2.09,9.79,1.66a6.14,6.14,0,0,1-.6,7.33c-1.91,2.27-4.56,2.75-8.25,1.4a12.87,12.87,0,0,1,.91,3.38,8.44,8.44,0,0,1-.82,3.66,7.39,7.39,0,0,1,7.38.52,7.27,7.27,0,0,1-1-5.29,6.31,6.31,0,1,1,11.22,5.18c-2,2.65-5.12,3.22-8.74,1.48a10.78,10.78,0,0,1,1.1,3.75,9,9,0,0,1-1,3.92c3-1.71,5.6-1.08,8.08.54l.45.45c1.14,1.86,2,3.78,1.38,6.05a12.6,12.6,0,0,1-1,2.44,7.28,7.28,0,0,1,4.83-1.1,6.16,6.16,0,0,1,4.26,2.59,6.38,6.38,0,0,1-.39,7.89c-2.09,2.41-5.11,2.8-8.72.95a7.08,7.08,0,0,1,.13,8,7.17,7.17,0,0,1,5.19-.92,6.17,6.17,0,0,1,4.17,3.12,6.4,6.4,0,0,1-.91,7.43c-2.13,2.3-4.83,2.58-8.49.88,1.63,3.62,1.61,5-.33,8.31a6.84,6.84,0,0,1,5.22-1.39,6.15,6.15,0,0,1,4.33,2.91,6.33,6.33,0,0,1-.84,7.74c-2.29,2.36-5.3,2.52-8.88.36,2,3.05,2.29,6-.1,8.75-2,2.31-4.54,2.63-8.5,1.13a6.89,6.89,0,0,1-.35,7.91c3.95-2,7.11-1.52,9.16,1.23a6.33,6.33,0,0,1-.5,8.18c-2.33,2.42-5.49,2.56-9.07.22,2.3,3.45,2.44,6.63-.55,9.41-2.18,2-5,2-8.33.12,1.94,3.23,2.09,6.29-.63,8.89-2.47,2.37-5.33,2.21-8.42.49,1.81,3.29,1.85,6.28-.84,8.77-2.47,2.28-5.28,2.15-8.34.41,1.84,3.43,1.83,6.53-1.12,9-2.43,2-5.14,1.88-8.07.16,1.88,3.65,1.8,6.88-1.51,9.3-2.51,1.84-5.18,1.53-7.83-.16a7.18,7.18,0,0,1,1.26,5.17,6.22,6.22,0,0,1-3,4.42,6.37,6.37,0,0,1-7.74-.94c-2.21-2.19-2.45-5.19-.48-8.61-2.79,1.76-5.39,1.93-8.11.31a7.1,7.1,0,0,1,1,5,6.11,6.11,0,0,1-2.75,4.14,6.46,6.46,0,0,1-7.7-.46c-2.42-2.07-2.81-4.8-1.16-8.73a6.94,6.94,0,0,1-7.92-.15,7.31,7.31,0,0,1,1.16,5.14,6.17,6.17,0,0,1-2.72,4.17,6.46,6.46,0,0,1-7.69-.39c-2.51-2.1-2.92-5-1.12-8.88-2.87,1.72-5.56,1.66-8.15-.23l-.81-.82c-1.8-2.44-1.95-5-.38-8a7,7,0,0,1-7.66,0c1.49,3.5,1.42,4.63-.37,8Zm-28-27.22a7,7,0,0,1-8.11-.26c2,3.1,1.8,5.84-.17,8.57,2.78-2.05,5.58-2.12,8.72-.08A7,7,0,0,1,189.27,237.16ZM172.05,236c2.69-1.73,5.34-1.83,8.37.13a7.05,7.05,0,0,1-.35-8.2c-2.92,1.72-5.43,1.46-8.14-.28A7,7,0,0,1,172.05,236Zm147.59-26.29a7.29,7.29,0,0,1-.06,7.64c3.28-1.58,4.72-1.47,8.33.57-2.16-2.85-2.28-5.63-.22-8.76A7,7,0,0,1,319.64,209.72Zm-38.5,46a7.3,7.3,0,0,1-7.58,0c1.61,2.82,1.36,5.32-.37,8a7,7,0,0,1,8.32-.13A7.16,7.16,0,0,1,281.14,255.73ZM161.36,125.07a8.69,8.69,0,0,1-1-3.81,11.58,11.58,0,0,1,1.08-3.68,7,7,0,0,1-7.86-.24c1.81,2.61,1.8,5.23.15,8.11A7.09,7.09,0,0,1,161.36,125.07Zm175.45,65c-1.92-2.72-1.89-5.42,0-8.44a6.94,6.94,0,0,1-7.84.6,8.8,8.8,0,0,1,1,3.71,10,10,0,0,1-1,3.67A7,7,0,0,1,336.81,190.07ZM163,116.12a7.45,7.45,0,0,1,7.49-.36,7.29,7.29,0,0,1,.3-7.47,7.09,7.09,0,0,1-8-.16A7,7,0,0,1,163,116.12Zm-10.73,29.19a7,7,0,0,1-7.9-.37,7,7,0,0,1,0,8.32,7,7,0,0,1,7.78-.49A7.43,7.43,0,0,1,152.31,145.31ZM282.64,254.25a7.19,7.19,0,0,1,7.85-.1,7.34,7.34,0,0,1-.07-7.74,7.33,7.33,0,0,1-7.45.31A7.16,7.16,0,0,1,282.64,254.25Zm27.73-27.71a7.15,7.15,0,0,1,7.9.19c-1.7-2.52-1.74-5.07-.17-7.94a7.27,7.27,0,0,1-7.45.37A7.31,7.31,0,0,1,310.37,226.54Zm-9.06,9.14a7,7,0,0,1,7.62.19c-1.52-3.38-1.54-3.75-.37-7.55-3,1.2-3.63,1.22-6.88.24C302.64,232,302.62,232.55,301.31,235.68Zm-57,27.54a7.1,7.1,0,0,1,0-7.4,7.45,7.45,0,0,1-7.45,0,7,7,0,0,1-.32,7.74C239.26,261.86,241.74,261.78,244.3,263.22ZM292,244.9a7.35,7.35,0,0,1,7.7,0,7.18,7.18,0,0,1-.09-7.64,7.4,7.4,0,0,1-7.35.29A7.18,7.18,0,0,1,292,244.9ZM161.4,191.45a7.18,7.18,0,0,1-7.56-.28c1.64,2.76,1.5,5.26-.13,8.05a7,7,0,0,1,7.76-.43A7.34,7.34,0,0,1,161.4,191.45Zm93.84,71.76a7.18,7.18,0,0,1,7.75.28,7.05,7.05,0,0,1-.34-7.67,7.49,7.49,0,0,1-7.32.08A7.07,7.07,0,0,1,255.24,263.21Zm-46.07-9.12c2.52-1.49,5-1.41,7.74.08a7.16,7.16,0,0,1-.4-7.44,7.37,7.37,0,0,1-7.25-.11A7.2,7.2,0,0,1,209.17,254.09ZM310.85,115.63a7.68,7.68,0,0,1,7.13.24,7.15,7.15,0,0,1,.35-7.79c-2.45,1.73-5,1.77-7.78.44A7.47,7.47,0,0,1,310.85,115.63ZM329,171.11a7,7,0,0,1,7.77.5,7,7,0,0,1-.14-8.18,7,7,0,0,1-7.49.54A7.46,7.46,0,0,1,329,171.11Zm7.4-18.23a7.14,7.14,0,0,1,.11-7.74,7,7,0,0,1-7.43.39,7.3,7.3,0,0,1,.06,7.05A7.15,7.15,0,0,1,336.41,152.88Zm-166,54.82a7.81,7.81,0,0,1,0-6.88,7.39,7.39,0,0,1-7.16-.22c1.48,2.59,1.32,4.91-.08,7.53A7.35,7.35,0,0,1,170.36,207.7Zm37.11,37.14a7.83,7.83,0,0,1-.41-7.11,7.55,7.55,0,0,1-6.89-.18,7.11,7.11,0,0,1-.22,7.37A7.11,7.11,0,0,1,207.47,244.84ZM234.76,87.91a7.3,7.3,0,0,1,.46-7.22,7,7,0,0,1-8-.23,7,7,0,0,1,.76,7.48A7.62,7.62,0,0,1,234.76,87.91Zm-73.51,92.27a7.44,7.44,0,0,1-.07-6.94A7.43,7.43,0,0,1,154,173a7.21,7.21,0,0,1,0,7.48A7.06,7.06,0,0,1,161.25,180.18Zm18.27,29.92a7.56,7.56,0,0,1-7-.17,7.17,7.17,0,0,1-.19,7.42,7.13,7.13,0,0,1,7.36-.33A7.52,7.52,0,0,1,179.52,210.1Zm20.5-120a7.17,7.17,0,0,1,.32,7.1A7.5,7.5,0,0,1,207,97a7.71,7.71,0,0,1,.38-6.87A7.19,7.19,0,0,1,200,90.09ZM188.71,226a7.76,7.76,0,0,1,0-6.69,7.62,7.62,0,0,1-6.91-.17,7,7,0,0,1-.13,7.25A7.25,7.25,0,0,1,188.71,226Zm9.45,9.48a7.69,7.69,0,0,1-.3-7,7.51,7.51,0,0,1-6.86-.13,7,7,0,0,1-.17,7.23A7.09,7.09,0,0,1,198.16,235.51ZM246.17,81a7.64,7.64,0,0,1,.37,6.83,8,8,0,0,1,6.5,0,7.21,7.21,0,0,1,.69-7.11A7.12,7.12,0,0,1,246.17,81ZM327,198.64a7.37,7.37,0,0,1,.15-7.28,7.5,7.5,0,0,1-7,.43,7.39,7.39,0,0,1-.09,6.8A7.28,7.28,0,0,1,327,198.64ZM235.08,254a7.43,7.43,0,0,1-.35-7.09,7.47,7.47,0,0,1-6.81,0,7.17,7.17,0,0,1-.33,7.18A7.05,7.05,0,0,1,235.08,254Zm36.57-7.16a8.54,8.54,0,0,1-3.48.91,12,12,0,0,1-3.31-.71,7.46,7.46,0,0,1-.26,6.87,7,7,0,0,1,7.31.08A7.14,7.14,0,0,1,271.65,246.84ZM154.1,143.53a7.62,7.62,0,0,1,6.94-.39,7.54,7.54,0,0,1,0-6.62,7.26,7.26,0,0,1-7-.36A7,7,0,0,1,154.1,143.53Zm7,11.46a7.83,7.83,0,0,1-7-.28c1.46,2.54,1.27,4.79,0,7.31a7.29,7.29,0,0,1,7-.42A7.27,7.27,0,0,1,161.09,155Zm85.31,98.69a7.28,7.28,0,0,1,6.94.15,7.62,7.62,0,0,1-.38-6.74,9.28,9.28,0,0,1-3.23.74,12.31,12.31,0,0,1-3.27-.74A7.5,7.5,0,0,1,246.4,253.68Zm73.87-73.8a7.85,7.85,0,0,1,6.74.31,7,7,0,0,1-.15-7,7.4,7.4,0,0,1-6.46.42A8,8,0,0,1,320.27,179.88Zm-39.62,58a9.58,9.58,0,0,1-3.29.79,15.44,15.44,0,0,1-3.1-.61,9.14,9.14,0,0,1,.62,3.16,11.15,11.15,0,0,1-.81,3.28,7.22,7.22,0,0,1,6.88.12A7.35,7.35,0,0,1,280.65,237.87ZM170.17,182.64a7.57,7.57,0,0,1-6.65-.13,7.28,7.28,0,0,1,0,6.89,7.56,7.56,0,0,1,6.71-.28A7.34,7.34,0,0,1,170.17,182.64ZM320.36,143a7.51,7.51,0,0,1,6.54.28,7.07,7.07,0,0,1,.13-7,7.62,7.62,0,0,1-6.69.48A7.83,7.83,0,0,1,320.36,143Zm-9.22,58.3a7.6,7.6,0,0,1-.14,6.26,7.47,7.47,0,0,1,6.86.31,7,7,0,0,1-.28-6.86,12.35,12.35,0,0,1-3.19.83A14.58,14.58,0,0,1,311.14,201.3Zm-92.47,43.32a7.25,7.25,0,0,1,6.87-.14,7.43,7.43,0,0,1-.22-6.52,7.55,7.55,0,0,1-6.34,0A7.65,7.65,0,0,1,218.67,244.62ZM274.39,96.79a7.73,7.73,0,0,1,6.15,0,9.36,9.36,0,0,1-.57-3.48,11.64,11.64,0,0,1,1.1-3.36c-2.35,1.52-4.57,1.39-7,.41A7.4,7.4,0,0,1,274.39,96.79Zm-83.06,9.35a8.35,8.35,0,0,1,6.21-.19,7.68,7.68,0,0,1,.29-6.32,7.11,7.11,0,0,1-6.91-.23A7.21,7.21,0,0,1,191.33,106.14Zm-27.81,21a7.47,7.47,0,0,1,.1,6.81,7.29,7.29,0,0,1,6.39-.24,8.73,8.73,0,0,1-.67-3.24,24,24,0,0,1,.55-3A7.28,7.28,0,0,1,163.52,127.18Zm119.79,108a7.64,7.64,0,0,1,6.73,0,7.29,7.29,0,0,1-.24-6.53,7.94,7.94,0,0,1-6.25.19A7.35,7.35,0,0,1,283.31,235.21Zm18.61-18.52a7.59,7.59,0,0,1,6.52.19,7.38,7.38,0,0,1-.21-6.6,7.65,7.65,0,0,1-6.19.25A8.07,8.07,0,0,1,301.92,216.69Zm25-55a7.16,7.16,0,0,1-.11-6.81,7.45,7.45,0,0,1-6.4.32,8.13,8.13,0,0,1,.08,6.11A7.55,7.55,0,0,1,326.91,161.72Zm-34.08,58.07a7.88,7.88,0,0,1-.14,6.12,7.63,7.63,0,0,1,6.55.15,7.39,7.39,0,0,1-.36-6.34C296.12,220.48,295.43,220.49,292.83,219.79ZM170,170.51a8.07,8.07,0,0,1,0-6.09,7.45,7.45,0,0,1-6.25-.16,10.47,10.47,0,0,1,.72,3.26,10.94,10.94,0,0,1-.72,3.16C166.62,169.76,167.12,169.74,170,170.51Zm2.8,28a7.86,7.86,0,0,1,6.47-.39,8,8,0,0,1-.17-6,11.08,11.08,0,0,1-3.1.53,13.47,13.47,0,0,1-3-.73A7.46,7.46,0,0,1,172.76,198.52Zm37.08,30.34a7.63,7.63,0,0,1-.11,6.29,8,8,0,0,1,6.4-.13,7.5,7.5,0,0,1-.22-6.08A8.12,8.12,0,0,1,209.84,228.86ZM179,124.26a8.23,8.23,0,0,1,.25-6,7.61,7.61,0,0,1-6.48-.15,7.35,7.35,0,0,1,.36,6.31C175.92,123.68,176.29,123.67,179,124.26Zm2.93-15.53a7.58,7.58,0,0,1,.34,6.56,7.53,7.53,0,0,1,5.29-.4c.38.11.64,0,.5-.44a8.39,8.39,0,0,1,.34-5.37A7.26,7.26,0,0,1,181.89,108.73ZM262.2,244.28a7.78,7.78,0,0,1-.19-6.13,11.07,11.07,0,0,1-2.94.58,9,9,0,0,1-3.15-.62,7.58,7.58,0,0,1-.1,6.22A7.61,7.61,0,0,1,262.2,244.28Zm-24.59-6.15c.66,2.69.66,2.69-.12,6.21a7.38,7.38,0,0,1,6.33,0,7.22,7.22,0,0,1-.25-6.17A8,8,0,0,1,237.61,238.13ZM219.22,96.68a7.67,7.67,0,0,1,5.84,0,8,8,0,0,1,.35-6.27,7,7,0,0,1-6.73-.08A7.73,7.73,0,0,1,219.22,96.68ZM191.5,210.48a8.19,8.19,0,0,1-.11,6.28,7.72,7.72,0,0,1,6.2-.26,7.91,7.91,0,0,1-.14-5.91A8.05,8.05,0,0,1,191.5,210.48Zm9,15.48a7.85,7.85,0,0,1,6.25-.26,8,8,0,0,1-.1-6,8.18,8.18,0,0,1-6,0A7.7,7.7,0,0,1,200.52,226Zm-12.09-18.58a8,8,0,0,1-.17-6,8.18,8.18,0,0,1-6-.1,8,8,0,0,1-.11,6.27A7.57,7.57,0,0,1,188.43,207.38Zm-18.5-55.24a8.56,8.56,0,0,1-.11-6,7.44,7.44,0,0,1-6-.16,7.86,7.86,0,0,1,0,6.34A7.45,7.45,0,0,1,169.93,152.14Zm141.56-18.73a8.56,8.56,0,0,1,5.9.28,7.56,7.56,0,0,1,.09-6.36,8,8,0,0,1-6.11.43A7.47,7.47,0,0,1,311.49,133.41ZM289.8,99.79a7.67,7.67,0,0,1-6.25.11,7.77,7.77,0,0,1,.37,5.77,8.11,8.11,0,0,1,5.6.13A8.29,8.29,0,0,1,289.8,99.79Zm27.55,83a8.18,8.18,0,0,1-6,.37,8,8,0,0,1,0,5.72,7.6,7.6,0,0,1,6,.16A7.85,7.85,0,0,1,317.35,182.76Zm-144.3-2.95a7.34,7.34,0,0,1,6-.21,8.06,8.06,0,0,1-.08-5.74,8.32,8.32,0,0,1-5.8-.11A7.65,7.65,0,0,1,173.05,179.81Zm82.88-89.17a8,8,0,0,1,.48,5.15c-.16.58.21.56.59.46a7.31,7.31,0,0,1,4,0c.39.11.76.09.6-.47a7.81,7.81,0,0,1,.52-5.21A7.3,7.3,0,0,1,255.93,90.64Zm-18.44,0a7.66,7.66,0,0,1,.51,5c-.15.51,0,.76.57.6a7.22,7.22,0,0,1,4,0c.28.07.73.16.59-.34a8.62,8.62,0,0,1,.4-5.23A7.4,7.4,0,0,1,237.49,90.65Zm27.73,144.28a7.76,7.76,0,0,1,6.09.06,7.28,7.28,0,0,1-.22-6,7.88,7.88,0,0,1-5.67.17A8.18,8.18,0,0,1,265.22,234.93Zm-30.84,0a8.35,8.35,0,0,1-.37-5.62,19.32,19.32,0,0,1-2.67.34,20,20,0,0,1-2.78-.4,7.69,7.69,0,0,1-.2,5.71A7.67,7.67,0,0,1,234.38,234.91Zm64.51-125.86a8.32,8.32,0,0,1-5.82.35,7.54,7.54,0,0,1,.37,4.56c-.11.42-.16.84.51.66a7.75,7.75,0,0,1,4.61.29C298.07,111.9,298.07,111.9,298.89,109.05Zm9,15.13a8.23,8.23,0,0,1,.29-5.93,7.8,7.8,0,0,1-5.91.32,7.54,7.54,0,0,1,.36,4.72c-.11.43,0,.72.5.57A8.24,8.24,0,0,1,307.89,124.18Zm9.35,40.34a8.26,8.26,0,0,1-5.61.34,9,9,0,0,1,0,5.37,8.16,8.16,0,0,1,5.56.15A7.73,7.73,0,0,1,317.24,164.52ZM178.79,155.6a8.54,8.54,0,0,1-5.64-.18,7.44,7.44,0,0,1,.08,5.8,8.59,8.59,0,0,1,5.58-.27A8,8,0,0,1,178.79,155.6Zm31.15-55.66a7.43,7.43,0,0,1,.48,4.88c-.13.46-.07.82.54.63a9,9,0,0,1,4.6.07,7.85,7.85,0,0,1,.17-5.36A8.15,8.15,0,0,1,209.94,99.94ZM173.23,137a7.32,7.32,0,0,1,0,5.82,8.38,8.38,0,0,1,5.54-.32,8.92,8.92,0,0,1,0-5.24A8.83,8.83,0,0,1,173.23,137Zm79.26,92.18a7.56,7.56,0,0,1-5.4,0,8.68,8.68,0,0,1-.22,5.64,7.35,7.35,0,0,1,5.8,0A8.4,8.4,0,0,1,252.49,229.18ZM317.22,152a7.7,7.7,0,0,1-.09-5.83,8.29,8.29,0,0,1-5.44.33,9.64,9.64,0,0,1,0,5.22A8.57,8.57,0,0,1,317.22,152ZM308,192.19a8.19,8.19,0,0,1-5.6.3,8.36,8.36,0,0,1,0,5.39A7.87,7.87,0,0,1,308,198,7.47,7.47,0,0,1,308,192.19ZM219.4,220a8.08,8.08,0,0,1-.11,5.65,7.65,7.65,0,0,1,5.72-.09,7.73,7.73,0,0,1-.2-5.49A7.64,7.64,0,0,1,219.4,220Zm60.94,5.68a8.48,8.48,0,0,1-.28-5.65,8,8,0,0,1-5.36.14,8.13,8.13,0,0,1,0,5.42A7.41,7.41,0,0,1,280.34,225.64Zm-97.91-36.85a8.7,8.7,0,0,1,5.6-.24,8.15,8.15,0,0,1-.1-5.34,8.55,8.55,0,0,1-5.41,0A7.37,7.37,0,0,1,182.43,188.79Zm18.51,18.37a8.58,8.58,0,0,1,5.44-.26,7.36,7.36,0,0,1-.26-4.36c.15-.51,0-.78-.57-.61a8,8,0,0,1-4.5-.25A8.07,8.07,0,0,1,200.94,207.16Zm-9-14.66a8.92,8.92,0,0,1-.13,5.43,8.51,8.51,0,0,1,5.41-.2,7.36,7.36,0,0,1-.25-4.48c.13-.49-.11-.65-.56-.52A7.89,7.89,0,0,1,191.92,192.5Zm18.39,18.38a9,9,0,0,1-.14,5.45,8.52,8.52,0,0,1,5.43-.21,7.47,7.47,0,0,1-.26-4.37c.13-.46.06-.82-.55-.64A7.92,7.92,0,0,1,210.31,210.88Zm88.22-9.26a7.46,7.46,0,0,1-4.49.32c-.26-.07-.75-.19-.62.31a10.4,10.4,0,0,1-.11,4.7,8.61,8.61,0,0,1,5.38.13A7.78,7.78,0,0,1,298.53,201.62ZM284,216.22a8.27,8.27,0,0,1,5.47.09,8.77,8.77,0,0,1-.24-5.35,8.18,8.18,0,0,1-4.4.18c-.45-.12-.71,0-.56.51A7.93,7.93,0,0,1,284,216.22Zm-77.81-101.6a8.81,8.81,0,0,1,0-4.33c.13-.41.05-.74-.48-.57a8.41,8.41,0,0,1-4.72-.26,8.5,8.5,0,0,1,.3,5.24A8.81,8.81,0,0,1,206.14,114.62ZM187.79,128.1a8.86,8.86,0,0,1-5.22-.15,9.08,9.08,0,0,1,.22,5.33,9.22,9.22,0,0,1,5-.29A8.66,8.66,0,0,1,187.79,128.1Zm-5.15,42.18a7.67,7.67,0,0,1,5.17-.29,8.55,8.55,0,0,1-.16-4.33c.1-.4,0-.64-.4-.51a8.69,8.69,0,0,1-4.54-.2A8.9,8.9,0,0,1,182.64,170.28Zm55.23,55.06a9.44,9.44,0,0,1,5.32,0,7.53,7.53,0,0,1-.3-4.3c.08-.27.29-.84-.36-.67a9.76,9.76,0,0,1-4.49-.09A8,8,0,0,1,237.87,225.34Zm23.66-5.08a9,9,0,0,1-4.41.13c-.42-.11-.62,0-.5.43a8,8,0,0,1-.26,4.53,9.52,9.52,0,0,1,5.29,0A7.84,7.84,0,0,1,261.53,220.26ZM197,118.93a8.78,8.78,0,0,1-4.35,0c-.54-.17-.74,0-.56.57a8.61,8.61,0,0,1,0,4.42,8.88,8.88,0,0,1,4.85-.18A9.06,9.06,0,0,1,197,118.93Zm110.8,60.49a9.06,9.06,0,0,1-.23-5.26,8.93,8.93,0,0,1-4.92.14,8.45,8.45,0,0,1,0,4.88A8.19,8.19,0,0,1,307.78,179.42ZM265.9,105.26a7.91,7.91,0,0,1,4.12-.07c.33.09.64.06.53-.42a9.18,9.18,0,0,1,.32-4.54,7.17,7.17,0,0,1-4.41.29c-.62-.18-.79.08-.61.66A9,9,0,0,1,265.9,105.26Zm-83.12,46.36a8.52,8.52,0,0,1,4.95-.11,9.17,9.17,0,0,1-.08-4.79,9.31,9.31,0,0,1-4.86-.09A9,9,0,0,1,182.78,151.62Zm50.88-46.38a8.82,8.82,0,0,1,.06-4.16c.13-.43,0-.71-.51-.55a7.77,7.77,0,0,1-4.46-.21,8.32,8.32,0,0,1,.31,4.34c-.14.49.12.63.56.51A8.28,8.28,0,0,1,233.66,105.24Zm-4.88,110.9a8.05,8.05,0,0,1,5.13-.14,9.54,9.54,0,0,1-.27-4.86,9.29,9.29,0,0,1-4.74,0A7.87,7.87,0,0,1,228.78,216.14Zm78.83-78.85a7.17,7.17,0,0,1-4.08.32c-.63-.17-.81.06-.65.65a6.54,6.54,0,0,1,0,3.23c-.08.33-.19.74.45.61a9.51,9.51,0,0,1,4.22.21A9.4,9.4,0,0,1,307.61,137.29Zm0,23.47a7.54,7.54,0,0,1-.2-4.21c.14-.58,0-.74-.54-.57a7.21,7.21,0,0,1-3.36.12c-.54-.09-.77,0-.62.55a6.82,6.82,0,0,1,0,3.36c-.08.32-.09.66.42.53A8.87,8.87,0,0,1,307.6,160.76ZM192,179.28a8.5,8.5,0,0,1,4.95-.25,9.25,9.25,0,0,1-.1-4.67,9.74,9.74,0,0,1-4.74,0A8,8,0,0,1,192,179.28Zm60-74.14a9.44,9.44,0,0,1,.09-3.94c.2-.66-.07-.74-.66-.59a6.42,6.42,0,0,1-3.37,0c-.54-.15-.77,0-.59.56a10.1,10.1,0,0,1,.12,4A10.92,10.92,0,0,1,252,105.14Zm13.75,110.94a8.14,8.14,0,0,1,4.9-.11,7.93,7.93,0,0,1-.19-4.14c.16-.56-.15-.59-.56-.49a6.87,6.87,0,0,1-3.37,0c-.5-.12-.59.11-.51.57A9.21,9.21,0,0,1,265.74,216.08Zm-41.21-9.4a8.41,8.41,0,0,1-.24-3.79c.11-.52.07-.89-.61-.7a6.54,6.54,0,0,1-3.23,0c-.42-.1-.69,0-.55.49a6.35,6.35,0,0,1,0,3.35c-.15.54.06.76.59.6A8.29,8.29,0,0,1,224.53,206.68Zm73.87-18.29a8.08,8.08,0,0,1-.17-4.83,8.29,8.29,0,0,1-3.8.24c-.47-.11-.9-.13-.71.6a6.07,6.07,0,0,1,0,3.11c-.11.46-.08.79.55.62A8.06,8.06,0,0,1,298.4,188.39ZM251.9,212c.15-.47,0-.73-.55-.58a6.54,6.54,0,0,1-3.23,0c-.4-.1-.65-.06-.55.51a7,7,0,0,1-.07,3.35c-.15.52.07.65.52.54a6.84,6.84,0,0,1,3.48,0c.43.11.66,0,.51-.53A8.16,8.16,0,0,1,251.9,212Zm-50.47-28.36a8.35,8.35,0,0,1,0,4c-.17.59.16.68.64.55a6.11,6.11,0,0,1,3.09-.06c.65.16.8-.05.65-.63a5.76,5.76,0,0,1-.05-3c.19-.73-.11-.86-.72-.71A8.51,8.51,0,0,1,201.43,183.62Zm73.93-69.38a11.75,11.75,0,0,1,4.35.11,9.12,9.12,0,0,1,.13-4.67,7.56,7.56,0,0,1-3.79.29c-.56-.12-1-.12-.73.66A8.75,8.75,0,0,1,275.36,114.24Zm-60.13,83.22a8.1,8.1,0,0,1-.17-3.92c.13-.5-.13-.62-.57-.51a6.47,6.47,0,0,1-3.24-.05c-.46-.11-.65.05-.52.55a6.21,6.21,0,0,1,0,3.23c-.13.51,0,.78.58.62A7.67,7.67,0,0,1,215.23,197.46Zm-23-41.43a10.75,10.75,0,0,1,.29,2.81c-.12,1.61-.12,1.58,1.47,1.5.86,0,2,.4,2.51,0s-.2-1.59,0-2.44c.07-.34.07-.7.16-1,.12-.49.05-.81-.54-.66A8.82,8.82,0,0,1,192.22,156ZM276,202.26c-.52-.16-.83-.07-.68.52a6.62,6.62,0,0,1-.05,3.22c-.11.46,0,.67.51.54a6.17,6.17,0,0,1,3.22,0c.58.15.84,0,.65-.63a6.15,6.15,0,0,1-.06-3.1c.16-.71-.13-.75-.65-.61A6.36,6.36,0,0,1,276,202.26Zm12.79-8.59c.22-.68,0-.81-.55-.67-1.17.32-2.61-.29-3.42.14s.21,2.11-.23,3.22a2.27,2.27,0,0,0-.06.25c-.13.52-.12.83.61.66a6.26,6.26,0,0,1,3.1.06c.67.19.78-.09.62-.65A6.68,6.68,0,0,1,288.77,193.67Zm-96.52-51.55a9.13,9.13,0,0,1,3.8-.15c.32.08.63.06.52-.45a10.74,10.74,0,0,1,0-3.83,9.85,9.85,0,0,1-4.42-.08A8.43,8.43,0,0,1,192.25,142.12Zm101.56-9.32a7.21,7.21,0,0,1,3.63,0c.52.14.74-.05.59-.6a6.26,6.26,0,0,1,0-3.1c.06-.28.26-.85-.36-.68a12.24,12.24,0,0,1-4,.1A11.11,11.11,0,0,1,293.81,132.8Zm-55.5,73.82a8.52,8.52,0,0,1,3.69-.21c.34.05.8.22.64-.39a10,10,0,0,1,0-3.79,8,8,0,0,1-3.49.08c-.73-.16-.73.14-.63.65A9.57,9.57,0,0,1,238.31,206.62Zm50.51-83.07a8.72,8.72,0,0,1,0-3.74c.14-.5,0-.79-.55-.62a9.16,9.16,0,0,1-3.8,0,8,8,0,0,1,.23,3.31c-.11.75.18.9.85.81A9,9,0,0,1,288.82,123.55Zm-69-13.72a8.79,8.79,0,0,1,.27,3.77c-.1.59.1.68.61.57,1-.21,2.28.26,3.06-.12,1-.48,0-1.91.36-2.87a4.47,4.47,0,0,0,.16-.63c.11-.46,0-.7-.52-.56A8.31,8.31,0,0,1,219.78,109.83Zm-18.26,59.86a8.65,8.65,0,0,1,3.63-.15c.45.11.64,0,.54-.55a11.21,11.21,0,0,1,.06-3.6,7.13,7.13,0,0,1-3.46.05c-.69-.19-.7.15-.61.69A9.06,9.06,0,0,1,201.52,169.69Zm58.1,36.56c1.48.57,1.59-.12,1.28-1.39a4.58,4.58,0,0,1,.08-1.8c.1-.59,0-.8-.63-.68a7.82,7.82,0,0,1-2.73,0c-.62-.1-.8.07-.61.68a2.2,2.2,0,0,1,.09.77c0,.85-.07,1.7-.11,2.54Zm38.51-36.54A7.52,7.52,0,0,1,298,166c.16-.7-.22-.63-.64-.53a6.15,6.15,0,0,1-2.86.07c-.49-.1-.65.06-.57.53a8.64,8.64,0,0,1,0,3c-.07.4.08.61.49.51A9.07,9.07,0,0,1,298.13,169.71Zm-96.5-36.92c1.3-.35,2.6.09,3.51-.31,1.17-.51,0-2,.48-3,0-.07,0-.17,0-.26.1-.47-.1-.66-.55-.56a11.15,11.15,0,0,1-3.54-.12A10.85,10.85,0,0,1,201.63,132.79Zm13.28-13.5a10.42,10.42,0,0,1-4.17-.11,9.44,9.44,0,0,1,.19,3.48c-.12.59.07.8.68.69a6.64,6.64,0,0,1,2.59,0c.55.11.71-.14.6-.64A11.83,11.83,0,0,1,214.91,119.29Zm80.67,31.63,2.32.18c0-.72-.07-1.45-.11-2.17,0,0,0-.09,0-.13.05-1.67.05-1.65-1.61-1.58-.72,0-1.68-.34-2.11,0s.13,1.36,0,2.09c-.09.55-.34,1.32-.08,1.62S295.14,150.8,295.58,150.92ZM233.44,197.2c-.29-1.25.11-2.55-.27-3.46-.51-1.19-2,0-3-.5,0,0-.08,0-.13,0-.49-.09-.78,0-.61.6.32,1.09-.45,2.49.05,3.15s2-.17,3.07.15A5.2,5.2,0,0,0,233.44,197.2Zm9.14-87.08c-.67,0-1.22.13-1.78.13a8.53,8.53,0,0,1-1.68-.11c-.64-.14-.67.12-.54.6a6.84,6.84,0,0,1,.12,2.59c-.06.53-.06.82.63.66a10.19,10.19,0,0,1,3,0c0-1,.08-2,.13-3C242.45,110.77,242.52,110.51,242.58,110.12Zm14.36-.05c.27,1.2-.05,2.41.29,3.32.48,1.3,1.94.08,2.89.52a1.27,1.27,0,0,0,.39,0c.28,0,.39-.13.35-.39A12.88,12.88,0,0,1,261,110,10.36,10.36,0,0,1,256.94,110.07Zm-44,64.76c-.63,0-1.48-.25-1.86.06s.08,1.21.06,1.85-.52,1.47-.08,1.84,1.21,0,1.85-.06,1.49.3,1.84,0,0-1.21,0-1.85C214.71,174.92,214.7,174.92,212.91,174.83ZM204.57,151c.88.39,1.33,0,.91-1.32-.27-.84.57-2-.11-2.43s-1.79,0-2.69-.09-1.15,0-.9.86a2.38,2.38,0,0,1,.1.65c0,.77-.08,1.55-.13,2.33Zm61.82,44.28c0,.41-.34,1.19-.08,1.58.4.58,1.19-.13,1.81,0a2.26,2.26,0,0,0,.26,0c.56.07,1.29.38,1.64.14.55-.38-.09-1.09,0-1.69s.35-1.58,0-2-1.28.07-2,0C266.41,193.36,266.41,193.39,266.39,195.32Zm-44.94-11.21c-1.2-.11-1.16-.11-1.13,1.29,0,.81-.42,1.89,0,2.36s1.53-.24,2.33,0c1.34.4,1.63-.07,1.35-1.35-.16-.74.27-1.84-.11-2.21S222.38,184.11,221.45,184.11Zm64.4-9.24c-1.09-.45-1.14.28-.94,1.41a4.58,4.58,0,0,1-.11,1.68c-.11.59,0,.79.64.65a5.12,5.12,0,0,1,2.46.06c.74.21.84-.12.71-.72-.06-.26-.07-.52-.13-.78-.19-.77.5-1.79,0-2.22S287,174.87,285.85,174.87ZM251.66,197.1a21.82,21.82,0,0,1,0-3.88c-1.2.28-2.49-.16-3.3.19-1,.44-.05,2-.44,3a.59.59,0,0,0,0,.13c-.15.45,0,.68.47.55A8.09,8.09,0,0,1,251.66,197.1Zm24.9-12.92c-1.14-.55-1,.26-.88,1.3a13.67,13.67,0,0,1-.07,2.3,10.33,10.33,0,0,1,2.29,0c1.17.22,1.73.17,1.36-1.27a8.55,8.55,0,0,1,0-2.31Zm-65.61-24a14.22,14.22,0,0,1,3.31-.1c.3,0,.45-.06.43-.44a17.29,17.29,0,0,0-.2-3.07c0-.17-1.45,0-2.22,0a3,3,0,0,1-.65-.11c-.53-.1-.7.07-.57.63A8.17,8.17,0,0,1,211,160.21Zm76-22.09c-1.86.08-1.86.08-1.89,1.9a1.7,1.7,0,0,1,0,.39c-.22,1,0,1.46,1.15,1.14.76-.21,1.79.53,2.22,0s-.13-1.52.05-2.24c.31-1.27-.14-1.51-1.25-1.22A1.1,1.1,0,0,1,286.94,138.12ZM285,158.54c-.48,1.34.14,1.82,1.64,1.44a1.14,1.14,0,0,1,.52,0c1.09.29,1.59.1,1.28-1.21-.16-.68.37-1.69,0-2.14-.47-.62-1.45.19-2.2,0-1.3-.4-1.49.22-1.28,1.29A3.47,3.47,0,0,1,285,158.54Zm-73.81-18.73h0c0,.6-.23,1.39.06,1.76s1.12-.12,1.72,0a3,3,0,0,1,.52,0c1.13.37,1.2-.2,1.09-1.11-.08-.72.29-1.65,0-2.15s-1.36.09-2.06-.13c-1.22-.38-1.56.12-1.28,1.25A1.7,1.7,0,0,1,211.19,139.81Zm31.13,44.4a13.72,13.72,0,0,1-3,0c-.4-.08-.61,0-.53.44.16.92-.28,2,.05,2.71.44.91,1.68.07,2.54.34a2.28,2.28,0,0,0,.26,0c.54.1.85,0,.67-.65A7.4,7.4,0,0,1,242.32,184.21Zm-10.86-64.49c-.55,0-1-.06-1.41-.14s-.48.12-.51.49c-.16,2.89,0,3,2.74,3,.58,0,.8-.14.71-.72a2.81,2.81,0,0,1,0-1C233.36,119.81,232.89,119.22,231.46,119.72ZM223.77,168c0-2,0-2-1.84-2h-.13c-1.32-.39-1.65.18-1.38,1.39.14.63-.37,1.45.06,1.88s1.24-.14,1.86,0C223.69,169.53,224.2,169.12,223.77,168Zm46.29-48.44c-1,.17-2.06-.05-2.92.19-1.45.4-.11,1.71-.52,2.56-.18.37-.14.92.6.74s2,.39,2.53,0,0-1.72.24-2.6C270,120.11,270,119.85,270.06,119.51Zm-10.85,68.12c1.34.48,1.83-.11,1.4-1.64a.92.92,0,0,1,0-.52c.36-1.13-.16-1.32-1.15-1.18-.68.1-1.61-.23-2,.12s0,1.32-.13,2c-.34,1.27.13,1.54,1.25,1.28A3.65,3.65,0,0,1,259.21,187.63Zm-28-12.55a1.81,1.81,0,0,1-.52,0c-1-.3-1.4.1-1,1.07.28.78-.74,1.91.29,2.28.76.27,1.79-.09,2.7.05.36.06.44-.15.39-.48a9.08,9.08,0,0,1-.1-1.17C232.93,175.12,232.94,175.12,231.24,175.08Zm46.43-46.15c-1.8,0-2,.07-1.73,2.72.14,1.4,1.81.61,2.53.51,1.62-.22.48-1.72.63-2.6C279.38,128,278,129.35,277.67,128.93Zm-54,1.64a2.81,2.81,0,0,1,0-.52c.26-1.05-.14-1.26-1.13-1.09-.67.12-1.59-.31-2,0s.08,1.36-.08,2.08c0,0,0,.09,0,.13-.32,1,.1,1.19,1.09,1.11C223.68,132.11,223.68,132.17,223.68,130.57Zm52.18,36.88c0,1.64,0,1.87,2.73,1.64,1.29-.11.51-1.86.43-2.64-.12-1.27-1.47-.33-2.27-.5C275.05,165.6,276.16,167,275.86,167.45Zm-6.1,9.62c-.08-2.09-.11-2.27-2.55-1.88-1.42.23-.67,1.84-.54,2.55.3,1.53,1.79.42,2.71.6C270.55,178.56,269.33,177.38,269.76,177.07Zm-21.59-57.4a7.93,7.93,0,0,0,.06,2.82c.46,1.07,1.67,0,2.47.43a.59.59,0,0,0,.13,0c.44.12.53-.12.52-.49a9.73,9.73,0,0,0-.15-2.66c-.08-.23-1.36-.06-2.09-.07Zm-26.35,31c1.92,0,2.12-.08,1.79-2.58-.18-1.32-1.84-.64-2.54-.49-1.49.3-.35,1.74-.53,2.65C220.3,151.4,221.51,150.22,221.82,150.67Zm55.5,0c1.75,0,1.93,0,1.69-2.53-.13-1.29-1.59-.5-2.3-.45-1.72.11-.51,1.56-.69,2.35C275.71,151.38,277,150.23,277.32,150.63Zm-27.69,27.64c1.7,0,1.7,0,1.7-2.27,0-.92,0-1.12-2.6-.75-1.28.18-.46,1.73-.52,2.58C248.14,179.11,249.28,177.81,249.63,178.27Zm-16.84-19.88c0-1.61,0-1.76-2.4-1.55-1.44.12-.5,1.49-.53,2.18-.08,1.94,1.46.62,2.19.78C233.71,160.18,232.45,158.77,232.79,158.39Zm9.19,9.18c0-1.62,0-1.77-2.4-1.54-1.43.13-.5,1.5-.52,2.2-.07,1.92,1.46.6,2.19.77C242.94,169.37,241.61,167.94,242,167.57Zm17.14-1.44c-1.7,0-1.86,0-1.6,2.35.16,1.33,1.52.51,2.2.49,1.81-.05.55-1.51.7-2.26C260.72,165.24,259.41,166.58,259.12,166.13ZM232.73,140c0-1.58,0-1.66-2.11-1.58-1.75.07-.7,1.5-.72,2.14,0,2,1.52.57,2.27.74C233.57,141.59,232.28,140.27,232.73,140Zm9.07-9.15c.81-2.36-.83-1.63-1.75-1.69-2.17-.13-.86,1.54-.9,2.19-.14,1.88,1.34.49,2,.68C242.71,132.44,241.56,131,241.8,130.82Zm25,27.31c0,1.69,0,1.78,2.17,1.66,1.59-.1.67-1.43.67-2.09,0-1.86-1.44-.5-2.18-.73C266.14,156.56,267.09,157.8,266.81,158.13ZM269.56,140c.73-2.62-1.22-1.42-2-1.49-1.6-.14-.6,1.18-.67,1.75-.26,2.09,1.43.8,2.14,1C270.45,141.53,269.24,140.24,269.56,140Zm-10.37-10.84c-1.62,0-1.67,0-1.58,2.15.08,1.62,1.38.65,2,.65,1.87,0,.61-1.55.8-2.31C260.65,128.56,259.49,129.5,259.19,129.16Zm-9.6,30.53c1.58,0,1.66,0,1.52-2-.11-1.55-1.44-.68-2.06-.66-1.66.06-.53,1.45-.68,2.16C248.1,160.48,249.3,159.3,249.59,159.69Zm-9.25-9.19c1.63-.05,1.73-.06,1.54-2.07-.16-1.6-1.65-.72-2.2-.64-1.3.2-.39,1.49-.52,2.26C239,151.26,240.05,150.16,240.34,150.5Zm9.14-12c-1.84-.56-.87,1.12-1.07,1.94s.26.8.86.79c1.83,0,1.74,0,1.85-1.84C251.21,138.06,250.35,138.63,249.48,138.5Zm10.71,10.85c.69-2-.67-1.51-1.56-1.58-1.84-.15-.91,1.26-.93,1.88-.08,1.73,1.3.6,2,.76C261,150.74,260,149.53,260.19,149.35Z" style="fill:#942884"/><path d="M144.44,171.71l-.72.73c-1.33.61-2.58,1.4-4.14,1.39a6.36,6.36,0,1,1,2.91-12c.38.2.68.57,1.15.57l.84.84a12,12,0,0,1,1.33,3.76A9,9,0,0,1,144.44,171.71Z" style="fill:#942884"/><path d="M217.26,264.38l.72-.73a8,8,0,0,1,4.91-1.38,12,12,0,0,1,3.5,1.32l.81.82a9.68,9.68,0,0,1,1.35,4,6.36,6.36,0,1,1-11.86-3.05C216.89,265.06,217.07,264.72,217.26,264.38Z" style="fill:#942884"/><path d="M162.56,227.25h0a2.66,2.66,0,0,0-1.25.66,6.33,6.33,0,1,1-.3-10.75c.41.23.74.63,1.25.68l.35.36a3.07,3.07,0,0,0,.25.59,6.25,6.25,0,0,1-.07,7.75C162.66,226.76,162.48,227,162.56,227.25Z" style="fill:#942884"/><path d="M143.91,181.11l.3.3a5.34,5.34,0,0,0,.33.68,6.27,6.27,0,0,1,0,7.54c-.16.24-.43.45-.37.8l-.12.11c-.48,0-.76.39-1.12.62a6.33,6.33,0,1,1-.14-10.68C143.16,180.7,143.44,181.07,143.91,181.11Z" style="fill:#942884"/><path d="M145.76,130.71a6.31,6.31,0,1,1-6.33-6.31A6.29,6.29,0,0,1,145.76,130.71Z" style="fill:#942884"/><path d="M249.76,284.1a6.31,6.31,0,1,1,6.32-6.32A6.31,6.31,0,0,1,249.76,284.1Z" style="fill:#942884"/><path d="M194.56,265.71a6.3,6.3,0,1,1,6.35-6.19A6.32,6.32,0,0,1,194.56,265.71Z" style="fill:#942884"/><path d="M181.22,97.87a3.29,3.29,0,0,1-1.05,1,6.8,6.8,0,0,1-5.35,1.12A6.27,6.27,0,1,1,181.73,97Z" style="fill:#942884"/><path d="M264.22,80.54a3.29,3.29,0,0,1-1.05-1.05c-1.82-3.26-1.69-6,.39-8.21a6.27,6.27,0,1,1,1.69,9.82Z" style="fill:#942884"/><path d="M130.2,152a6.27,6.27,0,1,1-6.2,6.33A6.33,6.33,0,0,1,130.2,152Z" style="fill:#942884"/><path d="M231.46,271.5a6.29,6.29,0,1,1-6.36,6.19A6.33,6.33,0,0,1,231.46,271.5Z" style="fill:#942884"/><path d="M154.94,213.45a6.29,6.29,0,1,1-6.24-6.3A6.33,6.33,0,0,1,154.94,213.45Z" style="fill:#942884"/><path d="M268.21,271.51a6.28,6.28,0,1,1-6.33,6.23A6.34,6.34,0,0,1,268.21,271.51Z" style="fill:#942884"/><path d="M203.81,274.86a6.27,6.27,0,1,1,6.26-6.26A6.33,6.33,0,0,1,203.81,274.86Z" style="fill:#942884"/><path d="M217.72,79.78l-.48.48a6.94,6.94,0,0,1-5.41,1.39A6.25,6.25,0,0,1,206.78,76a6.31,6.31,0,0,1,3.63-6.16,6.23,6.23,0,0,1,7.91,8.91Z" style="fill:#942884"/><path d="M337.45,135.41,337,135a7,7,0,0,1-1.41-5.41,6.23,6.23,0,1,1,10.19,5.86,6.2,6.2,0,0,1-7.32.6Z" style="fill:#942884"/><path d="M139.45,198a6.25,6.25,0,1,1-6.24,6.29A6.31,6.31,0,0,1,139.45,198Z" style="fill:#942884"/><path d="M348,204.22a6.25,6.25,0,1,1-6.31-6.22A6.32,6.32,0,0,1,348,204.22Z" style="fill:#942884"/><path d="M314.27,244a6.23,6.23,0,1,1-6.37,6A6.28,6.28,0,0,1,314.27,244Z" style="fill:#942884"/><path d="M130.44,133.67a6.23,6.23,0,1,1-6.4,6A6.27,6.27,0,0,1,130.44,133.67Z" style="fill:#942884"/><path d="M311.16,259.4a6.23,6.23,0,1,1-6.17-6.22A6.3,6.3,0,0,1,311.16,259.4Z" style="fill:#942884"/><path d="M219.23,278a6.23,6.23,0,1,1-6-6.39A6.29,6.29,0,0,1,219.23,278Z" style="fill:#942884"/><path d="M291.78,89.67l-.94-1a7.05,7.05,0,0,1-1.21-5.09,6.21,6.21,0,1,1,3.42,6.7C292.62,90.12,292.2,89.89,291.78,89.67Z" style="fill:#942884"/><path d="M130.24,170.44a6.23,6.23,0,1,1-6.21,6.19A6.29,6.29,0,0,1,130.24,170.44Z" style="fill:#942884"/><path d="M190.11,89l-.37.38c-1.64.94-3.27,1.79-5.29,1.43a6.19,6.19,0,1,1,6.36-3C190.57,88.21,190.34,88.62,190.11,89Z" style="fill:#942884"/><path d="M295.73,274.81a6.21,6.21,0,1,1,6.21-6.17A6.26,6.26,0,0,1,295.73,274.81Z" style="fill:#942884"/><path d="M357.07,158.33a6.18,6.18,0,1,1-6.13-6.23A6.18,6.18,0,0,1,357.07,158.33Z" style="fill:#942884"/><path d="M323.37,247.2A6.18,6.18,0,1,1,329.5,241,6.18,6.18,0,0,1,323.37,247.2Z" style="fill:#942884"/><path d="M351,170.49a6.18,6.18,0,1,1-6.23,6.12A6.18,6.18,0,0,1,351,170.49Z" style="fill:#942884"/><path d="M240.64,280.81a6.18,6.18,0,1,1-6.24,6.12A6.19,6.19,0,0,1,240.64,280.81Z" style="fill:#942884"/><path d="M157.87,247.17A6.15,6.15,0,1,1,164,241,6.11,6.11,0,0,1,157.87,247.17Z" style="fill:#942884"/><path d="M130.28,201.2a6.15,6.15,0,1,1,6.13-6.2A6.11,6.11,0,0,1,130.28,201.2Z" style="fill:#942884"/><path d="M265.11,287a6.15,6.15,0,1,1-6.22-6.11A6.1,6.1,0,0,1,265.11,287Z" style="fill:#942884"/><path d="M148.46,238a6.12,6.12,0,1,1,6.3-5.87A6.08,6.08,0,0,1,148.46,238Z" style="fill:#942884"/><path d="M292.66,278a6.12,6.12,0,1,1-5.86-6.31A6.06,6.06,0,0,1,292.66,278Z" style="fill:#942884"/><path d="M167.08,244.09a6.12,6.12,0,1,1-6.17,6A6.08,6.08,0,0,1,167.08,244.09Z" style="fill:#942884"/><path d="M338.61,231.78a6.1,6.1,0,1,1-6.08-6.05A6,6,0,0,1,338.61,231.78Z" style="fill:#942884"/><path d="M127.14,149.13a6.07,6.07,0,1,1-6-6.11A6,6,0,0,1,127.14,149.13Z" style="fill:#942884"/><path d="M133.38,222.55a6.08,6.08,0,1,1,6,6.15A6,6,0,0,1,133.38,222.55Z" style="fill:#942884"/><path d="M182.33,259.44a6.1,6.1,0,1,1-6-6.14A6,6,0,0,1,182.33,259.44Z" style="fill:#942884"/><path d="M357,139.91a6.09,6.09,0,1,1-6-6.1A6,6,0,0,1,357,139.91Z" style="fill:#942884"/><path d="M357,195.1a6.09,6.09,0,1,1-6-6.13A6,6,0,0,1,357,195.1Z" style="fill:#942884"/><path d="M228.29,287a6.1,6.1,0,1,1-6.07-6.07A6,6,0,0,1,228.29,287Z" style="fill:#942884"/><path d="M185.45,274.68a6.09,6.09,0,1,1,6.06-6.08A6,6,0,0,1,185.45,274.68Z" style="fill:#942884"/><path d="M341.74,216.57a6.06,6.06,0,1,1-6.1,6.06A6,6,0,0,1,341.74,216.57Z" style="fill:#942884"/><path d="M240.53,72.41a6.06,6.06,0,1,1,6.11-6A6,6,0,0,1,240.53,72.41Z" style="fill:#942884"/><path d="M194.56,283.85a6.06,6.06,0,1,1,6.11-6A6,6,0,0,1,194.56,283.85Z" style="fill:#942884"/><path d="M121,173.53a6.06,6.06,0,1,1,6.11-6A6,6,0,0,1,121,173.53Z" style="fill:#942884"/><path d="M277.4,280.93a6.06,6.06,0,1,1-6.11,6A6,6,0,0,1,277.4,280.93Z" style="fill:#942884"/><path d="M292.59,75.54a6,6,0,1,1-6.08-6A6,6,0,0,1,292.59,75.54Z" style="fill:#942884"/><path d="M200.66,75.59a6,6,0,1,1-6-6.09A6,6,0,0,1,200.66,75.59Z" style="fill:#942884"/><path d="M145.5,112.28a6,6,0,1,1-6.12-6A6,6,0,0,1,145.5,112.28Z" style="fill:#942884"/><path d="M127.12,185.81a6.05,6.05,0,1,1-6.14-6A6,6,0,0,1,127.12,185.81Z" style="fill:#942884"/><path d="M130.23,207.4a6,6,0,1,1-6,6A6,6,0,0,1,130.23,207.4Z" style="fill:#942884"/><path d="M154.69,103.09a6,6,0,1,1-6-6A6,6,0,0,1,154.69,103.09Z" style="fill:#942884"/><path d="M259,72.39a6,6,0,1,1,6-6A6,6,0,0,1,259,72.39Z" style="fill:#942884"/><path d="M222.16,60.32a6,6,0,1,1-6,6A6.05,6.05,0,0,1,222.16,60.32Z" style="fill:#942884"/><path d="M255.8,296.22a6,6,0,1,1-6-6.07A6.06,6.06,0,0,1,255.8,296.22Z" style="fill:#942884"/><path d="M136.29,121.48a6,6,0,1,1-6-6A6,6,0,0,1,136.29,121.48Z" style="fill:#942884"/><path d="M231.32,290.16a6,6,0,1,1-5.95,6.08A6.05,6.05,0,0,1,231.32,290.16Z" style="fill:#942884"/><path d="M209.83,287a6,6,0,1,1-6-6A6.07,6.07,0,0,1,209.83,287Z" style="fill:#942884"/><path d="M163.85,94a6,6,0,1,1-6-6A6.08,6.08,0,0,1,163.85,94Z" style="fill:#942884"/><path d="M351,219.45a6,6,0,1,1,5.95-6.1A6.09,6.09,0,0,1,351,219.45Z" style="fill:#942884"/><path d="M121,124.71a6,6,0,1,1-6,6A6.07,6.07,0,0,1,121,124.71Z" style="fill:#942884"/><path d="M320.11,268.73a6,6,0,1,1-5.79-6.12A6.06,6.06,0,0,1,320.11,268.73Z" style="fill:#942884"/><path d="M274.15,296.31a6,6,0,1,1-5.79-6.12A6.06,6.06,0,0,1,274.15,296.31Z" style="fill:#942884"/><path d="M366.08,167.43a6,6,0,1,1-6-5.94A6.06,6.06,0,0,1,366.08,167.43Z" style="fill:#942884"/><path d="M366.06,185.87a6,6,0,1,1-5.93-6A6,6,0,0,1,366.06,185.87Z" style="fill:#942884"/><path d="M127,204.22a6,6,0,1,1-6-5.94A6,6,0,0,1,127,204.22Z" style="fill:#942884"/><path d="M323.38,253.44a6,6,0,1,1-6,5.87A6,6,0,0,1,323.38,253.44Z" style="fill:#942884"/><path d="M163.78,259.22a5.94,5.94,0,1,1-6.1-5.76A6,6,0,0,1,163.78,259.22Z" style="fill:#942884"/><path d="M310.88,277.77a5.95,5.95,0,1,1-5.94-5.92A6,6,0,0,1,310.88,277.77Z" style="fill:#942884"/><path d="M366,149.27a5.94,5.94,0,1,1-5.73-6.12A6,6,0,0,1,366,149.27Z" style="fill:#942884"/><path d="M148.5,256.16a5.95,5.95,0,1,1,6.09-5.76A6,6,0,0,1,148.5,256.16Z" style="fill:#942884"/><path d="M218.92,296.17a5.92,5.92,0,1,1-5.93-5.91A5.93,5.93,0,0,1,218.92,296.17Z" style="fill:#942884"/><path d="M139.5,246.94a5.92,5.92,0,1,1,5.87-6A5.93,5.93,0,0,1,139.5,246.94Z" style="fill:#942884"/><path d="M338.43,250.17a5.92,5.92,0,1,1-6-5.87A5.95,5.95,0,0,1,338.43,250.17Z" style="fill:#942884"/><path d="M173,84.73A5.92,5.92,0,1,1,167,78.82,5.92,5.92,0,0,1,173,84.73Z" style="fill:#942884"/><path d="M117.79,158.34a5.92,5.92,0,1,1-5.85-6A5.93,5.93,0,0,1,117.79,158.34Z" style="fill:#942884"/><path d="M167,274.52a5.92,5.92,0,1,1,5.93-5.91A5.93,5.93,0,0,1,167,274.52Z" style="fill:#942884"/><path d="M182.11,277.83a5.89,5.89,0,1,1-5.87-5.92A5.86,5.86,0,0,1,182.11,277.83Z" style="fill:#942884"/><path d="M295.77,292.87a5.89,5.89,0,1,1,5.85-5.95A5.86,5.86,0,0,1,295.77,292.87Z" style="fill:#942884"/><path d="M117.76,176.7a5.89,5.89,0,1,1-5.88-5.91A5.85,5.85,0,0,1,117.76,176.7Z" style="fill:#942884"/><path d="M338.39,103.16a5.88,5.88,0,1,1-5.88-5.92A5.85,5.85,0,0,1,338.39,103.16Z" style="fill:#942884"/><path d="M117.71,195.07a5.84,5.84,0,1,1-5.79-5.85A5.77,5.77,0,0,1,117.71,195.07Z" style="fill:#942884"/><path d="M191.26,287a5.84,5.84,0,1,1-5.83-5.82A5.77,5.77,0,0,1,191.26,287Z" style="fill:#942884"/><path d="M240.59,311.21a5.84,5.84,0,1,1,5.83-5.81A5.78,5.78,0,0,1,240.59,311.21Z" style="fill:#942884"/><path d="M365.93,204.27a5.84,5.84,0,1,1-5.79-5.86A5.77,5.77,0,0,1,365.93,204.27Z" style="fill:#942884"/><path d="M347.56,112.29a5.86,5.86,0,1,1-5.82-5.83A5.81,5.81,0,0,1,347.56,112.29Z" style="fill:#942884"/><path d="M106,139.9a5.84,5.84,0,1,1,5.81,5.83A5.77,5.77,0,0,1,106,139.9Z" style="fill:#942884"/><path d="M124.4,231.74a5.86,5.86,0,1,1,5.71,5.94A5.82,5.82,0,0,1,124.4,231.74Z" style="fill:#942884"/><path d="M341.81,235.18a5.84,5.84,0,1,1-5.94,5.7A5.78,5.78,0,0,1,341.81,235.18Z" style="fill:#942884"/><path d="M259,311.21a5.84,5.84,0,1,1,5.84-5.8A5.77,5.77,0,0,1,259,311.21Z" style="fill:#942884"/><path d="M277.39,60.49a5.86,5.86,0,1,1-5.9,5.76A5.81,5.81,0,0,1,277.39,60.49Z" style="fill:#942884"/><path d="M209.64,66.33a5.84,5.84,0,1,1-5.82-5.82A5.77,5.77,0,0,1,209.64,66.33Z" style="fill:#942884"/><path d="M329.18,94a5.86,5.86,0,1,1-5.77-5.89A5.81,5.81,0,0,1,329.18,94Z" style="fill:#942884"/><path d="M286.53,302a5.82,5.82,0,1,1,5.83-5.8A5.77,5.77,0,0,1,286.53,302Z" style="fill:#942884"/><path d="M115.26,222.59a5.81,5.81,0,1,1,5.8,5.85A5.76,5.76,0,0,1,115.26,222.59Z" style="fill:#942884"/><path d="M350.83,127.32a5.81,5.81,0,1,1,5.87-5.78A5.76,5.76,0,0,1,350.83,127.32Z" style="fill:#942884"/><path d="M319.92,84.7a5.8,5.8,0,1,1-5.87-5.76A5.76,5.76,0,0,1,319.92,84.7Z" style="fill:#942884"/><path d="M228,305.33a5.8,5.8,0,1,1-5.88-5.75A5.76,5.76,0,0,1,228,305.33Z" style="fill:#942884"/><path d="M176.18,69.75a5.8,5.8,0,1,1-5.75,5.88A5.76,5.76,0,0,1,176.18,69.75Z" style="fill:#942884"/><path d="M350.84,237.61a5.79,5.79,0,1,1,5.84-5.66A5.78,5.78,0,0,1,350.84,237.61Z" style="fill:#942884"/><path d="M194.58,302a5.79,5.79,0,1,1,5.82-5.68A5.77,5.77,0,0,1,194.58,302Z" style="fill:#942884"/><path d="M244,57.05a5.75,5.75,0,1,1,5.67,5.86A5.81,5.81,0,0,1,244,57.05Z" style="fill:#942884"/><path d="M369.27,170.92a5.75,5.75,0,1,1-5.74,5.8A5.8,5.8,0,0,1,369.27,170.92Z" style="fill:#942884"/><path d="M102.74,173.23a5.75,5.75,0,1,1,5.69-5.85A5.82,5.82,0,0,1,102.74,173.23Z" style="fill:#942884"/><path d="M231.32,62.91a5.75,5.75,0,1,1,5.82-5.71A5.8,5.8,0,0,1,231.32,62.91Z" style="fill:#942884"/><path d="M283.11,305.44a5.76,5.76,0,1,1-5.69-5.83A5.79,5.79,0,0,1,283.11,305.44Z" style="fill:#942884"/><path d="M111.87,207.69a5.75,5.75,0,1,1-5.74,5.79A5.81,5.81,0,0,1,111.87,207.69Z" style="fill:#942884"/><path d="M365.83,130.76a5.74,5.74,0,1,1-5.61-5.79A5.81,5.81,0,0,1,365.83,130.76Z" style="fill:#942884"/><path d="M375,158.24a5.74,5.74,0,1,1-5.72-5.69A5.81,5.81,0,0,1,375,158.24Z" style="fill:#942884"/><path d="M255.51,314.52a5.74,5.74,0,1,1-5.72-5.69A5.8,5.8,0,0,1,255.51,314.52Z" style="fill:#942884"/><path d="M102.72,154.83a5.74,5.74,0,1,1,5.7-5.71A5.8,5.8,0,0,1,102.72,154.83Z" style="fill:#942884"/><path d="M108.42,185.83a5.74,5.74,0,1,1-5.71-5.7A5.81,5.81,0,0,1,108.42,185.83Z" style="fill:#942884"/><path d="M209.52,305.37a5.72,5.72,0,1,1-5.68-5.72A5.78,5.78,0,0,1,209.52,305.37Z" style="fill:#942884"/><path d="M304.74,81.26a5.72,5.72,0,1,1,5.9-5.49A5.78,5.78,0,0,1,304.74,81.26Z" style="fill:#942884"/><path d="M145.15,259.39a5.7,5.7,0,1,1-5.71-5.68A5.75,5.75,0,0,1,145.15,259.39Z" style="fill:#942884"/><path d="M130.25,244.55a5.67,5.67,0,1,1-5.66,5.71A5.68,5.68,0,0,1,130.25,244.55Z" style="fill:#942884"/><path d="M369.31,189.36a5.7,5.7,0,1,1-5.72,5.67A5.75,5.75,0,0,1,369.31,189.36Z" style="fill:#942884"/><path d="M360.14,216.94a5.7,5.7,0,1,1-5.74,5.65A5.75,5.75,0,0,1,360.14,216.94Z" style="fill:#942884"/><path d="M237.08,314.57a5.7,5.7,0,1,1-5.69-5.7A5.75,5.75,0,0,1,237.08,314.57Z" style="fill:#942884"/><path d="M329,278a5.66,5.66,0,1,1-5.52-5.84A5.67,5.67,0,0,1,329,278Z" style="fill:#942884"/><path d="M157.79,283.49a5.7,5.7,0,1,1,5.75-5.65A5.75,5.75,0,0,1,157.79,283.49Z" style="fill:#942884"/><path d="M273.82,314.73a5.66,5.66,0,1,1-5.53-5.83A5.68,5.68,0,0,1,273.82,314.73Z" style="fill:#942884"/><path d="M332.52,274.27a5.67,5.67,0,1,1,5.66-5.71A5.7,5.7,0,0,1,332.52,274.27Z" style="fill:#942884"/><path d="M148.66,262.9a5.7,5.7,0,1,1-5.71,5.69A5.75,5.75,0,0,1,148.66,262.9Z" style="fill:#942884"/><path d="M130.27,108.79a5.67,5.67,0,1,1,5.66-5.7A5.69,5.69,0,0,1,130.27,108.79Z" style="fill:#942884"/><path d="M172.7,287.14a5.66,5.66,0,1,1-5.54-5.82A5.7,5.7,0,0,1,172.7,287.14Z" style="fill:#942884"/><path d="M126.74,112.27a5.67,5.67,0,1,1-5.75-5.62A5.7,5.7,0,0,1,126.74,112.27Z" style="fill:#942884"/><path d="M121.1,246.65a5.63,5.63,0,1,1,5.6-5.7A5.6,5.6,0,0,1,121.1,246.65Z" style="fill:#942884"/><path d="M314.09,292.62a5.64,5.64,0,1,1,5.67-5.64A5.61,5.61,0,0,1,314.09,292.62Z" style="fill:#942884"/><path d="M139.49,99.53A5.6,5.6,0,1,1,145.06,94,5.55,5.55,0,0,1,139.49,99.53Z" style="fill:#942884"/><path d="M117.48,121.53a5.61,5.61,0,1,1-5.52-5.62A5.55,5.55,0,0,1,117.48,121.53Z" style="fill:#942884"/><path d="M191.05,66.35a5.63,5.63,0,1,1-5.66-5.63A5.6,5.6,0,0,1,191.05,66.35Z" style="fill:#942884"/><path d="M213,309a5.58,5.58,0,1,1-5.53,5.61A5.53,5.53,0,0,1,213,309Z" style="fill:#942884"/><path d="M102.77,198.64a5.61,5.61,0,1,1-5.69,5.45A5.55,5.55,0,0,1,102.77,198.64Z" style="fill:#942884"/><path d="M176.2,290.6a5.58,5.58,0,1,1-5.55,5.57A5.52,5.52,0,0,1,176.2,290.6Z" style="fill:#942884"/><path d="M305,290.57a5.61,5.61,0,1,1-5.69,5.45A5.56,5.56,0,0,1,305,290.57Z" style="fill:#942884"/><path d="M341.73,253.8a5.61,5.61,0,1,1-5.63,5.51A5.57,5.57,0,0,1,341.73,253.8Z" style="fill:#942884"/><path d="M273.74,57.1a5.58,5.58,0,1,1-5.61-5.52A5.52,5.52,0,0,1,273.74,57.1Z" style="fill:#942884"/><path d="M213,51.55a5.61,5.61,0,1,1-5.57,5.57A5.56,5.56,0,0,1,213,51.55Z" style="fill:#942884"/><path d="M117.44,231.85a5.56,5.56,0,1,1-5.54-5.58A5.5,5.5,0,0,1,117.44,231.85Z" style="fill:#942884"/><path d="M301.28,305.31a5.55,5.55,0,1,1-5.64-5.48A5.49,5.49,0,0,1,301.28,305.31Z" style="fill:#942884"/><path d="M185.42,310.9a5.53,5.53,0,1,1,5.53-5.46A5.49,5.49,0,0,1,185.42,310.9Z" style="fill:#942884"/><path d="M148.62,90.28a5.55,5.55,0,1,1,5.57-5.54A5.5,5.5,0,0,1,148.62,90.28Z" style="fill:#942884"/><path d="M295.72,60.82a5.53,5.53,0,1,1-5.52,5.49A5.49,5.49,0,0,1,295.72,60.82Z" style="fill:#942884"/><path d="M235.06,323.68a5.52,5.52,0,1,1,5.41,5.6A5.5,5.5,0,0,1,235.06,323.68Z" style="fill:#942884"/><path d="M350.85,255.75a5.54,5.54,0,1,1,5.58-5.43A5.51,5.51,0,0,1,350.85,255.75Z" style="fill:#942884"/><path d="M286.5,320.08a5.52,5.52,0,1,1,5.56-5.47A5.54,5.54,0,0,1,286.5,320.08Z" style="fill:#942884"/><path d="M264.48,323.76a5.52,5.52,0,1,1-5.51-5.51A5.53,5.53,0,0,1,264.48,323.76Z" style="fill:#942884"/><path d="M374.82,213.38a5.54,5.54,0,1,1-5.53-5.47A5.49,5.49,0,0,1,374.82,213.38Z" style="fill:#942884"/><path d="M93.44,152.76A5.52,5.52,0,1,1,88,158.3,5.5,5.5,0,0,1,93.44,152.76Z" style="fill:#942884"/><path d="M374.83,139.93a5.55,5.55,0,1,1-5.55-5.58A5.49,5.49,0,0,1,374.83,139.93Z" style="fill:#942884"/><path d="M102.66,125.17a5.54,5.54,0,1,1-5.51,5.49A5.51,5.51,0,0,1,102.66,125.17Z" style="fill:#942884"/><path d="M93.52,182.19A5.52,5.52,0,1,1,99,176.67,5.51,5.51,0,0,1,93.52,182.19Z" style="fill:#942884"/><path d="M108.18,222.68a5.5,5.5,0,1,1-5.48-5.55A5.53,5.53,0,0,1,108.18,222.68Z" style="fill:#942884"/><path d="M99,195.05a5.5,5.5,0,1,1-5.54-5.5A5.52,5.52,0,0,1,99,195.05Z" style="fill:#942884"/><path d="M227.69,323.81a5.5,5.5,0,1,1-5.48-5.55A5.54,5.54,0,0,1,227.69,323.81Z" style="fill:#942884"/><path d="M194.59,320.05a5.49,5.49,0,1,1,5.51-5.5A5.53,5.53,0,0,1,194.59,320.05Z" style="fill:#942884"/><path d="M163.31,75.49a5.47,5.47,0,1,1-5.46-5.42A5.55,5.55,0,0,1,163.31,75.49Z" style="fill:#942884"/><path d="M384,167.46a5.48,5.48,0,1,1-5.43-5.46A5.55,5.55,0,0,1,384,167.46Z" style="fill:#942884"/><path d="M384,185.8a5.48,5.48,0,1,1-5.47-5.41A5.55,5.55,0,0,1,384,185.8Z" style="fill:#942884"/><path d="M365.56,241a5.47,5.47,0,1,1-5.4-5.48A5.54,5.54,0,0,1,365.56,241Z" style="fill:#942884"/><path d="M98.94,140a5.45,5.45,0,1,1-5.36-5.52A5.52,5.52,0,0,1,98.94,140Z" style="fill:#942884"/><path d="M135.69,268.61a5.43,5.43,0,1,1-5.42-5.44A5.48,5.48,0,0,1,135.69,268.61Z" style="fill:#942884"/><path d="M194.65,51.73a5.43,5.43,0,1,1-5.46,5.39A5.49,5.49,0,0,1,194.65,51.73Z" style="fill:#942884"/><path d="M154.08,287a5.43,5.43,0,1,1-5.38-5.48A5.49,5.49,0,0,1,154.08,287Z" style="fill:#942884"/><path d="M139.45,272.37A5.43,5.43,0,1,1,134,277.8,5.46,5.46,0,0,1,139.45,272.37Z" style="fill:#942884"/><path d="M277.33,318.36a5.4,5.4,0,1,1-5.37,5.45A5.42,5.42,0,0,1,277.33,318.36Z" style="fill:#942884"/><path d="M163.2,296.21a5.36,5.36,0,1,1-5.26-5.39A5.34,5.34,0,0,1,163.2,296.21Z" style="fill:#942884"/><path d="M93.5,218.8a5.36,5.36,0,1,1,5.35-5.31A5.32,5.32,0,0,1,93.5,218.8Z" style="fill:#942884"/><path d="M126.43,259.44a5.36,5.36,0,1,1-5.26-5.39A5.34,5.34,0,0,1,126.43,259.44Z" style="fill:#942884"/><path d="M383.83,204.29a5.36,5.36,0,1,1-5.24-5.4A5.33,5.33,0,0,1,383.83,204.29Z" style="fill:#942884"/><path d="M378.46,143.76a5.33,5.33,0,1,1-5.32,5.31A5.28,5.28,0,0,1,378.46,143.76Z" style="fill:#942884"/><path d="M203.85,318.43a5.33,5.33,0,1,1-5.37,5.26A5.27,5.27,0,0,1,203.85,318.43Z" style="fill:#942884"/><path d="M245.89,48.15a5.31,5.31,0,1,1-5.13-5.49A5.25,5.25,0,0,1,245.89,48.15Z" style="fill:#942884"/><path d="M369.3,237.14a5.31,5.31,0,1,1,5.29-5.33A5.26,5.26,0,0,1,369.3,237.14Z" style="fill:#942884"/><path d="M117.19,250.23a5.31,5.31,0,1,1-5.29-5.33A5.25,5.25,0,0,1,117.19,250.23Z" style="fill:#942884"/><path d="M167.15,300.06a5.31,5.31,0,1,1-5.42,5.2A5.25,5.25,0,0,1,167.15,300.06Z" style="fill:#942884"/><path d="M255.08,333a5.31,5.31,0,1,1-5.26-5.35A5.24,5.24,0,0,1,255.08,333Z" style="fill:#942884"/><path d="M108,241a5.28,5.28,0,1,1-5.24-5.25A5.24,5.24,0,0,1,108,241Z" style="fill:#942884"/><path d="M332.46,292.28A5.3,5.3,0,1,1,337.8,287,5.24,5.24,0,0,1,332.46,292.28Z" style="fill:#942884"/><path d="M291.84,57.11a5.3,5.3,0,1,1-5.38-5.24A5.24,5.24,0,0,1,291.84,57.11Z" style="fill:#942884"/><path d="M336.41,93.85a5.29,5.29,0,1,1,5.25,5.37A5.23,5.23,0,0,1,336.41,93.85Z" style="fill:#942884"/><path d="M84.33,180.57A5.29,5.29,0,1,1,79,185.86,5.23,5.23,0,0,1,84.33,180.57Z" style="fill:#942884"/><path d="M328.61,296.17a5.29,5.29,0,1,1-5.34-5.28A5.24,5.24,0,0,1,328.61,296.17Z" style="fill:#942884"/><path d="M231.32,327.66a5.29,5.29,0,1,1-5.22,5.39A5.23,5.23,0,0,1,231.32,327.66Z" style="fill:#942884"/><path d="M172.33,66.39A5.3,5.3,0,1,1,167,61.06,5.24,5.24,0,0,1,172.33,66.39Z" style="fill:#942884"/><path d="M314.14,300.1a5.28,5.28,0,1,1-5.29,5.19A5.22,5.22,0,0,1,314.14,300.1Z" style="fill:#942884"/><path d="M84.25,162.18A5.3,5.3,0,1,1,79,167.55,5.25,5.25,0,0,1,84.25,162.18Z" style="fill:#942884"/><path d="M341.72,272.52a5.28,5.28,0,1,1-5.29,5.19A5.22,5.22,0,0,1,341.72,272.52Z" style="fill:#942884"/><path d="M356.19,103.13a5.29,5.29,0,1,1-5.32-5.3A5.23,5.23,0,0,1,356.19,103.13Z" style="fill:#942884"/><path d="M310.18,314.51a5.25,5.25,0,1,1-5.3-5.2A5.25,5.25,0,0,1,310.18,314.51Z" style="fill:#942884"/><path d="M273.41,333a5.25,5.25,0,1,1-5.25-5.25A5.25,5.25,0,0,1,273.41,333Z" style="fill:#942884"/><path d="M227.46,48a5.27,5.27,0,1,1-5.22-5.28A5.24,5.24,0,0,1,227.46,48Z" style="fill:#942884"/><path d="M84.31,154.34a5.25,5.25,0,1,1,5.24-5.26A5.24,5.24,0,0,1,84.31,154.34Z" style="fill:#942884"/><path d="M258.79,53.23a5.27,5.27,0,1,1,5.44-5.06A5.25,5.25,0,0,1,258.79,53.23Z" style="fill:#942884"/><path d="M351,273.85a5.25,5.25,0,1,1,5.19-5.31A5.25,5.25,0,0,1,351,273.85Z" style="fill:#942884"/><path d="M181.49,314.54a5.27,5.27,0,1,1-5.25-5.24A5.24,5.24,0,0,1,181.49,314.54Z" style="fill:#942884"/><path d="M354.83,112.29a5.26,5.26,0,1,1,5.2,5.29A5.23,5.23,0,0,1,354.83,112.29Z" style="fill:#942884"/><path d="M332.51,90a5.25,5.25,0,1,1,5.25-5.25A5.25,5.25,0,0,1,332.51,90Z" style="fill:#942884"/><path d="M218.25,332.89a5.25,5.25,0,1,1-5.31-5.19A5.24,5.24,0,0,1,218.25,332.89Z" style="fill:#942884"/><path d="M89.54,204.3A5.24,5.24,0,1,1,84.31,199,5.28,5.28,0,0,1,89.54,204.3Z" style="fill:#942884"/><path d="M93.51,237.06a5.23,5.23,0,1,1,5.21-5.19A5.29,5.29,0,0,1,93.51,237.06Z" style="fill:#942884"/><path d="M383.69,222.67a5.22,5.22,0,1,1-5.15-5.25A5.28,5.28,0,0,1,383.69,222.67Z" style="fill:#942884"/><path d="M360,264.6a5.2,5.2,0,1,1,5.24-5.14A5.26,5.26,0,0,1,360,264.6Z" style="fill:#942884"/><path d="M295.73,318.54a5.22,5.22,0,1,1-5.21,5.19A5.28,5.28,0,0,1,295.73,318.54Z" style="fill:#942884"/><path d="M185.23,329a5.21,5.21,0,1,1,5.4-5A5.29,5.29,0,0,1,185.23,329Z" style="fill:#942884"/><path d="M374.48,121.56a5.2,5.2,0,1,1-5.14-5.24A5.27,5.27,0,0,1,374.48,121.56Z" style="fill:#942884"/><path d="M126.26,94a5.19,5.19,0,1,1-5.17-5.21A5.24,5.24,0,0,1,126.26,94Z" style="fill:#942884"/><path d="M111.82,108.32a5.2,5.2,0,1,1,5.25-5.14A5.26,5.26,0,0,1,111.82,108.32Z" style="fill:#942884"/><path d="M102.7,107.15a5.17,5.17,0,1,1-5.19,5.19A5.21,5.21,0,0,1,102.7,107.15Z" style="fill:#942884"/><path d="M392.84,176.69a5.17,5.17,0,1,1-5.18-5.19A5.23,5.23,0,0,1,392.84,176.69Z" style="fill:#942884"/><path d="M328.49,75.57a5.17,5.17,0,1,1-5.18-5.19A5.22,5.22,0,0,1,328.49,75.57Z" style="fill:#942884"/><path d="M240.54,337a5.14,5.14,0,1,1-5.1,5.11A5.16,5.16,0,0,1,240.54,337Z" style="fill:#942884"/><path d="M130.32,79.64a5.1,5.1,0,1,1-5.16,5A5.06,5.06,0,0,1,130.32,79.64Z" style="fill:#942884"/><path d="M208.91,48a5.1,5.1,0,1,1-5.06-5.11A5.06,5.06,0,0,1,208.91,48Z" style="fill:#942884"/><path d="M139.45,291.08a5.1,5.1,0,1,1-5.09,5.07A5.06,5.06,0,0,1,139.45,291.08Z" style="fill:#942884"/><path d="M130.32,292.08a5.1,5.1,0,1,1,5-5.12A5.06,5.06,0,0,1,130.32,292.08Z" style="fill:#942884"/><path d="M126.17,277.75a5.1,5.1,0,1,1-5.11-5.06A5.07,5.07,0,0,1,126.17,277.75Z" style="fill:#942884"/><path d="M181.33,57.21a5.1,5.1,0,1,1-5-5.15A5.07,5.07,0,0,1,181.33,57.21Z" style="fill:#942884"/><path d="M387.71,190a5.1,5.1,0,1,1-5.14,5A5.06,5.06,0,0,1,387.71,190Z" style="fill:#942884"/><path d="M98.59,121.48a5.1,5.1,0,1,1-5.1-5.07A5.07,5.07,0,0,1,98.59,121.48Z" style="fill:#942884"/><path d="M194.55,327.85a5.1,5.1,0,1,1-5,5.13A5.07,5.07,0,0,1,194.55,327.85Z" style="fill:#942884"/><path d="M392.74,158.24a5.07,5.07,0,1,1-5.12-5A5,5,0,0,1,392.74,158.24Z" style="fill:#942884"/><path d="M89.37,222.6a5.07,5.07,0,1,1-5.11-5A5,5,0,0,1,89.37,222.6Z" style="fill:#942884"/><path d="M116.92,268.64a5,5,0,1,1-5-5.09A5,5,0,0,1,116.92,268.64Z" style="fill:#942884"/><path d="M80.15,176.71a5,5,0,1,1-5-5.09A5,5,0,0,1,80.15,176.71Z" style="fill:#942884"/><path d="M291.59,332.94a5,5,0,1,1-5.09-5A5,5,0,0,1,291.59,332.94Z" style="fill:#942884"/><path d="M264,342.13a5,5,0,1,1-5.09-5A5,5,0,0,1,264,342.13Z" style="fill:#942884"/><path d="M153.69,305.4a5,5,0,1,1-5-5.07A5,5,0,0,1,153.69,305.4Z" style="fill:#942884"/><path d="M222.15,347.19a5,5,0,1,1,5.09-5A5,5,0,0,1,222.15,347.19Z" style="fill:#942884"/><path d="M369.26,245.14a5.07,5.07,0,1,1-5.05,5.09A5,5,0,0,1,369.26,245.14Z" style="fill:#942884"/><path d="M75.16,200.08a5,5,0,1,1,5-5A5,5,0,0,1,75.16,200.08Z" style="fill:#942884"/><path d="M162.87,314.53a5,5,0,1,1-5-5A5,5,0,0,1,162.87,314.53Z" style="fill:#942884"/><path d="M80.13,158.3a5,5,0,1,1-4.95-5.05A5,5,0,0,1,80.13,158.3Z" style="fill:#942884"/><path d="M319.14,66.3a5,5,0,1,1-5-5A5,5,0,0,1,319.14,66.3Z" style="fill:#942884"/><path d="M107.69,259.45a5,5,0,1,1-4.93-5.06A5,5,0,0,1,107.69,259.45Z" style="fill:#942884"/><path d="M378.48,125.69a5,5,0,1,1-5,5A5,5,0,0,1,378.48,125.69Z" style="fill:#942884"/><path d="M84.27,135.71a5,5,0,1,1,5-5A5,5,0,0,1,84.27,135.71Z" style="fill:#942884"/><path d="M387.66,218.44a5,5,0,1,1,5-5A5,5,0,0,1,387.66,218.44Z" style="fill:#942884"/><path d="M277.31,43a5,5,0,1,1-5,5A5,5,0,0,1,277.31,43Z" style="fill:#942884"/><path d="M139.41,70.55a5,5,0,1,1-4.95,5A5,5,0,0,1,139.41,70.55Z" style="fill:#942884"/><path d="M75.11,208.48a5,5,0,1,1-5,4.92A5,5,0,0,1,75.11,208.48Z" style="fill:#942884"/><path d="M337.47,305.36a5,5,0,1,1-4.94-4.95A5,5,0,0,1,337.47,305.36Z" style="fill:#942884"/><path d="M167,328.75a5,5,0,1,1,5-5A5,5,0,0,1,167,328.75Z" style="fill:#942884"/><path d="M208.78,342.21a5,5,0,1,1-4.85-5A5,5,0,0,1,208.78,342.21Z" style="fill:#942884"/><path d="M93.49,255.19a5,5,0,1,1,5-4.91A5,5,0,0,1,93.49,255.19Z" style="fill:#942884"/><path d="M383.44,241a5,5,0,1,1-5-4.91A5,5,0,0,1,383.44,241Z" style="fill:#942884"/><path d="M346.65,296.15a4.95,4.95,0,1,1-5-4.91A5,5,0,0,1,346.65,296.15Z" style="fill:#942884"/><path d="M323.32,309.62a4.95,4.95,0,1,1-4.95,4.95A5,5,0,0,1,323.32,309.62Z" style="fill:#942884"/><path d="M277.3,337.2a4.95,4.95,0,1,1-4.89,5A5,5,0,0,1,277.3,337.2Z" style="fill:#942884"/><path d="M355.82,287a4.92,4.92,0,1,1-5-4.88A5,5,0,0,1,355.82,287Z" style="fill:#942884"/><path d="M89.22,241a4.92,4.92,0,1,1-4.93-4.94A5,5,0,0,1,89.22,241Z" style="fill:#942884"/><path d="M181.15,332.92a4.92,4.92,0,1,1-5-4.89A5,5,0,0,1,181.15,332.92Z" style="fill:#942884"/><path d="M80,139.87A4.89,4.89,0,1,1,75.14,135,4.93,4.93,0,0,1,80,139.87Z" style="fill:#942884"/><path d="M319,323.73a4.89,4.89,0,1,1-4.85-4.86A4.93,4.93,0,0,1,319,323.73Z" style="fill:#942884"/><path d="M148.62,71.24a4.89,4.89,0,1,1,4.92-4.8A4.92,4.92,0,0,1,148.62,71.24Z" style="fill:#942884"/><path d="M249.73,356.23a4.89,4.89,0,1,1,4.93-4.79A4.94,4.94,0,0,1,249.73,356.23Z" style="fill:#942884"/><path d="M231.38,346.48a4.86,4.86,0,1,1-4.85,4.83A4.86,4.86,0,0,1,231.38,346.48Z" style="fill:#942884"/><path d="M236.2,38.74A4.82,4.82,0,1,1,231.35,34,4.77,4.77,0,0,1,236.2,38.74Z" style="fill:#942884"/><path d="M185.48,52.78a4.82,4.82,0,1,1,4.76-4.87A4.78,4.78,0,0,1,185.48,52.78Z" style="fill:#942884"/><path d="M360,282.61a4.82,4.82,0,1,1,4.9-4.73A4.78,4.78,0,0,1,360,282.61Z" style="fill:#942884"/><path d="M387.7,135.08a4.82,4.82,0,1,1-4.85,4.78A4.78,4.78,0,0,1,387.7,135.08Z" style="fill:#942884"/><path d="M305,52.34a4.82,4.82,0,1,1-4.84,4.8A4.77,4.77,0,0,1,305,52.34Z" style="fill:#942884"/><path d="M65.88,162.71a4.77,4.77,0,1,1-4.74,4.73A4.71,4.71,0,0,1,65.88,162.71Z" style="fill:#942884"/><path d="M185.42,346.91a4.77,4.77,0,1,1,4.77-4.7A4.71,4.71,0,0,1,185.42,346.91Z" style="fill:#942884"/><path d="M121.08,301a4.77,4.77,0,1,1,4.76-4.72A4.72,4.72,0,0,1,121.08,301Z" style="fill:#942884"/><path d="M396.84,181.07a4.79,4.79,0,1,1-4.77,4.84A4.73,4.73,0,0,1,396.84,181.07Z" style="fill:#942884"/><path d="M65.91,190.65a4.79,4.79,0,1,1,4.79-4.82A4.73,4.73,0,0,1,65.91,190.65Z" style="fill:#942884"/><path d="M245,38.76a4.79,4.79,0,1,1,4.82,4.8A4.74,4.74,0,0,1,245,38.76Z" style="fill:#942884"/><path d="M75.12,227.06a4.77,4.77,0,1,1-4.78,4.69A4.7,4.7,0,0,1,75.12,227.06Z" style="fill:#942884"/><path d="M304.9,328.18a4.77,4.77,0,1,1-4.74,4.74A4.72,4.72,0,0,1,304.9,328.18Z" style="fill:#942884"/><path d="M217.77,351.33a4.77,4.77,0,1,1-4.72-4.76A4.72,4.72,0,0,1,217.77,351.33Z" style="fill:#942884"/><path d="M268.14,356.09a4.75,4.75,0,1,1,4.77-4.7A4.7,4.7,0,0,1,268.14,356.09Z" style="fill:#942884"/><path d="M130.16,310.12a4.75,4.75,0,1,1,4.85-4.61A4.7,4.7,0,0,1,130.16,310.12Z" style="fill:#942884"/><path d="M107.12,286.88a4.76,4.76,0,1,1,4.62,4.86A4.73,4.73,0,0,1,107.12,286.88Z" style="fill:#942884"/><path d="M70.66,204.34A4.75,4.75,0,1,1,66,199.5,4.7,4.7,0,0,1,70.66,204.34Z" style="fill:#942884"/><path d="M396.84,172.23a4.76,4.76,0,1,1,4.77-4.7A4.72,4.72,0,0,1,396.84,172.23Z" style="fill:#942884"/><path d="M392.42,231.86a4.75,4.75,0,1,1-4.69-4.78A4.7,4.7,0,0,1,392.42,231.86Z" style="fill:#942884"/><path d="M369.25,273.34a4.74,4.74,0,1,1,4.77-4.7A4.73,4.73,0,0,1,369.25,273.34Z" style="fill:#942884"/><path d="M396.91,199.51a4.74,4.74,0,1,1-4.79,4.68A4.72,4.72,0,0,1,396.91,199.51Z" style="fill:#942884"/><path d="M144.19,314.54a4.74,4.74,0,1,1-4.76-4.71A4.71,4.71,0,0,1,144.19,314.54Z" style="fill:#942884"/><path d="M102.7,273.07A4.73,4.73,0,1,1,98,277.81,4.72,4.72,0,0,1,102.7,273.07Z" style="fill:#942884"/><path d="M157.79,52.45a4.71,4.71,0,1,1-4.66,4.7A4.75,4.75,0,0,1,157.79,52.45Z" style="fill:#942884"/><path d="M295.76,337.43a4.72,4.72,0,1,1-4.74,4.63A4.75,4.75,0,0,1,295.76,337.43Z" style="fill:#942884"/><path d="M65.88,144.38a4.71,4.71,0,1,1-4.68,4.68A4.74,4.74,0,0,1,65.88,144.38Z" style="fill:#942884"/><path d="M148.65,328.47a4.72,4.72,0,1,1,4.71-4.64A4.74,4.74,0,0,1,148.65,328.47Z" style="fill:#942884"/><path d="M208.27,38.72A4.73,4.73,0,1,1,213,43.5,4.73,4.73,0,0,1,208.27,38.72Z" style="fill:#942884"/><path d="M383.15,259.43a4.68,4.68,0,1,1-4.65-4.7A4.74,4.74,0,0,1,383.15,259.43Z" style="fill:#942884"/><path d="M93.44,273.3a4.7,4.7,0,1,1,4.75-4.62A4.77,4.77,0,0,1,93.44,273.3Z" style="fill:#942884"/><path d="M84.29,254.79a4.62,4.62,0,1,1-4.61,4.59A4.65,4.65,0,0,1,84.29,254.79Z" style="fill:#942884"/><path d="M65.85,227.29a4.66,4.66,0,1,1,4.71-4.53A4.73,4.73,0,0,1,65.85,227.29Z" style="fill:#942884"/><path d="M194.56,346.68a4.66,4.66,0,1,1-4.6,4.64A4.73,4.73,0,0,1,194.56,346.68Z" style="fill:#942884"/><path d="M268.2,43.39a4.62,4.62,0,1,1,4.58-4.63A4.65,4.65,0,0,1,268.2,43.39Z" style="fill:#942884"/><path d="M157.78,337.6a4.65,4.65,0,1,1,4.71-4.52A4.71,4.71,0,0,1,157.78,337.6Z" style="fill:#942884"/><path d="M240.76,355.88a4.65,4.65,0,1,1-4.82,4.4A4.71,4.71,0,0,1,240.76,355.88Z" style="fill:#942884"/><path d="M263.51,360.5A4.55,4.55,0,1,1,258.9,356,4.49,4.49,0,0,1,263.51,360.5Z" style="fill:#942884"/><path d="M107.26,93.94a4.58,4.58,0,1,1-4.56-4.59A4.55,4.55,0,0,1,107.26,93.94Z" style="fill:#942884"/><path d="M93.44,107.67a4.55,4.55,0,1,1,4.6-4.53A4.5,4.5,0,0,1,93.44,107.67Z" style="fill:#942884"/><path d="M222.15,356a4.58,4.58,0,1,1-4.54,4.62A4.55,4.55,0,0,1,222.15,356Z" style="fill:#942884"/><path d="M401.41,222.65a4.55,4.55,0,1,1-4.57-4.56A4.5,4.5,0,0,1,401.41,222.65Z" style="fill:#942884"/><path d="M291.09,351.38a4.55,4.55,0,1,1-4.54-4.59A4.49,4.49,0,0,1,291.09,351.38Z" style="fill:#942884"/><path d="M401.41,149.06a4.55,4.55,0,1,1-4.61-4.52A4.49,4.49,0,0,1,401.41,149.06Z" style="fill:#942884"/><path d="M56.69,190.54A4.52,4.52,0,1,1,52.2,195,4.45,4.45,0,0,1,56.69,190.54Z" style="fill:#942884"/><path d="M300.26,47.93a4.52,4.52,0,1,1-4.49-4.48A4.45,4.45,0,0,1,300.26,47.93Z" style="fill:#942884"/><path d="M364.61,93.92a4.52,4.52,0,1,1-4.47-4.51A4.46,4.46,0,0,1,364.61,93.92Z" style="fill:#942884"/><path d="M162.52,342.07a4.52,4.52,0,1,1,4.37,4.59A4.44,4.44,0,0,1,162.52,342.07Z" style="fill:#942884"/><path d="M56.61,181.17a4.5,4.5,0,1,1,4.61-4.36A4.45,4.45,0,0,1,56.61,181.17Z" style="fill:#942884"/><path d="M75.09,254.71a4.5,4.5,0,1,1,4.51-4.45A4.43,4.43,0,0,1,75.09,254.71Z" style="fill:#942884"/><path d="M116.4,84.68a4.52,4.52,0,1,1-4.52-4.46A4.46,4.46,0,0,1,116.4,84.68Z" style="fill:#942884"/><path d="M346.2,314.52a4.5,4.5,0,1,1-4.51-4.45A4.43,4.43,0,0,1,346.2,314.52Z" style="fill:#942884"/><path d="M355.39,84.76A4.5,4.5,0,1,1,351,80.24,4.43,4.43,0,0,1,355.39,84.76Z" style="fill:#942884"/><path d="M84.26,116.8a4.49,4.49,0,1,1,4.52-4.44A4.44,4.44,0,0,1,84.26,116.8Z" style="fill:#942884"/><path d="M337,323.7a4.48,4.48,0,1,1-4.54-4.42A4.44,4.44,0,0,1,337,323.7Z" style="fill:#942884"/><path d="M392.15,250.22a4.48,4.48,0,1,1-4.47-4.49A4.43,4.43,0,0,1,392.15,250.22Z" style="fill:#942884"/><path d="M350.89,300.89a4.48,4.48,0,1,1-4.48,4.49A4.45,4.45,0,0,1,350.89,300.89Z" style="fill:#942884"/><path d="M373.76,103.14a4.48,4.48,0,1,1-4.46-4.5A4.44,4.44,0,0,1,373.76,103.14Z" style="fill:#942884"/><path d="M203.81,356.06a4.47,4.47,0,1,1-4.47,4.5A4.47,4.47,0,0,1,203.81,356.06Z" style="fill:#942884"/><path d="M199.08,38.76a4.47,4.47,0,1,1-4.51-4.46A4.46,4.46,0,0,1,199.08,38.76Z" style="fill:#942884"/><path d="M180.67,351.37a4.44,4.44,0,1,1-4.41-4.47A4.5,4.5,0,0,1,180.67,351.37Z" style="fill:#942884"/><path d="M167.06,52.42A4.46,4.46,0,1,1,171.49,48,4.48,4.48,0,0,1,167.06,52.42Z" style="fill:#942884"/><path d="M56.7,209a4.44,4.44,0,1,1-4.42,4.46A4.5,4.5,0,0,1,56.7,209Z" style="fill:#942884"/><path d="M56.78,153.83a4.46,4.46,0,1,1-4.52,4.32A4.48,4.48,0,0,1,56.78,153.83Z" style="fill:#942884"/><path d="M327.77,333a4.46,4.46,0,1,1-4.39-4.46A4.49,4.49,0,0,1,327.77,333Z" style="fill:#942884"/><path d="M346.16,75.61a4.46,4.46,0,1,1-4.33-4.52A4.49,4.49,0,0,1,346.16,75.61Z" style="fill:#942884"/><path d="M121.05,80a4.46,4.46,0,1,1,4.48-4.37A4.48,4.48,0,0,1,121.05,80Z" style="fill:#942884"/><path d="M79.56,121.57a4.46,4.46,0,1,1-4.33-4.52A4.49,4.49,0,0,1,79.56,121.57Z" style="fill:#942884"/><path d="M65.9,245.46A4.44,4.44,0,1,1,70.35,241,4.5,4.5,0,0,1,65.9,245.46Z" style="fill:#942884"/><path d="M360.2,291.72a4.46,4.46,0,1,1-4.56,4.28A4.48,4.48,0,0,1,360.2,291.72Z" style="fill:#942884"/><path d="M125.51,314.55a4.44,4.44,0,1,1-4.46-4.43A4.5,4.5,0,0,1,125.51,314.55Z" style="fill:#942884"/><path d="M378.45,107.9a4.42,4.42,0,1,1-4.4,4.47A4.49,4.49,0,0,1,378.45,107.9Z" style="fill:#942884"/><path d="M116.3,305.35a4.42,4.42,0,1,1-4.48-4.4A4.5,4.5,0,0,1,116.3,305.35Z" style="fill:#942884"/><path d="M405.87,199.47a4.42,4.42,0,1,1,4.6-4.26A4.48,4.48,0,0,1,405.87,199.47Z" style="fill:#942884"/><path d="M130.32,328.18a4.42,4.42,0,1,1,4.36-4.52A4.49,4.49,0,0,1,130.32,328.18Z" style="fill:#942884"/><path d="M277.36,365a4.42,4.42,0,1,1,4.41-4.46A4.49,4.49,0,0,1,277.36,365Z" style="fill:#942884"/><path d="M410.45,176.69a4.4,4.4,0,1,1-4.31-4.42A4.46,4.46,0,0,1,410.45,176.69Z" style="fill:#942884"/><path d="M65.88,126.34a4.37,4.37,0,1,1-4.33,4.36A4.41,4.41,0,0,1,65.88,126.34Z" style="fill:#942884"/><path d="M98.29,296a4.4,4.4,0,1,1,4.14,4.57A4.45,4.45,0,0,1,98.29,296Z" style="fill:#942884"/><path d="M373.68,286.92a4.4,4.4,0,1,1-4.4-4.33A4.46,4.46,0,0,1,373.68,286.92Z" style="fill:#942884"/><path d="M93.49,282.62A4.37,4.37,0,1,1,89.13,287,4.39,4.39,0,0,1,93.49,282.62Z" style="fill:#942884"/><path d="M318.52,342.14a4.4,4.4,0,1,1-4.34-4.39A4.45,4.45,0,0,1,318.52,342.14Z" style="fill:#942884"/><path d="M231.36,365.36a4.37,4.37,0,1,1-4.34,4.36A4.4,4.4,0,0,1,231.36,365.36Z" style="fill:#942884"/><path d="M249.82,365.36a4.37,4.37,0,1,1-4.41,4.29A4.4,4.4,0,0,1,249.82,365.36Z" style="fill:#942884"/><path d="M139.48,337.27a4.32,4.32,0,1,1,4.29-4.35A4.28,4.28,0,0,1,139.48,337.27Z" style="fill:#942884"/><path d="M134.58,66.32A4.32,4.32,0,1,1,130.23,62,4.29,4.29,0,0,1,134.58,66.32Z" style="fill:#942884"/><path d="M401.14,241a4.28,4.28,0,1,1-4.28-4.22A4.21,4.21,0,0,1,401.14,241Z" style="fill:#942884"/><path d="M88.58,277.81a4.29,4.29,0,1,1-4.2-4.3A4.22,4.22,0,0,1,88.58,277.81Z" style="fill:#942884"/><path d="M406.06,209.16a4.28,4.28,0,1,1-4.29,4.21A4.23,4.23,0,0,1,406.06,209.16Z" style="fill:#942884"/><path d="M336.79,66.41a4.28,4.28,0,1,1-4.16-4.34A4.23,4.23,0,0,1,336.79,66.41Z" style="fill:#942884"/><path d="M185.43,356.25a4.28,4.28,0,1,1-4.29,4.21A4.22,4.22,0,0,1,185.43,356.25Z" style="fill:#942884"/><path d="M387.73,117.25a4.26,4.26,0,1,1-4.32,4.17A4.2,4.2,0,0,1,387.73,117.25Z" style="fill:#942884"/><path d="M382.73,277.83a4.26,4.26,0,1,1-4.19-4.29A4.19,4.19,0,0,1,382.73,277.83Z" style="fill:#942884"/><path d="M61,231.85a4.26,4.26,0,1,1-4.2-4.28A4.19,4.19,0,0,1,61,231.85Z" style="fill:#942884"/><path d="M213.05,365.47a4.26,4.26,0,1,1-4.31,4.17A4.2,4.2,0,0,1,213.05,365.47Z" style="fill:#942884"/><path d="M152.88,342.11a4.24,4.24,0,1,1-4.27-4.2A4.18,4.18,0,0,1,152.88,342.11Z" style="fill:#942884"/><path d="M309.17,351.3a4.24,4.24,0,1,1-4.27-4.2A4.18,4.18,0,0,1,309.17,351.3Z" style="fill:#942884"/><path d="M47.54,181.66a4.2,4.2,0,1,1-4.22,4.12A4.2,4.2,0,0,1,47.54,181.66Z" style="fill:#942884"/><path d="M406,162.5a4.22,4.22,0,1,1,4.28-4.19A4.19,4.19,0,0,1,406,162.5Z" style="fill:#942884"/><path d="M240.58,33.78a4.2,4.2,0,1,1,4.2-4.13A4.2,4.2,0,0,1,240.58,33.78Z" style="fill:#942884"/><path d="M75.13,272.82a4.22,4.22,0,1,1,4.19-4.28A4.19,4.19,0,0,1,75.13,272.82Z" style="fill:#942884"/><path d="M268.1,373.94a4.22,4.22,0,1,1,4.28-4.19A4.19,4.19,0,0,1,268.1,373.94Z" style="fill:#942884"/><path d="M47.47,200.06a4.19,4.19,0,1,1-4.13,4.21A4.22,4.22,0,0,1,47.47,200.06Z" style="fill:#942884"/><path d="M222.15,25.39a4.19,4.19,0,1,1-4.15,4.2A4.22,4.22,0,0,1,222.15,25.39Z" style="fill:#942884"/><path d="M60.91,139.88a4.19,4.19,0,1,1-4.18-4.17A4.23,4.23,0,0,1,60.91,139.88Z" style="fill:#942884"/><path d="M299.91,360.56a4.17,4.17,0,1,1-4.14-4.2A4.23,4.23,0,0,1,299.91,360.56Z" style="fill:#942884"/><path d="M323.27,53a4.15,4.15,0,1,1-4.1,4.13A4.23,4.23,0,0,1,323.27,53Z" style="fill:#942884"/><path d="M286.51,34.6a4.17,4.17,0,1,1-4.14,4.21A4.24,4.24,0,0,1,286.51,34.6Z" style="fill:#942884"/><path d="M157.88,347.16a4.18,4.18,0,1,1-4.21,4.14A4.23,4.23,0,0,1,157.88,347.16Z" style="fill:#942884"/><path d="M65.87,255.26a4.15,4.15,0,1,1-4.11,4.12A4.21,4.21,0,0,1,65.87,255.26Z" style="fill:#942884"/><path d="M51.67,167.47a4.15,4.15,0,1,1-4.08-4.14A4.21,4.21,0,0,1,51.67,167.47Z" style="fill:#942884"/><path d="M194.59,365.57a4.15,4.15,0,1,1-4.13,4.11A4.22,4.22,0,0,1,194.59,365.57Z" style="fill:#942884"/><path d="M139.46,53a4.17,4.17,0,1,1-4.18,4.16A4.24,4.24,0,0,1,139.46,53Z" style="fill:#942884"/><path d="M387.64,272.77a4.17,4.17,0,1,1,4.2-4.15A4.22,4.22,0,0,1,387.64,272.77Z" style="fill:#942884"/><path d="M180.35,38.82a4.12,4.12,0,1,1-4-4.17A4.17,4.17,0,0,1,180.35,38.82Z" style="fill:#942884"/><path d="M410.13,231.84a4.08,4.08,0,1,1-4.07-4.09A4.09,4.09,0,0,1,410.13,231.84Z" style="fill:#942884"/><path d="M400.94,130.67a4.08,4.08,0,1,1-4.11-4A4.09,4.09,0,0,1,400.94,130.67Z" style="fill:#942884"/><path d="M171.07,360.47a4,4,0,1,1-4-4A4,4,0,0,1,171.07,360.47Z" style="fill:#942884"/><path d="M47.54,226.67a4,4,0,1,1,4-4A4,4,0,0,1,47.54,226.67Z" style="fill:#942884"/><path d="M244.61,378.88a4,4,0,1,1-4-4A4,4,0,0,1,244.61,378.88Z" style="fill:#942884"/><path d="M263,29.58a4,4,0,1,1-4-4A4,4,0,0,1,263,29.58Z" style="fill:#942884"/><path d="M111.89,319.76a4,4,0,1,1-4,3.95A3.93,3.93,0,0,1,111.89,319.76Z" style="fill:#942884"/><path d="M354.87,323.73a4,4,0,1,1-4-4A3.92,3.92,0,0,1,354.87,323.73Z" style="fill:#942884"/><path d="M56.68,246.24a4,4,0,1,1-3.94,4A3.92,3.92,0,0,1,56.68,246.24Z" style="fill:#942884"/><path d="M341.72,329a4,4,0,1,1-4,4A3.92,3.92,0,0,1,341.72,329Z" style="fill:#942884"/><path d="M222.17,374.91a4,4,0,1,1-4,4A4,4,0,0,1,222.17,374.91Z" style="fill:#942884"/><path d="M400.84,259.37a4,4,0,1,1-4-3.94A3.92,3.92,0,0,1,400.84,259.37Z" style="fill:#942884"/><path d="M125.05,333a4,4,0,1,1-3.92-4A3.93,3.93,0,0,1,125.05,333Z" style="fill:#942884"/><path d="M102.73,318.54a4,4,0,1,1,3.93-4A3.91,3.91,0,0,1,102.73,318.54Z" style="fill:#942884"/><path d="M207.78,29.59a4,4,0,1,1-4-4A3.92,3.92,0,0,1,207.78,29.59Z" style="fill:#942884"/><path d="M360.14,310.61a4,4,0,1,1-4,3.93A3.91,3.91,0,0,1,360.14,310.61Z" style="fill:#942884"/><path d="M97.45,305.48a4,4,0,1,1-3.88-4.07A3.93,3.93,0,0,1,97.45,305.48Z" style="fill:#942884"/><path d="M286.51,365.76a4,4,0,1,1-3.92,4A3.92,3.92,0,0,1,286.51,365.76Z" style="fill:#942884"/><path d="M259,382.87a4,4,0,1,1,4-4A3.91,3.91,0,0,1,259,382.87Z" style="fill:#942884"/><path d="M152.59,48a3.94,3.94,0,1,1-3.83-4A3.94,3.94,0,0,1,152.59,48Z" style="fill:#942884"/><path d="M47.49,145.15a3.94,3.94,0,1,1-3.91,3.91A3.93,3.93,0,0,1,47.49,145.15Z" style="fill:#942884"/><path d="M332.57,346.09a3.95,3.95,0,1,1,3.88-3.94A3.93,3.93,0,0,1,332.57,346.09Z" style="fill:#942884"/><path d="M134.21,342.16a3.95,3.95,0,1,1-3.87-4A3.94,3.94,0,0,1,134.21,342.16Z" style="fill:#942884"/><path d="M88.24,296.11a3.95,3.95,0,1,1-3.94-3.87A3.93,3.93,0,0,1,88.24,296.11Z" style="fill:#942884"/><path d="M415.27,189.8a3.94,3.94,0,1,1,3.92-3.89A3.92,3.92,0,0,1,415.27,189.8Z" style="fill:#942884"/><path d="M373.21,305.36a3.93,3.93,0,1,1-3.94-3.92A4,4,0,0,1,373.21,305.36Z" style="fill:#942884"/><path d="M415.21,200.32a3.93,3.93,0,1,1-3.89,4A4,4,0,0,1,415.21,200.32Z" style="fill:#942884"/><path d="M203.76,375a3.93,3.93,0,1,1-3.88,4A4,4,0,0,1,203.76,375Z" style="fill:#942884"/><path d="M139.46,347.45a3.89,3.89,0,1,1-3.89,3.82A4,4,0,0,1,139.46,347.45Z" style="fill:#942884"/><path d="M75.05,283.08a3.91,3.91,0,1,1-3.86,4A4,4,0,0,1,75.05,283.08Z" style="fill:#942884"/><path d="M38.32,198.94a3.89,3.89,0,1,1,3.9-3.81A3.94,3.94,0,0,1,38.32,198.94Z" style="fill:#942884"/><path d="M176.24,365.81a3.91,3.91,0,1,1-3.92,3.93A4,4,0,0,1,176.24,365.81Z" style="fill:#942884"/><path d="M327.2,351.33a3.89,3.89,0,1,1-3.82-3.88A4,4,0,0,1,327.2,351.33Z" style="fill:#942884"/><path d="M314.06,44.11A3.86,3.86,0,1,1,310.27,48,3.91,3.91,0,0,1,314.06,44.11Z" style="fill:#942884"/><path d="M47.51,244.87A3.85,3.85,0,1,1,51.38,241,3.9,3.9,0,0,1,47.51,244.87Z" style="fill:#942884"/><path d="M382.33,296.15a3.86,3.86,0,1,1-3.88-3.82A3.91,3.91,0,0,1,382.33,296.15Z" style="fill:#942884"/><path d="M88.11,94a3.81,3.81,0,1,1-3.83-3.83A3.8,3.8,0,0,1,88.11,94Z" style="fill:#942884"/><path d="M65.86,274a3.81,3.81,0,1,1-3.76,3.89A3.81,3.81,0,0,1,65.86,274Z" style="fill:#942884"/><path d="M38.31,172.86a3.81,3.81,0,1,1-3.79,3.86A3.8,3.8,0,0,1,38.31,172.86Z" style="fill:#942884"/><path d="M419.06,167.58a3.81,3.81,0,1,1-3.74-3.91A3.82,3.82,0,0,1,419.06,167.58Z" style="fill:#942884"/><path d="M406.07,136.09a3.81,3.81,0,1,1-3.82,3.82A3.8,3.8,0,0,1,406.07,136.09Z" style="fill:#942884"/><path d="M97.3,84.72a3.81,3.81,0,1,1-3.86-3.79A3.81,3.81,0,0,1,97.3,84.72Z" style="fill:#942884"/><path d="M391.4,286.92a3.73,3.73,0,1,1-3.79-3.67A3.68,3.68,0,0,1,391.4,286.92Z" style="fill:#942884"/><path d="M42.09,213.41a3.76,3.76,0,1,1-3.75-3.73A3.69,3.69,0,0,1,42.09,213.41Z" style="fill:#942884"/><path d="M78.87,103.1a3.77,3.77,0,1,1-3.76-3.74A3.71,3.71,0,0,1,78.87,103.1Z" style="fill:#942884"/><path d="M405.94,254a3.76,3.76,0,1,1,3.87-3.62A3.72,3.72,0,0,1,405.94,254Z" style="fill:#942884"/><path d="M281.08,378.85a3.73,3.73,0,1,1-3.79-3.66A3.67,3.67,0,0,1,281.08,378.85Z" style="fill:#942884"/><path d="M415.31,226.36a3.73,3.73,0,1,1,3.67-3.79A3.65,3.65,0,0,1,415.31,226.36Z" style="fill:#942884"/><path d="M106.41,75.51a3.73,3.73,0,1,1-3.76-3.7A3.67,3.67,0,0,1,106.41,75.51Z" style="fill:#942884"/><path d="M317.89,360.59a3.77,3.77,0,1,1-3.67-3.82A3.71,3.71,0,0,1,317.89,360.59Z" style="fill:#942884"/><path d="M152.38,360.48a3.73,3.73,0,1,1-3.78-3.68A3.67,3.67,0,0,1,152.38,360.48Z" style="fill:#942884"/><path d="M185.44,382.62a3.71,3.71,0,1,1,3.69-3.76A3.67,3.67,0,0,1,185.44,382.62Z" style="fill:#942884"/><path d="M231.35,384.42a3.69,3.69,0,1,1-3.65,3.66A3.65,3.65,0,0,1,231.35,384.42Z" style="fill:#942884"/><path d="M69.6,112.31A3.69,3.69,0,1,1,66,108.63,3.66,3.66,0,0,1,69.6,112.31Z" style="fill:#942884"/><path d="M56.76,264.91A3.69,3.69,0,1,1,53,268.49,3.67,3.67,0,0,1,56.76,264.91Z" style="fill:#942884"/><path d="M161.47,38.8a3.63,3.63,0,1,1-3.54-3.66A3.69,3.69,0,0,1,161.47,38.8Z" style="fill:#942884"/><path d="M277.37,33.23a3.66,3.66,0,1,1,3.64-3.7A3.69,3.69,0,0,1,277.37,33.23Z" style="fill:#942884"/><path d="M42,158.33a3.66,3.66,0,1,1-3.65-3.7A3.7,3.7,0,0,1,42,158.33Z" style="fill:#942884"/><path d="M189.08,29.6a3.66,3.66,0,1,1-3.67-3.68A3.7,3.7,0,0,1,189.08,29.6Z" style="fill:#942884"/><path d="M253.43,388.07a3.66,3.66,0,1,1-3.73-3.62A3.69,3.69,0,0,1,253.43,388.07Z" style="fill:#942884"/><path d="M213,384.45a3.66,3.66,0,1,1-3.64,3.7A3.69,3.69,0,0,1,213,384.45Z" style="fill:#942884"/><path d="M304.93,373.35a3.63,3.63,0,1,1,3.63-3.56A3.7,3.7,0,0,1,304.93,373.35Z" style="fill:#942884"/><path d="M157.87,366.09a3.63,3.63,0,1,1-3.66,3.54A3.69,3.69,0,0,1,157.87,366.09Z" style="fill:#942884"/><path d="M42,231.89a3.63,3.63,0,1,1-3.5-3.69A3.7,3.7,0,0,1,42,231.89Z" style="fill:#942884"/><path d="M111.86,62.7a3.66,3.66,0,1,1-3.64,3.71A3.69,3.69,0,0,1,111.86,62.7Z" style="fill:#942884"/><path d="M396.88,281.42a3.63,3.63,0,1,1,3.61-3.58A3.69,3.69,0,0,1,396.88,281.42Z" style="fill:#942884"/><path d="M106.28,332.89a3.6,3.6,0,1,1-3.66-3.54A3.66,3.66,0,0,1,106.28,332.89Z" style="fill:#942884"/><path d="M56.75,125.11a3.6,3.6,0,1,1,3.57-3.63A3.66,3.66,0,0,1,56.75,125.11Z" style="fill:#942884"/><path d="M93.46,320.16a3.6,3.6,0,1,1-3.57,3.63A3.66,3.66,0,0,1,93.46,320.16Z" style="fill:#942884"/><path d="M111.77,345.7a3.56,3.56,0,1,1,3.65-3.39A3.57,3.57,0,0,1,111.77,345.7Z" style="fill:#942884"/><path d="M84.31,311a3.56,3.56,0,1,1-3.57,3.48A3.56,3.56,0,0,1,84.31,311Z" style="fill:#942884"/><path d="M121.12,347.87a3.47,3.47,0,1,1-3.52,3.45A3.41,3.41,0,0,1,121.12,347.87Z" style="fill:#942884"/><path d="M381.94,94a3.47,3.47,0,1,1-3.47-3.5A3.4,3.4,0,0,1,381.94,94Z" style="fill:#942884"/><path d="M78.57,305.37a3.47,3.47,0,1,1-3.5-3.47A3.4,3.4,0,0,1,78.57,305.37Z" style="fill:#942884"/><path d="M194.62,391.58a3.47,3.47,0,1,1,3.46-3.51A3.4,3.4,0,0,1,194.62,391.58Z" style="fill:#942884"/><path d="M369.3,81.24a3.5,3.5,0,1,1-3.52,3.45A3.44,3.44,0,0,1,369.3,81.24Z" style="fill:#942884"/><path d="M418.72,241a3.47,3.47,0,1,1-3.54-3.43A3.41,3.41,0,0,1,418.72,241Z" style="fill:#942884"/><path d="M51,259.43a3.51,3.51,0,1,1-3.45-3.53A3.47,3.47,0,0,1,51,259.43Z" style="fill:#942884"/><path d="M69.33,296.15a3.42,3.42,0,1,1-3.42-3.39A3.39,3.39,0,0,1,69.33,296.15Z" style="fill:#942884"/><path d="M304.88,35.33a3.45,3.45,0,1,1-3.39,3.42A3.39,3.39,0,0,1,304.88,35.33Z" style="fill:#942884"/><path d="M363.53,75.55a3.44,3.44,0,1,1-3.37-3.45A3.4,3.4,0,0,1,363.53,75.55Z" style="fill:#942884"/><path d="M167,382.36a3.45,3.45,0,1,1,3.47-3.36A3.4,3.4,0,0,1,167,382.36Z" style="fill:#942884"/><path d="M295.85,375.49a3.43,3.43,0,1,1-3.53,3.29A3.4,3.4,0,0,1,295.85,375.49Z" style="fill:#942884"/><path d="M406.07,272a3.42,3.42,0,1,1,3.41-3.4A3.39,3.39,0,0,1,406.07,272Z" style="fill:#942884"/><path d="M360.09,329.53a3.42,3.42,0,1,1-3.42,3.39A3.39,3.39,0,0,1,360.09,329.53Z" style="fill:#942884"/><path d="M51,130.76a3.45,3.45,0,1,1-3.33-3.5A3.41,3.41,0,0,1,51,130.76Z" style="fill:#942884"/><path d="M415.24,152.51a3.42,3.42,0,1,1,3.43-3.38A3.41,3.41,0,0,1,415.24,152.51Z" style="fill:#942884"/><path d="M271.6,388.05a3.44,3.44,0,1,1-3.43-3.38A3.39,3.39,0,0,1,271.6,388.05Z" style="fill:#942884"/><path d="M121.08,60.6a3.45,3.45,0,1,1,3.43-3.38A3.39,3.39,0,0,1,121.08,60.6Z" style="fill:#942884"/><path d="M29.19,207.67a3.43,3.43,0,1,1,3.37-3.44A3.39,3.39,0,0,1,29.19,207.67Z" style="fill:#942884"/><path d="M387.61,99.72a3.41,3.41,0,1,1-3.35,3.49A3.43,3.43,0,0,1,387.61,99.72Z" style="fill:#942884"/><path d="M372.69,323.73a3.41,3.41,0,1,1-3.47-3.38A3.41,3.41,0,0,1,372.69,323.73Z" style="fill:#942884"/><path d="M354.3,342.14a3.41,3.41,0,1,1-3.44-3.4A3.41,3.41,0,0,1,354.3,342.14Z" style="fill:#942884"/><path d="M427.85,195.1a3.41,3.41,0,1,1-3.39-3.45A3.43,3.43,0,0,1,427.85,195.1Z" style="fill:#942884"/><path d="M130.32,357.12a3.41,3.41,0,1,1-3.46,3.39A3.43,3.43,0,0,1,130.32,357.12Z" style="fill:#942884"/><path d="M32.55,185.92a3.41,3.41,0,1,1-3.39-3.47A3.43,3.43,0,0,1,32.55,185.92Z" style="fill:#942884"/><path d="M231.37,23.79a3.41,3.41,0,1,1,3.42-3.42A3.43,3.43,0,0,1,231.37,23.79Z" style="fill:#942884"/><path d="M354.28,66.38A3.39,3.39,0,1,1,351,63,3.44,3.44,0,0,1,354.28,66.38Z" style="fill:#942884"/><path d="M345.09,351.29a3.39,3.39,0,1,1-3.37-3.34A3.44,3.44,0,0,1,345.09,351.29Z" style="fill:#942884"/><path d="M32.5,222.66a3.36,3.36,0,1,1-3.33-3.38A3.44,3.44,0,0,1,32.5,222.66Z" style="fill:#942884"/><path d="M378.46,311.21a3.36,3.36,0,1,1-3.34,3.37A3.42,3.42,0,0,1,378.46,311.21Z" style="fill:#942884"/><path d="M427.76,176.66a3.32,3.32,0,1,1-3.36-3.31A3.38,3.38,0,0,1,427.76,176.66Z" style="fill:#942884"/><path d="M41.69,250.18a3.36,3.36,0,1,1-3.39-3.33A3.43,3.43,0,0,1,41.69,250.18Z" style="fill:#942884"/><path d="M142.77,369.74a3.32,3.32,0,1,1-3.33-3.34A3.35,3.35,0,0,1,142.77,369.74Z" style="fill:#942884"/><path d="M427.8,213.4a3.36,3.36,0,1,1-3.4-3.32A3.43,3.43,0,0,1,427.8,213.4Z" style="fill:#942884"/><path d="M60.08,287a3.36,3.36,0,1,1-3.39-3.33A3.43,3.43,0,0,1,60.08,287Z" style="fill:#942884"/><path d="M249.72,17.07a3.32,3.32,0,1,1-3.27,3.4A3.36,3.36,0,0,1,249.72,17.07Z" style="fill:#942884"/><path d="M390.89,305.38a3.22,3.22,0,1,1-3.25-3.23A3.16,3.16,0,0,1,390.89,305.38Z" style="fill:#942884"/><path d="M130.29,51.18a3.22,3.22,0,1,1,3.19-3.28A3.16,3.16,0,0,1,130.29,51.18Z" style="fill:#942884"/><path d="M240.53,400.56a3.26,3.26,0,1,1,3.31-3.17A3.23,3.23,0,0,1,240.53,400.56Z" style="fill:#942884"/><path d="M396.92,109.1a3.22,3.22,0,1,1-3.28,3.19A3.16,3.16,0,0,1,396.92,109.1Z" style="fill:#942884"/><path d="M332.47,363.79a3.26,3.26,0,1,1,3.3-3.19A3.23,3.23,0,0,1,332.47,363.79Z" style="fill:#942884"/><path d="M222.23,400.52a3.22,3.22,0,1,1,3.18-3.28A3.16,3.16,0,0,1,222.23,400.52Z" style="fill:#942884"/><path d="M176.2,391.33a3.22,3.22,0,1,1,3.25-3.22A3.16,3.16,0,0,1,176.2,391.33Z" style="fill:#942884"/><path d="M32.36,167.54a3.22,3.22,0,1,1-3.19-3.28A3.16,3.16,0,0,1,32.36,167.54Z" style="fill:#942884"/><path d="M216.26,20.37A3.26,3.26,0,1,1,213,17.12,3.24,3.24,0,0,1,216.26,20.37Z" style="fill:#942884"/><path d="M38.32,143.08a3.19,3.19,0,1,1,3.2-3.11A3.13,3.13,0,0,1,38.32,143.08Z" style="fill:#942884"/><path d="M344.87,57.22A3.17,3.17,0,1,1,341.8,54,3.14,3.14,0,0,1,344.87,57.22Z" style="fill:#942884"/><path d="M415.31,256.24a3.17,3.17,0,1,1-3.23,3.07A3.14,3.14,0,0,1,415.31,256.24Z" style="fill:#942884"/><path d="M289.71,388.09a3.17,3.17,0,1,1-3.15-3.15A3.13,3.13,0,0,1,289.71,388.09Z" style="fill:#942884"/><path d="M50.71,277.8a3.19,3.19,0,1,1-3.11-3.2A3.13,3.13,0,0,1,50.71,277.8Z" style="fill:#942884"/><path d="M167,32.73a3.15,3.15,0,1,1,3.19-3.14A3.17,3.17,0,0,1,167,32.73Z" style="fill:#942884"/><path d="M396.9,293a3.15,3.15,0,1,1-3.18,3.14A3.17,3.17,0,0,1,396.9,293Z" style="fill:#942884"/><path d="M326.46,369.66a3.15,3.15,0,1,1-3.24-3.08A3.16,3.16,0,0,1,326.46,369.66Z" style="fill:#942884"/><path d="M151.8,379a3.15,3.15,0,1,1-3.14-3.19A3.17,3.17,0,0,1,151.8,379Z" style="fill:#942884"/><path d="M424.5,228.68a3.15,3.15,0,1,1-3.21,3.12A3.18,3.18,0,0,1,424.5,228.68Z" style="fill:#942884"/><path d="M203.78,400.45a3.15,3.15,0,1,1,3.17-3.16A3.17,3.17,0,0,1,203.78,400.45Z" style="fill:#942884"/><path d="M262.09,397.29a3.13,3.13,0,1,1-3.11-3.11A3.18,3.18,0,0,1,262.09,397.29Z" style="fill:#942884"/><path d="M38.36,271.65a3.05,3.05,0,1,1,3-3A3.08,3.08,0,0,1,38.36,271.65Z" style="fill:#942884"/><path d="M75.14,326.81a3.05,3.05,0,1,1,3-3A3.1,3.1,0,0,1,75.14,326.81Z" style="fill:#942884"/><path d="M102.64,354.39a3.05,3.05,0,1,1,3.09-2.94A3.1,3.1,0,0,1,102.64,354.39Z" style="fill:#942884"/><path d="M29.13,244.11a3.09,3.09,0,1,1,3.1-3.08A3.15,3.15,0,0,1,29.13,244.11Z" style="fill:#942884"/><path d="M87.39,333a3.1,3.1,0,1,1-3-3.15A3.17,3.17,0,0,1,87.39,333Z" style="fill:#942884"/><path d="M93.53,345.24a3.1,3.1,0,1,1,3.06-3.14A3.15,3.15,0,0,1,93.53,345.24Z" style="fill:#942884"/><path d="M68.9,314.57a3,3,0,1,1-3-3A2.94,2.94,0,0,1,68.9,314.57Z" style="fill:#942884"/><path d="M406,118.52a3,3,0,1,1-3,3A2.95,2.95,0,0,1,406,118.52Z" style="fill:#942884"/><path d="M317.07,378.94a2.95,2.95,0,1,1-2.86-3A2.88,2.88,0,0,1,317.07,378.94Z" style="fill:#942884"/><path d="M424.42,161.2a2.92,2.92,0,1,1,2.94-2.87A2.87,2.87,0,0,1,424.42,161.2Z" style="fill:#942884"/><path d="M185.46,400.22a2.92,2.92,0,1,1,2.88-2.92A2.88,2.88,0,0,1,185.46,400.22Z" style="fill:#942884"/><path d="M59.63,305.34a2.92,2.92,0,1,1-2.91-2.88A2.87,2.87,0,0,1,59.63,305.34Z" style="fill:#942884"/><path d="M19.94,198a2.92,2.92,0,1,1,2.92-2.88A2.87,2.87,0,0,1,19.94,198Z" style="fill:#942884"/><path d="M197.56,20.44a2.95,2.95,0,1,1-2.83-3A2.88,2.88,0,0,1,197.56,20.44Z" style="fill:#942884"/><path d="M409,287a2.95,2.95,0,1,1-2.91-2.91A2.88,2.88,0,0,1,409,287Z" style="fill:#942884"/><path d="M157.81,385.19a2.92,2.92,0,1,1-2.88,2.91A2.88,2.88,0,0,1,157.81,385.19Z" style="fill:#942884"/><path d="M22.86,213.41A2.92,2.92,0,1,1,20,210.53,2.88,2.88,0,0,1,22.86,213.41Z" style="fill:#942884"/><path d="M111.94,363.47a2.95,2.95,0,1,1,2.88-2.94A2.88,2.88,0,0,1,111.94,363.47Z" style="fill:#942884"/><path d="M295.78,32.49a2.92,2.92,0,1,1,2.87-2.92A2.87,2.87,0,0,1,295.78,32.49Z" style="fill:#942884"/><path d="M139.51,41.67a2.9,2.9,0,1,1,2.84-3A2.9,2.9,0,0,1,139.51,41.67Z" style="fill:#942884"/><path d="M335.4,48.07a2.89,2.89,0,1,1-2.82-3A2.89,2.89,0,0,1,335.4,48.07Z" style="fill:#942884"/><path d="M124,369.71a2.89,2.89,0,1,1-2.94-2.88A2.89,2.89,0,0,1,124,369.71Z" style="fill:#942884"/><path d="M268.12,17.49a2.9,2.9,0,1,1-2.85,3A2.89,2.89,0,0,1,268.12,17.49Z" style="fill:#942884"/><path d="M280.22,397.26a2.87,2.87,0,1,1-2.84-2.83A2.89,2.89,0,0,1,280.22,397.26Z" style="fill:#942884"/><path d="M32,149.08a2.87,2.87,0,1,1-2.81-2.86A2.89,2.89,0,0,1,32,149.08Z" style="fill:#942884"/><path d="M50.37,296.21a2.85,2.85,0,1,1-2.82-2.88A2.91,2.91,0,0,1,50.37,296.21Z" style="fill:#942884"/><path d="M78,84.78a2.85,2.85,0,1,1-2.8-2.89A2.92,2.92,0,0,1,78,84.78Z" style="fill:#942884"/><path d="M427.28,250.24a2.84,2.84,0,1,1-2.81-2.87A2.91,2.91,0,0,1,427.28,250.24Z" style="fill:#942884"/><path d="M31.94,259.34a2.8,2.8,0,1,1-2.8-2.73A2.86,2.86,0,0,1,31.94,259.34Z" style="fill:#942884"/><path d="M87.1,75.51a2.8,2.8,0,1,1-2.77-2.77A2.86,2.86,0,0,1,87.1,75.51Z" style="fill:#942884"/><path d="M65.93,91.13a2.8,2.8,0,1,1-2.82,2.72A2.85,2.85,0,0,1,65.93,91.13Z" style="fill:#942884"/><path d="M19.88,173.87a2.8,2.8,0,1,1-2.74,2.8A2.86,2.86,0,0,1,19.88,173.87Z" style="fill:#942884"/><path d="M22.75,231.8A2.81,2.81,0,1,1,20,229,2.87,2.87,0,0,1,22.75,231.8Z" style="fill:#942884"/><path d="M231.34,403.69a2.81,2.81,0,1,1-2.75,2.79A2.87,2.87,0,0,1,231.34,403.69Z" style="fill:#942884"/><path d="M307.67,388.15a2.74,2.74,0,1,1-2.7-2.78A2.72,2.72,0,0,1,307.67,388.15Z" style="fill:#942884"/><path d="M415.24,133.36a2.66,2.66,0,1,1,2.66-2.64A2.6,2.6,0,0,1,415.24,133.36Z" style="fill:#942884"/><path d="M133,378.94a2.74,2.74,0,1,1-2.72-2.76A2.72,2.72,0,0,1,133,378.94Z" style="fill:#942884"/><path d="M41,287a2.65,2.65,0,1,1-2.64-2.67A2.6,2.6,0,0,1,41,287Z" style="fill:#942884"/><path d="M418,277.82a2.74,2.74,0,1,1-2.71-2.76A2.72,2.72,0,0,1,418,277.82Z" style="fill:#942884"/><path d="M362.78,351.29a2.69,2.69,0,1,1-2.67-2.64A2.63,2.63,0,0,1,362.78,351.29Z" style="fill:#942884"/><path d="M381.16,332.89a2.69,2.69,0,1,1-2.68-2.63A2.63,2.63,0,0,1,381.16,332.89Z" style="fill:#942884"/><path d="M372,342.13a2.69,2.69,0,1,1-2.64-2.67A2.62,2.62,0,0,1,372,342.13Z" style="fill:#942884"/><path d="M350.84,357.88a2.65,2.65,0,1,1-2.6,2.71A2.61,2.61,0,0,1,350.84,357.88Z" style="fill:#942884"/><path d="M93.38,69a2.69,2.69,0,1,1,2.79-2.51A2.64,2.64,0,0,1,93.38,69Z" style="fill:#942884"/><path d="M59.4,103.07a2.69,2.69,0,1,1-2.67-2.63A2.62,2.62,0,0,1,59.4,103.07Z" style="fill:#942884"/><path d="M169.69,397.26a2.66,2.66,0,1,1-2.7-2.61A2.61,2.61,0,0,1,169.69,397.26Z" style="fill:#942884"/><path d="M433.59,201.56a2.69,2.69,0,1,1-2.64,2.67A2.63,2.63,0,0,1,433.59,201.56Z" style="fill:#942884"/><path d="M215.74,406.56a2.74,2.74,0,1,1-2.68-2.8A2.72,2.72,0,0,1,215.74,406.56Z" style="fill:#942884"/><path d="M252.46,406.48a2.69,2.69,0,1,1-2.64-2.67A2.62,2.62,0,0,1,252.46,406.48Z" style="fill:#942884"/><path d="M387.7,321.13a2.63,2.63,0,1,1-2.66,2.63A2.63,2.63,0,0,1,387.7,321.13Z" style="fill:#942884"/><path d="M436.26,185.8a2.63,2.63,0,1,1-2.72-2.57A2.62,2.62,0,0,1,436.26,185.8Z" style="fill:#942884"/><path d="M433.65,225.26a2.63,2.63,0,1,1,2.61-2.67A2.61,2.61,0,0,1,433.65,225.26Z" style="fill:#942884"/><path d="M344.31,369.68a2.61,2.61,0,1,1-5.21,0,2.61,2.61,0,0,1,5.21,0Z" style="fill:#942884"/><path d="M197.22,406.44a2.61,2.61,0,1,1-2.63-2.55A2.67,2.67,0,0,1,197.22,406.44Z" style="fill:#942884"/><path d="M47.5,109.71a2.61,2.61,0,1,1-2.58,2.6A2.66,2.66,0,0,1,47.5,109.71Z" style="fill:#942884"/><path d="M105.25,57.21a2.57,2.57,0,1,1-2.55-2.62A2.64,2.64,0,0,1,105.25,57.21Z" style="fill:#942884"/><path d="M396.8,312a2.57,2.57,0,1,1-2.51,2.66A2.63,2.63,0,0,1,396.8,312Z" style="fill:#942884"/><path d="M142,388.09a2.57,2.57,0,1,1-2.63-2.55A2.65,2.65,0,0,1,142,388.09Z" style="fill:#942884"/><path d="M17.43,250.11a2.52,2.52,0,1,1,2.42,2.62A2.54,2.54,0,0,1,17.43,250.11Z" style="fill:#942884"/><path d="M77.62,342.18a2.52,2.52,0,1,1-2.48-2.55A2.54,2.54,0,0,1,77.62,342.18Z" style="fill:#942884"/><path d="M29.16,280.24a2.45,2.45,0,1,1,2.42-2.4A2.4,2.4,0,0,1,29.16,280.24Z" style="fill:#942884"/><path d="M298.18,397.28a2.45,2.45,0,1,1-2.4-2.42A2.39,2.39,0,0,1,298.18,397.28Z" style="fill:#942884"/><path d="M95.93,360.55a2.44,2.44,0,1,1-2.36-2.46A2.39,2.39,0,0,1,95.93,360.55Z" style="fill:#942884"/><path d="M268.16,404.05a2.45,2.45,0,1,1-2.44,2.38A2.39,2.39,0,0,1,268.16,404.05Z" style="fill:#942884"/><path d="M325.76,38.75a2.45,2.45,0,1,1-2.4-2.42A2.39,2.39,0,0,1,325.76,38.75Z" style="fill:#942884"/><path d="M66,330.51a2.44,2.44,0,1,1-2.5,2.31A2.39,2.39,0,0,1,66,330.51Z" style="fill:#942884"/><path d="M86.74,351.29a2.45,2.45,0,1,1-2.43-2.4A2.39,2.39,0,0,1,86.74,351.29Z" style="fill:#942884"/><path d="M178.63,20.39a2.4,2.4,0,1,1-2.4-2.4A2.36,2.36,0,0,1,178.63,20.39Z" style="fill:#942884"/><path d="M332.45,381.32a2.4,2.4,0,1,1,2.46-2.34A2.36,2.36,0,0,1,332.45,381.32Z" style="fill:#942884"/><path d="M426.84,268.59a2.4,2.4,0,1,1-2.41-2.39A2.35,2.35,0,0,1,426.84,268.59Z" style="fill:#942884"/><path d="M148.7,32a2.4,2.4,0,1,1,2.35-2.46A2.35,2.35,0,0,1,148.7,32Z" style="fill:#942884"/><path d="M59.12,323.69a2.4,2.4,0,1,1-2.47-2.33A2.36,2.36,0,0,1,59.12,323.69Z" style="fill:#942884"/><path d="M49.87,314.53a2.35,2.35,0,1,1-2.37-2.31A2.39,2.39,0,0,1,49.87,314.53Z" style="fill:#942884"/><path d="M10.72,206.59a2.35,2.35,0,1,1,2.38-2.31A2.38,2.38,0,0,1,10.72,206.59Z" style="fill:#942884"/><path d="M436,241a2.35,2.35,0,1,1-2.36-2.34A2.39,2.39,0,0,1,436,241Z" style="fill:#942884"/><path d="M22.32,158.3A2.38,2.38,0,1,1,20,155.91,2.37,2.37,0,0,1,22.32,158.3Z" style="fill:#942884"/><path d="M406.08,303a2.37,2.37,0,1,1-2.4,2.28A2.37,2.37,0,0,1,406.08,303Z" style="fill:#942884"/><path d="M105.05,369.74a2.37,2.37,0,0,1-4.74,0,2.37,2.37,0,1,1,4.74,0Z" style="fill:#942884"/><path d="M13.1,222.65a2.35,2.35,0,1,1-2.33-2.36A2.38,2.38,0,0,1,13.1,222.65Z" style="fill:#942884"/><path d="M38.44,119.14a2.37,2.37,0,1,1-2.48,2.2A2.36,2.36,0,0,1,38.44,119.14Z" style="fill:#942884"/><path d="M433.58,165.17a2.31,2.31,0,1,1-2.25,2.3A2.37,2.37,0,0,1,433.58,165.17Z" style="fill:#942884"/><path d="M111.91,50.27A2.31,2.31,0,1,1,114.18,48,2.37,2.37,0,0,1,111.91,50.27Z" style="fill:#942884"/><path d="M151,397.29A2.31,2.31,0,1,1,148.7,395,2.38,2.38,0,0,1,151,397.29Z" style="fill:#942884"/><path d="M178.53,406.46a2.31,2.31,0,1,1-2.27-2.27A2.37,2.37,0,0,1,178.53,406.46Z" style="fill:#942884"/><path d="M38.3,303.13a2.24,2.24,0,1,1-2.21,2.27A2.24,2.24,0,0,1,38.3,303.13Z" style="fill:#942884"/><path d="M111.85,376.67a2.25,2.25,0,1,1-2.22,2.28A2.26,2.26,0,0,1,111.85,376.67Z" style="fill:#942884"/><path d="M222.23,417.86a2.17,2.17,0,1,1,2.13-2.18A2.13,2.13,0,0,1,222.23,417.86Z" style="fill:#942884"/><path d="M417.42,296.29a2.17,2.17,0,1,1-2-2.28A2.13,2.13,0,0,1,417.42,296.29Z" style="fill:#942884"/><path d="M323.35,385.94a2.17,2.17,0,1,1-2.2,2.1A2.12,2.12,0,0,1,323.35,385.94Z" style="fill:#942884"/><path d="M426.61,139.92a2.17,2.17,0,1,1-2.11-2.19A2.13,2.13,0,0,1,426.61,139.92Z" style="fill:#942884"/><path d="M224.36,11.22A2.17,2.17,0,1,1,220,11.1a2.17,2.17,0,0,1,4.34.12Z" style="fill:#942884"/><path d="M20,270.77a2.17,2.17,0,1,1,2.15-2.16A2.12,2.12,0,0,1,20,270.77Z" style="fill:#942884"/><path d="M12.92,185.85a2.17,2.17,0,1,1-2.15-2.16A2.12,2.12,0,0,1,12.92,185.85Z" style="fill:#942884"/><path d="M240.58,13.36a2.17,2.17,0,1,1,2.17-2.14A2.12,2.12,0,0,1,240.58,13.36Z" style="fill:#942884"/><path d="M288.72,20.36a2.18,2.18,0,1,1-2.17-2.14A2.14,2.14,0,0,1,288.72,20.36Z" style="fill:#942884"/><path d="M203.76,413.59a2.1,2.1,0,1,1-2,2.12A2.11,2.11,0,0,1,203.76,413.59Z" style="fill:#942884"/><path d="M10.8,238.92a2.1,2.1,0,1,1-2.14,2A2.11,2.11,0,0,1,10.8,238.92Z" style="fill:#942884"/><path d="M121.06,390.21a2.1,2.1,0,1,1,2.11-2.06A2.12,2.12,0,0,1,121.06,390.21Z" style="fill:#942884"/><path d="M29.12,132.8a2.1,2.1,0,1,1,2.12-2A2.11,2.11,0,0,1,29.12,132.8Z" style="fill:#942884"/><path d="M242.71,415.7a2.13,2.13,0,1,1-2.15-2.14A2.08,2.08,0,0,1,242.71,415.7Z" style="fill:#942884"/><path d="M288.61,406.44a2.07,2.07,0,1,1-2.15-2A2.14,2.14,0,0,1,288.61,406.44Z" style="fill:#942884"/><path d="M31.2,296.24a2.06,2.06,0,1,1-2-2.12A2.13,2.13,0,0,1,31.2,296.24Z" style="fill:#942884"/><path d="M387.65,86.8a2.06,2.06,0,1,1,2.08-2.08A2.12,2.12,0,0,1,387.65,86.8Z" style="fill:#942884"/><path d="M380.54,75.58a2.07,2.07,0,1,1-4.13-.14,2.16,2.16,0,0,1,2.07-2A2.14,2.14,0,0,1,380.54,75.58Z" style="fill:#942884"/><path d="M396.89,95.93a2,2,0,1,1,2-2A2,2,0,0,1,396.89,95.93Z" style="fill:#942884"/><path d="M369.25,64.35a2,2,0,1,1-2,2A2,2,0,0,1,369.25,64.35Z" style="fill:#942884"/><path d="M203.84,9.19a2,2,0,1,1-.07,4,2,2,0,0,1,.07-4Z" style="fill:#942884"/><path d="M260.88,415.64a1.92,1.92,0,1,1-1.93-1.87A1.86,1.86,0,0,1,260.88,415.64Z" style="fill:#942884"/><path d="M123,38.8a1.86,1.86,0,0,1-1.91,1.89,1.92,1.92,0,1,1,.06-3.83A1.85,1.85,0,0,1,123,38.8Z" style="fill:#942884"/><path d="M433.65,261.32a1.92,1.92,0,1,1,1.9-1.9A1.86,1.86,0,0,1,433.65,261.32Z" style="fill:#942884"/><path d="M157.79,404.58a1.92,1.92,0,1,1-1.86,1.93A1.86,1.86,0,0,1,157.79,404.58Z" style="fill:#942884"/><path d="M314.23,395.44a1.87,1.87,0,1,1-2,1.69A1.83,1.83,0,0,1,314.23,395.44Z" style="fill:#942884"/><path d="M260.83,11.25a1.87,1.87,0,1,1-1.74-1.92A1.84,1.84,0,0,1,260.83,11.25Z" style="fill:#942884"/><path d="M316,29.59a1.87,1.87,0,1,1-1.78-1.88A1.83,1.83,0,0,1,316,29.59Z" style="fill:#942884"/><path d="M361.92,57.09A1.83,1.83,0,1,1,360,55.33,1.87,1.87,0,0,1,361.92,57.09Z" style="fill:#942884"/><path d="M426.27,287a1.83,1.83,0,1,1-1.78-1.88A1.86,1.86,0,0,1,426.27,287Z" style="fill:#942884"/><path d="M132.09,397.35a1.83,1.83,0,0,1-3.66-.1,1.83,1.83,0,1,1,3.66.1Z" style="fill:#942884"/><path d="M387.7,344a1.83,1.83,0,0,1-.06-3.66,1.83,1.83,0,0,1,.06,3.66Z" style="fill:#942884"/><path d="M380.31,351.33a1.83,1.83,0,0,1-3.66,0,1.83,1.83,0,0,1,3.66,0Z" style="fill:#942884"/><path d="M371.11,360.52a1.83,1.83,0,1,1-1.84-1.82A1.86,1.86,0,0,1,371.11,360.52Z" style="fill:#942884"/><path d="M187.25,415.68a1.83,1.83,0,1,1-1.84-1.82A1.86,1.86,0,0,1,187.25,415.68Z" style="fill:#942884"/><path d="M12.54,259.42a1.84,1.84,0,0,1-1.77,1.77,1.79,1.79,0,1,1,0-3.57A1.84,1.84,0,0,1,12.54,259.42Z" style="fill:#942884"/><path d="M407.84,103.15a1.79,1.79,0,1,1-1.73-1.81A1.84,1.84,0,0,1,407.84,103.15Z" style="fill:#942884"/><path d="M360.07,371.51a1.79,1.79,0,1,1,1.8-1.73A1.86,1.86,0,0,1,360.07,371.51Z" style="fill:#942884"/><path d="M444.61,213.51a1.78,1.78,0,1,1-1.68-1.85A1.86,1.86,0,0,1,444.61,213.51Z" style="fill:#942884"/><path d="M398.65,332.89a1.87,1.87,0,0,1-1.7,1.85,1.84,1.84,0,0,1-1.87-1.79,1.83,1.83,0,0,1,1.75-1.78A1.85,1.85,0,0,1,398.65,332.89Z" style="fill:#942884"/><path d="M58.5,342.08a1.79,1.79,0,1,1-1.81-1.72A1.83,1.83,0,0,1,58.5,342.08Z" style="fill:#942884"/><path d="M67.7,351.35a1.79,1.79,0,1,1-1.74-1.8A1.84,1.84,0,0,1,67.7,351.35Z" style="fill:#942884"/><path d="M76.89,360.55a1.79,1.79,0,1,1-3.57-.1,1.79,1.79,0,0,1,3.57.1Z" style="fill:#942884"/><path d="M10.79,165.69a1.79,1.79,0,1,1-.14,3.57,1.79,1.79,0,0,1,.14-3.57Z" style="fill:#942884"/><path d="M21.73,287A1.79,1.79,0,1,1,20,285.2,1.84,1.84,0,0,1,21.73,287Z" style="fill:#942884"/><path d="M157.78,18.68a1.68,1.68,0,0,1,1.76,1.71,1.62,1.62,0,0,1-1.64,1.69,1.7,1.7,0,0,1-.12-3.4Z" style="fill:#942884"/><path d="M444.53,195.15a1.68,1.68,0,0,1-1.86,1.59,1.61,1.61,0,0,1-1.54-1.78,1.67,1.67,0,0,1,1.86-1.6A1.7,1.7,0,0,1,444.53,195.15Z" style="fill:#942884"/><path d="M49.23,332.91a1.68,1.68,0,0,1-1.8,1.73,1.61,1.61,0,0,1-1.6-1.72,1.7,1.7,0,0,1,3.4,0Z" style="fill:#942884"/><path d="M84.35,371.43a1.7,1.7,0,0,1-1.75-1.78A1.62,1.62,0,0,1,84.31,368a1.7,1.7,0,0,1,0,3.4Z" style="fill:#942884"/><path d="M444.46,231.81c-.09,1-.61,1.64-1.65,1.62a1.61,1.61,0,0,1,0-3.21A1.54,1.54,0,0,1,444.46,231.81Z" style="fill:#942884"/><path d="M407.65,323.75c-.11.95-.6,1.57-1.59,1.57a1.56,1.56,0,0,1,0-3.12C407,322.19,407.53,322.8,407.65,323.75Z" style="fill:#942884"/><path d="M40,323.65c-.09,1.1-.6,1.72-1.64,1.71a1.61,1.61,0,0,1-.06-3.21A1.54,1.54,0,0,1,40,323.65Z" style="fill:#942884"/><path d="M433.75,147.5a1.52,1.52,0,0,1,1.44,1.69,1.56,1.56,0,1,1-3.11-.2A1.53,1.53,0,0,1,433.75,147.5Z" style="fill:#942884"/><path d="M93.45,377.32c1,.09,1.58.57,1.6,1.56a1.56,1.56,0,0,1-3.12.07C91.9,378,92.5,377.46,93.45,377.32Z" style="fill:#942884"/><path d="M350.92,377.32c1,.16,1.58.67,1.54,1.66a1.56,1.56,0,0,1-3.12-.13A1.54,1.54,0,0,1,350.92,377.32Z" style="fill:#942884"/><path d="M21.59,139.84c-.12,1.09-.66,1.7-1.7,1.66a1.61,1.61,0,0,1,0-3.21A1.55,1.55,0,0,1,21.59,139.84Z" style="fill:#942884"/><path d="M3.15,213.39c-.08,1-.56,1.59-1.54,1.61a1.56,1.56,0,0,1-.1-3.12A1.53,1.53,0,0,1,3.15,213.39Z" style="fill:#942884"/><path d="M187,11.25a1.51,1.51,0,0,1-1.63,1.5,1.44,1.44,0,0,1-1.52-1.6,1.45,1.45,0,0,1,1.61-1.52C186.45,9.66,186.93,10.28,187,11.25Z" style="fill:#942884"/><path d="M352.49,48c-.15.94-.66,1.54-1.64,1.5a1.56,1.56,0,1,1,.09-3.11C351.92,46.43,352.4,47.06,352.49,48Z" style="fill:#942884"/><path d="M415.17,113.84a1.52,1.52,0,0,1,.14-3,1.5,1.5,0,0,1,1.46,1.55A1.59,1.59,0,0,1,415.17,113.84Z" style="fill:#942884"/><path d="M3.1,231.85a1.56,1.56,0,0,1-1.53,1.49A1.53,1.53,0,0,1,0,231.74a1.46,1.46,0,0,1,1.58-1.42A1.52,1.52,0,0,1,3.1,231.85Z" style="fill:#942884"/><path d="M277.34,417.22a1.53,1.53,0,0,1,0-3.05,1.49,1.49,0,0,1,1.52,1.49A1.59,1.59,0,0,1,277.34,417.22Z" style="fill:#942884"/><path d="M444.26,176.68a1.35,1.35,0,0,1-1.41,1.4,1.42,1.42,0,1,1,0-2.83A1.37,1.37,0,0,1,444.26,176.68Z" style="fill:#942884"/><path d="M306.37,406.52a1.37,1.37,0,0,1-1.44,1.39,1.42,1.42,0,1,1,.07-2.83A1.36,1.36,0,0,1,306.37,406.52Z" style="fill:#942884"/><path d="M140.89,406.47a1.35,1.35,0,0,1-1.36,1.44,1.42,1.42,0,1,1-.09-2.83A1.36,1.36,0,0,1,140.89,406.47Z" style="fill:#942884"/><path d="M29.11,316a1.36,1.36,0,0,1-1.39-1.45,1.42,1.42,0,1,1,2.84.09A1.37,1.37,0,0,1,29.11,316Z" style="fill:#942884"/><path d="M435.07,277.76a1.36,1.36,0,0,1-1.35,1.45,1.31,1.31,0,0,1-1.5-1.43,1.29,1.29,0,0,1,1.39-1.4A1.36,1.36,0,0,1,435.07,277.76Z" style="fill:#942884"/><path d="M130.3,28.14a1.36,1.36,0,0,1,1.38,1.46A1.32,1.32,0,0,1,130.15,31a1.3,1.3,0,0,1-1.3-1.5A1.36,1.36,0,0,1,130.3,28.14Z" style="fill:#942884"/><path d="M3,195.07a1.36,1.36,0,0,1-1.44,1.4A1.31,1.31,0,0,1,.15,195a1.3,1.3,0,0,1,1.47-1.32A1.36,1.36,0,0,1,3,195.07Z" style="fill:#942884"/><path d="M102.68,389.55c-.91-.11-1.43-.59-1.41-1.46a1.42,1.42,0,1,1,2.83.1A1.37,1.37,0,0,1,102.68,389.55Z" style="fill:#942884"/><path d="M167,417.12a1.35,1.35,0,0,1-1.41-1.41,1.32,1.32,0,0,1,1.49-1.44,1.3,1.3,0,0,1,1.34,1.46A1.35,1.35,0,0,1,167,417.12Z" style="fill:#942884"/><path d="M231.37,426.32c-.91-.11-1.43-.6-1.4-1.47a1.42,1.42,0,1,1,2.83.12A1.36,1.36,0,0,1,231.37,426.32Z" style="fill:#942884"/><path d="M12.11,277.8a1.28,1.28,0,0,1-1.34,1.33,1.21,1.21,0,0,1-1.35-1.28,1.23,1.23,0,0,1,1.38-1.39C11.64,276.47,12,277,12.11,277.8Z" style="fill:#942884"/><path d="M56.69,86.09a1.25,1.25,0,0,1-1.3-1.34,1.2,1.2,0,0,1,1.28-1.34,1.22,1.22,0,0,1,1.38,1.38C58,85.63,57.51,86,56.69,86.09Z" style="fill:#942884"/><path d="M442.78,248.86c.83,0,1.35.44,1.38,1.28a1.22,1.22,0,0,1-1.36,1.4,1.21,1.21,0,0,1-1.31-1.32A1.27,1.27,0,0,1,442.78,248.86Z" style="fill:#942884"/><path d="M416.6,314.58a1.26,1.26,0,0,1-1.33,1.32,1.21,1.21,0,0,1-1.35-1.28,1.22,1.22,0,0,1,1.37-1.39A1.27,1.27,0,0,1,416.6,314.58Z" style="fill:#942884"/><path d="M76.46,66.3c0,.83-.45,1.35-1.29,1.38a1.22,1.22,0,0,1-1.4-1.36A1.21,1.21,0,0,1,75.1,65,1.26,1.26,0,0,1,76.46,66.3Z" style="fill:#942884"/><path d="M341.71,386.75c.85.1,1.34.53,1.33,1.37a1.21,1.21,0,0,1-1.32,1.32,1.22,1.22,0,0,1-1.35-1.41A1.27,1.27,0,0,1,341.71,386.75Z" style="fill:#942884"/><path d="M66,76.9c-.84,0-1.37-.43-1.41-1.27a1.22,1.22,0,0,1,1.34-1.42,1.21,1.21,0,0,1,1.32,1.31A1.26,1.26,0,0,1,66,76.9Z" style="fill:#942884"/><path d="M213,426.24c-.88-.09-1.37-.51-1.37-1.35a1.2,1.2,0,0,1,1.29-1.34,1.22,1.22,0,0,1,1.37,1.39A1.26,1.26,0,0,1,213,426.24Z" style="fill:#942884"/><path d="M84.36,58.47c-.83-.11-1.36-.53-1.34-1.35a1.28,1.28,0,1,1,2.55.08C85.57,58,85,58.33,84.36,58.47Z" style="fill:#942884"/><path d="M2.87,250.22c-.12.78-.55,1.31-1.37,1.27a1.28,1.28,0,1,1,.12-2.55C2.37,249,2.76,249.47,2.87,250.22Z" style="fill:#942884"/><path d="M47.59,95.25c-.84-.12-1.36-.54-1.34-1.36a1.19,1.19,0,0,1,1.25-1.24A1.21,1.21,0,0,1,48.8,94C48.8,94.73,48.26,95.1,47.59,95.25Z" style="fill:#942884"/><path d="M251.09,424.82c-.13.84-.55,1.37-1.37,1.34a1.18,1.18,0,0,1-1.22-1.27,1.2,1.2,0,0,1,1.33-1.29A1.32,1.32,0,0,1,251.09,424.82Z" style="fill:#942884"/><path d="M111.88,398.51a1.16,1.16,0,0,1-1.19-1.25,1.1,1.1,0,0,1,1.16-1.15,1.11,1.11,0,0,1,1.21,1.23A1.15,1.15,0,0,1,111.88,398.51Z" style="fill:#942884"/><path d="M194.59,423.68a1.15,1.15,0,0,1,1.21,1.09,1.19,1.19,0,1,1-2.37.09A1.15,1.15,0,0,1,194.59,423.68Z" style="fill:#942884"/><path d="M21.15,305.37a1.17,1.17,0,0,1-1.29,1.19,1.1,1.1,0,0,1-1.1-1.21A1.12,1.12,0,0,1,20,304.18,1.16,1.16,0,0,1,21.15,305.37Z" style="fill:#942884"/><path d="M332.59,398.39c-.68,0-1.11-.32-1.15-1a1.08,1.08,0,1,1,2.15-.13A1,1,0,0,1,332.59,398.39Z" style="fill:#942884"/><path d="M39.42,103c0,.73-.34,1.16-1,1.2a1,1,0,0,1-1.15-1.09,1,1,0,0,1,1.06-1.06A1,1,0,0,1,39.42,103Z" style="fill:#942884"/><path d="M148.63,414.66a1,1,0,0,1,1,1,1,1,0,1,1-2,0A1,1,0,0,1,148.63,414.66Z" style="fill:#942884"/><path d="M425.53,305.4a1,1,0,0,1-1.08,1.05,1,1,0,0,1-1.08-1.17,1,1,0,0,1,1.13-1A1,1,0,0,1,425.53,305.4Z" style="fill:#942884"/><path d="M296.78,415.66a1.1,1.1,0,0,1-1.19,1,.89.89,0,0,1-.86-1,1,1,0,0,1,1.08-1A1,1,0,0,1,296.78,415.66Z" style="fill:#942884"/><path d="M.77,176.81c.11-.55,0-1.28.93-1.21a1,1,0,0,1,.93,1.17,1,1,0,0,1-1.12,1C.9,177.74.66,177.41.77,176.81Z" style="fill:#942884"/><path d="M11.84,149.09a1,1,0,0,1-1.05,1.08c-.49,0-1-.17-.79-.73s.2-1.3.91-1.39S11.8,148.49,11.84,149.09Z" style="fill:#942884"/><path d="M2.43,268.61a.82.82,0,0,1-1,.85.78.78,0,0,1-.78-.88.79.79,0,0,1,.94-.84A.81.81,0,0,1,2.43,268.61Z" style="fill:#942884"/><path d="M57.59,360.57a.82.82,0,0,1-1,.82.78.78,0,0,1-.75-.91.8.8,0,0,1,1-.81A.81.81,0,0,1,57.59,360.57Z" style="fill:#942884"/><path d="M48.4,351.3c-.06.58-.33.9-.84.89a.85.85,0,0,1-.89-.91.77.77,0,0,1,.84-.81A.83.83,0,0,1,48.4,351.3Z" style="fill:#942884"/><path d="M11.53,296.24c-.09.43-.34.73-.79.7A.79.79,0,0,1,10,296a.68.68,0,0,1,.84-.62A.75.75,0,0,1,11.53,296.24Z" style="fill:#942884"/><path d="M269.11,424.79a2.84,2.84,0,0,0-.83.16c-.38.21-.79.34-1.08,0s0-.58.25-.8a.91.91,0,0,1,1.19-.18A.86.86,0,0,1,269.11,424.79Z" style="fill:#942884"/><path d="M66.69,369.6c0,.41-.09.73-.48.71a1,1,0,0,1-1-.82c0-.29.29-.51.61-.53A.78.78,0,0,1,66.69,369.6Z" style="fill:#942884"/><path d="M177.1,424.91c-.06.26-.18.64-.45.41s-1.21.17-1.23-.63c0-.52.44-.72.92-.67A.81.81,0,0,1,177.1,424.91Z" style="fill:#942884"/><path d="M434.8,163.72C429,61.59,305.1-8,201.58.74,108.51,8.63,4.37,82.23,4.89,177.77,5.44,279.59,124.62,357.15,229.68,352c.86,0,1.71-.1,2.57-.15-7.08,52.68-73.37,97-48.7,90.22,77.41-21.28,119.09-79.6,137.88-114.87C387.35,294.37,438.74,232.82,434.8,163.72Z"/><path d="M258.56,334c9.78-2.33,1,12-10,14-1,18-17,55-32,69,31-15,83-53,83-97,0-17.26,108-31,121-153,1.73-67.45-93-153-203-152-95.55.87-195,70.91-195,164C22.56,267,127.56,353,258.56,334Z" style="fill:#fff"/></g></g></svg>