<svg xmlns="http://www.w3.org/2000/svg" viewBox="0 0 640.3 335.87"><title>Asset 2</title><g id="Layer_2" data-name="Layer 2"><g id="Layer_3" data-name="Layer 3"><path d="M446.23,94.88l1.14-.49c.75-.32,1.84-.8,3.17-1.4s3-1.34,4.85-2.21,3.94-1.89,6.24-3,4.74-2.28,7.3-3.59,5.25-2.69,8-4.13,5.6-3,8.46-4.52,5.76-3.15,8.58-4.8,5.65-3.29,8.4-4.94c1.39-.81,2.74-1.64,4.05-2.47l3.92-2.44,7.27-4.72L524,51.86l5.19-3.78c1.58-1.11,2.81-2.16,3.9-3l3.38-2.61.07-.06a3,3,0,0,1,3.19-.12,1.25,1.25,0,0,1,.29,2.11l-3.14,2.85c-1,.89-2.2,2-3.71,3.22s-3.16,2.57-5,4l-6.22,4.62c-2.28,1.58-4.7,3.25-7.24,4.94s-5.22,3.41-8,5.07l-4.21,2.54c-1.42.84-2.89,1.65-4.34,2.48-2.88,1.67-5.85,3.26-8.76,4.84s-5.86,3-8.7,4.48-5.65,2.77-8.33,4-5.22,2.4-7.57,3.48-4.57,2-6.54,2.8-3.69,1.52-5.15,2.08-2.58,1-3.35,1.27l-1.19.43a2.82,2.82,0,0,1-3.06-.65c-.55-.72-.2-1.62.8-2.05Z"/><path d="M445,101.25l1.44-.5c.95-.31,2.34-.79,4-1.42s3.74-1.4,6.09-2.33,5-2,7.83-3.21,5.93-2.51,9.12-4,6.53-3,10-4.63c1.72-.81,3.44-1.68,5.19-2.53S492.21,80.94,494,80l5.31-2.73c1.77-.92,3.5-1.89,5.26-2.83,3.53-1.87,6.9-3.87,10.29-5.78,1.71-1,3.3-2,4.92-2.94l4.78-2.89,8.77-5.66c2.7-1.87,5.28-3.61,7.62-5.25s4.33-3.24,6.2-4.59c.95-.67,1.77-1.33,2.53-2l2.1-1.68,4-3.19.08-.05a3,3,0,0,1,3.19-.16,1.26,1.26,0,0,1,.31,2.13l-3.78,3.42-2,1.8c-.73.65-1.52,1.36-2.43,2.08-1.78,1.46-3.83,3.08-6.06,4.85s-4.86,3.57-7.53,5.53S531.79,64,528.75,66s-6.4,4-9.8,6-6.87,4-10.48,5.89c-1.79,1-3.56,1.93-5.37,2.87l-5.42,2.74c-1.79.92-3.62,1.78-5.42,2.63s-3.56,1.72-5.33,2.52c-3.56,1.59-7,3.15-10.32,4.53s-6.49,2.69-9.42,3.87c-1.46.59-2.91,1.11-4.27,1.62s-2.65,1-3.89,1.43c-2.46.87-4.61,1.63-6.45,2.21s-3.25,1-4.21,1.3l-1.49.44a2.71,2.71,0,0,1-3-.83c-.47-.76,0-1.64,1.07-2Z"/><path d="M455.24,103.77l1.32-.43c.85-.28,2.15-.67,3.7-1.2s3.42-1.15,5.57-2l3.41-1.28L473,97.43c2.63-1,5.43-2.16,8.4-3.36s6.06-2.55,9.22-4L495.47,88l4.89-2.25c3.32-1.49,6.59-3.1,9.9-4.67l4.88-2.43c1.63-.8,3.25-1.6,4.82-2.43l4.69-2.43,4.52-2.43c3-1.58,5.77-3.2,8.45-4.69l2-1.11,1.87-1.12L545,62.3c1.15-.67,2.21-1.33,3.21-2l2.87-1.81c.9-.57,1.77-1.09,2.52-1.59l2.07-1.4,4-2.65.07,0a3,3,0,0,1,3.2,0A1.23,1.23,0,0,1,563,55l-3.75,2.9-2,1.52c-.73.55-1.56,1.11-2.43,1.73-1.76,1.22-3.69,2.64-6,4.06l-3.5,2.25-1.85,1.18-2,1.18c-2.63,1.6-5.44,3.27-8.44,4.92-1.49.82-3,1.69-4.54,2.52l-4.75,2.49c-3.18,1.71-6.54,3.3-9.85,5s-6.7,3.21-10.1,4.69l-5,2.23-4.95,2.11c-3.27,1.38-6.49,2.63-9.53,3.83s-6,2.29-8.7,3.26-5.25,1.82-7.5,2.56-4.31,1.34-5.94,1.86-3,.81-3.84,1.06l-1.36.36a2.69,2.69,0,0,1-2.93-.89c-.43-.77.08-1.63,1.15-2Z"/><path d="M609.43,28.22c9.19-1.69,21.45-12.5,14.06-20.39-8.94-9.56-47.76-11.78-59.23,1.41-2.6-7.38-30.21-11.66-46-3.13s-11.51,25.73.73,26.66c2.17,1.16-11.31-14.92,12.32-21.19,16.69-4.43,29.06,2.84,30.13,8.74.6,3.35,7.39-12.88,30.81-12.46S622.82,19.35,595,29.43c-7.32,2.65-2.5,3.3,2.72,3s32.94,2.29,31.07,10.27c-2.17,9.3-16.92,13-36.75,9.7-9.9-1.63-8,.36-8,.36,11.2,8.63,48.66,11.75,55.41-5.79C644.14,34.78,628.68,27,609.43,28.22Z"/><path d="M233.42,86c-24.72-20.77-66.75-25.65-96.65-12.87-24.59,10.51-37.59,31.52-32.22,52.67-7.18-.06-29.59.38-47.48,11.71C37.31,150,26.72,173.5,41.81,189c7.88,8.11,20.26,11.47,27.13,12.87-15.83,21.71-8.67,35.43-6.79,38.63C76,264.1,134,278.1,201.2,262.77c5.58,10.08,19.31,16.63,33.92,16.39,18.08-.3,28.05-10.85,28.83-11.71,23.83,22.94,62.95,34,98.35,28.1,32.74-5.47,50-23.41,54.26-28.1a143.6,143.6,0,0,0,54.26,7c37.83-2.53,79.74-21.15,86.49-48,2.52-10.06-.5-18.84-3.39-24.58,7.81-1.92,35.08-9.34,50.87-29.26,16.22-20.47,15.92-48.59-8.48-69.07S529.75,75.77,492.87,86a54.6,54.6,0,0,0-23.74-22.24C440.67,49.63,394.73,53,355.52,73.14c-.8-1-20-24-56-24.58C269.59,48.09,241.32,63.46,233.42,86Z"/><path d="M352.12,89.53c-.47-1.29-9.11-23.16-39-29.27a78.9,78.9,0,0,0-42.39,3.51c-20.59,7.78-32.78,24.14-32.22,42.14-17.08-18.66-45.86-28.85-72.92-25.75-5.15.59-35.56,4.57-45.71,23.57-9,16.78,5,32,6.71,33.79C125,137.1,96.76,129.91,74,142.2,72.61,143,47.46,157,55.37,175c4.42,10,17.56,17.65,33.92,19.9-6.17,7-18.68,23.61-10.18,37.46,12.18,19.83,65.63,31,127.18,14,2.82,9,12.89,15.89,25.44,17.56,14.25,1.9,29.09-3.36,35.61-12.87,1.12,1.42,22.75,27.84,66.13,29.26,32,1.05,62.34-11.93,76.31-32.78a125.33,125.33,0,0,0,59.35,9.37c5.51-.49,51.6-4.6,61-28.1,6.54-16.27-8.82-31.1-11.87-33.94,30.87-3.09,56.6-17.06,66.13-36.29,10.27-20.73,2.53-49.17-28.83-60.87-21.27-7.94-48.58-6.37-71.22,3.51-2.42-5.45-10.48-21-32.22-29.26C423.07,60.9,381,67.25,352.12,89.53Z" style="fill:#fff"/><path d="M162.36,232.74l-2.7,3.25c-.89,1-2.08,2.27-3.39,3.7s-2.92,2.95-4.64,4.64l-2.82,2.57c-1,.89-2,1.8-3.07,2.71l-3.31,2.83-3.58,2.88L137,256.78l-1.94,1.45-4,2.95c-2.76,1.91-5.49,3.91-8.41,5.78-1.45,1-2.87,1.92-4.34,2.83l-4.45,2.7c-1.46.91-3,1.73-4.48,2.58s-2.93,1.69-4.43,2.47c-3,1.54-5.8,3.12-8.7,4.4l-4.13,1.94c-1.36.6-2.71,1.16-4,1.7s-2.5,1.07-3.68,1.55l-3.43,1.26-3,1.11c-.93.34-1.83.6-2.63.86l-5,1.56a2.32,2.32,0,0,1-2.52-.66c-.42-.64,0-1.38.84-1.7l.12-.05,4.71-1.72c.75-.28,1.6-.55,2.48-.91l2.85-1.18,3.23-1.33c1.13-.49,2.29-1,3.51-1.58s2.49-1.12,3.79-1.73l4-2c2.73-1.32,5.48-2.86,8.38-4.39,1.45-.77,2.84-1.62,4.29-2.44s2.93-1.66,4.34-2.56c2.87-1.77,5.78-3.56,8.61-5.42s5.58-3.77,8.32-5.63l3.93-2.86,1.93-1.41,1.84-1.43,3.6-2.77,3.35-2.71c1.11-.88,2.13-1.75,3.11-2.61l2.85-2.46c1.73-1.62,3.41-3.08,4.77-4.41s2.55-2.47,3.49-3.46l2.94-3.15a2.46,2.46,0,0,1,2.64-.39C162.59,231.36,162.85,232.14,162.36,232.74Z"/><path d="M170.31,233.86l-2.9,3.88c-1,1.22-2.31,2.7-3.76,4.4-.75.83-1.59,1.69-2.46,2.62s-1.74,1.9-2.79,2.86c-2.05,1.95-4.21,4.09-6.7,6.24s-5.12,4.41-7.93,6.71c-1.39,1.15-2.93,2.25-4.42,3.4s-3,2.32-4.62,3.43l-4.81,3.41c-1.65,1.12-3.34,2.22-5,3.33l-2.51,1.66-2.59,1.6-5.19,3.13-5.28,3-2.59,1.45-2.64,1.36L99,289c-1.7.84-3.43,1.61-5.09,2.38s-3.23,1.55-4.87,2.2l-4.66,1.94c-2.95,1.28-5.83,2.26-8.34,3.18l-3.52,1.26-3.08,1-5.85,1.79a2.32,2.32,0,0,1-2.51-.67c-.42-.64,0-1.39.87-1.71l.11,0,5.56-1.95,2.94-1,3.36-1.34c2.38-1,5.14-2,8-3.28l4.47-2c1.57-.66,3.07-1.47,4.68-2.23l4.9-2.39,5-2.63,2.56-1.35,2.53-1.43,5.12-2.93,5.05-3.11,2.56-1.55,2.48-1.62c1.65-1.08,3.32-2.15,5-3.24l4.75-3.32c1.6-1.08,3.08-2.23,4.58-3.34s3-2.19,4.37-3.32l4.13-3.27c1.37-1.06,2.59-2.16,3.84-3.2,2.52-2.07,4.69-4.13,6.76-6s3.79-3.67,5.37-5.23,2.78-3,3.83-4.13L167,232.6a2.44,2.44,0,0,1,2.61-.49C170.46,232.46,170.78,233.24,170.31,233.86Z"/><path d="M173.14,238.94l-2.74,3.66-1.47,1.92-1.88,2.25c-1.35,1.61-2.82,3.44-4.65,5.33l-2.77,3-3.13,3.11c-2.11,2.16-4.55,4.33-7,6.6-1.24,1.14-2.62,2.22-3.95,3.36s-2.68,2.29-4.13,3.39-2.87,2.24-4.31,3.38-3,2.2-4.5,3.3l-2.27,1.65L128,281.46c-1.58,1.05-3.1,2.12-4.7,3.13l-4.75,3c-1.55,1-3.19,1.9-4.74,2.83-3.1,1.87-6.27,3.53-9.24,5.14-1.51.78-3,1.51-4.45,2.23s-2.81,1.42-4.2,2c-2.75,1.26-5.22,2.46-7.55,3.37s-4.27,1.81-6,2.42l-5.32,2a2.4,2.4,0,0,1-2.59-.53c-.48-.62-.17-1.39.68-1.75l.08,0,5-2.13c1.63-.65,3.49-1.57,5.68-2.55s4.58-2.19,7.22-3.47c1.33-.62,2.65-1.34,4-2.07s2.82-1.47,4.26-2.27c2.83-1.64,5.93-3.26,8.94-5.12,1.51-.92,3.1-1.82,4.61-2.8l4.61-2.95c1.55-1,3-2.06,4.56-3.09l2.3-1.55,2.24-1.6c1.48-1.08,3-2.14,4.45-3.22l4.26-3.29c1.44-1.07,2.75-2.2,4.09-3.3s2.68-2.16,3.9-3.27c2.48-2.19,5-4.27,7.09-6.36l3.17-3,2.81-2.88c.89-.93,1.81-1.79,2.58-2.65l2.21-2.43,1.95-2.13,1.57-1.88,3-3.57a2.42,2.42,0,0,1,2.61-.48C173.28,237.54,173.6,238.31,173.14,238.94Z"/><path d="M59,288.25c-.56-6.64-28.63-21.78-51.44-4.68-19.78,14.82,5.66,24.58,5.66,24.58-13.57,7.8-10.27,20.41,10.17,25,19.22,4.29,33.35-1.95,36.74-5.07,0,12.88,58.23,12.1,35.62-19.51-3.28.23,1,11.88-6.79,16.39-6.78,3.9-18.09,3.12-23.74-2.34a37.19,37.19,0,0,0,3.39-9.76c-4-.78-22.61,17.95-42.39,10.54C11,317.68,34.1,305.42,46,303.47c-1.69-3.52-15.79.65-23.74-.39-11.87-1.56-11.87-12.88,3.39-17.17C41.57,281.42,51.63,289,59,288.25Z"/></g></g></svg>