<svg xmlns="http://www.w3.org/2000/svg" xmlns:xlink="http://www.w3.org/1999/xlink" viewBox="0 0 202.55 161.96"><defs><style>.cls-1{fill:none;}.cls-2,.cls-6{fill:#150203;}.cls-2{stroke:#150203;stroke-linecap:round;stroke-linejoin:round;stroke-width:8px;}.cls-3{fill:#ff36a2;}.cls-4{clip-path:url(#clip-path);}.cls-5{fill:#c71c78;fill-rule:evenodd;}</style><clipPath id="clip-path"><polyline class="cls-1" points="101.47 154.04 196.28 155.89 183.45 18 13.48 44.24 28.62 152.52 64.58 153.3 90.98 153.62"/></clipPath></defs><title>Asset 2@6x2</title><g id="Layer_2" data-name="Layer 2"><g id="OBJECTS"><polygon class="cls-2" points="180.56 19.29 13.09 46.24 24.7 153.52 61.45 155.91 82.6 157.33 105.48 157.9 196.67 157.82 180.56 19.29"/><polyline class="cls-3" points="101.47 154.04 196.28 155.89 183.45 18 13.48 44.24 28.62 152.52 64.58 153.3"/><g class="cls-4"><path class="cls-5" d="M138.31,149.63a3.06,3.06,0,0,0,3.67,2.31,3,3,0,0,0-1.43-5.87A3,3,0,0,0,138.31,149.63Z"/><path class="cls-5" d="M153.38,141.15a3,3,0,0,0,5.88-1.37,3,3,0,1,0-5.88,1.37Z"/><path class="cls-5" d="M131.05,157.94a3,3,0,1,0,2.18-3.74A3,3,0,0,0,131.05,157.94Z"/><path class="cls-5" d="M146.07,149.23a3,3,0,0,0,3.68,2.24,3,3,0,1,0-3.68-2.24Z"/><path class="cls-5" d="M168.81,140.29a2.94,2.94,0,0,0,3.57,2.19,3,3,0,0,0,2.29-3.65,3,3,0,0,0-3.58-2.21A3,3,0,0,0,168.81,140.29Z"/><path class="cls-5" d="M161.11,140.69a2.93,2.93,0,0,0,3.58,2.18A3,3,0,0,0,167,139.2a3,3,0,0,0-5.85,1.49Z"/><path class="cls-5" d="M138.76,157.33a3,3,0,0,0,3.62,2.34,3,3,0,0,0,2.23-3.7,2.94,2.94,0,0,0-3.59-2.15A2.9,2.9,0,0,0,138.76,157.33Z"/><path class="cls-5" d="M184.27,139.25a3,3,0,1,0,5.86-1.29,3,3,0,0,0-5.86,1.29Z"/><path class="cls-5" d="M176.55,139.81a3,3,0,0,0,3.7,2.22,3.06,3.06,0,0,0,2.17-3.6,3,3,0,0,0-3.71-2.2A2.92,2.92,0,0,0,176.55,139.81Z"/><path class="cls-5" d="M145.63,141.53a3,3,0,1,0,2.31-3.65A3,3,0,0,0,145.63,141.53Z"/><path class="cls-5" d="M176.22,132.09a3,3,0,1,0,5.72-1.51,3,3,0,0,0-5.72,1.51Z"/><path class="cls-5" d="M202.41,142.66a3,3,0,0,0-2.2,3.55"/><path class="cls-5" d="M168.45,132.54a3,3,0,0,0,3.57,2.18,3,3,0,0,0,2.24-3.54,3,3,0,1,0-5.81,1.36Z"/><path class="cls-5" d="M194.77,143.05a3,3,0,0,0-2.32,3.63,3.1,3.1,0,0,0,3.55,2.26,3,3,0,0,0,2.29-3.65A2.93,2.93,0,0,0,194.77,143.05Z"/><path class="cls-5" d="M153.88,148.85a3,3,0,0,0,5.73-1.48,3,3,0,0,0-3.62-2.13A2.94,2.94,0,0,0,153.88,148.85Z"/><path class="cls-5" d="M192.08,139a2.92,2.92,0,0,0,3.56,2.17,3,3,0,1,0-1.47-5.77A2.92,2.92,0,0,0,192.08,139Z"/><path class="cls-5" d="M184,131.66a2.92,2.92,0,0,0,5.69-1.34,2.92,2.92,0,1,0-5.69,1.34Z"/><path class="cls-5" d="M138,142a3,3,0,0,0,3.59,2.13,2.95,2.95,0,0,0-1.44-5.72A3,3,0,0,0,138,142Z"/><path class="cls-5" d="M179.22,144a3,3,0,1,0,3.57,2.18A3,3,0,0,0,179.22,144Z"/><path class="cls-5" d="M163,129.35a3,3,0,0,0-2.26,3.66,2.91,2.91,0,0,0,3.59,2.12,3,3,0,0,0,2.21-3.55A3,3,0,0,0,163,129.35Z"/><path class="cls-5" d="M155.23,129.76a3,3,0,1,0,3.51,2.26A2.95,2.95,0,0,0,155.23,129.76Z"/><path class="cls-5" d="M192.89,154.29a3,3,0,1,0,5.83-1.22,2.93,2.93,0,0,0-3.5-2.24A3,3,0,0,0,192.89,154.29Z"/><path class="cls-5" d="M187,143.52a3,3,0,0,0-2.2,3.55,3,3,0,0,0,3.52,2.28,3,3,0,1,0-1.32-5.83Z"/><path class="cls-5" d="M132.86,146.52a2.95,2.95,0,1,0,1.31,5.75,2.95,2.95,0,0,0-1.31-5.75Z"/><path class="cls-5" d="M148.9,153.43a2.92,2.92,0,1,0,3.38,2.42A2.9,2.9,0,0,0,148.9,153.43Z"/><path class="cls-5" d="M199.1,160.83a2.92,2.92,0,0,0-3.51-2.23"/><path class="cls-5" d="M169.34,147.93a2.94,2.94,0,0,0,3.56,2.17,2.94,2.94,0,0,0-1.38-5.71A2.93,2.93,0,0,0,169.34,147.93Z"/><path class="cls-5" d="M123.38,158.29a2.88,2.88,0,0,0,3.44,2.14,2.91,2.91,0,1,0-3.44-2.14Z"/><path class="cls-5" d="M185.27,154.94a2.92,2.92,0,1,0,2.07-3.61A3,3,0,0,0,185.27,154.94Z"/><path class="cls-5" d="M147.49,130.23a2.92,2.92,0,0,0,1.18,5.72,2.92,2.92,0,1,0-1.18-5.72Z"/><path class="cls-5" d="M191.67,131.08a2.9,2.9,0,1,0,2.19-3.38A2.86,2.86,0,0,0,191.67,131.08Z"/><path class="cls-5" d="M202,135a2.94,2.94,0,0,0-2.16,3.56"/><path class="cls-5" d="M161.59,148.3a2.91,2.91,0,0,0,3.5,2.24,2.93,2.93,0,0,0-1.24-5.73A2.91,2.91,0,0,0,161.59,148.3Z"/><path class="cls-5" d="M170.29,121.26a2.89,2.89,0,0,0-2.17,3.52,2.87,2.87,0,1,0,5.56-1.39A2.87,2.87,0,0,0,170.29,121.26Z"/><path class="cls-5" d="M160.35,125.22a2.94,2.94,0,0,0,3.44,2.13,2.9,2.9,0,0,0-1.24-5.66A2.94,2.94,0,0,0,160.35,125.22Z"/><path class="cls-5" d="M144.93,126.08a2.89,2.89,0,0,0,3.49,2,2.92,2.92,0,0,0,2-3.5,2.85,2.85,0,0,0-3.49-2A2.82,2.82,0,0,0,144.93,126.08Z"/><path class="cls-5" d="M130.25,142.29a2.9,2.9,0,1,0,2.18-3.38A2.86,2.86,0,0,0,130.25,142.29Z"/><path class="cls-5" d="M123,150.38a2.89,2.89,0,1,0,5.65-1.18,2.89,2.89,0,0,0-5.65,1.18Z"/><path class="cls-5" d="M152.61,125.57a2.88,2.88,0,1,0,5.59-1.39,2.88,2.88,0,0,0-5.59,1.39Z"/><path class="cls-5" d="M139.72,130.71a2.93,2.93,0,0,0-2.15,3.44,2.89,2.89,0,0,0,5.65-1.17A2.94,2.94,0,0,0,139.72,130.71Z"/><path class="cls-5" d="M124.76,139.34a2.84,2.84,0,0,0-2.19,3.35,2.8,2.8,0,0,0,3.36,2.15,2.76,2.76,0,0,0,2.18-3.33A2.81,2.81,0,0,0,124.76,139.34Z"/><path class="cls-5" d="M115.7,158.64a2.83,2.83,0,0,0,3.42,2.15,2.86,2.86,0,1,0-3.42-2.15Z"/><path class="cls-5" d="M177.57,155.26a2.86,2.86,0,1,0,5.56-1.33,2.82,2.82,0,0,0-3.44-2.11A2.85,2.85,0,0,0,177.57,155.26Z"/><path class="cls-5" d="M178,120.85a2.85,2.85,0,0,0-2.13,3.39,2.81,2.81,0,0,0,3.34,2.21,2.84,2.84,0,0,0,2.21-3.5A2.88,2.88,0,0,0,178,120.85Z"/><path class="cls-5" d="M201.66,127.31a2.82,2.82,0,0,0-2.21,3.35"/><path class="cls-5" d="M191.3,161.27a2.84,2.84,0,0,0-3.39-2.14"/><path class="cls-5" d="M129.89,134.6a2.83,2.83,0,0,0,5.54-1.19,2.76,2.76,0,0,0-3.37-2.19A2.8,2.8,0,0,0,129.89,134.6Z"/><path class="cls-5" d="M185.76,120.42a2.91,2.91,0,0,0-2.18,3.39A2.86,2.86,0,0,0,187,126a2.81,2.81,0,0,0,2.18-3.38A2.86,2.86,0,0,0,185.76,120.42Z"/><path class="cls-5" d="M137.22,126.41a2.8,2.8,0,1,0,5.46-1.23,2.8,2.8,0,0,0-5.46,1.23Z"/><path class="cls-5" d="M172.12,152.23a2.8,2.8,0,0,0-2.3,3.29,2.9,2.9,0,0,0,3.35,2.25,2.82,2.82,0,0,0,2.2-3.22A2.75,2.75,0,0,0,172.12,152.23Z"/><path class="cls-5" d="M117.38,147.55a2.82,2.82,0,0,0-2.08,3.3,2.81,2.81,0,0,0,5.49-1.16A2.82,2.82,0,0,0,117.38,147.55Z"/><path class="cls-5" d="M193.5,120a2.8,2.8,0,1,0,3.32,2.21A2.77,2.77,0,0,0,193.5,120Z"/><path class="cls-5" d="M156.57,153.06a2.89,2.89,0,0,0-2.22,3.5,2.93,2.93,0,0,0,3.43,2.1,2.87,2.87,0,0,0,2.14-3.4A2.83,2.83,0,0,0,156.57,153.06Z"/><path class="cls-5" d="M160,117.24a2.74,2.74,0,0,0,3.29,2.26,2.79,2.79,0,0,0,2.18-3.36,2.86,2.86,0,0,0-3.29-2.11A2.79,2.79,0,0,0,160,117.24Z"/><path class="cls-5" d="M152.3,117.85a2.7,2.7,0,0,0,3.41,2,2.75,2.75,0,0,0,2-3.31,2.82,2.82,0,0,0-3.43-2.06A2.71,2.71,0,0,0,152.3,117.85Z"/><path class="cls-5" d="M164.11,152.73a2.85,2.85,0,0,0-2,3.34,2.89,2.89,0,0,0,3.43,2.11,2.82,2.82,0,1,0-1.43-5.45Z"/><path class="cls-5" d="M167.79,117.13a2.8,2.8,0,0,0,5.41-1.41,2.8,2.8,0,1,0-5.41,1.41Z"/><path class="cls-5" d="M110.09,155.78a2.68,2.68,0,0,0-2,3.28,2.63,2.63,0,0,0,3.23,2.06,2.66,2.66,0,0,0,2.08-3.36A2.7,2.7,0,0,0,110.09,155.78Z"/><path class="cls-5" d="M129.55,127a2.79,2.79,0,0,0,3.34,2,2.73,2.73,0,0,0,2-3.3,2.7,2.7,0,0,0-3.24-2A2.75,2.75,0,0,0,129.55,127Z"/><path class="cls-5" d="M201.16,119.7a2.76,2.76,0,1,0,1.39,5.35"/><path class="cls-5" d="M122.21,135a2.81,2.81,0,0,0,3.43,2.07,2.78,2.78,0,0,0,1.93-3.36,2.75,2.75,0,0,0-3.3-2A2.8,2.8,0,0,0,122.21,135Z"/><path class="cls-5" d="M144.57,118.18a2.67,2.67,0,0,0,3.36,2.08,2.71,2.71,0,0,0,2-3.29,2.68,2.68,0,0,0-3.27-2A2.64,2.64,0,0,0,144.57,118.18Z"/><path class="cls-5" d="M183.23,116.07a2.77,2.77,0,1,0,5.38-1.29,2.77,2.77,0,0,0-5.38,1.29Z"/><path class="cls-5" d="M114.9,143.11a2.8,2.8,0,0,0,3.23,2.11,2.74,2.74,0,1,0-1.14-5.37A2.83,2.83,0,0,0,114.9,143.11Z"/><path class="cls-5" d="M183.46,161.73a2.67,2.67,0,0,0-3.2-2.12"/><path class="cls-5" d="M175.53,116.64a2.78,2.78,0,1,0,2-3.43A2.77,2.77,0,0,0,175.53,116.64Z"/><path class="cls-5" d="M136.9,118.58a2.7,2.7,0,1,0,2-3.15A2.68,2.68,0,0,0,136.9,118.58Z"/><path class="cls-5" d="M107.59,151.32a2.78,2.78,0,1,0,2-3.3A2.74,2.74,0,0,0,107.59,151.32Z"/><path class="cls-5" d="M191,115.58a2.8,2.8,0,0,0,3.2,2.19,2.74,2.74,0,0,0-1-5.39A2.8,2.8,0,0,0,191,115.58Z"/><path class="cls-5" d="M167.32,109.14a2.8,2.8,0,0,0,3.21,2.19,2.77,2.77,0,1,0-1.09-5.43A2.79,2.79,0,0,0,167.32,109.14Z"/><path class="cls-5" d="M182.84,108.39a2.74,2.74,0,1,0,5.32-1.32,2.74,2.74,0,0,0-5.32,1.32Z"/><path class="cls-5" d="M175.1,108.86a2.76,2.76,0,1,0,2.1-3.39A2.82,2.82,0,0,0,175.1,108.86Z"/><path class="cls-5" d="M114.51,135.4a2.83,2.83,0,0,0,3.27,2.09,2.76,2.76,0,0,0-1.06-5.42A2.82,2.82,0,0,0,114.51,135.4Z"/><path class="cls-5" d="M153.86,106.81a2.7,2.7,0,0,0-2,3.31,2.67,2.67,0,0,0,3.26,2,2.74,2.74,0,1,0-1.29-5.33Z"/><path class="cls-5" d="M200.88,111.94a2.73,2.73,0,0,0-2.13,3.36,2.67,2.67,0,0,0,3.29,2"/><path class="cls-5" d="M124,124a2.76,2.76,0,1,0,1.15,5.4,2.74,2.74,0,0,0,2.06-3.26A2.78,2.78,0,0,0,124,124Z"/><path class="cls-5" d="M159.67,109.82a2.74,2.74,0,1,0,2-3.46A2.77,2.77,0,0,0,159.67,109.82Z"/><path class="cls-5" d="M190.62,108a2.72,2.72,0,0,0,5.27-1.31,2.72,2.72,0,1,0-5.27,1.31Z"/><path class="cls-5" d="M129.13,119a2.72,2.72,0,0,0,5.35-1,2.72,2.72,0,0,0-5.35,1Z"/><path class="cls-5" d="M107.19,143.54a2.74,2.74,0,1,0,2.11-3.26A2.76,2.76,0,0,0,107.19,143.54Z"/><path class="cls-5" d="M146.32,107.2a2.65,2.65,0,0,0-2.11,3.23,2.71,2.71,0,0,0,3.08,2.12,2.69,2.69,0,0,0,2.21-3.16A2.65,2.65,0,0,0,146.32,107.2Z"/><path class="cls-5" d="M114.13,127.56a2.66,2.66,0,0,0,3.24,2.12,2.7,2.7,0,1,0-3.24-2.12Z"/><path class="cls-5" d="M106.9,135.92a2.68,2.68,0,0,0,3.19,1.92,2.72,2.72,0,0,0,2-3.31,2.68,2.68,0,0,0-3.19-1.91A2.65,2.65,0,0,0,106.9,135.92Z"/><path class="cls-5" d="M121.5,119.6a2.63,2.63,0,0,0,3.18,1.91,2.66,2.66,0,1,0-3.18-1.91Z"/><path class="cls-5" d="M151.54,102.14a2.65,2.65,0,1,0,5.22-.89,2.65,2.65,0,0,0-5.22.89Z"/><path class="cls-5" d="M169,98.27a2.66,2.66,0,1,0,1.26,5.17A2.66,2.66,0,0,0,169,98.27Z"/><path class="cls-5" d="M200.38,104.32a2.64,2.64,0,0,0,1.12,5.16"/><path class="cls-5" d="M161.21,98.73a2.66,2.66,0,1,0,3.23,1.85A2.63,2.63,0,0,0,161.21,98.73Z"/><path class="cls-5" d="M138.49,107.72a2.62,2.62,0,0,0-2,3.29,2.67,2.67,0,1,0,5.16-1.41A2.64,2.64,0,0,0,138.49,107.72Z"/><path class="cls-5" d="M176.94,97.8a2.67,2.67,0,0,0-2.22,3.14,2.65,2.65,0,1,0,2.22-3.14Z"/><path class="cls-5" d="M100,151.83a2.59,2.59,0,0,0,3.19,1.91,2.71,2.71,0,0,0,2-3.28,2.75,2.75,0,0,0-3.21-1.91A2.64,2.64,0,0,0,100,151.83Z"/><path class="cls-5" d="M184.41,97.47a2.71,2.71,0,0,0-1.91,3.22,2.66,2.66,0,0,0,3.22,1.88,2.6,2.6,0,0,0,1.89-3.19A2.64,2.64,0,0,0,184.41,97.47Z"/><path class="cls-5" d="M143.89,102.8a2.66,2.66,0,0,0,3.15,1.94,2.7,2.7,0,0,0,1.94-3.19,2.65,2.65,0,0,0-3.17-1.91A2.62,2.62,0,0,0,143.89,102.8Z"/><path class="cls-5" d="M99.61,143.93a2.63,2.63,0,1,0,5.14-1.14,2.61,2.61,0,0,0-3.13-1.94A2.57,2.57,0,0,0,99.61,143.93Z"/><path class="cls-5" d="M115.78,116.81a2.6,2.6,0,1,0,3.07,1.86A2.53,2.53,0,0,0,115.78,116.81Z"/><path class="cls-5" d="M192.22,97.05a2.64,2.64,0,0,0-1.95,3.17,2.57,2.57,0,0,0,3.2,1.87,2.53,2.53,0,0,0,1.87-3A2.61,2.61,0,0,0,192.22,97.05Z"/><path class="cls-5" d="M130.85,108.17a2.63,2.63,0,0,0,1.06,5.15,2.63,2.63,0,1,0-1.06-5.15Z"/><path class="cls-5" d="M136.18,103.18a2.59,2.59,0,0,0,3.15,1.91,2.64,2.64,0,0,0,1.85-3.21,2.58,2.58,0,0,0-3.07-1.82A2.54,2.54,0,0,0,136.18,103.18Z"/><path class="cls-5" d="M101.17,133.16a2.58,2.58,0,1,0,3,1.81A2.53,2.53,0,0,0,101.17,133.16Z"/><path class="cls-5" d="M108.64,124.92a2.6,2.6,0,0,0,.71,5.15,2.6,2.6,0,1,0-.71-5.15Z"/><path class="cls-5" d="M121.12,111.7a2.58,2.58,0,1,0,5-1.12,2.58,2.58,0,0,0-5,1.12Z"/><path class="cls-5" d="M92.37,152.16a2.59,2.59,0,1,0,5-1.26,2.59,2.59,0,0,0-5,1.26Z"/><path class="cls-5" d="M199.9,96.66a2.58,2.58,0,0,0,1.28,5"/><path class="cls-5" d="M128.44,103.46a2.54,2.54,0,1,0,2-2.95A2.54,2.54,0,0,0,128.44,103.46Z"/><path class="cls-5" d="M151.24,94.55a2.53,2.53,0,0,0,3,1.91,2.51,2.51,0,1,0-1.08-4.91A2.54,2.54,0,0,0,151.24,94.55Z"/><path class="cls-5" d="M166.7,93.71a2.55,2.55,0,0,0,5-1.09,2.55,2.55,0,1,0-5,1.09Z"/><path class="cls-5" d="M174.42,93.38a2.56,2.56,0,0,0,5-1.2,2.56,2.56,0,1,0-5,1.2Z"/><path class="cls-5" d="M158.94,94a2.56,2.56,0,1,0,5-1,2.59,2.59,0,0,0-3-2A2.56,2.56,0,0,0,158.94,94Z"/><path class="cls-5" d="M182.14,92.84a2.54,2.54,0,1,0,1.91-3A2.55,2.55,0,0,0,182.14,92.84Z"/><path class="cls-5" d="M92,144.44a2.53,2.53,0,0,0,4.94-1.12A2.53,2.53,0,1,0,92,144.44Z"/><path class="cls-5" d="M113.46,112.18a2.51,2.51,0,1,0,1.84-3A2.45,2.45,0,0,0,113.46,112.18Z"/><path class="cls-5" d="M98.86,128.53a2.51,2.51,0,1,0,2-3.07A2.49,2.49,0,0,0,98.86,128.53Z"/><path class="cls-5" d="M106.16,120.37a2.51,2.51,0,0,0,4.89-1.15,2.47,2.47,0,0,0-2.94-1.94A2.5,2.5,0,0,0,106.16,120.37Z"/><path class="cls-5" d="M120.77,103.94a2.48,2.48,0,1,0,1.81-2.92A2.5,2.5,0,0,0,120.77,103.94Z"/><path class="cls-5" d="M190,92.45a2.5,2.5,0,0,0,3,1.85,2.51,2.51,0,0,0-1.19-4.88A2.5,2.5,0,0,0,190,92.45Z"/><path class="cls-5" d="M143.54,95a2.51,2.51,0,1,0,1.88-3A2.54,2.54,0,0,0,143.54,95Z"/><path class="cls-5" d="M166.35,85.88A2.45,2.45,0,1,0,168.17,83,2.44,2.44,0,0,0,166.35,85.88Z"/><path class="cls-5" d="M174.08,85.39a2.5,2.5,0,0,0,2.74,2,2.53,2.53,0,0,0,2.11-2.84,2.49,2.49,0,0,0-2.74-2A2.44,2.44,0,0,0,174.08,85.39Z"/><path class="cls-5" d="M135.84,95.46a2.48,2.48,0,1,0,1.7-3A2.54,2.54,0,0,0,135.84,95.46Z"/><path class="cls-5" d="M93.37,133.68a2.51,2.51,0,0,0-1.76,3.09,2.48,2.48,0,1,0,4.76-1.41A2.5,2.5,0,0,0,93.37,133.68Z"/><path class="cls-5" d="M84.77,152.66a2.46,2.46,0,0,0,4.75-1.29,2.46,2.46,0,1,0-4.75,1.29Z"/><path class="cls-5" d="M105.78,112.6a2.43,2.43,0,0,0,3,1.83,2.45,2.45,0,1,0-1.24-4.73A2.42,2.42,0,0,0,105.78,112.6Z"/><path class="cls-5" d="M181.88,85.08a2.41,2.41,0,0,0,2.85,1.86,2.43,2.43,0,1,0-1.07-4.75A2.4,2.4,0,0,0,181.88,85.08Z"/><path class="cls-5" d="M202.49,90.87A2.43,2.43,0,0,0,199.63,89a2.46,2.46,0,0,0-1.91,3,2.43,2.43,0,0,0,3,1.82"/><path class="cls-5" d="M113.14,104.58a2.44,2.44,0,1,0,1.77-3.07A2.46,2.46,0,0,0,113.14,104.58Z"/><path class="cls-5" d="M158.64,86.44a2.5,2.5,0,0,0,3,1.77,2.45,2.45,0,0,0,1.8-2.91,2.4,2.4,0,0,0-2.86-1.85A2.45,2.45,0,0,0,158.64,86.44Z"/><path class="cls-5" d="M91.18,128.79a2.38,2.38,0,0,0,2.94,1.94A2.42,2.42,0,0,0,96,127.85,2.49,2.49,0,0,0,93.09,126,2.44,2.44,0,0,0,91.18,128.79Z"/><path class="cls-5" d="M128.11,95.75a2.44,2.44,0,1,0,4.77-1,2.44,2.44,0,0,0-4.77,1Z"/><path class="cls-5" d="M98.45,120.63a2.43,2.43,0,0,0,2.76,2,2.44,2.44,0,1,0-.69-4.84A2.43,2.43,0,0,0,98.45,120.63Z"/><path class="cls-5" d="M83.93,137a2.39,2.39,0,0,0,2.83,1.88,2.43,2.43,0,0,0,1.87-2.85,2.41,2.41,0,0,0-2.84-1.86A2.37,2.37,0,0,0,83.93,137Z"/><path class="cls-5" d="M189.62,84.67a2.34,2.34,0,0,0,2.9,1.75,2.38,2.38,0,0,0,1.73-2.93,2.44,2.44,0,0,0-2.83-1.71A2.37,2.37,0,0,0,189.62,84.67Z"/><path class="cls-5" d="M120.4,96a2.35,2.35,0,0,0,2.68,2.06,2.41,2.41,0,0,0,2-2.86,2.46,2.46,0,0,0-2.85-1.88A2.38,2.38,0,0,0,120.4,96Z"/><path class="cls-5" d="M78.82,150.11A2.35,2.35,0,0,0,77.1,153a2.42,2.42,0,0,0,2.8,1.73,2.44,2.44,0,0,0,1.83-2.88A2.38,2.38,0,0,0,78.82,150.11Z"/><path class="cls-5" d="M150.91,86.81a2.47,2.47,0,0,0,3,1.79,2.42,2.42,0,0,0-1.25-4.68A2.47,2.47,0,0,0,150.91,86.81Z"/><path class="cls-5" d="M86.17,141.84a2.45,2.45,0,1,0,2.89,1.83A2.41,2.41,0,0,0,86.17,141.84Z"/><path class="cls-5" d="M135.49,87.67a2.38,2.38,0,0,0,2.73,1.81,2.38,2.38,0,1,0-2.73-1.81Z"/><path class="cls-5" d="M127.73,88.13A2.42,2.42,0,0,0,132.44,87a2.49,2.49,0,0,0-2.85-1.87A2.43,2.43,0,0,0,127.73,88.13Z"/><path class="cls-5" d="M90.81,121.07a2.36,2.36,0,1,0,4.63-1,2.36,2.36,0,0,0-4.63,1Z"/><path class="cls-5" d="M143.21,87.28a2.4,2.4,0,1,0,4.66-1.15,2.4,2.4,0,1,0-4.66,1.15Z"/><path class="cls-5" d="M105.44,104.85a2.36,2.36,0,0,0,4.63-1,2.36,2.36,0,1,0-4.63,1Z"/><path class="cls-5" d="M76.63,145.22A2.35,2.35,0,0,0,79.48,147a2.42,2.42,0,1,0-1.1-4.71A2.37,2.37,0,0,0,76.63,145.22Z"/><path class="cls-5" d="M197.35,84.34A2.42,2.42,0,0,0,202,83.1a2.48,2.48,0,0,0-2.91-1.8A2.46,2.46,0,0,0,197.35,84.34Z"/><path class="cls-5" d="M98.13,113a2.41,2.41,0,0,0,2.88,1.78,2.47,2.47,0,0,0,1.76-2.77,2.42,2.42,0,0,0-2.84-1.85A2.36,2.36,0,0,0,98.13,113Z"/><path class="cls-5" d="M158.23,78.67a2.46,2.46,0,0,0,2.92,1.77,2.4,2.4,0,0,0,1.74-2.92A2.35,2.35,0,0,0,160,75.78,2.42,2.42,0,0,0,158.23,78.67Z"/><path class="cls-5" d="M150.53,79.12a2.35,2.35,0,0,0,2.78,1.75,2.38,2.38,0,1,0-1-4.65A2.35,2.35,0,0,0,150.53,79.12Z"/><path class="cls-5" d="M83.57,129.35a2.32,2.32,0,0,0,2.76,1.71,2.32,2.32,0,1,0-1.09-4.5A2.32,2.32,0,0,0,83.57,129.35Z"/><path class="cls-5" d="M136.85,77.1a2.36,2.36,0,1,0,2.8,1.71A2.33,2.33,0,0,0,136.85,77.1Z"/><path class="cls-5" d="M166,78.28a2.39,2.39,0,1,0,1.76-2.89A2.38,2.38,0,0,0,166,78.28Z"/><path class="cls-5" d="M114.58,93.88a2.33,2.33,0,0,0-1.8,2.85,2.3,2.3,0,0,0,2.78,1.67,2.31,2.31,0,0,0-1-4.52Z"/><path class="cls-5" d="M144.67,76.64a2.37,2.37,0,1,0,2.75,1.76A2.42,2.42,0,0,0,144.67,76.64Z"/><path class="cls-5" d="M97.73,105.24a2.39,2.39,0,0,0,2.88,1.77,2.33,2.33,0,0,0,1.71-2.91,2.37,2.37,0,0,0-4.59,1.14Z"/><path class="cls-5" d="M120.07,88.52a2.37,2.37,0,1,0,4.59-1.21,2.37,2.37,0,0,0-4.59,1.21Z"/><path class="cls-5" d="M69.37,153.38a2.4,2.4,0,0,0,2.92,1.75,2.36,2.36,0,0,0-1.08-4.59A2.35,2.35,0,0,0,69.37,153.38Z"/><path class="cls-5" d="M90.44,113.54a2.35,2.35,0,1,0,1.64-3A2.37,2.37,0,0,0,90.44,113.54Z"/><path class="cls-5" d="M197,76.33a2.37,2.37,0,0,0,2.83,1.89A2.34,2.34,0,1,0,197,76.33Z"/><path class="cls-5" d="M173.72,77.77A2.38,2.38,0,1,0,175.55,75,2.32,2.32,0,0,0,173.72,77.77Z"/><path class="cls-5" d="M189.24,76.85a2.37,2.37,0,0,0,2.86,1.8,2.33,2.33,0,0,0,1.73-2.75A2.26,2.26,0,0,0,191,74.1,2.33,2.33,0,0,0,189.24,76.85Z"/><path class="cls-5" d="M181.48,77.25a2.31,2.31,0,0,0,2.79,1.87,2.34,2.34,0,0,0,1.85-2.83,2.37,2.37,0,0,0-4.64,1Z"/><path class="cls-5" d="M105,97a2.34,2.34,0,1,0,4.61-.82A2.34,2.34,0,0,0,105,97Z"/><path class="cls-5" d="M129.13,77.56A2.33,2.33,0,1,0,132,79.41,2.4,2.4,0,0,0,129.13,77.56Z"/><path class="cls-5" d="M76.2,137.37A2.33,2.33,0,0,0,79,139.21a2.33,2.33,0,1,0-1-4.55A2.37,2.37,0,0,0,76.2,137.37Z"/><path class="cls-5" d="M83.11,121.53a2.35,2.35,0,0,0,2.83,1.82,2.3,2.3,0,0,0,1.71-2.73,2.25,2.25,0,0,0-2.81-1.83A2.29,2.29,0,0,0,83.11,121.53Z"/><path class="cls-5" d="M69,145.66a2.3,2.3,0,1,0,1.68-2.79A2.31,2.31,0,0,0,69,145.66Z"/><path class="cls-5" d="M159.6,68.14a2.24,2.24,0,0,0-1.68,2.76,2.19,2.19,0,0,0,2.77,1.65,2.24,2.24,0,0,0,1.69-2.75A2.28,2.28,0,0,0,159.6,68.14Z"/><path class="cls-5" d="M112.38,88.93a2.33,2.33,0,0,0,2.77,1.71,2.28,2.28,0,0,0,1.73-2.75,2.24,2.24,0,0,0-2.76-1.69A2.26,2.26,0,0,0,112.38,88.93Z"/><path class="cls-5" d="M75.85,129.77a2.3,2.3,0,0,0,4.47-1.05,2.28,2.28,0,0,0-2.75-1.7A2.3,2.3,0,0,0,75.85,129.77Z"/><path class="cls-5" d="M91.85,102.89a2.3,2.3,0,0,0,.87,4.51,2.3,2.3,0,0,0-.87-4.51Z"/><path class="cls-5" d="M82.77,113.76a2.26,2.26,0,1,0,4.42-.93,2.26,2.26,0,0,0-4.42.93Z"/><path class="cls-5" d="M167.42,67.72a2.32,2.32,0,0,0-1.78,2.71,2.29,2.29,0,0,0,4.49-1A2.31,2.31,0,0,0,167.42,67.72Z"/><path class="cls-5" d="M142.54,71.85a2.26,2.26,0,0,0,4.33-1.27,2.26,2.26,0,1,0-4.33,1.27Z"/><path class="cls-5" d="M106.4,86.64a2.26,2.26,0,0,0,.9,4.42,2.25,2.25,0,0,0,1.78-2.66A2.28,2.28,0,0,0,106.4,86.64Z"/><path class="cls-5" d="M152,68.56a2.31,2.31,0,0,0-1.8,2.71,2.21,2.21,0,0,0,2.74,1.7,2.24,2.24,0,0,0,1.71-2.74A2.33,2.33,0,0,0,152,68.56Z"/><path class="cls-5" d="M182.72,66.93a2.26,2.26,0,1,0,2.82,1.55A2.24,2.24,0,0,0,182.72,66.93Z"/><path class="cls-5" d="M75.49,122a2.3,2.3,0,0,0,2.78,1.69,2.25,2.25,0,0,0-1-4.38A2.28,2.28,0,0,0,75.49,122Z"/><path class="cls-5" d="M175.16,67.32A2.21,2.21,0,0,0,173.45,70a2.25,2.25,0,0,0,2.73,1.7,2.31,2.31,0,0,0,1.64-2.81A2.27,2.27,0,0,0,175.16,67.32Z"/><path class="cls-5" d="M66.53,160.42a2.26,2.26,0,0,0-4.35,1.22"/><path class="cls-5" d="M68.59,137.93a2.33,2.33,0,0,0,2.62,1.65,2.25,2.25,0,1,0-.94-4.4A2.3,2.3,0,0,0,68.59,137.93Z"/><path class="cls-5" d="M99.07,94.79a2.32,2.32,0,0,0-1.68,2.78A2.28,2.28,0,0,0,100,99.22a2.23,2.23,0,0,0,1.77-2.69A2.27,2.27,0,0,0,99.07,94.79Z"/><path class="cls-5" d="M121.48,78a2.29,2.29,0,0,0-1.75,2.74,2.33,2.33,0,0,0,2.82,1.64A2.26,2.26,0,0,0,121.48,78Z"/><path class="cls-5" d="M112,81.21a2.19,2.19,0,0,0,2.65,1.63,2.23,2.23,0,0,0,1.64-2.78A2.22,2.22,0,0,0,112,81.21Z"/><path class="cls-5" d="M134.78,72.15a2.25,2.25,0,0,0,2.75,1.66,2.17,2.17,0,0,0,1.58-2.64,2.14,2.14,0,0,0-2.54-1.72A2.26,2.26,0,0,0,134.78,72.15Z"/><path class="cls-5" d="M68.21,130.21a2.21,2.21,0,1,0,1.68-2.74A2.25,2.25,0,0,0,68.21,130.21Z"/><path class="cls-5" d="M190.74,66.47a2.22,2.22,0,0,0-1.84,2.62,2.25,2.25,0,0,0,2.73,1.73,2.19,2.19,0,0,0,1.65-2.61A2.22,2.22,0,0,0,190.74,66.47Z"/><path class="cls-5" d="M61.75,153.85a2.28,2.28,0,0,0,2.65,1.62,2.2,2.2,0,0,0,1.66-2.74,2.23,2.23,0,0,0-2.62-1.63A2.32,2.32,0,0,0,61.75,153.85Z"/><path class="cls-5" d="M198.34,66.05a2.21,2.21,0,1,0,1.06,4.29,2.21,2.21,0,0,0-1.06-4.29Z"/><path class="cls-5" d="M89.71,97.89a2.2,2.2,0,0,0,4.29-1,2.27,2.27,0,0,0-2.64-1.66A2.2,2.2,0,0,0,89.71,97.89Z"/><path class="cls-5" d="M84,103.46a2.19,2.19,0,0,0,.9,4.28,2.22,2.22,0,0,0,1.77-2.69A2.25,2.25,0,0,0,84,103.46Z"/><path class="cls-5" d="M69.45,119.8a2.19,2.19,0,0,0-1.59,2.65A2.22,2.22,0,0,0,70.37,124a2.31,2.31,0,0,0,1.71-2.6A2.2,2.2,0,0,0,69.45,119.8Z"/><path class="cls-5" d="M104.32,81.44a2.22,2.22,0,0,0,2.51,1.81,2.29,2.29,0,0,0,1.76-2.56,2.17,2.17,0,0,0-4.27.75Z"/><path class="cls-5" d="M97,89.69a2.19,2.19,0,0,0,2.55,1.72,2.22,2.22,0,0,0,1.74-2.55,2.28,2.28,0,0,0-2.57-1.73A2.19,2.19,0,0,0,97,89.69Z"/><path class="cls-5" d="M127.09,72.64a2.25,2.25,0,0,0,2.68,1.57A2.18,2.18,0,0,0,128.7,70,2.25,2.25,0,0,0,127.09,72.64Z"/><path class="cls-5" d="M61.32,146a2.2,2.2,0,0,0,2.56,1.71,2.16,2.16,0,0,0,1.76-2.52,2.2,2.2,0,1,0-4.32.81Z"/><path class="cls-5" d="M157.67,63.1a2.13,2.13,0,0,0,2.55,1.68,2.18,2.18,0,0,0-.92-4.27A2.16,2.16,0,0,0,157.67,63.1Z"/><path class="cls-5" d="M76.76,111.66a2.17,2.17,0,0,0-1.62,2.6,2.18,2.18,0,1,0,4.25-1A2.2,2.2,0,0,0,76.76,111.66Z"/><path class="cls-5" d="M119.4,73.1a2.26,2.26,0,0,0,2.54,1.55,2.22,2.22,0,0,0,1.67-2.59,2.17,2.17,0,1,0-4.21,1Z"/><path class="cls-5" d="M165.39,62.76a2.15,2.15,0,0,0,2.49,1.61,2.23,2.23,0,0,0,1.64-2.78,2.26,2.26,0,0,0-2.59-1.49A2.17,2.17,0,0,0,165.39,62.76Z"/><path class="cls-5" d="M173.09,62.18a2.12,2.12,0,0,0,2.54,1.71,2.17,2.17,0,0,0,1.66-2.59,2.2,2.2,0,0,0-2.46-1.64A2.15,2.15,0,0,0,173.09,62.18Z"/><path class="cls-5" d="M60.92,138.2a2.16,2.16,0,1,0,4.24-.86,2.25,2.25,0,0,0-2.62-1.64A2.29,2.29,0,0,0,60.92,138.2Z"/><path class="cls-5" d="M180.82,61.78a2.17,2.17,0,0,0,2.58,1.65,2.13,2.13,0,0,0-.87-4.18A2.14,2.14,0,0,0,180.82,61.78Z"/><path class="cls-5" d="M142.17,63.94a2.21,2.21,0,0,0,2.64,1.61,2.14,2.14,0,0,0-1.08-4.14A2.19,2.19,0,0,0,142.17,63.94Z"/><path class="cls-5" d="M149.94,63.44a2.11,2.11,0,1,0,1.53-2.5A2.14,2.14,0,0,0,149.94,63.44Z"/><path class="cls-5" d="M188.58,61.39a2.1,2.1,0,0,0,2.51,1.54,2.06,2.06,0,0,0,1.66-2.43,2.1,2.1,0,0,0-2.61-1.61A2.13,2.13,0,0,0,188.58,61.39Z"/><path class="cls-5" d="M196.35,61a2,2,0,0,0,2.48,1.53,2.07,2.07,0,0,0,1.64-2.41,2.11,2.11,0,0,0-2.59-1.6A2.08,2.08,0,0,0,196.35,61Z"/><path class="cls-5" d="M134.47,64.39A2.14,2.14,0,0,0,137,66a2.11,2.11,0,0,0-.77-4.15A2.14,2.14,0,0,0,134.47,64.39Z"/><path class="cls-5" d="M74.77,106.6A2.11,2.11,0,0,0,77.35,108a2,2,0,0,0,1.52-2.49A2.09,2.09,0,0,0,76.2,104,2.16,2.16,0,0,0,74.77,106.6Z"/><path class="cls-5" d="M82,98.26a2.16,2.16,0,0,0,2.45,1.66,2.09,2.09,0,0,0,1.69-2.56,2,2,0,0,0-2.49-1.53A2.1,2.1,0,0,0,82,98.26Z"/><path class="cls-5" d="M54.12,154.21a2,2,0,0,0,2.51,1.53,2.07,2.07,0,0,0,1.64-2.44,2.17,2.17,0,0,0-2.45-1.65A2.14,2.14,0,0,0,54.12,154.21Z"/><path class="cls-5" d="M58.69,160.92A2.13,2.13,0,0,0,56,159.39a2.09,2.09,0,0,0-1.5,2.52"/><path class="cls-5" d="M89.37,90.21a2.14,2.14,0,0,0,2.5,1.57,2.09,2.09,0,0,0,1.58-2.63,2,2,0,0,0-2.55-1.46A2.13,2.13,0,0,0,89.37,90.21Z"/><path class="cls-5" d="M111.68,73.32a2.09,2.09,0,0,0,2.58,1.6,2.06,2.06,0,0,0,1.55-2.47,2.11,2.11,0,0,0-4.13.87Z"/><path class="cls-5" d="M62.23,128a2.22,2.22,0,0,0-1.62,2.62,2.18,2.18,0,0,0,2.54,1.49,2.25,2.25,0,0,0,1.56-2.51A2.2,2.2,0,0,0,62.23,128Z"/><path class="cls-5" d="M126.77,64.76a2,2,0,0,0,2.43,1.62,2,2,0,1,0-.8-4A2,2,0,0,0,126.77,64.76Z"/><path class="cls-5" d="M67.46,114.54a2.18,2.18,0,0,0,2.4,1.71,2.07,2.07,0,0,0,1.68-2.39,2.1,2.1,0,0,0-2.38-1.71A2.13,2.13,0,0,0,67.46,114.54Z"/><path class="cls-5" d="M96.67,82a2.21,2.21,0,0,0,2.48,1.61,2.16,2.16,0,0,0,1.61-2.46A2.12,2.12,0,0,0,98.3,79.5,2.2,2.2,0,0,0,96.67,82Z"/><path class="cls-5" d="M53.73,146.5a2.07,2.07,0,0,0,4-1,2.07,2.07,0,0,0-4,1Z"/><path class="cls-5" d="M172.78,54.57a2,2,0,1,0,3.91-1.06,2,2,0,0,0-2.39-1.45A2.09,2.09,0,0,0,172.78,54.57Z"/><path class="cls-5" d="M119.11,65.26a1.94,1.94,0,0,0,2.33,1.52,2,2,0,1,0-.76-4A2,2,0,0,0,119.11,65.26Z"/><path class="cls-5" d="M165.07,54.9a2,2,0,0,0,2.32,1.54A2,2,0,0,0,169,54a2,2,0,1,0-4,.87Z"/><path class="cls-5" d="M104,73.81a2,2,0,0,0,2.34,1.53A2,2,0,0,0,108,72.92a2,2,0,1,0-3.92.89Z"/><path class="cls-5" d="M157.38,55.47a2,2,0,0,0,2.42,1.35,2,2,0,0,0,1.5-2.34,2.07,2.07,0,0,0-2.48-1.55A2,2,0,0,0,157.38,55.47Z"/><path class="cls-5" d="M67.05,106.93a2,2,0,0,0,2.5,1.5A2,2,0,0,0,71.06,106a2.06,2.06,0,1,0-4,1Z"/><path class="cls-5" d="M60.23,122.85a2.14,2.14,0,0,0,2.41,1.47,2,2,0,0,0,1.49-2.48,1.92,1.92,0,0,0-2.51-1.43A2.11,2.11,0,0,0,60.23,122.85Z"/><path class="cls-5" d="M180.46,54.17A2.14,2.14,0,0,0,183,55.61a2.09,2.09,0,0,0,1.42-2.55,2.12,2.12,0,0,0-2.37-1.5A2.16,2.16,0,0,0,180.46,54.17Z"/><path class="cls-5" d="M81.75,90.73a2.09,2.09,0,0,0,2.32,1.37,2,2,0,0,0,1.53-2.49,2,2,0,0,0-2.4-1.41A2,2,0,0,0,81.75,90.73Z"/><path class="cls-5" d="M149.64,55.78a2,2,0,0,0,2.47,1.51,2,2,0,0,0-.88-3.93A2,2,0,0,0,149.64,55.78Z"/><path class="cls-5" d="M74.33,98.69a2.12,2.12,0,0,0,2.61,1.6A2.19,2.19,0,0,0,78.4,97.9a2.07,2.07,0,0,0-4.07.79Z"/><path class="cls-5" d="M188.25,53.87a2.05,2.05,0,1,0,1.52-2.67A2.13,2.13,0,0,0,188.25,53.87Z"/><path class="cls-5" d="M134.14,56.54a2,2,0,0,0,.66,1.23,2.43,2.43,0,0,0,1.6.48.94.94,0,0,0,.33-.08,2.57,2.57,0,0,0,1.05-.85,1.8,1.8,0,0,0,.31-1.63,1.94,1.94,0,0,0-2.68-1.38l-.17,0a1.66,1.66,0,0,0-.9.75A1.79,1.79,0,0,0,134.14,56.54Z"/><path class="cls-5" d="M89,82.55a2.14,2.14,0,0,0,2.47,1.37,2,2,0,0,0,1.4-2.4,1.94,1.94,0,0,0-2.35-1.45A2,2,0,0,0,89,82.55Z"/><path class="cls-5" d="M141.92,56.2a1.92,1.92,0,0,0,2.49,1.46,2,2,0,0,0,1.36-2.44,2,2,0,0,0-2.42-1.36A1.87,1.87,0,0,0,141.92,56.2Z"/><path class="cls-5" d="M111.3,65.63a2.11,2.11,0,0,0,2.49,1.57,2.17,2.17,0,0,0,1.52-2.35,2.1,2.1,0,0,0-2.4-1.67A2.08,2.08,0,0,0,111.3,65.63Z"/><path class="cls-5" d="M50.8,161.34a2.09,2.09,0,0,0-2.4-1.45"/><path class="cls-5" d="M52.86,130.84a2.17,2.17,0,0,0,2.61,1.66,2,2,0,0,0,1.41-2.4,2,2,0,0,0-2.44-1.55A2,2,0,0,0,52.86,130.84Z"/><path class="cls-5" d="M55,136.27a2,2,0,0,0-1.61,2.41,2.09,2.09,0,0,0,2.48,1.54,2,2,0,0,0,1.4-2.4A1.93,1.93,0,0,0,55,136.27Z"/><path class="cls-5" d="M74,91.1a2,2,0,0,0,3.89-1,2,2,0,1,0-3.89,1Z"/><path class="cls-5" d="M172.4,46.74a2,2,0,0,0,2.5,1.47,2,2,0,0,0-1-3.84A1.94,1.94,0,0,0,172.4,46.74Z"/><path class="cls-5" d="M47.84,152.13a2.29,2.29,0,0,0-1.42,2.45,2.13,2.13,0,0,0,2.51,1.52,1.94,1.94,0,0,0,1.42-2.5A2.06,2.06,0,0,0,47.84,152.13Z"/><path class="cls-5" d="M59.78,115.15a2.11,2.11,0,0,0,2.44,1.39,2.07,2.07,0,0,0,1.53-2.34,2,2,0,0,0-2.45-1.59A2.24,2.24,0,0,0,59.78,115.15Z"/><path class="cls-5" d="M46.05,146.09A1.92,1.92,0,0,0,46.8,148a2,2,0,0,0,2.25.12,2,2,0,0,0,.88-2.21,1.76,1.76,0,0,0-.71-1.12,2.43,2.43,0,0,0-1.45-.42.75.75,0,0,0-.33.07A2.31,2.31,0,0,0,46.05,146.09Z"/><path class="cls-5" d="M96.26,74.23a2,2,0,1,0,1.52-2.41A2.28,2.28,0,0,0,96.26,74.23Z"/><path class="cls-5" d="M66.65,99.1a2,2,0,1,0,3.94-.83,2,2,0,0,0-2.34-1.52A2.25,2.25,0,0,0,66.65,99.1Z"/><path class="cls-5" d="M165.44,48.3a1.89,1.89,0,0,0,1.79.32,2.12,2.12,0,0,0,1.34-2.4,2.73,2.73,0,0,0-.19-.4,2.26,2.26,0,0,0-1.54-1,2.06,2.06,0,0,0-1.92.87A1.93,1.93,0,0,0,165.44,48.3Z"/><path class="cls-5" d="M105.59,63.63a2,2,0,0,0-1.83,1.3,4.07,4.07,0,0,0-.13.5,2,2,0,0,0,1,2,2,2,0,0,0,2.73-1,1.46,1.46,0,0,0,.14-1.11A2.07,2.07,0,0,0,105.59,63.63Z"/><path class="cls-5" d="M196,52.78a4,4,0,0,0,.13.67,2.07,2.07,0,0,0,1.94,1.38,1,1,0,0,0,.34,0,2.06,2.06,0,0,0,1.46-2.51,1.89,1.89,0,0,0-1.19-1.36A1.92,1.92,0,0,0,196,52.78Z"/><path class="cls-5" d="M52.55,122.26a1.77,1.77,0,0,0,.5,1.87,2,2,0,0,0,2.77.06,2,2,0,0,0,.43-2.33,2.08,2.08,0,0,0-2.16-1A1.91,1.91,0,0,0,52.55,122.26Z"/><path class="cls-5" d="M126.53,55.88a2.08,2.08,0,0,0,.76,2.42,1.9,1.9,0,0,0,1.64.27,2,2,0,0,0,1.33-2.44,2.1,2.1,0,0,0-1.7-1.5A2,2,0,0,0,126.53,55.88Z"/><path class="cls-5" d="M45.76,139.07a1.93,1.93,0,1,0,3.77-.79,1.93,1.93,0,1,0-3.77.79Z"/><path class="cls-5" d="M156.93,47.54a2.08,2.08,0,0,0,2.29,1.58,2,2,0,0,0,1.58-2.44,2,2,0,0,0-2.25-1.36A1.91,1.91,0,0,0,156.93,47.54Z"/><path class="cls-5" d="M59.39,107.37a2,2,0,1,0,1.52-2.32A2,2,0,0,0,59.39,107.37Z"/><path class="cls-5" d="M88.75,73.52a3.4,3.4,0,0,0-.17.83.93.93,0,0,0,.07.5A1.94,1.94,0,0,0,91,76.12a2,2,0,0,0,1.57-1.8,1.34,1.34,0,0,0-.11-.66,3.48,3.48,0,0,0-.59-.83A1.91,1.91,0,0,0,88.75,73.52Z"/><path class="cls-5" d="M81.25,82.74a2,2,0,1,0,1.61-2.28A2,2,0,0,0,81.25,82.74Z"/><path class="cls-5" d="M118.8,57.59A2,2,0,0,0,121.19,59a2,2,0,1,0-2.39-1.39Z"/><path class="cls-5" d="M52.11,115.46a2,2,0,0,0,2.36,1.42,1.9,1.9,0,1,0-2.36-1.42Z"/><path class="cls-5" d="M180.4,45a1.78,1.78,0,0,0-.19.48,1.63,1.63,0,0,0,.39,1.59,2.18,2.18,0,0,0,2,.7c.3-.2.78-.31,1.06-.69A1.93,1.93,0,0,0,184,45.3a2,2,0,0,0-2-1.39A1.74,1.74,0,0,0,180.4,45Z"/><path class="cls-5" d="M45.37,131.34a1.87,1.87,0,0,0,2.16,1.51,2,2,0,0,0,1.55-2.31,1.9,1.9,0,1,0-3.71.8Z"/><path class="cls-5" d="M149.25,48.13a2.08,2.08,0,0,0,2.26,1.4A1.89,1.89,0,0,0,153,47.2a1.76,1.76,0,0,0-2.13-1.47A1.93,1.93,0,0,0,149.25,48.13Z"/><path class="cls-5" d="M95.94,66.39a1.94,1.94,0,1,0,1.53-2.14A1.86,1.86,0,0,0,95.94,66.39Z"/><path class="cls-5" d="M141.52,48.47a2.08,2.08,0,0,0,2.21,1.45,1.9,1.9,0,0,0,1.52-2.28A1.78,1.78,0,0,0,143,46.17,1.88,1.88,0,0,0,141.52,48.47Z"/><path class="cls-5" d="M111.08,57.89a1.87,1.87,0,0,0,2.16,1.5,1.93,1.93,0,1,0-.82-3.76A1.94,1.94,0,0,0,111.08,57.89Z"/><path class="cls-5" d="M38.87,154.88a2,2,0,0,0,2.1,1.6,2,2,0,0,0,1.64-2.25,1.88,1.88,0,0,0-2.31-1.48A1.73,1.73,0,0,0,38.87,154.88Z"/><path class="cls-5" d="M135.38,46.57a1.88,1.88,0,0,0-1.58,2.24,1.9,1.9,0,0,0,2.3,1.49,2,2,0,0,0,1.43-2.22A2,2,0,0,0,135.38,46.57Z"/><path class="cls-5" d="M43,162a1.85,1.85,0,0,0-2.3-1.5"/><path class="cls-5" d="M197,43.18a2,2,0,0,0-1.27,2.31,1.71,1.71,0,0,0,2.21,1.34,2,2,0,0,0,1.46-2.2A2.07,2.07,0,0,0,197,43.18Z"/><path class="cls-5" d="M188.3,44.35a2,2,0,0,0,.31,2.6,1.62,1.62,0,0,0,1.55.31,1.71,1.71,0,0,0,1.33-1,2,2,0,0,0,.18-.48,1.35,1.35,0,0,0-.15-1.14,3.65,3.65,0,0,0-.41-.54,1.78,1.78,0,0,0-2.46-.09A4,4,0,0,0,188.3,44.35Z"/><path class="cls-5" d="M38.53,147.33a2,2,0,0,0,2.13,1.34,1.85,1.85,0,1,0-.86-3.59A1.72,1.72,0,0,0,38.53,147.33Z"/><path class="cls-5" d="M73.64,83.23a1.92,1.92,0,0,0,2.22,1.39,1.68,1.68,0,0,0,1.42-2.13,2,2,0,0,0-2.11-1.57A2,2,0,0,0,73.64,83.23Z"/><path class="cls-5" d="M59,99.43A1.94,1.94,0,0,0,61.31,101a2,2,0,0,0,1.34-2.27,1.67,1.67,0,0,0-2.17-1.38A1.8,1.8,0,0,0,59,99.43Z"/><path class="cls-5" d="M82.44,72.83a1.82,1.82,0,0,0-1.34,2.24,1.74,1.74,0,0,0,2.19,1.4,1.83,1.83,0,0,0,1.43-2A1.94,1.94,0,0,0,82.44,72.83Z"/><path class="cls-5" d="M127.32,47.09a2,2,0,0,0-1.18,2.22,1.81,1.81,0,0,0,2.23,1.37,2,2,0,0,0,1.44-2.07A2,2,0,0,0,127.32,47.09Z"/><path class="cls-5" d="M150.22,38.15a2,2,0,0,0-1.34,2.12,2,2,0,0,0,2.25,1.42,1.91,1.91,0,0,0,1.35-2.26A1.79,1.79,0,0,0,150.22,38.15Z"/><path class="cls-5" d="M52.31,108.63a2,2,0,0,0,2.07.37,1.93,1.93,0,0,0,.57-3,1,1,0,0,0-.26-.23,2,2,0,0,0-1.69-.26,1.51,1.51,0,0,0-.91.66A2.21,2.21,0,0,0,52.31,108.63Z"/><path class="cls-5" d="M119.67,47.57a1.84,1.84,0,0,0-1.21,2.17,1.8,1.8,0,0,0,2.24,1.31,1.82,1.82,0,1,0-1-3.48Z"/><path class="cls-5" d="M142.6,38.54a2,2,0,0,0-1.42,2.23,1.94,1.94,0,0,0,2.14,1.33,1.85,1.85,0,0,0,1.41-2.23A1.89,1.89,0,0,0,142.6,38.54Z"/><path class="cls-5" d="M89.89,64.68a1.85,1.85,0,0,0-1.49,1.26,1.92,1.92,0,0,0,.68,2,3.86,3.86,0,0,0,.76.38,1.21,1.21,0,0,0,1-.07,2,2,0,0,0,.9-.78,1.58,1.58,0,0,0,.19-.64,5.41,5.41,0,0,0-.05-.75,3.89,3.89,0,0,0-.45-.85A1.52,1.52,0,0,0,89.89,64.68Z"/><path class="cls-5" d="M158.54,37.66a1.76,1.76,0,0,0-1.82,1.28,1.67,1.67,0,0,0,.62,2,1.17,1.17,0,0,0,.8.28,3.22,3.22,0,0,0,.55-.05,1.8,1.8,0,0,0,1.16-.58,1.65,1.65,0,0,0,.28-1.77A1.74,1.74,0,0,0,158.54,37.66Z"/><path class="cls-5" d="M136.72,41.7a2.42,2.42,0,0,0,.25-1,1.62,1.62,0,0,0-1.05-1.61l-.5-.13a1.44,1.44,0,0,0-1.51.58,1.78,1.78,0,1,0,2.81,2.15Z"/><path class="cls-5" d="M165.81,37.28a1.68,1.68,0,0,0-1.38,1.33c0,.11,0,.23-.06.34a1,1,0,0,0,.17.81,3.79,3.79,0,0,0,.55.65,1.8,1.8,0,0,0,2.55-2.49A1.62,1.62,0,0,0,165.81,37.28Z"/><path class="cls-5" d="M38.39,140.14a1.6,1.6,0,0,0,1.81.67,1.65,1.65,0,0,0,.91-.44,1.74,1.74,0,0,0-.14-2.7,2,2,0,0,0-2.6.36A1.88,1.88,0,0,0,38.39,140.14Z"/><path class="cls-5" d="M67.28,92.58a2,2,0,0,0,2.44-.53A1.57,1.57,0,0,0,70,90.67a1.84,1.84,0,0,0-.58-1.1A1.67,1.67,0,0,0,68,89.21a1.75,1.75,0,0,0-1.28.75A1.72,1.72,0,0,0,67.28,92.58Z"/><path class="cls-5" d="M104,59.34a1.86,1.86,0,0,0,1.8.19,1.68,1.68,0,0,0,.57-.33,1.73,1.73,0,0,0,0-2.68,2,2,0,0,0-2.5.09A1.91,1.91,0,0,0,104,59.34Z"/><path class="cls-5" d="M31.26,155.3a1.79,1.79,0,1,0,1.22-2A1.9,1.9,0,0,0,31.26,155.3Z"/><path class="cls-5" d="M45,123.59A1.72,1.72,0,0,0,47.14,125a1.8,1.8,0,0,0,1-.58,1.9,1.9,0,0,0-.76-2.86,1.63,1.63,0,0,0-1.16-.11A1.87,1.87,0,0,0,45,123.59Z"/><path class="cls-5" d="M173.58,36.86a1.65,1.65,0,0,0-1.4,2,1.76,1.76,0,1,0,3.45-.71A1.65,1.65,0,0,0,173.58,36.86Z"/><path class="cls-5" d="M37.73,131.73a1.74,1.74,0,0,0,3.42-.6,1.67,1.67,0,0,0-1.94-1.47A1.69,1.69,0,0,0,37.73,131.73Z"/><path class="cls-5" d="M97.11,56.59a1.66,1.66,0,0,0-1.41,2,1.75,1.75,0,1,0,3.44-.65A1.64,1.64,0,0,0,97.11,56.59Z"/><path class="cls-5" d="M181.3,36.48a1.63,1.63,0,0,0-1.37,2,1.67,1.67,0,0,0,2.16,1.38,1.69,1.69,0,0,0,1.27-2.09A1.67,1.67,0,0,0,181.3,36.48Z"/><path class="cls-5" d="M59.93,89.76a1.66,1.66,0,0,0-1.11,2A1.62,1.62,0,0,0,61,93.05,1.61,1.61,0,0,0,62.19,91,1.72,1.72,0,0,0,59.93,89.76Z"/><path class="cls-5" d="M44.64,116a1.7,1.7,0,0,0,2.11,1.25,1.8,1.8,0,0,0,1.22-2.3,1.86,1.86,0,0,0-2-1.21A1.84,1.84,0,0,0,44.64,116Z"/><path class="cls-5" d="M67.52,81.56a1.63,1.63,0,0,0-1.38,2.12A1.66,1.66,0,0,0,68,85a1.73,1.73,0,0,0,1.49-2.08A1.61,1.61,0,0,0,67.52,81.56Z"/><path class="cls-5" d="M195.37,37.66a2,2,0,0,0,2.07,1.39,1.7,1.7,0,0,0,1.3-2.07,1.74,1.74,0,0,0-2-1.4A1.82,1.82,0,0,0,195.37,37.66Z"/><path class="cls-5" d="M75.84,73.5a1.56,1.56,0,0,0-1.17-.16,1.77,1.77,0,0,0-.82,2.92,1.65,1.65,0,0,0,2.32.22,1.7,1.7,0,0,0,.62-1.84A1.52,1.52,0,0,0,75.84,73.5Z"/><path class="cls-5" d="M189,36.09a1.63,1.63,0,0,0-1.35,2,1.77,1.77,0,0,0,2.07,1.35,1.7,1.7,0,0,0,1.32-2.06A1.61,1.61,0,0,0,189,36.09Z"/><path class="cls-5" d="M112,48.11a1.72,1.72,0,0,0-1.21,2.13,1.77,1.77,0,0,0,2.17,1.2,1.73,1.73,0,0,0-1-3.33Z"/><path class="cls-5" d="M52.74,97.85a1.71,1.71,0,0,0-1.23,2.1,1.63,1.63,0,0,0,2.07,1.22,1.66,1.66,0,0,0,1.29-2A2,2,0,0,0,52.74,97.85Z"/><path class="cls-5" d="M105.11,51.85A1.6,1.6,0,0,0,106.44,50a1.63,1.63,0,0,0-1.92-1.48,1.75,1.75,0,0,0-1.45,2A1.72,1.72,0,0,0,105.11,51.85Z"/><path class="cls-5" d="M80.72,67.16a1.89,1.89,0,0,0,1.76,1.56.78.78,0,0,0,.34,0,2.31,2.31,0,0,0,1.05-.83,1.51,1.51,0,0,0,.23-1.26,1.89,1.89,0,0,0-2.26-1.34.93.93,0,0,0-.43.27,5.86,5.86,0,0,0-.59.82A1.38,1.38,0,0,0,80.72,67.16Z"/><path class="cls-5" d="M31.38,148.46a1.74,1.74,0,0,0,2.55-.2,1.48,1.48,0,0,0,.26-1.39,1.59,1.59,0,0,0-.49-.94,1.67,1.67,0,0,0-2.52.37A1.55,1.55,0,0,0,31.38,148.46Z"/><path class="cls-5" d="M38.67,122a1.62,1.62,0,0,0-1.36,1.84,1.7,1.7,0,1,0,3.37-.48A1.68,1.68,0,0,0,38.67,122Z"/><path class="cls-5" d="M30.46,139.8a1.68,1.68,0,0,0,2,1.35,1.62,1.62,0,0,0,1.3-1.9,1.72,1.72,0,0,0-2-1.4A1.88,1.88,0,0,0,30.46,139.8Z"/><path class="cls-5" d="M90.14,60.35a1.57,1.57,0,0,0,1.23-1.94,1.91,1.91,0,0,0-2.1-1.34,2,2,0,0,0-1.21,2A1.6,1.6,0,0,0,90.14,60.35Z"/><path class="cls-5" d="M173.83,32.49a1.91,1.91,0,0,0,1.33-2,1.71,1.71,0,0,0-2.11-1.26,1.52,1.52,0,0,0-1.16,2A1.69,1.69,0,0,0,173.83,32.49Z"/><path class="cls-5" d="M120.35,43.22a1.91,1.91,0,0,0,1-2.11,1.57,1.57,0,0,0-2-1.09,1.65,1.65,0,0,0-1.24,2.07A1.88,1.88,0,0,0,120.35,43.22Z"/><path class="cls-5" d="M158.14,33.38a1.57,1.57,0,0,0,1.33-.94,1.51,1.51,0,0,0-.55-2.1,1.4,1.4,0,0,0-1.27-.28,1.61,1.61,0,0,0-1.22,1.11,2,2,0,0,0,.11,1.18A1.55,1.55,0,0,0,158.14,33.38Z"/><path class="cls-5" d="M68.39,76.78c.08-.08.17-.15.25-.24a1.5,1.5,0,0,0-.17-2.27A1.66,1.66,0,0,0,67,73.92a1.55,1.55,0,0,0-1.25,2,2.11,2.11,0,0,0,.15.41A1.55,1.55,0,0,0,68.39,76.78Z"/><path class="cls-5" d="M46.83,106.38a1.69,1.69,0,0,0-1.26-.35,1.94,1.94,0,0,0-1.38,1.59.91.91,0,0,0,0,.17,1.64,1.64,0,0,0,1.33,1.57,1.52,1.52,0,0,0,1.65-.57,1.91,1.91,0,0,0,.36-1.29,1,1,0,0,0-.15-.48A3.38,3.38,0,0,0,46.83,106.38Z"/><path class="cls-5" d="M60.46,85.3a1.67,1.67,0,0,0-.7-3.26,1.67,1.67,0,1,0,.7,3.26Z"/><path class="cls-5" d="M127.75,42.87a1.78,1.78,0,0,0,1.38-2,1.74,1.74,0,0,0-2.07-1.35,1.88,1.88,0,0,0-1.25,2A1.94,1.94,0,0,0,127.75,42.87Z"/><path class="cls-5" d="M165.14,32.81a1.56,1.56,0,0,0,2.2-1.24,1.23,1.23,0,0,0,.06-.5,1.55,1.55,0,0,0-.2-.64,1.8,1.8,0,0,0-1.1-.76,1.5,1.5,0,0,0-1.57.44,1.52,1.52,0,0,0-.35,1.58A1.4,1.4,0,0,0,165.14,32.81Z"/><path class="cls-5" d="M53.14,93.43a1.7,1.7,0,0,0,1.26-1.28,1.43,1.43,0,0,0-.58-1.51,1.47,1.47,0,0,0-2.35.3,1.1,1.1,0,0,0-.09.14,1.55,1.55,0,0,0,.08,1.78A1.5,1.5,0,0,0,53.14,93.43Z"/><path class="cls-5" d="M37,116.27a1.87,1.87,0,0,0,1.63,1.33.91.91,0,0,0,.33,0,1.69,1.69,0,0,0,.94-.71,1.5,1.5,0,0,0-.23-2.16,1.76,1.76,0,0,0-2.08-.08A1.5,1.5,0,0,0,37,116.27Z"/><path class="cls-5" d="M181.43,32.11a1.86,1.86,0,0,0,1.42-2.05,1.71,1.71,0,0,0-2.17-1.16,1.65,1.65,0,0,0-1,2.08A1.94,1.94,0,0,0,181.43,32.11Z"/><path class="cls-5" d="M30.09,132.12A1.68,1.68,0,0,0,32,133.4a1.66,1.66,0,1,0-.68-3.24A1.69,1.69,0,0,0,30.09,132.12Z"/><path class="cls-5" d="M75.16,69a1.86,1.86,0,0,0,1.17-1.9,1.63,1.63,0,0,0-1.91-1.28,1.56,1.56,0,0,0-1.35,1.85A1.77,1.77,0,0,0,75.16,69Z"/><path class="cls-5" d="M151.54,33.18a1.53,1.53,0,0,0,.25-1.45,1.61,1.61,0,1,0-2.26,1.86A1.62,1.62,0,0,0,151.54,33.18Z"/><path class="cls-5" d="M97.5,52.17a1.16,1.16,0,0,0,.39-.21,1.61,1.61,0,0,0-.64-3,1.18,1.18,0,0,0-.67,0,1.69,1.69,0,0,0-1.16,2A1.71,1.71,0,0,0,97.5,52.17Z"/><path class="cls-5" d="M112.4,43.63a1.75,1.75,0,0,0,1.26-2,1.59,1.59,0,0,0-2-1.23,1.69,1.69,0,0,0-1.25,2.11A1.81,1.81,0,0,0,112.4,43.63Z"/><path class="cls-5" d="M143,34.12a1.55,1.55,0,0,0,1.12-2,1.6,1.6,0,0,0-1.94-1.21,1.64,1.64,0,0,0,.82,3.18Z"/><path class="cls-5" d="M23.65,155.77a1.59,1.59,0,0,0,2,1.17,1.55,1.55,0,1,0-2-1.17Z"/><path class="cls-5" d="M45.79,101.54a1.51,1.51,0,0,0,1-.58,1.58,1.58,0,0,0-.14-2,1.34,1.34,0,0,0-1.39-.45,1.7,1.7,0,0,0-1,.54,1.56,1.56,0,0,0,1.56,2.53Z"/><path class="cls-5" d="M82.42,60.71a1.41,1.41,0,0,0,1.17-1.29,1.25,1.25,0,0,0-.28-1.12c-.08-.09-.14-.18-.22-.26A1.21,1.21,0,0,0,82,57.65a4.07,4.07,0,0,0-.67.16,1.55,1.55,0,0,0,1.09,2.9Z"/><path class="cls-5" d="M189.38,31.44s.06,0,.17,0a1.46,1.46,0,0,0,.79-2.21,4.12,4.12,0,0,0-.33-.4,1.3,1.3,0,0,0-1.25-.37l-.5.13a1.59,1.59,0,0,0-.89,1.83A1.55,1.55,0,0,0,189.38,31.44Z"/><path class="cls-5" d="M89.81,52.6a2,2,0,0,0,.38-.2,2.14,2.14,0,0,0,.73-1.67.71.71,0,0,0-.1-.32,3.19,3.19,0,0,0-.3-.42,1.5,1.5,0,0,0-2.37-.05,2.33,2.33,0,0,0-.44.72,1.24,1.24,0,0,0,0,.66A1.73,1.73,0,0,0,89.81,52.6Z"/><path class="cls-5" d="M104.45,44.08a2,2,0,0,0,.34,0l.14-.08a2.94,2.94,0,0,0,.42-.3,1.5,1.5,0,0,0,0-2.36,3.07,3.07,0,0,0-.56-.38,1.24,1.24,0,0,0-1.54.32,4.24,4.24,0,0,0-.53.86,1.26,1.26,0,0,0,.44,1.51A2.31,2.31,0,0,0,104.45,44.08Z"/><path class="cls-5" d="M29.93,123.28a2.73,2.73,0,0,0-.23.45,1.22,1.22,0,0,0,.24,1.28,2.21,2.21,0,0,0,1.15.7,1,1,0,0,0,.65,0,3.19,3.19,0,0,0,.79-.62,1.9,1.9,0,0,0,.38-1.38,4,4,0,0,0-.44-.62A1.51,1.51,0,0,0,29.93,123.28Z"/><path class="cls-5" d="M134.5,34.54a1.47,1.47,0,0,0,1.54-.49,1.5,1.5,0,0,0,.13-1.9,1.44,1.44,0,0,0-1.64-.63,1.31,1.31,0,0,0-1.15,1.86s0,.11,0,.16A1.4,1.4,0,0,0,134.5,34.54Z"/><path class="cls-5" d="M25.76,146.38a1.08,1.08,0,0,0-.79-.26,4.35,4.35,0,0,0-.46.06l-.38.11a1.17,1.17,0,0,0-.81.82A1.3,1.3,0,0,0,24,149a1.8,1.8,0,0,0,.46.23,1.91,1.91,0,0,0,.67,0,1.61,1.61,0,0,0,1.25-1.06,1.37,1.37,0,0,0-.36-1.57C25.92,146.54,25.85,146.45,25.76,146.38Z"/><path class="cls-5" d="M58.89,77.3a4.45,4.45,0,0,0,.81.24,1,1,0,0,0,.8-.21,1.34,1.34,0,0,0,.66-1.54c-.2-1-.48-1.21-1.34-1.42a1.35,1.35,0,0,0-1.37.49A1.52,1.52,0,0,0,58.89,77.3Z"/><path class="cls-5" d="M22.93,139.39a4.77,4.77,0,0,0-.15.84.55.55,0,0,0,.09.33,2,2,0,0,0,1.7,1,1.06,1.06,0,0,0,.89-.45,3,3,0,0,0,.41-.75,1.33,1.33,0,0,0-.36-1.56,1.27,1.27,0,0,0-1.09-.38h-.05l-.62.15A1.14,1.14,0,0,0,22.93,139.39Z"/><path class="cls-5" d="M38.63,109.63a4.59,4.59,0,0,0,.48-.17,1,1,0,0,0,.59-1,4.34,4.34,0,0,0,0-.44,1.82,1.82,0,0,0-.56-1.11,1.53,1.53,0,0,0-2.41.62,1.31,1.31,0,0,0,.14,1.45A1.41,1.41,0,0,0,38.63,109.63Z"/><path class="cls-5" d="M51.27,85.29a1.43,1.43,0,0,0,2,.09,2.45,2.45,0,0,0,.36-.36,1,1,0,0,0,.26-.79c0-.17-.05-.34-.08-.51a4.59,4.59,0,0,0-.17-.48,1.07,1.07,0,0,0-1.1-.64,4.55,4.55,0,0,0-.83.19,1.43,1.43,0,0,0-.76,2.1A2.06,2.06,0,0,0,51.27,85.29Z"/><path class="cls-5" d="M196.15,31a1.55,1.55,0,0,0,1.16,0,1.47,1.47,0,0,0,.81-2.19,3.33,3.33,0,0,0-.56-.63.88.88,0,0,0-.44-.22,1.56,1.56,0,0,0-1.89,1.9A1.48,1.48,0,0,0,196.15,31Z"/><path class="cls-5" d="M74.58,61.16a1.55,1.55,0,0,0,1.13-1.84,1.49,1.49,0,0,0-1.78-1.2,1.55,1.55,0,1,0,.65,3Z"/><path class="cls-5" d="M67.26,69.27a1.55,1.55,0,0,0,1.13-2,1.62,1.62,0,0,0-1.68-1.12,1.74,1.74,0,0,0-1.32,2A1.53,1.53,0,0,0,67.26,69.27Z"/><path class="cls-5" d="M45.29,93.82a1.59,1.59,0,0,0,1.23-1.77,1.48,1.48,0,0,0-1.88-1.24,1.51,1.51,0,0,0-1.18,1.79A1.67,1.67,0,0,0,45.29,93.82Z"/><path class="cls-5" d="M165.59,25a1.5,1.5,0,0,0,1.17-1.93A1.56,1.56,0,0,0,164.9,22a1.65,1.65,0,0,0-1.09,2A1.55,1.55,0,0,0,165.59,25Z"/><path class="cls-5" d="M127.36,35a1.64,1.64,0,0,0,1.31-1.89,1.62,1.62,0,0,0-1.77-1.22,1.53,1.53,0,0,0-1.27,1.87A1.5,1.5,0,0,0,127.36,35Z"/><path class="cls-5" d="M96.84,44.28c.22-.06.43-.13.64-.21a1,1,0,0,0,.6-1c0-.17,0-.34,0-.42-.2-1-.47-1.22-1.35-1.4a.9.9,0,0,0-.79.18,4.89,4.89,0,0,0-.62.58,1.19,1.19,0,0,0,.06,1.69A1.33,1.33,0,0,0,96.84,44.28Z"/><path class="cls-5" d="M180,24a.82.82,0,0,0,.47.19,1.53,1.53,0,0,0,1.74-1.93A1.44,1.44,0,0,0,181,21.15a1.11,1.11,0,0,0-1.11.28,2.2,2.2,0,0,0-.69,1.17,1.06,1.06,0,0,0,.08.66A3.5,3.5,0,0,0,180,24Z"/><path class="cls-5" d="M38.28,101.88a1.56,1.56,0,0,0-.76-3,1.55,1.55,0,1,0,.76,3Z"/><path class="cls-5" d="M31.7,117.53a1.52,1.52,0,0,0,.54-1.71,1.19,1.19,0,0,0-.83-.92,1.3,1.3,0,0,0-1.86.65c-.08.15-.16.3-.23.46a1.27,1.27,0,0,0,.35,1.39A1.57,1.57,0,0,0,31.7,117.53Z"/><path class="cls-5" d="M119.57,35.38a1.72,1.72,0,0,0,1.4-1.86,1.68,1.68,0,0,0-2-1.19A1.5,1.5,0,0,0,117.91,34,1.54,1.54,0,0,0,119.57,35.38Z"/><path class="cls-5" d="M81.46,53a.85.85,0,0,0,.5,0,1.94,1.94,0,0,0,.92-.75,1,1,0,0,0,.18-.48,1.53,1.53,0,0,0-2-1.69A1.49,1.49,0,0,0,80,51.23a1.12,1.12,0,0,0,.21,1A2.31,2.31,0,0,0,81.46,53Z"/><path class="cls-5" d="M24.17,133.75a1,1,0,0,0,.47-.15,2.75,2.75,0,0,0,.53-.44,1.74,1.74,0,0,0-.38-2.28,1.34,1.34,0,0,0-.48-.15,3,3,0,0,0-.45,0l-.39.1a1.17,1.17,0,0,0-.94.89,2.24,2.24,0,0,0-.11.5,1.13,1.13,0,0,0,.09.49A1.77,1.77,0,0,0,24.17,133.75Z"/><path class="cls-5" d="M141.13,26a2.05,2.05,0,0,0,1.12.37.57.57,0,0,0,.32-.1,2.39,2.39,0,0,0,.88-.79,1.38,1.38,0,0,0-1-2.16,1.53,1.53,0,0,0-1.7,2A1.3,1.3,0,0,0,141.13,26Z"/><path class="cls-5" d="M172.3,24.45a.8.8,0,0,0,.47.18,1.52,1.52,0,0,0,1.7-1.95,1.2,1.2,0,0,0-.86-1,1.3,1.3,0,0,0-1.85.7,2.86,2.86,0,0,0-.22.47.85.85,0,0,0,.07.82A4.91,4.91,0,0,0,172.3,24.45Z"/><path class="cls-5" d="M156.94,25.32a1.64,1.64,0,0,0,2.15-1.11,1.18,1.18,0,0,0-.28-1.12,2.15,2.15,0,0,0-1.16-.7,1.16,1.16,0,0,0-.66.08,1.44,1.44,0,0,0-.54.41A1.51,1.51,0,0,0,156.94,25.32Z"/><path class="cls-5" d="M133.41,26.43a2,2,0,0,0,1.12.36.56.56,0,0,0,.33-.08,3.91,3.91,0,0,0,.41-.3,1.46,1.46,0,0,0-.08-2.45,1.2,1.2,0,0,0-.47-.19A1.52,1.52,0,0,0,133,25.71,1.24,1.24,0,0,0,133.41,26.43Z"/><path class="cls-5" d="M30.62,110.06a1.5,1.5,0,0,0,1.26-1.74,1.6,1.6,0,0,0-1.65-1.23A1.81,1.81,0,0,0,29,108.92,1.53,1.53,0,0,0,30.62,110.06Z"/><path class="cls-5" d="M58.08,69.14a1.25,1.25,0,0,0,1.43.5,1.49,1.49,0,0,0,1.17-1.18,1.07,1.07,0,0,0-.2-1,2.16,2.16,0,0,0-1.26-.8.47.47,0,0,0-.33,0,2,2,0,0,0-1.18,1.35,1.26,1.26,0,0,0,.08.66A1.81,1.81,0,0,0,58.08,69.14Z"/><path class="cls-5" d="M44,85.82a3.69,3.69,0,0,0,.81.2.55.55,0,0,0,.61-.21,4.17,4.17,0,0,0,.62-1,1.08,1.08,0,0,0-.28-1.24,1.43,1.43,0,0,0-1.53-.42,1.27,1.27,0,0,0-1,1A1.19,1.19,0,0,0,44,85.82Z"/><path class="cls-5" d="M66.56,61.53A1.56,1.56,0,0,0,68,59.86a1.67,1.67,0,0,0-1.58-1.32A1.61,1.61,0,0,0,65,60.21,1.64,1.64,0,0,0,66.56,61.53Z"/><path class="cls-5" d="M149.33,25.74a2.71,2.71,0,0,0,.68.07,1.6,1.6,0,0,0,1.41-1.44,1.41,1.41,0,0,0-.91-1.31,1.53,1.53,0,0,0-1,0,1.51,1.51,0,0,0-1.17,1.3A1.37,1.37,0,0,0,149.33,25.74Z"/><path class="cls-5" d="M111.58,35.78a1.4,1.4,0,0,0,1.4-1,2.43,2.43,0,0,0,0-.66c0-.22-.06-.28-.08-.34a1.5,1.5,0,0,0-1.38-1,1.39,1.39,0,0,0-1.33,1.1,2.12,2.12,0,0,0,0,.83A1.47,1.47,0,0,0,111.58,35.78Z"/><path class="cls-5" d="M187.34,23.05a1.39,1.39,0,0,0,2.31.18,1.6,1.6,0,0,0-.71-2.42,1.31,1.31,0,0,0-1.41.33,1.53,1.53,0,0,0-.32,1.59A1.28,1.28,0,0,0,187.34,23.05Z"/><path class="cls-5" d="M16.1,155.71a1.92,1.92,0,0,0,.18.82,1.37,1.37,0,0,0,1.2.83,1.26,1.26,0,0,0,1.17-.58,1.41,1.41,0,0,0,.2-1.34,1.34,1.34,0,0,0-1.12-1.08,1,1,0,0,0-.65.07,2.7,2.7,0,0,0-.77.66A1,1,0,0,0,16.1,155.71Z"/><path class="cls-5" d="M52.34,77.7a.83.83,0,0,0,.28-.1,1.41,1.41,0,0,0,.53-2,1.47,1.47,0,0,0-1.5-.58,1.28,1.28,0,0,0-1.14,1.09,4,4,0,0,0-.09.5.86.86,0,0,0,.32.75A1.49,1.49,0,0,0,52.34,77.7Z"/><path class="cls-5" d="M195.61,23.11a1.31,1.31,0,0,0,1,.14c.82-.38,1.23-.91,1-1.76a1.4,1.4,0,0,0-1-1.08,1.27,1.27,0,0,0-1.4.37,1.51,1.51,0,0,0-.28,1.6A1.09,1.09,0,0,0,195.61,23.11Z"/><path class="cls-5" d="M119.19,27.55a1.48,1.48,0,0,0-.62-2.89,1.54,1.54,0,0,0-1,1.73A1.48,1.48,0,0,0,119.19,27.55Z"/><path class="cls-5" d="M89.17,44.64a2.11,2.11,0,0,0,.41-.15,1.39,1.39,0,0,0,.17-2.31,1.5,1.5,0,0,0-2.38,1.46A1.48,1.48,0,0,0,89.17,44.64Z"/><path class="cls-5" d="M126.31,27.1a1.32,1.32,0,0,0,1.38-.43,1.16,1.16,0,0,0,.31-1.22,1.66,1.66,0,0,0-.1-.35,1.41,1.41,0,0,0-2-.68,1.43,1.43,0,0,0-.64,1.48A1.37,1.37,0,0,0,126.31,27.1Z"/><path class="cls-5" d="M17.05,149.63c.51.09,1.4-.67,1.46-1.23a1.82,1.82,0,0,0-.26-1.14A1,1,0,0,0,18,147a1.93,1.93,0,0,0-1.3-.32.81.81,0,0,0-.45.21,1.47,1.47,0,0,0-.47,1.6l0,.09A1.46,1.46,0,0,0,17.05,149.63Z"/><path class="cls-5" d="M23.81,125.84A1.43,1.43,0,0,0,25,124.7a1.14,1.14,0,0,0-.19-1,1.44,1.44,0,0,0-1.49-.61,1.27,1.27,0,0,0-1.16,1.08,1.29,1.29,0,0,0,0,.67C22.46,125.69,23,126.07,23.81,125.84Z"/><path class="cls-5" d="M72.8,52.9c1.33.75,1.75.54,2.32-.57a.94.94,0,0,0,.11-.32,1.15,1.15,0,0,0,0-.49,1.62,1.62,0,0,0-1.8-1,1.37,1.37,0,0,0-.39.24,2.54,2.54,0,0,0-.68,1.16.8.8,0,0,0,.21.78A.92.92,0,0,0,72.8,52.9Z"/><path class="cls-5" d="M16.36,141.75l.33.07a.9.9,0,0,0,.78-.24,1.55,1.55,0,0,0,.52-1.69,1.22,1.22,0,0,0-.37-.55,1.79,1.79,0,0,0-1.29-.35.87.87,0,0,0-.45.2,1.43,1.43,0,0,0-.49,1.6A1.14,1.14,0,0,0,16.36,141.75Z"/><path class="cls-5" d="M37.57,93.94a1.45,1.45,0,0,0,1.18-1.31c.06-.5-.51-1.14-1.17-1.31a1.86,1.86,0,0,0-.34-.07.81.81,0,0,0-.76.31,9.55,9.55,0,0,0-.62,1,.42.42,0,0,0,0,.33C36.19,93.71,36.72,94.17,37.57,93.94Z"/><path class="cls-5" d="M166.24,16.18a1.07,1.07,0,0,0,0-.66,1.39,1.39,0,0,0-1.74-.95,1.17,1.17,0,0,0-1,1,1.14,1.14,0,0,0,.5,1.32A1.37,1.37,0,0,0,166.24,16.18Z"/><path class="cls-5" d="M103.59,36.1a1.3,1.3,0,0,0,1.47-.55,1.29,1.29,0,0,0,0-1.58,1.51,1.51,0,0,0-2.25-.17,1,1,0,0,0-.3.58,1.09,1.09,0,0,0,0,.45A1.48,1.48,0,0,0,103.59,36.1Z"/><path class="cls-5" d="M96.6,36.48a1.43,1.43,0,0,0,1-1.6.87.87,0,0,0-.11-.32,1.5,1.5,0,0,0-2.34-.35,1.16,1.16,0,0,0-.28.59,2.09,2.09,0,0,0,0,.5c.06.17.1.34.17.49A1.46,1.46,0,0,0,96.6,36.48Z"/><path class="cls-5" d="M81.38,45a1.44,1.44,0,0,0,1.09-1.67,1.44,1.44,0,0,0-2.8.65A1.44,1.44,0,0,0,81.38,45Z"/><path class="cls-5" d="M23.82,118a1.66,1.66,0,0,0,.61-1.82,1,1,0,0,0-.2-.28,1.48,1.48,0,0,0-2-.18.85.85,0,0,0-.4.73,3,3,0,0,0,0,.46c.05.16.08.27.12.38A1.4,1.4,0,0,0,23.82,118Z"/><path class="cls-5" d="M51.64,70a1.3,1.3,0,0,0,1-.78.68.68,0,0,0,.06-.32c0-.17,0-.34-.07-.56a3,3,0,0,0-.24-.58.91.91,0,0,0-.37-.33,1.41,1.41,0,0,0-1.77.55,3.86,3.86,0,0,0-.21.81.62.62,0,0,0,0,.33A1.54,1.54,0,0,0,51.64,70Z"/><path class="cls-5" d="M15.94,134c.17,0,.34,0,.19,0,1-.14,1.31-.56,1.46-1.15a1,1,0,0,0-.06-.65,1.57,1.57,0,0,0-1.52-.89.76.76,0,0,0-.33.08,1.5,1.5,0,0,0-.21,2.44A1.16,1.16,0,0,0,15.94,134Z"/><path class="cls-5" d="M44.48,78.11a2.5,2.5,0,0,0,.48-.18.91.91,0,0,0,.47-.69,2.1,2.1,0,0,0,0-.51,1.43,1.43,0,0,0-1.23-1.26A1.22,1.22,0,0,0,43,76.1a1.17,1.17,0,0,0,.09,1.56A1.2,1.2,0,0,0,44.48,78.11Z"/><path class="cls-5" d="M134.67,18.63a1.47,1.47,0,0,0,.55-1.53,1.34,1.34,0,0,0-.78-.82.9.9,0,0,0-1,0,3.78,3.78,0,0,0-.64.56,1,1,0,0,0-.21.95,1.27,1.27,0,0,0,.6.79A1.3,1.3,0,0,0,134.67,18.63Z"/><path class="cls-5" d="M30.06,102.29a1,1,0,0,0,1-.6,2.91,2.91,0,0,0,.37-.75.91.91,0,0,0-.07-.65A1.49,1.49,0,0,0,29,100a1.34,1.34,0,0,0-.25.61,2.08,2.08,0,0,0,0,.45c.05.16.08.27.12.37A1.39,1.39,0,0,0,30.06,102.29Z"/><path class="cls-5" d="M141.8,18.45a1.35,1.35,0,1,0-.51-2.65,1.45,1.45,0,0,0-.89,1.63A1.48,1.48,0,0,0,141.8,18.45Z"/><path class="cls-5" d="M156.63,17.38a1.06,1.06,0,0,0,1.67-.55,1.43,1.43,0,0,0,0-1c0-.1-.06-.2-.1-.31a1,1,0,0,0-1-.6,3.78,3.78,0,0,0-.67.13.9.9,0,0,0-.62.55,3,3,0,0,0-.2.82.63.63,0,0,0,.16.47A3,3,0,0,0,156.63,17.38Z"/><path class="cls-5" d="M196.11,15.31a1.45,1.45,0,0,0,1-1.22.73.73,0,0,0,0-.33,1.51,1.51,0,0,0-1.28-1c-.11,0-.22,0-.41,0s-.41.29-.61.48a1.17,1.17,0,0,0-.17,1.42A1.48,1.48,0,0,0,196.11,15.31Z"/><path class="cls-5" d="M149.73,18a1.34,1.34,0,1,0-.75-2.58A1.44,1.44,0,0,0,148.1,17,1.59,1.59,0,0,0,149.73,18Z"/><path class="cls-5" d="M173,16.78a1.45,1.45,0,0,0,.85-1.36c0-.12,0-.23-.07-.39s-.1-.27-.17-.43a1,1,0,0,0-1.19-.45c-.62.12-1.07.49-1.05.94a2.77,2.77,0,0,0,.2,1A1.35,1.35,0,0,0,173,16.78Z"/><path class="cls-5" d="M36.63,86.25a1.43,1.43,0,0,0,1.12-.32,1.28,1.28,0,0,0,.34-.56,1.6,1.6,0,0,0,0-.5,1.48,1.48,0,0,0-1.18-1.28.73.73,0,0,0-.64.12A1.48,1.48,0,0,0,36,86,1,1,0,0,0,36.63,86.25Z"/><path class="cls-5" d="M58.56,61.83a.89.89,0,0,0,.95-.19,1.49,1.49,0,0,0,.35-1.74c0,.08,0,0,0-.14a1,1,0,0,0-1-.57,3.31,3.31,0,0,0-.82.22.86.86,0,0,0-.49.66A1.54,1.54,0,0,0,58.56,61.83Z"/><path class="cls-5" d="M187.75,15.8a2.59,2.59,0,0,0,.44,0,1.39,1.39,0,0,0,1.22-1.12.9.9,0,0,0-.08-.65,1.35,1.35,0,0,0-1.29-.67c-1.15.12-1.57.86-1.08,1.92A.91.91,0,0,0,187.75,15.8Z"/><path class="cls-5" d="M179.32,15.79a1,1,0,0,0,.72.41,2.59,2.59,0,0,0,.44,0,1.43,1.43,0,0,0,1.23-1.12.77.77,0,0,0-.18-.79,2,2,0,0,0-.39-.32,1.53,1.53,0,0,0-1.75.13,1.18,1.18,0,0,0-.22,1.41A.89.89,0,0,0,179.32,15.79Z"/><path class="cls-5" d="M110.73,27.77a1.49,1.49,0,0,0,1.7-.86,1,1,0,0,0-.26-1.22,1.45,1.45,0,0,0-1.47-.28,1.49,1.49,0,0,0-.43.19.87.87,0,0,0-.42.71,1.5,1.5,0,0,0,.32,1.12A1,1,0,0,0,110.73,27.77Z"/><path class="cls-5" d="M9.64,157.48l.45-.07a5.57,5.57,0,0,0,.54-.21.54.54,0,0,0,.25-.22c.33-.68.4-1.3-.4-1.77a1.2,1.2,0,0,0-1.3,0,1.35,1.35,0,0,0-.69,1.3A1,1,0,0,0,9.64,157.48Z"/><path class="cls-5" d="M29.29,94.35A1.65,1.65,0,0,0,30.41,94a.94.94,0,0,0,.31-.4,1.47,1.47,0,0,0-.41-1.54A1.19,1.19,0,0,0,29.25,92c-.07,0-.24.07-.39.14a1,1,0,0,0-.48,1.16C28.49,93.9,28.85,94.33,29.29,94.35Z"/><path class="cls-5" d="M16.41,126.09a1,1,0,0,0,.61-.94,3.31,3.31,0,0,0,0-.33c0-.06,0-.12,0-.18a1.3,1.3,0,0,0-1.05-1c-.47-.13-.73.24-1,.5a1.1,1.1,0,0,0-.2,1.27A1.39,1.39,0,0,0,16.41,126.09Z"/><path class="cls-5" d="M126,19.2a1.35,1.35,0,0,0,1.55-1.37.65.65,0,0,0,0-.18,2.79,2.79,0,0,0-.16-.28,1.44,1.44,0,0,0-1.7-.41.84.84,0,0,0-.57.57,1.09,1.09,0,0,0,.07,1.13A1.49,1.49,0,0,0,126,19.2Z"/><path class="cls-5" d="M22.38,110.3a1.07,1.07,0,0,0,1.44-.83,1.62,1.62,0,0,0,0-.6,1.1,1.1,0,0,0-1-1.08,1,1,0,0,0-1.05.41,2.08,2.08,0,0,0-.19.29A1.27,1.27,0,0,0,22.38,110.3Z"/><path class="cls-5" d="M66.93,53.26a.69.69,0,0,0,.23-.25,1.4,1.4,0,0,0-.48-1.8,1.09,1.09,0,0,0-.83-.05,3.18,3.18,0,0,0-.33.08,1,1,0,0,0-.68,1.07C65,53.5,65.79,53.94,66.93,53.26Z"/><path class="cls-5" d="M88.6,36.88a.71.71,0,0,0,.32-.1,1.4,1.4,0,0,0,.63-1.46,1.34,1.34,0,0,0-1.21-1,1,1,0,0,0-.62.21,2,2,0,0,0-.47.69A1.32,1.32,0,0,0,88.6,36.88Z"/><path class="cls-5" d="M103.39,28.17a2.93,2.93,0,0,0,.66-.18.94.94,0,0,0,.55-1c0-.11,0-.22,0-.34s-.06-.21-.1-.32a1,1,0,0,0-1.26-.59,1.39,1.39,0,0,0-1,1.44A1,1,0,0,0,103.39,28.17Z"/><path class="cls-5" d="M202.36,13.45a.64.64,0,0,0,0,.64"/><path class="cls-5" d="M43.82,70.36a.93.93,0,0,0,.61-.23,2,2,0,0,0,.47-.69,1.1,1.1,0,0,0-.62-1.4,1.61,1.61,0,0,0-1-.14.44.44,0,0,0-.15.08,1.31,1.31,0,0,0,.68,2.38Z"/><path class="cls-5" d="M73.37,45.38A1.15,1.15,0,0,0,74,45.2a1.35,1.35,0,0,0,.54-.85A1.06,1.06,0,0,0,73.41,43l-.33.06a1.07,1.07,0,0,0-.71,1.7A1.37,1.37,0,0,0,73.37,45.38Z"/><path class="cls-5" d="M10,149.54a.89.89,0,0,0,.46-.68,1.69,1.69,0,0,0,0-.38,3.49,3.49,0,0,0-.11-.46A1,1,0,0,0,9,147.41a1.35,1.35,0,0,0-.86,1.17.72.72,0,0,0,.12.49A1.33,1.33,0,0,0,10,149.54Z"/><path class="cls-5" d="M22.27,102.43c.11,0,.21-.05.62-.14a1,1,0,0,0,.44-1.48,1.41,1.41,0,0,0-1.08-.72.74.74,0,0,0-.48.1,1.42,1.42,0,0,0-.67,1.12A1,1,0,0,0,22.27,102.43Z"/><path class="cls-5" d="M36.52,78.45a.77.77,0,0,0,.49-.13,1.48,1.48,0,0,0,.62-1,1,1,0,0,0-1.1-1.21l-.34.06a1,1,0,0,0-.78,1.56A1.41,1.41,0,0,0,36.52,78.45Z"/><path class="cls-5" d="M51.08,62l.17,0h0c.11,0,.22,0,.33-.08a1,1,0,0,0,.61-1.37A1.38,1.38,0,0,0,51,59.68a.75.75,0,0,0-.48.12,1.43,1.43,0,0,0-.64,1A1.05,1.05,0,0,0,51.08,62Z"/><path class="cls-5" d="M95.67,28.55c.11,0,.22-.05.69-.16a1,1,0,0,0,.45-1.3,1.37,1.37,0,0,0-1.3-.87.7.7,0,0,0-.32.09,1.42,1.42,0,0,0-.67,1.11A1,1,0,0,0,95.67,28.55Z"/><path class="cls-5" d="M8.81,142a1,1,0,0,0,1.26-1.18.94.94,0,0,0,0-.16h0a1.77,1.77,0,0,0-.08-.33,1,1,0,0,0-1.53-.54,1.42,1.42,0,0,0-.7,1.11.84.84,0,0,0,.12.48A1.44,1.44,0,0,0,8.81,142Z"/><path class="cls-5" d="M118.18,19.55a.72.72,0,0,0,.5,0c.71-.28,1.08-.75.87-1.43a1.06,1.06,0,0,0-1.71-.69,1.34,1.34,0,0,0-.58,1,.92.92,0,0,0,.22.62A2.15,2.15,0,0,0,118.18,19.55Z"/><path class="cls-5" d="M163.93,9.17A1.08,1.08,0,0,0,165.06,9a1.3,1.3,0,0,0,.55-1.19,1.26,1.26,0,0,0-.14-.31,1.39,1.39,0,0,0-1-.59A.78.78,0,0,0,164,7a1.44,1.44,0,0,0-.62,1A1.11,1.11,0,0,0,163.93,9.17Z"/><path class="cls-5" d="M156.93,9.59a1.23,1.23,0,0,0,.85-.75.87.87,0,0,0-.28-1.21,2,2,0,0,0-.6-.3.78.78,0,0,0-.5,0,1.35,1.35,0,0,0-.75,1.41A1,1,0,0,0,156.93,9.59Z"/><path class="cls-5" d="M110.64,20a.79.79,0,0,0,.64-.17,1.56,1.56,0,0,0,.53-.86,1,1,0,0,0-1.16-1.28,1.37,1.37,0,0,0-1.09,1.17.87.87,0,0,0,.1.5A1.45,1.45,0,0,0,110.64,20Z"/><path class="cls-5" d="M28.77,86.43A.89.89,0,0,0,30,86.15a2.16,2.16,0,0,0,.3-.61.86.86,0,0,0,0-.5,1.35,1.35,0,0,0-1.58-.7,1,1,0,0,0-.7,1A1.3,1.3,0,0,0,28.77,86.43Z"/><path class="cls-5" d="M14.89,110.51l.34-.05a1.06,1.06,0,0,0,.87-.73,1,1,0,0,0-1.13-1.3,2.83,2.83,0,0,0-.5.13,1,1,0,0,0,.42,2Z"/><path class="cls-5" d="M15.27,118.24l.33,0,.32-.1a1,1,0,0,0,.61-1.09,1,1,0,0,0-1.23-.86,2.72,2.72,0,0,0-.49.13,1,1,0,0,0-.61,1.09A1,1,0,0,0,15.27,118.24Z"/><path class="cls-5" d="M80.56,37a3.64,3.64,0,0,0,.38,0,2.23,2.23,0,0,0,.43-.17.88.88,0,0,0,.49-.82,1,1,0,0,0-1.22-1.06,2.09,2.09,0,0,0-.49.13,1,1,0,0,0,.41,2Z"/><path class="cls-5" d="M172.45,8.77a1.31,1.31,0,0,0,.84-1.46,1.41,1.41,0,0,0-1.36-.79A1.3,1.3,0,0,0,171.1,8,1.34,1.34,0,0,0,172.45,8.77Z"/><path class="cls-5" d="M58.63,53.85a1.13,1.13,0,0,0,.37-.2,3,3,0,0,0,.47-.7.82.82,0,0,0-.22-.93,3.43,3.43,0,0,0-.72-.41.68.68,0,0,0-.78.19,2.72,2.72,0,0,0-.47.69.85.85,0,0,0,0,.5A1.35,1.35,0,0,0,58.63,53.85Z"/><path class="cls-5" d="M65.62,45.75a.73.73,0,0,0,.33,0,1.36,1.36,0,0,0,.86-1.4,1.29,1.29,0,0,0-.23-.38,3.08,3.08,0,0,0-.74-.44.68.68,0,0,0-.78.19,2.6,2.6,0,0,0-.46.72.74.74,0,0,0,.14.8A1.57,1.57,0,0,0,65.62,45.75Z"/><path class="cls-5" d="M8.71,134.26a1.33,1.33,0,0,0,.89-1.32A1.28,1.28,0,0,0,8.15,132a.85.85,0,0,0-.29.17,2.13,2.13,0,0,0-.33.4.94.94,0,0,0,.37,1.45A1.12,1.12,0,0,0,8.71,134.26Z"/><path class="cls-5" d="M187.73,7.89a.75.75,0,0,0,.47-.12,1.28,1.28,0,0,0,.52-.85,1,1,0,0,0-1.2-1.23,1.27,1.27,0,0,0-1,1,.72.72,0,0,0,.1.47A1.28,1.28,0,0,0,187.73,7.89Z"/><path class="cls-5" d="M179.5,8.27A.89.89,0,0,0,180.71,8a1.21,1.21,0,0,0,.3-1,1.29,1.29,0,0,0-.23-.38,3.08,3.08,0,0,0-.74-.44.68.68,0,0,0-.78.2,2.79,2.79,0,0,0-.46.71.83.83,0,0,0,.27.93A2.44,2.44,0,0,0,179.5,8.27Z"/><path class="cls-5" d="M148.76,10a1.17,1.17,0,0,0,1.07-.41c.56-.71.44-1.19-.36-1.68a1,1,0,0,0-.82-.13.59.59,0,0,0-.16.07,1.44,1.44,0,0,0-.57,1A1,1,0,0,0,148.76,10Z"/><path class="cls-5" d="M87.81,28.84A1.12,1.12,0,0,0,89,28.4a1.07,1.07,0,0,0,0-1.14,1,1,0,0,0-1.06-.4l-.27.06c-.06,0-.23.08-.38.15a.84.84,0,0,0-.19,1.32A2.4,2.4,0,0,0,87.81,28.84Z"/><path class="cls-5" d="M102.77,20.32a.82.82,0,0,0,.93-.25,3,3,0,0,0,.29-.43.88.88,0,0,0-.3-1.21,1.25,1.25,0,0,0-1-.3,1,1,0,0,0-.31.16A1.57,1.57,0,0,0,102,19.7a.51.51,0,0,0,.2.27A3.44,3.44,0,0,0,102.77,20.32Z"/><path class="cls-5" d="M22.07,94.64A1.34,1.34,0,0,0,23,93.52a.62.62,0,0,0-.11-.32,1.37,1.37,0,0,0-.92-.68.74.74,0,0,0-.89.31,1.16,1.16,0,0,0-.29.94A1.35,1.35,0,0,0,22.07,94.64Z"/><path class="cls-5" d="M72.77,37.42l.17,0c.79-.13,1-.44,1.08-.86a.71.71,0,0,0-.23-.76c-.79-.65-1.46-.47-1.85.49A.84.84,0,0,0,72.77,37.42Z"/><path class="cls-5" d="M8.16,126.3c.1,0,.33-.09.53-.17a.84.84,0,0,0,.23-1.4,2.39,2.39,0,0,0-.57-.36,1,1,0,0,0-.49-.05A1.29,1.29,0,0,0,7,125.43,1.14,1.14,0,0,0,8.16,126.3Z"/><path class="cls-5" d="M2.36,157.74a1,1,0,0,0,.72-1.3.93.93,0,0,0-1.19-.65.94.94,0,0,0-.72,1.28A1,1,0,0,0,2.36,157.74Z"/><path class="cls-5" d="M195.61,7.27A.94.94,0,0,0,196.38,6a1,1,0,0,0-1.31-.68.94.94,0,0,0-.61,1.22A.92.92,0,0,0,195.61,7.27Z"/><path class="cls-5" d="M141.48,10.38a1,1,0,0,0,.76-1.14.94.94,0,0,0-1.07-.86,1,1,0,1,0,.31,2Z"/><path class="cls-5" d="M133.72,10.77a.94.94,0,0,0,.78-1.25,1,1,0,0,0-1.93.54A.93.93,0,0,0,133.72,10.77Z"/></g><path class="cls-6" d="M21.24,29c-.76.35-1.53.64-2.3.93s-1.54.54-2.31.81c-1.55.5-3.12.94-4.68,1.34-3.14.8-6.29,1.43-9.48,1.92l1.68-2.15c.27,3.09.41,6.19.39,9.3,0,1.55-.06,3.11-.17,4.68-.07.78-.11,1.56-.21,2.35S4,49.78,3.83,50.57c-.29-.75-.53-1.51-.75-2.26S2.66,46.79,2.45,46c-.39-1.52-.71-3.05-1-4.57C.87,38.4.46,35.33.17,32.24L0,30.39l1.85-.3q4.75-.78,9.6-1.11c1.61-.1,3.23-.17,4.86-.17.82,0,1.64,0,2.46.05S20.41,28.93,21.24,29Z"/><path class="cls-6" d="M167,6.06c1-.41,2-.76,3.07-1.1s2.06-.63,3.09-1c2.07-.59,4.15-1.09,6.23-1.56s4.17-.85,6.27-1.22S189.85.57,192,.3l2.32-.3.45,2.28c.79,4,1.42,8.06,1.86,12.14.21,2,.38,4.09.48,6.16,0,1,.08,2.06.08,3.11s0,2.08-.07,3.14c-.46-.95-.87-1.91-1.26-2.88s-.77-1.93-1.12-2.9c-.71-1.94-1.34-3.9-1.93-5.87-1.16-3.94-2.13-7.91-2.94-11.92l2.77,2c-2.11.28-4.22.51-6.34.71s-4.24.34-6.37.42-4.27.13-6.42.09c-1.07,0-2.15-.06-3.23-.12S168.08,6.21,167,6.06Z"/></g></g></svg>