<svg xmlns="http://www.w3.org/2000/svg" viewBox="0 0 201.3 265.32"><title>Asset 1</title><g id="Layer_2" data-name="Layer 2"><g id="Layer_9" data-name="Layer 9"><path d="M82,158.75c-6.4.21-11.89-3.89-14-10.16-2.46-7.4-2.39-15-2.36-22.65a4.62,4.62,0,0,0-2.36-4.54,53.63,53.63,0,0,1-5.87-4.86c-.38,4-.81,7.9-1.09,11.77a114.14,114.14,0,0,1-9,35.81c-3.8,9.1-7.59,18.24-12.2,26.92-5.85,11-12.61,21.55-18.8,32.4C12.64,229.9,9,236.51,7.57,243.92A37.59,37.59,0,0,0,7.29,254c.19,2.62-1.74,1.75-2.79,2.27s-1.87.2-2.17-1.22A25.35,25.35,0,0,1,3.65,239.7c4.16-10,9.88-19,15.67-28.06,7.14-11.18,14.1-22.54,20.28-34.28,6.54-12.42,11.57-25.6,13.5-39.67.9-6.49.5-13.16,1.27-19.67.69-5.94-1.66-11.06-3.38-16.31-2.69-8.23-3.34-16.65-3.36-25.2V69.2c-2.59,4-4.72,7.58-7.19,10.92C35.36,87,30.24,93.82,24.83,100.4c-2.18,2.66-5.2,4.39-9.06,3.49s-6.06-3.48-5.42-7.55c.41-2.59,1.49-5.06,2.13-7.62C14.12,82.14,12.41,76,9.94,70,6.4,61.36,3.43,52.52,2.85,43.13a66.27,66.27,0,0,1,.45-15.3C4.48,21,9.88,17.78,16,16.26c5.5-1.37,10.22-4.21,15.16-6.73C40.57,4.74,50.26.78,61,0a14,14,0,0,1,9,2.21c3.78,2.44,7.84,2.64,12,1.57,2.83-.71,5.61-1.67,8.44-2.38a16.51,16.51,0,0,1,12.37,1.62,8.48,8.48,0,0,0,7,.67c3.28-1,6.56-2.72,10.07-.76.48.28,1.15.38,1.46.78,2.45,3.14,5.38,2.63,8.73,1.73,15.21-4.1,30.19-2.56,45,2.32,5.18,1.71,10.44,3.2,15.58,5a8.38,8.38,0,0,1,3.92,2.94,60.81,60.81,0,0,1,5.73,10,18.29,18.29,0,0,1,1,7.22c-.08,10.9-4,20.93-7,31.17-1.4,4.78-2.93,9.52-4.55,14.22-1.79,5.21-1.54,10.6-1.77,16a54.11,54.11,0,0,1-1.43,10.7,6.74,6.74,0,0,1-3.31,4.25c-1.94.74-3.76-.83-5.17-2.56-2.86-3.48-3.24-8-5-11.89C170.25,88.42,167,82.22,164,75.94l-.7.22c-.56,3.19-1,6.39-1.69,9.56-1.05,4.94-2.57,9.8-3.31,14.79-1.18,7.84-2.16,15.73-2.69,23.64s-1.07,15.78-.42,23.57c1,12.25,4.9,23.91,10,35,4.9,10.6,10.44,20.89,15.72,31.31,3,6,6.18,11.92,9.14,17.94a50.58,50.58,0,0,1,2.29,6.32,4.74,4.74,0,0,1,0,1.46l-.61.19a39.79,39.79,0,0,1-1.94-3.86c-3.34-9-9-16.59-13.69-24.76-3.35-5.82-6.66-11.71-9.48-17.82-3.21-7-5.86-14.19-8.74-21.31-.32-.8-.59-1.62-.88-2.4-3.56.76-5.47-.89-4.69-4.27a57.86,57.86,0,0,0,1-17.13c-.88-12.87.25-25.7,2.06-38.45.1-.76.11-1.53.17-2.36-3.09,5-6.16,9.79-9,14.72a9.74,9.74,0,0,0-.93,3.92c-.52,5.44-.76,10.91-1.46,16.33-1,7.51-4.48,13.71-11.75,16.07M56.2,20.56a156.48,156.48,0,0,1,12.2-12,4,4,0,0,1,3.86-.27,4.54,4.54,0,0,1,1.35,3.72A19.19,19.19,0,0,1,68.08,23.5,53.06,53.06,0,0,0,57.3,38c-3.24,6.56-5.82,13.34-6.67,20.71A152.08,152.08,0,0,0,50.45,89a42.88,42.88,0,0,0,3.71,14.83v-3l.42-.08,7.88,12.43-.7.63a36.14,36.14,0,0,1-3.63-3.12,42.56,42.56,0,0,1-3-4.14c1.06,5.6,4.32,9.53,9.27,13.06-.26-1.33-.36-2-.52-2.68-.59-2.49-1.27-5-1.75-7.46-.09-.51.53-1.15.82-1.73.46.29,1.23.5,1.33.89,1.08,4.36,2.42,8.69,3,13.13.6,5,.22,10.08.71,15.08.39,4,.76,8.32,2.33,12,3.06,7.06,7.87,9.32,15.21,6.72,3.87-1.38,7.53-3.28,11.79-3.25,4.06,0,8.2-.64,12.18-.11s7.51,2.28,11.3,3.34c4,1.13,8.15,2.5,12.25.47,5.11-2.52,7.4-7.14,8.62-12-1.07-.72-2.27-1.07-2.53-1.77a15.49,15.49,0,0,1-.21-10.17l.88-.35,3,5.07c.34-8.54.67-16.6,1-25,3.76,1.11.66,4.69,2.91,6.64,2.13-4,4.51-7.75,6.24-11.81A104.79,104.79,0,0,0,161,74.24c1.17-13.95,0-27.49-7.11-39.89-4.37-7.58-9.4-14.62-16.23-20.19-1.24-1-2.43-2.39-1.19-4.56,1.3.28,2.87.18,3.84.89,3.75,2.76,7.65,5.44,10.87,8.77,5.82,6,8.28,13.9,10.44,21.86a71,71,0,0,1,2,20.52c-.13,5.92.3,11.71,3.56,16.93a87.86,87.86,0,0,1,9.92,22.59,13.76,13.76,0,0,0,3,4.82c1.79,2,3.4,1.71,4-1a59.6,59.6,0,0,0,1.59-12.14,50.92,50.92,0,0,1,2.6-17,8.13,8.13,0,0,0,.07-2.52,21.44,21.44,0,0,1,.06-4.17c.46-2.12,1.25-4.17,2-6.49a8.33,8.33,0,0,0-1.66.11c-2.81.88-4.48.1-5.5-2.64-.19-.52-.25-1.09-.44-1.61-2.83-7.66-5.7-15.3-8.48-23-.8-2.21-.77-4.52.94-6.34a113.26,113.26,0,0,1,8.39-8.44c3.11-2.7,6.18-2.43,9.37.15.37.3,1.05.21,1.58.3a3.68,3.68,0,0,0,0-1.44c-2.18-5.34-7-6.31-11.82-7.63.3,6.65-.85,9.5-4.24,10.57-2.62.83-7.79.22-10-3.14s-2-5.35,2-10.48c-1.44-.46-2.28-.17-4.22,1.89-3.29,3.5-4.11,3.49-1,7.47.62.78.29,2.33.4,3.52-1-.05-2.07-.06-3.09-.2-.35,0-.66-.41-1-.66-2.4-1.94-4.75-3.94-7.2-5.81-3.11-2.37-4.76-5.11-2.76-9.06.05-.09-.09-.28-.11-.33-7.55-1.24-14.86.16-22,2.16-3.65,1-6.43.44-9-2.18a5.12,5.12,0,0,0-5.25-1.37c-1.23.32-2.45.66-3.64,1.09a11.72,11.72,0,0,1-9.14-.35A19.34,19.34,0,0,0,94,3.5C90.23,3.76,86.47,5,82.74,6a17,17,0,0,1-13-1.72A14.67,14.67,0,0,0,61,2.37c-10.38.89-19.83,4.38-28.94,9.22a85.36,85.36,0,0,1-11.78,5.65c-2.64.92-4.72,1.42-4.25,4.87.09.71-.46,1.51-.68,2.28-.52,1.8-.12,3,2,3.18.67,0,1.34.11,2.18.18-.57,1.42-1.11,2.65-1.57,3.92q-3.46,9.45-6.86,18.93a6.06,6.06,0,0,0-.31,2.32c.26,4.48.54,9,.91,13.42a18.89,18.89,0,0,0,.88,4.94c1.8,4.91,3.33,9.84,2.71,15.19,0,.06.24.15.56.34.47-.93.88-1.87,1.4-2.75,1.26-2.12,2.47-4.29,3.9-6.29s3.43-2.35,4.66-.94a72.38,72.38,0,0,1,5.26,7,12.88,12.88,0,0,1,1.1,3.22l.84.06a16.63,16.63,0,0,0,1.25-3.85,65.38,65.38,0,0,0,.18-8.85,6.81,6.81,0,0,1,3.17-6.28c1.92-1.39,3.93-2.67,5.87-4s2.35-3.22,2-5.46c-.55-3.21-2.42-5.41-4.83-7.41-4.23-3.48-4.23-7-.33-10.62a13.67,13.67,0,0,0,3.93-6.28C45.37,29.61,52.72,24.47,56.2,20.56Z" style="fill:#92278f"/><path d="M105.74,213.63c-.81,10.47-1.6,20.94-2.47,31.4-.06.73-.74,1.41-1.13,2.11-.71-.56-1.72-1-2.1-1.71-.93-1.85-1.66-3.75-.61-6,1.94-4.06.71-7.74-1.5-11.35A67.91,67.91,0,0,1,93,218.91a7.56,7.56,0,0,1,.07-4.88,49.49,49.49,0,0,1,3.49-7.63,2.88,2.88,0,0,1,2.07-1.16C103.05,204.94,105.46,208,105.74,213.63Z" style="fill:#92278f"/><path d="M58.36,234.91c.23,3.46.08,6.9-3,9.08-.94.65-2.73,1.08-3.63.61a89.27,89.27,0,0,1-11.17-6.67c-3.17-2.28-3-4.15-.87-7.48,2.42-3.73,5.55-5.27,9.86-4.3,1.46.33,3,.51,4.4.9,3.65,1,4.36,1.92,4.46,5.69C58.38,233.46,58.36,234.19,58.36,234.91Z" style="fill:#92278f"/><path d="M133.41,206.79c.84-2.46,1.78-5.29,2.8-8.09a1.31,1.31,0,0,1,1-.74c.32,0,.74.54.84.92.82,3.16,1.63,6.33,2.34,9.52.49,2.19-1.09,5.31-3.11,5.82A2.7,2.7,0,0,1,135,213,45.14,45.14,0,0,1,133.41,206.79Z" style="fill:#92278f"/><path d="M149.89,156.42c-.18,3.14-.47,5.77-.46,8.4,0,3.77.36,7.53.41,11.3a28.32,28.32,0,0,1-.49,5.27,11.63,11.63,0,0,1-1.37,2.66C145.74,176.19,146.8,159.87,149.89,156.42Z" style="fill:#92278f"/><path d="M78.09,234.51c-2.21-2.12-.25-13.36,3-16.76a3.39,3.39,0,0,1,2.16,3.49C83.06,226,81,230,78.76,233.92A2.93,2.93,0,0,1,78.09,234.51Z" style="fill:#92278f"/><path d="M122.19,239.17c-.52,1.62-.93,3.26-1.58,4.8-.47,1.12-1.3,1.25-2.19.25-2-2.24-4.17-7.21-1.53-10.82a4.28,4.28,0,0,1,2.4-1.45c.29-.07,1,1.19,1.28,1.93C121.19,235.59,121.65,237.36,122.19,239.17Z" style="fill:#92278f"/><path d="M76.25,197.15c0,3.68-2.11,6.26-5.51,6.69a1.54,1.54,0,0,1-1.06-.3c-2.16-1.85-1.7-6.74.76-8.19a17.88,17.88,0,0,1,1.7-.84C75.09,193.15,76.25,193.9,76.25,197.15Z" style="fill:#92278f"/><path d="M130.82,227.19c-1.86-3.55-1.35-7.06-1-10.51a10,10,0,0,1,1.13-3.82c.71-1.31,1.85-1.13,2.59.11,1.69,2.82.7,11.14-1.57,13.52A6.48,6.48,0,0,1,130.82,227.19Z" style="fill:#92278f"/><path d="M86.45,167.23c-.07.22-.1.82-.41,1.09-2.12,1.89-4.27,3.74-6.49,5.51-.24.19-1.13-.08-1.4-.4a2.16,2.16,0,0,1-.47-1.67A24.64,24.64,0,0,1,79.12,169a6.32,6.32,0,0,0,1-2.62c-.08-1.89.3-3.2,2.42-3.2A4.5,4.5,0,0,1,86.45,167.23Z" style="fill:#92278f"/><path d="M48.93,203.11a4.16,4.16,0,0,1-3.92,4c-1.81,0-2.65-1.42-2.61-4.54,0-1.78.31-3.56,2.44-3.69C47.29,198.72,49,200.63,48.93,203.11Z" style="fill:#92278f"/><path d="M79.82,245.27c-2.71-2-2.09-7.67,1.45-11,2,1.78,2.11,4.35.56,6.83A42,42,0,0,0,79.82,245.27Z" style="fill:#92278f"/><path d="M168,195c-2.47-.82-4.67-2.16-5.67-4.76a6,6,0,0,1,.35-5.45l5.8,9.66Z" style="fill:#92278f"/><path d="M63.32,197.39a6.2,6.2,0,0,1-.18-5.82c.16-.36.75-.82,1-.75a2,2,0,0,1,1.22,1C66.05,193.08,65,196.2,63.32,197.39Z" style="fill:#92278f"/><path d="M59.65,152.44c1.81,3.51,1.51,5.14-.61,5.95a1.78,1.78,0,0,1-1.47,0,1.51,1.51,0,0,1-.33-1.39C57.87,155.57,58.65,154.27,59.65,152.44Z" style="fill:#92278f"/><path d="M44.19,34.36a13.67,13.67,0,0,1-3.93,6.28c-3.9,3.59-3.9,7.14.33,10.62,2.41,2,4.28,4.2,4.83,7.41.38,2.24-.09,4.12-2,5.46s-4,2.65-5.87,4a6.81,6.81,0,0,0-3.17,6.28,65.38,65.38,0,0,1-.18,8.85A16.63,16.63,0,0,1,33,87.15l-.84-.06A12.88,12.88,0,0,0,31,83.87a72.38,72.38,0,0,0-5.26-7c-1.23-1.41-3.29-1-4.66.94s-2.64,4.17-3.9,6.29c-.52.88-.93,1.82-1.4,2.75-.32-.19-.56-.28-.56-.34.62-5.35-.91-10.28-2.71-15.19a18.89,18.89,0,0,1-.88-4.94c-.37-4.46-.65-8.94-.91-13.42a6.06,6.06,0,0,1,.31-2.32q3.39-9.48,6.86-18.93c.46-1.27,1-2.5,1.57-3.92-.84-.07-1.51-.14-2.18-.18-2.09-.15-2.49-1.38-2-3.18.22-.77.77-1.57.68-2.28-.47-3.45,1.61-3.95,4.25-4.87a85.36,85.36,0,0,0,11.78-5.65C41.17,6.75,50.62,3.26,61,2.37a14.67,14.67,0,0,1,8.76,1.9A17,17,0,0,0,82.74,6C86.47,5,90.23,3.76,94,3.5a19.34,19.34,0,0,1,8.59,1.71,11.72,11.72,0,0,0,9.14.35c1.19-.43,2.41-.77,3.64-1.09a5.12,5.12,0,0,1,5.25,1.37C123.24,8.46,126,9,129.67,8c7.15-2,14.46-3.4,22-2.16,0,0,.16.24.11.33-2,4-.35,6.69,2.76,9.06,2.45,1.87,4.8,3.87,7.2,5.81.31.25.62.61,1,.66,1,.14,2.06.15,3.09.2-.11-1.19.22-2.74-.4-3.52-3.14-4-2.32-4,1-7.47,1.94-2.06,2.78-2.35,4.22-1.89-4,5.13-4.28,7-2,10.48s7.36,4,10,3.14c3.39-1.07,4.54-3.92,4.24-10.57,4.81,1.32,9.64,2.29,11.82,7.63a3.68,3.68,0,0,1,0,1.44c-.53-.09-1.21,0-1.58-.3-3.19-2.58-6.26-2.85-9.37-.15a113.26,113.26,0,0,0-8.39,8.44c-1.71,1.82-1.74,4.13-.94,6.34,2.78,7.68,5.65,15.32,8.48,23,.19.52.25,1.09.44,1.61,1,2.74,2.69,3.52,5.5,2.64a8.33,8.33,0,0,1,1.66-.11c-.73,2.32-1.52,4.37-2,6.49a21.44,21.44,0,0,0-.06,4.17,8.13,8.13,0,0,1-.07,2.52,50.92,50.92,0,0,0-2.6,17A59.6,59.6,0,0,1,184.11,105c-.56,2.72-2.17,3.06-4,1a13.76,13.76,0,0,1-3-4.82,87.86,87.86,0,0,0-9.92-22.59c-3.26-5.22-3.69-11-3.56-16.93a71,71,0,0,0-2-20.52c-2.16-8-4.62-15.83-10.44-21.86-3.22-3.33-7.12-6-10.87-8.77-1-.71-2.54-.61-3.84-.89-1.24,2.17-.05,3.55,1.19,4.56,6.83,5.57,11.86,12.61,16.23,20.19,7.13,12.4,8.28,25.94,7.11,39.89A104.79,104.79,0,0,1,153,106.58c-1.73,4.06-4.11,7.83-6.24,11.81-2.25-2,.85-5.53-2.91-6.64-.34,8.42-.67,16.48-1,25l-3-5.07-.88.35a15.49,15.49,0,0,0,.21,10.17c.26.7,1.46,1.05,2.53,1.77-1.22,4.9-3.51,9.52-8.62,12-4.1,2-8.22.66-12.25-.47-3.79-1.06-7.46-2.82-11.3-3.34s-8.12.14-12.18.11c-4.26,0-7.92,1.87-11.79,3.25-7.34,2.6-12.15.34-15.21-6.72-1.57-3.64-1.94-7.92-2.33-12-.49-5-.11-10.1-.71-15.08-.54-4.44-1.88-8.77-3-13.13-.1-.39-.87-.6-1.33-.89-.29.58-.91,1.22-.82,1.73.48,2.5,1.16,5,1.75,7.46.16.67.26,1.35.52,2.68-5-3.53-8.21-7.46-9.27-13.06a42.56,42.56,0,0,0,3,4.14,36.14,36.14,0,0,0,3.63,3.12l.7-.63-7.88-12.43-.42.08v3A42.88,42.88,0,0,1,50.45,89a152.08,152.08,0,0,1,.18-30.32c.85-7.37,3.43-14.15,6.67-20.71A53.06,53.06,0,0,1,68.08,23.5a19.19,19.19,0,0,0,5.53-11.45,4.54,4.54,0,0,0-1.35-3.72,4,4,0,0,0-3.86.27,156.48,156.48,0,0,0-12.2,12C52.72,24.47,45.37,29.61,44.19,34.36Zm78.61,92.28c-.15-6-6-11.74-11.2-11.68-4,0-8.06.67-12,.35-4.72-.39-8.36,1.53-11.52,4.54-1.25,1.2-2.58,3.58-2.23,5,.93,3.81.43,8.29,4.93,10.79,3.75,2.09,6.85,5.35,10.48,7.7a6.46,6.46,0,0,0,4.87.52,24.33,24.33,0,0,0,6.36-3.33,16.07,16.07,0,0,0,3.84-3.7c1.8-2.43,3.36-5,5-7.6C121.94,128.21,122.52,127.12,122.8,126.64ZM131.24,60c-.94-.72-2-1.47-2.94-2.26-2.33-1.88-4.43-1.4-4.77,1.61a125.53,125.53,0,0,0-.7,16.45,5.58,5.58,0,0,0,3,4.11c1.06.41,3-1,4.31-2,1.71-1.36,3.28-2.48,5.58-1.72a20.55,20.55,0,0,0,3.46.76c1.72.24,3.52.64,4.86-1,1.55-1.91,3.45-3.66,4.49-5.83.9-1.88,3.21-4.26.11-6.43-.17-.11-.23-.41-.31-.64a13.52,13.52,0,0,0-3.89-6.34c-3.42-3-5.91-3.41-9.35-.42C133.82,57.45,132.63,58.69,131.24,60ZM69.19,56.74a29.48,29.48,0,0,1-2.69,1.55c-1.6.71-3.24,1.28-4.83,2A2.77,2.77,0,0,0,60,64.18a48.21,48.21,0,0,0,2.52,6.45,118.4,118.4,0,0,0,7.55,12.15c2.79,3.79,6.29,3.5,8.7-.58a42,42,0,0,0,4-8.89c2.44-7.9-.52-15.32-7.5-19.23A34.13,34.13,0,0,0,78.1,50c.41-.79.61-2.28.17-2.8a5.22,5.22,0,0,0-3-1.17,4.46,4.46,0,0,0-2,.51c-3.06,1.15-3.39,2.08-1.58,4.63a29,29,0,0,0-4.23,1.35c-1.85.89-1.81,2.34,0,3.42A18.54,18.54,0,0,0,69.19,56.74ZM30.28,45.07l-.3-.16c-.23-1.74-.12-3.63-.78-5.19-1.42-3.39-3.52-4.32-6-2.48a22.56,22.56,0,0,0-5.33,5.35c-3.46,5.13-3,11-2,16.71a15.46,15.46,0,0,0,2.35,5.09c.41.68,1.8,1.53,2.14,1.32a5.61,5.61,0,0,0,1.86-2.51,7.71,7.71,0,0,0,.15-2.38A6,6,0,0,1,25.39,56a7,7,0,0,0,2.82-3A73.36,73.36,0,0,0,30.28,45.07Zm.4-13.32c.45,3.12,2.52,4.42,4.9,3.1C38.84,33,40.3,30,40.94,26.48a2.53,2.53,0,0,0-.89-2,2.33,2.33,0,0,0-2.09,0,20.69,20.69,0,0,0-4.48,3.13A24.13,24.13,0,0,0,30.68,31.75ZM175,88.45l.68,0a21.23,21.23,0,0,0,3.66-10.65c.13-1.71-.57-2.68-2.47-2.71-2.48,0-3.53,1.83-4.81,3.42-1.85,2.3-1.33,3.86,1.54,4.25,1.43.19,1.67.7,1.44,2A20.7,20.7,0,0,0,175,88.45ZM139.63,86a49.49,49.49,0,0,0-3.23-6.13c-1-1.35-2.69-.87-2.69.71a24,24,0,0,0,1.13,7.08c.3,1,1.82,1.51,2.78,2.25ZM72.51,151.54l.68-.13c.81-1.6,1.65-3.19,2.43-4.81.26-.55.66-1.22.53-1.73-.74-3.13-1.62-6.24-2.46-9.35l-.59,0a13.74,13.74,0,0,0,0,3.21,13.53,13.53,0,0,1-.65,8.4C72,148.38,72.48,150.05,72.51,151.54Zm50.57-50c-1.2,3.9,1.81,11.6,4.81,12.3C127.35,109.27,126.76,104.92,123.08,101.51ZM59.32,3.67c-2.45,0-4.86,1.83-4.48,3.36a4.56,4.56,0,0,0,2.57,2.51c1,.41,3.41-2.75,3.13-4.17C60.4,4.63,59.59,4,59.32,3.67ZM81,95.28c-1.54,2-2.06,5.11-.92,6.82.28.42,1.62.71,1.83.47C83.45,100.87,82.86,96.76,81,95.28Zm1.5,17.46c-2.58,1.51-3.92,7.09-2.59,10C81.84,119.63,82.38,116.51,82.54,112.74ZM77.19,140c.27-.57.65-1,.62-1.4-.08-1.45-.29-2.9-.46-4.34-.6.22-1.74.48-1.73.66a40.69,40.69,0,0,0,.68,4.63C76.33,139.71,76.7,139.78,77.19,140Zm9-27.89.85.49L88.85,109c-.42-.21-.95-.71-1.25-.59C85.75,109.07,85.94,110.61,86.19,112.13Z" style="fill:#92278f"/><path d="M122.8,126.64c-.28.48-.86,1.57-1.52,2.6-1.63,2.56-3.19,5.17-5,7.6a16.07,16.07,0,0,1-3.84,3.7,24.33,24.33,0,0,1-6.36,3.33,6.46,6.46,0,0,1-4.87-.52c-3.63-2.35-6.73-5.61-10.48-7.7-4.5-2.5-4-7-4.93-10.79-.35-1.43,1-3.81,2.23-5,3.16-3,6.8-4.93,11.52-4.54,4,.32,8-.31,12-.35C116.82,114.9,122.65,120.65,122.8,126.64ZM93,132.05c2.6,2.13,4.95,2.31,6.44.72a4.82,4.82,0,0,0-.17-6.14c-.46-.5-1.33-.6-2-.88-.18.6-.33,1.22-.56,1.8a13.94,13.94,0,0,1-1.37,3A8.6,8.6,0,0,1,93,132.05Zm21.48.44c-.47-1.92-.81-3.34-1.17-4.76s-1.73-1.94-2.68-1.24a4.51,4.51,0,0,0-1.48,3.19,3.29,3.29,0,0,0,1.69,2.43C111.92,132.59,113.26,132.39,114.52,132.49Z" style="fill:#92278f"/><path d="M131.24,60c1.39-1.33,2.58-2.57,3.86-3.69,3.44-3,5.93-2.55,9.35.42a13.52,13.52,0,0,1,3.89,6.34c.08.23.14.53.31.64,3.1,2.17.79,4.55-.11,6.43-1,2.17-2.94,3.92-4.49,5.83-1.34,1.64-3.14,1.24-4.86,1a20.55,20.55,0,0,1-3.46-.76c-2.3-.76-3.87.36-5.58,1.72-1.26,1-3.25,2.39-4.31,2a5.58,5.58,0,0,1-3-4.11,125.53,125.53,0,0,1,.7-16.45c.34-3,2.44-3.49,4.77-1.61C129.28,58.55,130.3,59.3,131.24,60Z" style="fill:#92278f"/><path d="M69.19,56.74A18.54,18.54,0,0,1,67.4,56c-1.76-1.08-1.8-2.53,0-3.42a29,29,0,0,1,4.23-1.35c-1.81-2.55-1.48-3.48,1.58-4.63a4.46,4.46,0,0,1,2-.51,5.22,5.22,0,0,1,3,1.17c.44.52.24,2-.17,2.8a34.13,34.13,0,0,1-2.84,4.06c7,3.91,9.94,11.33,7.5,19.23a42,42,0,0,1-4,8.89c-2.41,4.08-5.91,4.37-8.7.58a118.4,118.4,0,0,1-7.55-12.15A48.21,48.21,0,0,1,60,64.18a2.77,2.77,0,0,1,1.66-3.91c1.59-.7,3.23-1.27,4.83-2A29.48,29.48,0,0,0,69.19,56.74Z" style="fill:#92278f"/><path d="M30.28,45.07a73.36,73.36,0,0,1-2.07,8,7,7,0,0,1-2.82,3,6,6,0,0,0-3.06,4.83,7.71,7.71,0,0,1-.15,2.38,5.61,5.61,0,0,1-1.86,2.51c-.34.21-1.73-.64-2.14-1.32a15.46,15.46,0,0,1-2.35-5.09c-1-5.73-1.45-11.58,2-16.71a22.56,22.56,0,0,1,5.33-5.35c2.51-1.84,4.61-.91,6,2.48.66,1.56.55,3.45.78,5.19Z" style="fill:#92278f"/><path d="M30.68,31.75a24.13,24.13,0,0,1,2.8-4.15A20.69,20.69,0,0,1,38,24.47a2.33,2.33,0,0,1,2.09,0,2.53,2.53,0,0,1,.89,2C40.3,30,38.84,33,35.58,34.85,33.2,36.17,31.13,34.87,30.68,31.75Z" style="fill:#92278f"/><path d="M59.32,3.67c.27.36,1.08,1,1.22,1.7.28,1.42-2.12,4.58-3.13,4.17A4.56,4.56,0,0,1,54.84,7C54.46,5.5,56.87,3.65,59.32,3.67Z" style="fill:#92278f"/><path d="M80.93,165.82a14.37,14.37,0,0,1-14.09-10.16c-2.48-7.41-2.41-15-2.38-22.66a4.62,4.62,0,0,0-2.38-4.54,52.14,52.14,0,0,1-5.92-4.86c-.38,4-.82,7.9-1.1,11.77A113.39,113.39,0,0,1,46,171.18c-3.82,9.1-7.65,18.25-12.29,26.93-5.9,11-12.73,21.54-19,32.39C11,237,7.38,243.57,5.9,251A37.59,37.59,0,0,0,5.62,261c.2,2.62-1.75,1.75-2.81,2.27s-1.88.21-2.19-1.22A25.13,25.13,0,0,1,2,246.76c4.19-10,10-19,15.8-28.06C25,207.52,32,196.17,38.21,184.42c6.59-12.42,11.67-25.6,13.62-39.67.9-6.49.51-13.15,1.27-19.67.7-5.94-1.67-11-3.4-16.31-2.72-8.23-3.37-16.65-3.39-25.2V76.26c-2.61,4-4.76,7.58-7.25,10.92-5.12,6.86-10.28,13.7-15.74,20.28-2.2,2.66-5.25,4.39-9.14,3.5s-6.11-3.49-5.47-7.55c.41-2.59,1.5-5.07,2.15-7.63,1.65-6.58-.07-12.71-2.56-18.73C4.73,68.42,1.74,59.58,1.14,50.19a65.72,65.72,0,0,1,.46-15.3c1.19-6.83,6.64-10,12.78-11.57,5.54-1.37,10.3-4.21,15.29-6.73C39.19,11.8,49,7.84,59.81,7.11a14.11,14.11,0,0,1,9,2.2C72.65,11.75,76.75,12,81,10.89c2.86-.72,5.66-1.68,8.52-2.39A16.77,16.77,0,0,1,102,10.12a8.56,8.56,0,0,0,7,.67c3.3-1,6.61-2.72,10.15-.75.49.27,1.16.38,1.47.78,2.48,3.13,5.43,2.62,8.81,1.72,15.34-4.09,30.45-2.55,45.37,2.32,5.23,1.71,10.53,3.2,15.72,5a8.48,8.48,0,0,1,4,3,59.87,59.87,0,0,1,5.78,9.94,18.16,18.16,0,0,1,1,7.23c-.08,10.89-4.08,20.92-7.09,31.16q-2.12,7.17-4.59,14.23c-1.81,5.21-1.55,10.59-1.78,16a54.14,54.14,0,0,1-1.45,10.69,6.72,6.72,0,0,1-3.34,4.25c-2,.74-3.79-.83-5.21-2.55-2.89-3.49-3.27-8-5-11.89-2.84-6.39-6.1-12.59-9.19-18.88l-.71.22c-.56,3.19-1,6.4-1.7,9.56-1.06,4.94-2.59,9.8-3.34,14.79-1.19,7.84-2.18,15.74-2.72,23.64s-1.08,15.78-.41,23.57c1,12.25,4.94,23.91,10.11,35,4.94,10.6,10.53,20.9,15.86,31.31,3.06,6,6.23,11.92,9.21,17.94a49.12,49.12,0,0,1,2.31,6.32,4.73,4.73,0,0,1,0,1.46l-.62.19a38.85,38.85,0,0,1-2-3.86c-3.37-8.95-9.05-16.59-13.8-24.76-3.39-5.82-6.73-11.71-9.57-17.81-3.24-7-5.91-14.2-8.81-21.32-.33-.8-.6-1.62-.89-2.4-3.59.76-5.51-.89-4.73-4.27a57.53,57.53,0,0,0,1-17.13c-.89-12.87.25-25.69,2.07-38.45.11-.76.12-1.53.17-2.36-3.11,5-6.21,9.8-9.12,14.72a9.66,9.66,0,0,0-.94,3.92c-.53,5.44-.77,10.91-1.47,16.33-1,7.51-4.52,13.71-11.85,16.08M55,27.62a156.19,156.19,0,0,1,12.31-12,4.08,4.08,0,0,1,3.89-.27,4.49,4.49,0,0,1,1.36,3.72,19.11,19.11,0,0,1-5.57,11.45A53,53,0,0,0,56.06,45.07c-3.26,6.57-5.87,13.34-6.72,20.71a150.6,150.6,0,0,0-.18,30.32,42.63,42.63,0,0,0,3.73,14.83v-3l.43-.08,8,12.43-.7.63a34.39,34.39,0,0,1-3.66-3.12,41.63,41.63,0,0,1-3-4.14c1.07,5.6,4.35,9.53,9.35,13.06-.26-1.32-.37-2-.53-2.68-.6-2.48-1.28-5-1.76-7.46-.1-.51.53-1.15.82-1.73.47.29,1.24.5,1.34.89,1.09,4.36,2.44,8.69,3,13.13.61,5,.22,10.08.72,15.08.39,4,.76,8.33,2.35,12,3.08,7.06,7.93,9.31,15.34,6.71,3.9-1.37,7.59-3.28,11.88-3.25,4.11,0,8.27-.64,12.29-.1s7.58,2.27,11.4,3.33c4.06,1.13,8.21,2.5,12.35.47,5.16-2.52,7.47-7.14,8.7-12-1.08-.72-2.29-1.06-2.55-1.77a15.37,15.37,0,0,1-.22-10.17l.89-.35,3,5.07c.34-8.54.67-16.6,1-25,3.8,1.11.67,4.69,2.94,6.64,2.15-4,4.55-7.75,6.29-11.81a103.78,103.78,0,0,0,8.12-32.34c1.18-13.94,0-27.48-7.17-39.88-4.4-7.59-9.47-14.63-16.37-20.2-1.24-1-2.45-2.39-1.2-4.56,1.32.28,2.89.18,3.88.9,3.78,2.75,7.72,5.43,11,8.76,5.87,6,8.35,13.9,10.53,21.87a70.55,70.55,0,0,1,2,20.51c-.14,5.92.3,11.71,3.59,16.93a87.55,87.55,0,0,1,10,22.59,13.7,13.7,0,0,0,3,4.82c1.81,2,3.43,1.71,4-1a59.5,59.5,0,0,0,1.59-12.13,50.71,50.71,0,0,1,2.63-17.05,8.13,8.13,0,0,0,.07-2.52,20.69,20.69,0,0,1,.06-4.17c.46-2.12,1.26-4.17,2-6.49a9.33,9.33,0,0,0-1.67.11c-2.83.88-4.51.11-5.54-2.63-.2-.52-.25-1.1-.45-1.62-2.85-7.66-5.75-15.3-8.55-23-.81-2.21-.78-4.51,1-6.34a118,118,0,0,1,8.45-8.44c3.15-2.7,6.24-2.43,9.46.15.37.31,1.06.22,1.6.31a3.93,3.93,0,0,0,0-1.45c-2.2-5.34-7.08-6.31-11.93-7.63.3,6.65-.86,9.51-4.28,10.57-2.64.83-7.86.22-10.06-3.14s-2-5.35,2-10.48c-1.44-.45-2.3-.17-4.25,1.89-3.32,3.51-4.15,3.5-1,7.47.63.78.3,2.33.4,3.53-1-.06-2.08-.07-3.11-.21-.35,0-.67-.41-1-.66-2.42-1.94-4.79-3.94-7.26-5.81-3.14-2.37-4.8-5.11-2.78-9.06,0-.09-.1-.28-.12-.33-7.61-1.24-15,.16-22.19,2.16-3.68,1-6.49.44-9.09-2.18a5.2,5.2,0,0,0-5.3-1.37c-1.23.32-2.47.66-3.67,1.09a11.92,11.92,0,0,1-9.22-.35,19.64,19.64,0,0,0-8.66-1.71c-3.84.26-7.64,1.47-11.4,2.49a17.32,17.32,0,0,1-13.09-1.72,15,15,0,0,0-8.83-1.9c-10.47.89-20,4.38-29.19,9.23A87.64,87.64,0,0,1,18.73,24.3c-2.67.92-4.77,1.42-4.29,4.87.09.71-.47,1.51-.69,2.28-.52,1.81-.12,3,2,3.18.68,0,1.36.11,2.2.19-.58,1.42-1.12,2.65-1.59,3.91C14,45,11.71,51.34,9.44,57.67A6,6,0,0,0,9.12,60c.26,4.48.55,9,.92,13.43a18.9,18.9,0,0,0,.89,4.93c1.82,4.91,3.36,9.84,2.74,15.19,0,.06.23.15.56.34.47-.93.89-1.87,1.41-2.75,1.27-2.12,2.49-4.28,3.93-6.28s3.47-2.36,4.7-1a72.87,72.87,0,0,1,5.31,7,13.3,13.3,0,0,1,1.11,3.22l.85.06a17,17,0,0,0,1.26-3.85A67.06,67.06,0,0,0,33,81.51a6.81,6.81,0,0,1,3.19-6.28c1.94-1.39,4-2.66,5.92-4s2.37-3.22,2-5.45c-.55-3.21-2.43-5.41-4.87-7.41-4.26-3.49-4.27-7-.33-10.63a13.67,13.67,0,0,0,4-6.28C44,36.67,51.44,31.53,55,27.62Z" style="fill:#ffde17"/><path d="M104.92,220.69c-.81,10.47-1.61,20.94-2.49,31.4-.06.73-.74,1.41-1.14,2.11-.72-.56-1.74-1-2.11-1.71-1-1.85-1.68-3.75-.62-6,2-4.07.71-7.75-1.52-11.35a68.88,68.88,0,0,1-5-9.22,7.5,7.5,0,0,1,.07-4.88,50.08,50.08,0,0,1,3.52-7.63,2.91,2.91,0,0,1,2.09-1.16C102.2,212,104.64,215,104.92,220.69Z" style="fill:#ffde17"/><path d="M57.14,242c.22,3.46.07,6.9-3.08,9.08-1,.66-2.76,1.08-3.66.61A89.67,89.67,0,0,1,39.13,245c-3.2-2.29-3.05-4.15-.87-7.49,2.43-3.72,5.59-5.27,9.93-4.29,1.48.33,3,.5,4.44.89,3.68,1,4.4,1.92,4.5,5.69C57.15,240.53,57.14,241.25,57.14,242Z" style="fill:#ffde17"/><path d="M132.82,213.85c.85-2.46,1.8-5.29,2.83-8.09a1.32,1.32,0,0,1,1-.74c.32,0,.75.55.85.93.83,3.16,1.64,6.32,2.36,9.51.49,2.19-1.1,5.31-3.14,5.82a2.73,2.73,0,0,1-2.35-1.27A46.37,46.37,0,0,1,132.82,213.85Z" style="fill:#ffde17"/><path d="M149.45,163.48c-.18,3.15-.48,5.78-.46,8.4,0,3.77.36,7.54.41,11.3a27.43,27.43,0,0,1-.5,5.27,11.63,11.63,0,0,1-1.37,2.66C145.27,183.25,146.33,166.94,149.45,163.48Z" style="fill:#ffde17"/><path d="M77,241.57c-2.22-2.12-.24-13.36,3-16.76a3.4,3.4,0,0,1,2.17,3.5C82.05,233,80,237,77.71,241A3,3,0,0,1,77,241.57Z" style="fill:#ffde17"/><path d="M121.51,246.23c-.53,1.62-.94,3.26-1.59,4.8-.48,1.12-1.31,1.26-2.21.25-2-2.23-4.21-7.21-1.54-10.81a4.23,4.23,0,0,1,2.42-1.46c.29-.06,1,1.19,1.29,1.93C120.5,242.65,121,244.42,121.51,246.23Z" style="fill:#ffde17"/><path d="M75.18,204.22c0,3.67-2.13,6.25-5.56,6.68a1.47,1.47,0,0,1-1.07-.3c-2.18-1.85-1.72-6.74.77-8.19a16.94,16.94,0,0,1,1.71-.84C74,200.21,75.18,201,75.18,204.22Z" style="fill:#ffde17"/><path d="M130.22,234.25c-1.88-3.54-1.37-7.06-1.06-10.51a9.83,9.83,0,0,1,1.13-3.82c.73-1.31,1.87-1.12,2.62.11,1.7,2.82.7,11.14-1.58,13.53A7.38,7.38,0,0,1,130.22,234.25Z" style="fill:#ffde17"/><path d="M85.47,174.29c-.08.23-.11.82-.42,1.09-2.13,1.89-4.31,3.74-6.55,5.51-.24.19-1.13-.07-1.4-.4a2.08,2.08,0,0,1-.48-1.66,24,24,0,0,1,1.45-2.74,6.29,6.29,0,0,0,1-2.62c-.08-1.89.3-3.2,2.44-3.2A4.54,4.54,0,0,1,85.47,174.29Z" style="fill:#ffde17"/><path d="M47.62,210.17a4.17,4.17,0,0,1-3.95,4c-1.83,0-2.67-1.42-2.63-4.54,0-1.78.31-3.56,2.45-3.68A3.89,3.89,0,0,1,47.62,210.17Z" style="fill:#ffde17"/><path d="M78.77,252.33c-2.73-1.94-2.1-7.67,1.47-11,2,1.77,2.12,4.34.57,6.82A40.85,40.85,0,0,0,78.77,252.33Z" style="fill:#ffde17"/><path d="M167.73,202c-2.5-.81-4.72-2.16-5.73-4.76a6,6,0,0,1,.35-5.45l5.85,9.66Z" style="fill:#ffde17"/><path d="M62.13,204.46a6.22,6.22,0,0,1-.18-5.83c.17-.36.76-.82,1-.75a2.07,2.07,0,0,1,1.23,1C64.89,200.14,63.79,203.26,62.13,204.46Z" style="fill:#ffde17"/><path d="M58.43,159.5c1.83,3.52,1.53,5.14-.61,6a1.8,1.8,0,0,1-1.48-.05A1.46,1.46,0,0,1,56,164C56.63,162.64,57.43,161.33,58.43,159.5Z" style="fill:#ffde17"/><path d="M42.84,41.42a13.67,13.67,0,0,1-4,6.28c-3.94,3.59-3.93,7.14.33,10.63,2.44,2,4.32,4.2,4.87,7.41.38,2.23-.09,4.11-2,5.45s-4,2.65-5.92,4A6.81,6.81,0,0,0,33,81.51a67.06,67.06,0,0,1-.18,8.85,17,17,0,0,1-1.26,3.85l-.85-.06a13.3,13.3,0,0,0-1.11-3.22,72.87,72.87,0,0,0-5.31-7c-1.23-1.41-3.32-1-4.7,1S16.91,89,15.64,91.12c-.52.88-.94,1.82-1.41,2.75-.33-.19-.57-.28-.56-.34.62-5.35-.92-10.28-2.74-15.19A18.9,18.9,0,0,1,10,73.41c-.37-4.47-.66-9-.92-13.43a6,6,0,0,1,.32-2.31C11.71,51.34,14,45,16.35,38.73c.47-1.26,1-2.49,1.59-3.91-.84-.08-1.52-.15-2.2-.19-2.11-.14-2.51-1.37-2-3.18.22-.77.78-1.57.69-2.28-.48-3.45,1.62-4,4.29-4.87a87.64,87.64,0,0,0,11.88-5.64c9.19-4.85,18.72-8.34,29.19-9.23a15,15,0,0,1,8.83,1.9,17.32,17.32,0,0,0,13.09,1.72c3.76-1,7.56-2.23,11.4-2.49a19.64,19.64,0,0,1,8.66,1.71,11.92,11.92,0,0,0,9.22.35c1.2-.43,2.44-.77,3.67-1.09A5.2,5.2,0,0,1,120,12.9c2.6,2.62,5.41,3.2,9.09,2.18,7.21-2,14.58-3.4,22.19-2.16,0,.05.16.24.12.33-2,3.95-.36,6.69,2.78,9.06,2.47,1.87,4.84,3.87,7.26,5.81.31.25.63.62,1,.66,1,.14,2.07.15,3.11.21-.1-1.2.23-2.75-.4-3.53-3.17-4-2.34-4,1-7.47,1.95-2.06,2.81-2.34,4.25-1.89-4,5.13-4.31,7-2,10.48s7.42,4,10.06,3.14c3.42-1.06,4.58-3.92,4.28-10.57,4.85,1.32,9.73,2.29,11.93,7.63a3.93,3.93,0,0,1,0,1.45c-.54-.09-1.23,0-1.6-.31-3.22-2.58-6.31-2.85-9.46-.15a118,118,0,0,0-8.45,8.44c-1.73,1.83-1.76,4.13-1,6.34,2.8,7.68,5.7,15.32,8.55,23,.2.52.25,1.1.45,1.62,1,2.74,2.71,3.51,5.54,2.63a9.33,9.33,0,0,1,1.67-.11c-.73,2.32-1.53,4.37-2,6.49a20.69,20.69,0,0,0-.06,4.17,8.13,8.13,0,0,1-.07,2.52,50.71,50.71,0,0,0-2.63,17.05A59.5,59.5,0,0,1,184,112c-.57,2.72-2.19,3.06-4,1a13.7,13.7,0,0,1-3-4.82,87.55,87.55,0,0,0-10-22.59c-3.29-5.22-3.73-11-3.59-16.93a70.55,70.55,0,0,0-2-20.51c-2.18-8-4.66-15.84-10.53-21.87-3.24-3.33-7.18-6-11-8.76-1-.72-2.56-.62-3.88-.9-1.25,2.17,0,3.55,1.2,4.56,6.9,5.57,12,12.61,16.37,20.2,7.19,12.4,8.35,25.94,7.17,39.88a103.78,103.78,0,0,1-8.12,32.34c-1.74,4.06-4.14,7.83-6.29,11.81-2.27-2,.86-5.53-2.94-6.64-.34,8.42-.67,16.48-1,25l-3-5.07-.89.35a15.37,15.37,0,0,0,.22,10.17c.26.71,1.47,1.05,2.55,1.77-1.23,4.9-3.54,9.52-8.7,12-4.14,2-8.29.66-12.35-.47-3.82-1.06-7.52-2.81-11.4-3.33s-8.18.14-12.29.1c-4.29,0-8,1.88-11.88,3.25-7.41,2.6-12.26.35-15.34-6.71-1.59-3.64-2-7.92-2.35-12-.5-5-.11-10.1-.72-15.08-.55-4.44-1.9-8.77-3-13.13-.1-.39-.87-.6-1.34-.89-.29.58-.92,1.22-.82,1.73.48,2.51,1.16,5,1.76,7.46.16.67.27,1.36.53,2.68-5-3.53-8.28-7.46-9.35-13.06a41.63,41.63,0,0,0,3,4.14,34.39,34.39,0,0,0,3.66,3.12l.7-.63-8-12.43-.43.08v3A42.63,42.63,0,0,1,49.16,96.1a150.6,150.6,0,0,1,.18-30.32c.85-7.37,3.46-14.14,6.72-20.71A53,53,0,0,1,66.94,30.56a19.11,19.11,0,0,0,5.57-11.45,4.49,4.49,0,0,0-1.36-3.72,4.08,4.08,0,0,0-3.89.27A156.19,156.19,0,0,0,55,27.62C51.44,31.53,44,36.67,42.84,41.42Zm79.28,92.28c-.15-6-6-11.73-11.29-11.68-4,0-8.13.67-12.14.35-4.76-.39-8.44,1.53-11.62,4.54-1.27,1.2-2.6,3.58-2.25,5,.94,3.81.43,8.29,5,10.79,3.78,2.09,6.91,5.35,10.57,7.7a6.56,6.56,0,0,0,4.91.52,24.68,24.68,0,0,0,6.42-3.33,16.19,16.19,0,0,0,3.87-3.7c1.82-2.43,3.39-5,5-7.6C121.25,135.27,121.84,134.18,122.12,133.7Zm8.52-66.61c-.95-.73-2-1.47-3-2.26-2.35-1.89-4.48-1.41-4.81,1.61a122,122,0,0,0-.71,16.44,5.63,5.63,0,0,0,3,4.12c1.08.4,3.08-1,4.35-2,1.72-1.35,3.31-2.47,5.62-1.72a19.85,19.85,0,0,0,3.5.76c1.73.25,3.54.64,4.89-1,1.57-1.91,3.49-3.66,4.54-5.83.9-1.88,3.23-4.26.11-6.42-.17-.12-.23-.42-.31-.65A13.52,13.52,0,0,0,144,63.81c-3.45-3-6-3.41-9.43-.41C133.24,64.52,132,65.75,130.64,67.09ZM68.06,63.81c-1.21.69-1.93,1.2-2.72,1.55-1.61.7-3.27,1.27-4.87,2a2.75,2.75,0,0,0-1.67,3.9,47,47,0,0,0,2.54,6.45A117.83,117.83,0,0,0,69,89.84c2.82,3.79,6.35,3.51,8.78-.57a42.91,42.91,0,0,0,4-8.9c2.46-7.9-.53-15.32-7.57-19.23A32.44,32.44,0,0,0,77,57.08c.41-.79.62-2.28.17-2.8a5.32,5.32,0,0,0-3-1.17,4.59,4.59,0,0,0-2.06.52c-3.09,1.14-3.41,2.07-1.59,4.62A32.21,32.21,0,0,0,66.3,59.6c-1.86.89-1.83,2.34,0,3.42A16.75,16.75,0,0,0,68.06,63.81ZM28.81,52.13l-.3-.16c-.24-1.74-.12-3.63-.78-5.18-1.44-3.4-3.56-4.33-6.09-2.48a22.32,22.32,0,0,0-5.37,5.34c-3.49,5.13-3,11-2,16.72a15.56,15.56,0,0,0,2.37,5.08c.41.68,1.81,1.54,2.15,1.32a5.5,5.5,0,0,0,1.88-2.51,8,8,0,0,0,.16-2.38,6,6,0,0,1,3.08-4.83,6.89,6.89,0,0,0,2.84-2.95A70.64,70.64,0,0,0,28.81,52.13Zm.4-13.32c.46,3.13,2.55,4.43,4.94,3.11,3.3-1.82,4.76-4.87,5.41-8.38a2.47,2.47,0,0,0-.89-2,2.34,2.34,0,0,0-2.11,0A21.3,21.3,0,0,0,32,34.66,24.86,24.86,0,0,0,29.21,38.81ZM174.78,95.52l.69,0a21,21,0,0,0,3.69-10.65c.13-1.71-.58-2.68-2.49-2.7-2.5,0-3.56,1.82-4.85,3.41-1.87,2.31-1.34,3.87,1.56,4.25,1.43.19,1.68.7,1.44,2A21.83,21.83,0,0,0,174.78,95.52ZM139.1,93.07a49,49,0,0,0-3.26-6.13c-1-1.35-2.71-.87-2.71.71a24.11,24.11,0,0,0,1.14,7.09c.3,1,1.83,1.51,2.81,2.24ZM71.41,158.61l.68-.14c.82-1.6,1.66-3.19,2.45-4.81a3.07,3.07,0,0,0,.54-1.73c-.75-3.13-1.64-6.23-2.48-9.35l-.6,0a13.82,13.82,0,0,0,0,3.22,13.43,13.43,0,0,1-.65,8.39C70.89,155.44,71.37,157.11,71.41,158.61Zm51-50c-1.21,3.9,1.83,11.61,4.85,12.31C126.72,116.33,126.12,112,122.41,108.57ZM58.1,10.74c-2.47,0-4.9,1.82-4.51,3.35a4.58,4.58,0,0,0,2.58,2.51c1,.42,3.44-2.75,3.16-4.16C59.19,11.69,58.37,11.09,58.1,10.74ZM80,102.35c-1.56,1.94-2.09,5.1-.93,6.81.28.42,1.64.71,1.85.48C82.43,107.93,81.84,103.82,80,102.35Zm1.51,17.45c-2.6,1.51-4,7.09-2.61,10C80.82,126.7,81.36,123.57,81.52,119.8Zm-5.4,27.28c.27-.57.66-1,.63-1.4-.08-1.45-.3-2.89-.46-4.34-.61.22-1.76.48-1.75.66a38.3,38.3,0,0,0,.69,4.63C75.26,146.77,75.63,146.84,76.12,147.08Zm9.09-27.88.85.48L87.89,116c-.43-.21-1-.7-1.27-.59C84.76,116.13,85,117.67,85.21,119.2Z" style="fill:#ffde17"/><path d="M122.12,133.7c-.28.48-.87,1.57-1.53,2.6-1.64,2.56-3.21,5.17-5,7.6a16.19,16.19,0,0,1-3.87,3.7,24.68,24.68,0,0,1-6.42,3.33,6.56,6.56,0,0,1-4.91-.52c-3.66-2.35-6.79-5.61-10.57-7.7-4.54-2.5-4-7-5-10.79-.35-1.43,1-3.81,2.25-5,3.18-3,6.86-4.93,11.62-4.54,4,.32,8.09-.31,12.14-.35C116.1,122,122,127.72,122.12,133.7Zm-30,5.41c2.63,2.14,5,2.31,6.49.73a4.8,4.8,0,0,0-.16-6.15c-.47-.5-1.34-.6-2-.88-.19.6-.34,1.22-.57,1.8a13.3,13.3,0,0,1-1.38,3A8.36,8.36,0,0,1,92.11,139.11Zm21.67.45c-.48-1.93-.82-3.35-1.19-4.77s-1.74-1.94-2.7-1.23a4.48,4.48,0,0,0-1.49,3.18,3.29,3.29,0,0,0,1.71,2.43C111.15,139.65,112.5,139.46,113.78,139.56Z" style="fill:#ffde17"/><path d="M130.64,67.09c1.4-1.34,2.6-2.57,3.89-3.69,3.47-3,6-2.56,9.43.41a13.52,13.52,0,0,1,3.93,6.34c.08.23.14.53.31.65,3.12,2.16.79,4.54-.11,6.42-1.05,2.17-3,3.92-4.54,5.83-1.35,1.64-3.16,1.25-4.89,1a19.85,19.85,0,0,1-3.5-.76c-2.31-.75-3.9.37-5.62,1.72-1.27,1-3.27,2.39-4.35,2a5.63,5.63,0,0,1-3-4.12,122,122,0,0,1,.71-16.44c.33-3,2.46-3.5,4.81-1.61C128.66,65.62,129.69,66.36,130.64,67.09Z" style="fill:#ffde17"/><path d="M68.06,63.81A16.75,16.75,0,0,1,66.25,63c-1.78-1.08-1.81-2.53,0-3.42a32.21,32.21,0,0,1,4.27-1.35c-1.82-2.55-1.5-3.48,1.59-4.62a4.59,4.59,0,0,1,2.06-.52,5.32,5.32,0,0,1,3,1.17c.45.52.24,2-.17,2.8a32.44,32.44,0,0,1-2.86,4.06c7,3.91,10,11.33,7.57,19.23a42.91,42.91,0,0,1-4,8.9c-2.43,4.08-6,4.36-8.78.57a117.83,117.83,0,0,1-7.61-12.15,47,47,0,0,1-2.54-6.45,2.75,2.75,0,0,1,1.67-3.9c1.6-.71,3.26-1.28,4.87-2C66.13,65,66.85,64.5,68.06,63.81Z" style="fill:#ffde17"/><path d="M28.81,52.13a70.64,70.64,0,0,1-2.09,8,6.89,6.89,0,0,1-2.84,2.95,6,6,0,0,0-3.08,4.83,8,8,0,0,1-.16,2.38,5.5,5.5,0,0,1-1.88,2.51c-.34.22-1.74-.64-2.15-1.32a15.56,15.56,0,0,1-2.37-5.08c-1-5.74-1.46-11.59,2-16.72a22.32,22.32,0,0,1,5.37-5.34c2.53-1.85,4.65-.92,6.09,2.48.66,1.55.54,3.44.78,5.18Z" style="fill:#ffde17"/><path d="M29.21,38.81A24.86,24.86,0,0,1,32,34.66a21.3,21.3,0,0,1,4.52-3.13,2.34,2.34,0,0,1,2.11,0,2.47,2.47,0,0,1,.89,2c-.65,3.51-2.11,6.56-5.41,8.38C31.76,43.24,29.67,41.94,29.21,38.81Z" style="fill:#ffde17"/><path d="M58.1,10.74c.27.35,1.09.95,1.23,1.7.28,1.41-2.14,4.58-3.16,4.16a4.58,4.58,0,0,1-2.58-2.51C53.2,12.56,55.63,10.71,58.1,10.74Z" style="fill:#ffde17"/></g><g id="Layer_10" data-name="Layer 10"><path d="M95.77,131.54c-.17,1.1-.26,2.25-.52,3.34l.64-1.1-.11.13,1.11-.64c.92,0,1.13,0,.63-.05l-.43-.07A2.57,2.57,0,0,0,94,134.9c-.27,1.19.37,2.86,1.75,3.07a7.15,7.15,0,0,0,2,.19,2.74,2.74,0,0,0,2.31-1.95,31.33,31.33,0,0,0,.52-3.34,2.58,2.58,0,0,0-1.75-3.08c-1.19-.27-2.87.37-3.07,1.75Z" style="fill:#fff"/><path d="M94.16,133.92l-.48.25c-.25.12-.22.1.1,0l-.26.09a8.71,8.71,0,0,1-1.14.31,2.52,2.52,0,0,0-1.74,3.08,2.55,2.55,0,0,0,3.07,1.74,10.63,10.63,0,0,0,3-1.12,2.52,2.52,0,0,0,.89-3.42,2.55,2.55,0,0,0-3.42-.9Z" style="fill:#fff"/><path d="M106.71,131.34a6.5,6.5,0,0,0,.66,3.88,12.62,12.62,0,0,0,3,2.9,2.57,2.57,0,0,0,3.54,0,2.53,2.53,0,0,0,0-3.54,12.09,12.09,0,0,1-2.21-1.87c-.18-.27-.07-.13-.06-.09a4,4,0,0,1,0-1.28,2.51,2.51,0,0,0-2.5-2.5,2.56,2.56,0,0,0-2.5,2.5Z" style="fill:#fff"/></g><g id="Layer_7" data-name="Layer 7"><path d="M130.17,159.11l.12-.19C130.32,158.77,130.22,158.77,130.17,159.11Z" style="fill:#fff"/><path d="M172.05,203.56c-.34-.53-.69-1.06-1-1.59a.22.22,0,0,1,.1-.32c-.21-.45-.4-.91-.59-1.37-.09-.21.17-.33.34-.24-.13-.32-.25-.64-.39-.95-.49-.88-1-1.77-1.44-2.66a.22.22,0,0,1-.35,0l-.38-.67c.48,1.7,1,3.39,1.51,5,1,2.82,2.28,6,4.39,8.19a32.23,32.23,0,0,1-2.08-5.2Z" style="fill:#fff"/><path d="M186.92,233.51c-2.83-6.72-5.73-13.4-8.75-20l-.08,0a11.73,11.73,0,0,1-3-3.13,12,12,0,0,1-.94-.82c-2.87-2.85-4.24-7-5.43-10.76-.46-1.46-.87-3-1.31-4.49a11.24,11.24,0,0,1-.85-1.27,26.48,26.48,0,0,1-3.17-4.74.24.24,0,0,1,.17-.34c-.27-.34-.55-.68-.83-1s.14-.55.33-.33l.86,1.05c-.1-.18-.2-.35-.29-.53a.2.2,0,0,1,0-.28c-.16-.2-.32-.41-.48-.6s.13-.56.33-.33l.25.31-.35-.67a22.22,22.22,0,0,0-4-3.21,12.69,12.69,0,0,0,.31-3.33c-.19-4.28-1.59-8.71-4.83-11.68a21.83,21.83,0,0,0-2.41-1.92,19.5,19.5,0,0,0-.53-6.2,7.35,7.35,0,0,0,.2-2.1c0-.23,0-.46-.06-.68a8,8,0,0,0,.27-1.39,7.84,7.84,0,0,0,.72-3.63,9.89,9.89,0,0,0-1.63-5.05,242.07,242.07,0,0,0,1.65-31,9.09,9.09,0,0,0-17.82-2.41c-2.6,9-4.94,18.33-5.16,27.79a51.92,51.92,0,0,0,1.59,14.16c0,.09,0,.18.07.27q-.33,1.18-.72,2.37c0,.07,0,.12-.05.17l-.13.24c-.15.26-.29.54-.44.8l-.15.25a.83.83,0,0,1-.13.28s0-.06,0-.09a3,3,0,0,1-.19.3.2.2,0,0,1-.06.07l-.49.48-.28.16c-.15,0-.73.14-1,.21H128c-.69,0-1.37,0-2.06-.06l-1-.09-.33,0-3.06-.49c-2.39-.39-4.78-.75-7.17-1.1-9.31-1.32-18.68-2.43-28.11-2.17a102.45,102.45,0,0,0-12.85,1.18,33.56,33.56,0,0,0,2.13-14.41c.27-2.64.45-5.29.52-7.94a8.9,8.9,0,0,0-3-6.62c.17-.43.26-.68-.06,0v0c1.94-4.19,1-9.77-3.41-12.09-4.13-2.18-10.12-1.26-12.41,3.26A19.82,19.82,0,0,0,54.85,131a47.23,47.23,0,0,0,.9,5.21,15.23,15.23,0,0,0-.54,2.19,45.85,45.85,0,0,0-.6,6.3c0,.85-.11,1.73-.1,2.58,0,.26,0,.43,0,.53l-.06.34c-1.19,5.92-3.89,11.25-5,17.07a8.73,8.73,0,0,0-4.35,7.68,7.47,7.47,0,0,0,.11,1.06,13.21,13.21,0,0,0-1.54,3.74c-.1.44-.18.88-.26,1.33-4.83,5.6-7.77,12.33-10.61,19.13l-.31.69-.1.1c-4.71,5.08-8.5,10.23-10.77,16.84-.28.83-.54,1.66-.8,2.49-2.27,2.91-4.54,5.82-6.64,8.85a73.12,73.12,0,0,0-7.22,13.84,11.53,11.53,0,0,0-.61,5.17,22.29,22.29,0,0,0-.56,5.75c.16,4.74,4.06,9.3,9.07,9.08a9.28,9.28,0,0,0,1.89-.28,15,15,0,0,0,1.75.6,124.93,124.93,0,0,0,19.15,3.86c5.68.63,11.17-.18,16.74-1.06a30.29,30.29,0,0,1,4.26,0c4.42.71,8.85,1.44,13.34,1.08,4.31-.35,8.61-.93,12.91-1.42L110,260.9c8.4-.94,16.81-1.85,25.2-2.95,8.71-1.14,17.34-2.75,26-4a37.9,37.9,0,0,1,5-.18l.43.1a16.8,16.8,0,0,0,16.07-4.25C186.42,245.83,189.12,238.74,186.92,233.51Z" style="fill:#fff"/><path d="M176,209.61a31.62,31.62,0,0,1-2.64-3.75,20.14,20.14,0,0,0,2,4.07,7.74,7.74,0,0,0,1,.64Q176.18,210.08,176,209.61Z" style="fill:#fff"/><path d="M164.75,189.64a.18.18,0,0,1,0-.16l-.67-.89a22.67,22.67,0,0,0,1.32,2.11C165.17,190.35,165,190,164.75,189.64Z" style="fill:#fff"/><path d="M185.42,86.69a9.22,9.22,0,0,0-9.07-9.07c-4.75,0-9.29,4.17-9.07,9.07a9.23,9.23,0,0,0,9.07,9.07C181.1,95.76,185.64,91.59,185.42,86.69Z"/><path d="M143.08,91.81A9.24,9.24,0,0,0,134,82.73c-4.75,0-9.3,4.18-9.08,9.08a9.24,9.24,0,0,0,9.08,9.07C138.75,100.88,143.3,96.71,143.08,91.81Z"/><path d="M137,113.44a9.23,9.23,0,0,0-9.07-9.07c-4.75,0-9.3,4.17-9.08,9.07a9.24,9.24,0,0,0,9.08,9.08C132.7,122.52,137.25,118.34,137,113.44Z"/><path d="M94.92,112.05a9.6,9.6,0,0,0-4.72-7.94,9.17,9.17,0,0,0-9-8.35c-4.74,0-9.29,4.18-9.07,9.08A9.66,9.66,0,0,0,76,112.19,9,9,0,0,0,70,120.66a9.23,9.23,0,0,0,9.07,9.07c4.7,0,9.21-4.1,9.08-8.94C92,119.71,95.1,116.13,94.92,112.05Z"/><path d="M87.48,144.39a9.24,9.24,0,0,0-9.08-9.08c-4.74,0-9.29,4.18-9.07,9.08a9.23,9.23,0,0,0,9.07,9.07C83.15,153.46,87.7,149.29,87.48,144.39Z"/></g><g id="Layer_6" data-name="Layer 6"><path d="M90.67,158.35A210.1,210.1,0,0,0,101.91,180a18.35,18.35,0,0,0,20.76,8h0A11.59,11.59,0,0,0,131,177.36c.54-13.4-1.24-37.12-1.24-37.12" style="fill:#ec008c;stroke:#000;stroke-miterlimit:10;stroke-width:3px"/></g><g id="Layer_5" data-name="Layer 5"><path d="M81.92,161.58a13.93,13.93,0,0,1-13.67-9.78c-2.41-7.12-2.34-14.45-2.31-21.8a4.42,4.42,0,0,0-2.31-4.36A50.82,50.82,0,0,1,57.89,121c-.37,3.89-.8,7.6-1.07,11.33A108.62,108.62,0,0,1,48,166.75c-3.72,8.75-7.43,17.55-11.93,25.9-5.73,10.61-12.34,20.74-18.4,31.18-3.6,6.22-7.13,12.57-8.56,19.71a36,36,0,0,0-.28,9.68c.19,2.52-1.69,1.68-2.73,2.18s-1.82.2-2.12-1.17a24,24,0,0,1,1.3-14.75c4.07-9.59,9.67-18.29,15.33-27,7-10.75,13.79-21.68,19.84-33,6.39-11.94,11.31-24.63,13.21-38.17.87-6.25.49-12.66,1.23-18.93.68-5.72-1.62-10.64-3.3-15.7-2.63-7.91-3.27-16-3.29-24.24v-7c-2.53,3.82-4.61,7.29-7,10.51-5,6.6-10,13.18-15.27,19.52-2.14,2.55-5.09,4.22-8.86,3.36s-5.93-3.36-5.31-7.27c.4-2.49,1.46-4.87,2.08-7.34,1.6-6.33-.06-12.23-2.48-18C8,67.85,5.09,59.35,4.52,50.31A62.94,62.94,0,0,1,5,35.59C6.12,29,11.4,25.92,17.36,24.45c5.38-1.32,10-4.05,14.83-6.47,9.23-4.62,18.72-8.42,29.24-9.13A13.88,13.88,0,0,1,70.19,11c3.7,2.35,7.67,2.54,11.77,1.52,2.78-.69,5.49-1.61,8.27-2.3a16.39,16.39,0,0,1,12.1,1.56,8.36,8.36,0,0,0,6.83.64c3.21-.92,6.41-2.62,9.85-.72.47.26,1.12.36,1.43.75,2.4,3,5.27,2.53,8.54,1.66,14.88-3.94,29.54-2.46,44,2.23,5.07,1.64,10.21,3.08,15.24,4.85A8.17,8.17,0,0,1,192.07,24a57.27,57.27,0,0,1,5.61,9.58,17.34,17.34,0,0,1,1,7c-.08,10.48-4,20.14-6.88,30q-2.06,6.9-4.45,13.69c-1.76,5-1.5,10.19-1.73,15.37a51.59,51.59,0,0,1-1.4,10.29A6.49,6.49,0,0,1,181,114c-1.9.71-3.68-.8-5.06-2.46-2.8-3.35-3.17-7.67-4.86-11.44-2.75-6.15-5.92-12.12-8.91-18.16l-.69.2c-.54,3.07-1,6.16-1.65,9.2-1,4.76-2.51,9.44-3.24,14.24-1.15,7.54-2.11,15.14-2.63,22.75s-1.05,15.18-.41,22.68c1,11.79,4.79,23,9.81,33.68,4.8,10.2,10.21,20.11,15.38,30.14,3,5.76,6,11.46,8.94,17.26a47,47,0,0,1,2.24,6.08,4.42,4.42,0,0,1,0,1.41l-.59.18a37.23,37.23,0,0,1-1.9-3.72c-3.27-8.61-8.78-16-13.39-23.82-3.29-5.61-6.53-11.27-9.28-17.15-3.14-6.7-5.73-13.66-8.55-20.51-.32-.77-.58-1.56-.86-2.31-3.48.73-5.35-.86-4.59-4.11a54.9,54.9,0,0,0,.95-16.49c-.87-12.38.24-24.72,2-37,.1-.73.11-1.47.17-2.27-3,4.8-6,9.43-8.86,14.17a9.42,9.42,0,0,0-.91,3.77c-.51,5.23-.74,10.5-1.42,15.71-.94,7.23-4.38,13.2-11.5,15.48M56.72,28.59A150.77,150.77,0,0,1,68.65,17.08a4,4,0,0,1,3.78-.26,4.33,4.33,0,0,1,1.32,3.58,18.36,18.36,0,0,1-5.41,11,51.25,51.25,0,0,0-10.55,14c-3.17,6.32-5.69,12.84-6.52,19.93a143,143,0,0,0-.17,29.18,40.7,40.7,0,0,0,3.62,14.27V105.9l.41-.08,7.71,12-.68.6a35.29,35.29,0,0,1-3.55-3,42.89,42.89,0,0,1-2.91-4c1,5.39,4.23,9.17,9.07,12.57-.25-1.28-.36-1.93-.51-2.58-.58-2.39-1.24-4.77-1.71-7.18-.09-.49.52-1.11.8-1.67.45.28,1.21.49,1.3.86,1.06,4.19,2.37,8.37,2.89,12.63.6,4.8.23,9.7.7,14.52.39,3.89.74,8,2.28,11.51,3,6.8,7.7,9,14.89,6.46,3.78-1.32,7.36-3.15,11.53-3.12,4,0,8-.62,11.91-.1s7.35,2.19,11.06,3.21c3.94,1.08,8,2.4,12,.45,5-2.43,7.24-6.87,8.43-11.59-1.05-.69-2.22-1-2.47-1.7a14.69,14.69,0,0,1-.22-9.79l.87-.34,3,4.89c.34-8.22.66-16,1-24.08,3.68,1.07.65,4.51,2.85,6.39,2.08-3.83,4.41-7.46,6.1-11.37a99.35,99.35,0,0,0,7.88-31.12c1.14-13.42,0-26.45-7-38.38-4.27-7.3-9.19-14.08-15.88-19.44-1.21-1-2.37-2.3-1.16-4.38,1.27.26,2.8.16,3.76.85,3.67,2.66,7.49,5.23,10.64,8.44,5.69,5.8,8.09,13.37,10.21,21a67.77,67.77,0,0,1,2,19.75c-.14,5.69.28,11.26,3.48,16.28a84,84,0,0,1,9.7,21.74,13,13,0,0,0,3,4.64c1.75,2,3.33,1.65,3.87-1a55.86,55.86,0,0,0,1.55-11.68A48.47,48.47,0,0,1,186,81.74a7.85,7.85,0,0,0,.07-2.43,19.84,19.84,0,0,1,.06-4c.44-2,1.22-4,1.93-6.24a9,9,0,0,0-1.62.1c-2.75.85-4.38.1-5.38-2.53-.19-.5-.24-1.06-.43-1.56C177.82,57.7,175,50.35,172.29,43c-.78-2.13-.76-4.35.92-6.11a114.32,114.32,0,0,1,8.21-8.12c3-2.59,6.05-2.33,9.17.15.36.29,1,.21,1.55.29a3.83,3.83,0,0,0,0-1.39c-2.14-5.14-6.87-6.07-11.57-7.34.29,6.4-.83,9.15-4.15,10.17-2.56.8-7.63.21-9.76-3s-1.95-5.15,2-10.09c-1.4-.43-2.23-.16-4.12,1.82-3.23,3.38-4,3.37-1,7.19.6.75.28,2.24.38,3.39-1,0-2-.06-3-.19-.34-.05-.65-.4-1-.64-2.34-1.86-4.64-3.79-7-5.59-3-2.28-4.65-4.92-2.7-8.72,0-.09-.09-.27-.11-.32-7.39-1.19-14.53.16-21.53,2.08-3.57,1-6.29.42-8.81-2.09a5.07,5.07,0,0,0-5.15-1.32c-1.19.31-2.39.63-3.56,1a11.63,11.63,0,0,1-8.94-.33,19,19,0,0,0-8.4-1.64c-3.73.24-7.41,1.41-11,2.39A16.91,16.91,0,0,1,70,12.91a14.75,14.75,0,0,0-8.57-1.83C51.26,11.94,42,15.3,33.1,20a82.89,82.89,0,0,1-11.53,5.43c-2.58.89-4.62,1.37-4.16,4.69.1.69-.44,1.46-.66,2.2-.51,1.73-.12,2.92,1.93,3l2.14.18c-.57,1.37-1.09,2.56-1.55,3.77-2.25,6.07-4.5,12.14-6.7,18.22a5.85,5.85,0,0,0-.31,2.23c.25,4.31.53,8.62.89,12.92A18.44,18.44,0,0,0,14,77.4c1.77,4.73,3.26,9.47,2.66,14.61,0,.06.23.15.54.33.46-.89.86-1.8,1.37-2.64,1.24-2,2.42-4.12,3.82-6s3.36-2.26,4.55-.91a69.49,69.49,0,0,1,5.15,6.78,12.21,12.21,0,0,1,1.08,3.1l.82,0A16.32,16.32,0,0,0,35.23,89a63.6,63.6,0,0,0,.17-8.51,6.52,6.52,0,0,1,3.1-6c1.88-1.34,3.84-2.57,5.74-3.89a4.84,4.84,0,0,0,1.93-5.25c-.54-3.09-2.36-5.21-4.73-7.13-4.13-3.36-4.13-6.77-.32-10.23a13,13,0,0,0,3.85-6C46.12,37.3,53.31,32.35,56.72,28.59Z"/><path d="M105.19,214.39c-.79,10.07-1.57,20.15-2.42,30.22-.06.7-.72,1.35-1.1,2-.7-.53-1.69-.93-2.06-1.64-.91-1.78-1.62-3.61-.59-5.73,1.89-3.91.69-7.45-1.47-10.92a64.65,64.65,0,0,1-4.83-8.87,7.22,7.22,0,0,1,.07-4.7,47.82,47.82,0,0,1,3.41-7.34,2.85,2.85,0,0,1,2-1.12C102.55,206,104.91,209,105.19,214.39Z"/><path d="M58.83,234.87c.22,3.32.08,6.64-3,8.73a4.24,4.24,0,0,1-3.55.59,87.07,87.07,0,0,1-10.93-6.41c-3.1-2.2-3-4-.85-7.2,2.36-3.59,5.42-5.07,9.64-4.14,1.43.32,2.89.49,4.31.86,3.57.94,4.26,1.85,4.36,5.48C58.85,233.48,58.83,234.17,58.83,234.87Z"/><path d="M132.25,207.8c.83-2.36,1.75-5.08,2.75-7.78a1.26,1.26,0,0,1,1-.71c.3,0,.72.52.82.89.8,3,1.59,6.09,2.29,9.15.47,2.11-1.07,5.11-3.05,5.61a2.64,2.64,0,0,1-2.27-1.23A42,42,0,0,1,132.25,207.8Z"/><path d="M148.39,159.33c-.19,3-.47,5.56-.45,8.09,0,3.62.34,7.25.39,10.87a26.23,26.23,0,0,1-.48,5.07,10.88,10.88,0,0,1-1.33,2.56C144.32,178.36,145.36,162.66,148.39,159.33Z"/><path d="M78.13,234.49c-2.16-2.05-.24-12.86,2.9-16.13a3.24,3.24,0,0,1,2.11,3.36c-.14,4.54-2.15,8.4-4.35,12.19C78.65,234.15,78.35,234.3,78.13,234.49Z"/><path d="M121.28,239c-.51,1.57-.91,3.14-1.54,4.62-.46,1.09-1.28,1.21-2.15.24-1.92-2.14-4.08-6.93-1.49-10.4a4.14,4.14,0,0,1,2.34-1.4c.28-.06,1,1.14,1.26,1.86C120.3,235.52,120.75,237.22,121.28,239Z"/><path d="M76.34,198.54c0,3.53-2.07,6-5.39,6.43a1.52,1.52,0,0,1-1-.29c-2.12-1.78-1.67-6.49.74-7.89.53-.3,1.1-.55,1.66-.8C75.2,194.68,76.34,195.4,76.34,198.54Z"/><path d="M129.73,227.43c-1.82-3.4-1.33-6.78-1-10.1a9.42,9.42,0,0,1,1.1-3.68c.7-1.26,1.81-1.08,2.53.1,1.66,2.72.69,10.73-1.53,13A6,6,0,0,1,129.73,227.43Z"/><path d="M86.32,169.74c-.08.21-.11.78-.4,1-2.08,1.82-4.19,3.61-6.36,5.31-.23.18-1.1-.07-1.36-.39a2,2,0,0,1-.47-1.6,24.77,24.77,0,0,1,1.41-2.63,6.07,6.07,0,0,0,1-2.52c-.07-1.82.29-3.09,2.37-3.08A4.38,4.38,0,0,1,86.32,169.74Z"/><path d="M49.6,204.27a4,4,0,0,1-3.83,3.82c-1.77,0-2.59-1.36-2.55-4.37,0-1.71.3-3.42,2.38-3.54A3.76,3.76,0,0,1,49.6,204.27Z"/><path d="M79.82,244.84c-2.65-1.88-2-7.39,1.43-10.6,1.91,1.7,2.06,4.18.55,6.56A40,40,0,0,0,79.82,244.84Z"/><path d="M166.11,196.41c-2.42-.78-4.57-2.07-5.55-4.58a5.7,5.7,0,0,1,.34-5.24l5.67,9.29Z"/><path d="M63.68,198.77a5.92,5.92,0,0,1-.17-5.61c.16-.35.73-.79,1-.72a2,2,0,0,1,1.2.92C66.35,194.61,65.29,197.62,63.68,198.77Z"/><path d="M60.09,155.5c1.78,3.39,1.48,4.95-.59,5.73a1.75,1.75,0,0,1-1.44,0,1.44,1.44,0,0,1-.32-1.34C58.35,158.52,59.12,157.26,60.09,155.5Z"/><path d="M45,41.87a13,13,0,0,1-3.85,6c-3.81,3.46-3.81,6.87.32,10.23,2.37,1.92,4.19,4,4.73,7.13a4.84,4.84,0,0,1-1.93,5.25c-1.9,1.32-3.86,2.55-5.74,3.89a6.52,6.52,0,0,0-3.1,6A63.6,63.6,0,0,1,35.23,89,16.32,16.32,0,0,1,34,92.67l-.82,0a12.21,12.21,0,0,0-1.08-3.1A69.49,69.49,0,0,0,27,82.74c-1.19-1.35-3.22-.93-4.55.91s-2.58,4-3.82,6c-.51.84-.91,1.75-1.37,2.64-.31-.18-.55-.27-.54-.33.6-5.14-.89-9.88-2.66-14.61a18.44,18.44,0,0,1-.86-4.75c-.36-4.3-.64-8.61-.89-12.92a5.85,5.85,0,0,1,.31-2.23c2.2-6.08,4.45-12.15,6.7-18.22.46-1.21,1-2.4,1.55-3.77l-2.14-.18c-2.05-.13-2.44-1.32-1.93-3,.22-.74.76-1.51.66-2.2-.46-3.32,1.58-3.8,4.16-4.69A82.89,82.89,0,0,0,33.1,20c8.92-4.66,18.16-8,28.32-8.88A14.75,14.75,0,0,1,70,12.91a16.91,16.91,0,0,0,12.7,1.66c3.64-1,7.32-2.15,11-2.39a19,19,0,0,1,8.4,1.64,11.63,11.63,0,0,0,8.94.33c1.17-.41,2.37-.73,3.56-1a5.07,5.07,0,0,1,5.15,1.32c2.52,2.51,5.24,3.07,8.81,2.09,7-1.92,14.14-3.27,21.53-2.08,0,.05.16.23.11.32-2,3.8-.34,6.44,2.7,8.72,2.4,1.8,4.7,3.73,7,5.59.3.24.61.59,1,.64,1,.13,2,.14,3,.19-.1-1.15.22-2.64-.38-3.39-3.08-3.82-2.28-3.81,1-7.19,1.89-2,2.72-2.25,4.12-1.82-3.92,4.94-4.19,6.74-2,10.09s7.2,3.82,9.76,3c3.32-1,4.44-3.77,4.15-10.17,4.7,1.27,9.43,2.2,11.57,7.34a3.83,3.83,0,0,1,0,1.39c-.53-.08-1.19,0-1.55-.29-3.12-2.48-6.13-2.74-9.17-.15a114.32,114.32,0,0,0-8.21,8.12c-1.68,1.76-1.7,4-.92,6.11,2.72,7.39,5.53,14.74,8.3,22.11.19.5.24,1.06.43,1.56,1,2.63,2.63,3.38,5.38,2.53a9,9,0,0,1,1.62-.1c-.71,2.23-1.49,4.2-1.93,6.24a19.84,19.84,0,0,0-.06,4,7.85,7.85,0,0,1-.07,2.43,48.47,48.47,0,0,0-2.55,16.4,55.86,55.86,0,0,1-1.55,11.68c-.54,2.62-2.12,3-3.87,1a13,13,0,0,1-3-4.64,84,84,0,0,0-9.7-21.74c-3.2-5-3.62-10.59-3.48-16.28a67.77,67.77,0,0,0-2-19.75c-2.12-7.67-4.52-15.24-10.21-21-3.15-3.21-7-5.78-10.64-8.44-1-.69-2.49-.59-3.76-.85-1.21,2.08-.05,3.41,1.16,4.38,6.69,5.36,11.61,12.14,15.88,19.44,7,11.93,8.1,25,7,38.38a99.35,99.35,0,0,1-7.88,31.12c-1.69,3.91-4,7.54-6.1,11.37-2.2-1.88.83-5.32-2.85-6.39-.33,8.1-.65,15.86-1,24.08l-3-4.89-.87.34a14.69,14.69,0,0,0,.22,9.79c.25.68,1.42,1,2.47,1.7-1.19,4.72-3.44,9.16-8.43,11.59-4,1.95-8.05.63-12-.45-3.71-1-7.3-2.71-11.06-3.21s-7.94.13-11.91.1c-4.17,0-7.75,1.8-11.53,3.12-7.19,2.51-11.9.34-14.89-6.46-1.54-3.5-1.89-7.62-2.28-11.51-.47-4.82-.1-9.72-.7-14.52-.52-4.26-1.83-8.44-2.89-12.63-.09-.37-.85-.58-1.3-.86-.28.56-.89,1.18-.8,1.67.47,2.41,1.13,4.79,1.71,7.18.15.65.26,1.3.51,2.58-4.84-3.4-8-7.18-9.07-12.57a42.89,42.89,0,0,0,2.91,4,35.29,35.29,0,0,0,3.55,3l.68-.6-7.71-12-.41.08v2.86A40.7,40.7,0,0,1,51.1,94.49a143,143,0,0,1,.17-29.18c.83-7.09,3.35-13.61,6.52-19.93a51.25,51.25,0,0,1,10.55-14,18.36,18.36,0,0,0,5.41-11,4.33,4.33,0,0,0-1.32-3.58,4,4,0,0,0-3.78.26A150.77,150.77,0,0,0,56.72,28.59C53.31,32.35,46.12,37.3,45,41.87Zm76.9,88.81c-.14-5.76-5.84-11.3-11-11.25-3.93,0-7.89.65-11.78.34-4.61-.37-8.18,1.47-11.27,4.37-1.23,1.15-2.53,3.45-2.18,4.82.91,3.67.42,8,4.82,10.39,3.67,2,6.7,5.15,10.26,7.41a6.46,6.46,0,0,0,4.76.5,24.17,24.17,0,0,0,6.22-3.21,15.7,15.7,0,0,0,3.76-3.56c1.76-2.33,3.28-4.85,4.88-7.31C121,132.18,121.6,131.14,121.87,130.68Zm8.27-64.11c-.93-.7-1.92-1.42-2.88-2.18-2.28-1.81-4.34-1.35-4.66,1.55a114.75,114.75,0,0,0-.69,15.83,5.41,5.41,0,0,0,2.94,4c1,.39,3-1,4.21-1.91,1.68-1.31,3.22-2.38,5.46-1.65a20.58,20.58,0,0,0,3.4.73c1.68.23,3.43.61,4.74-1,1.52-1.84,3.39-3.52,4.4-5.61.88-1.81,3.14-4.1.11-6.18-.17-.11-.23-.4-.3-.62a13.07,13.07,0,0,0-3.81-6.1c-3.35-2.86-5.78-3.28-9.15-.4C132.65,64.1,131.49,65.29,130.14,66.57ZM69.43,63.41a30.31,30.31,0,0,1-2.64,1.49c-1.56.68-3.17,1.23-4.72,1.91a2.65,2.65,0,0,0-1.62,3.76,43.48,43.48,0,0,0,2.46,6.2A112.3,112.3,0,0,0,70.3,88.46c2.73,3.65,6.16,3.38,8.51-.55a40.74,40.74,0,0,0,3.9-8.55c2.38-7.61-.52-14.75-7.34-18.51a33.1,33.1,0,0,0,2.77-3.91c.4-.76.6-2.2.17-2.69a5.21,5.21,0,0,0-2.91-1.13,4.37,4.37,0,0,0-2,.5c-3,1.09-3.31,2-1.55,4.45a28.09,28.09,0,0,0-4.14,1.3c-1.8.86-1.77,2.25,0,3.29A16.26,16.26,0,0,0,69.43,63.41ZM31.36,52.18,31.07,52c-.23-1.67-.12-3.49-.76-5-1.4-3.27-3.45-4.16-5.91-2.38a21.93,21.93,0,0,0-5.21,5.14c-3.38,4.94-3,10.56-2,16.09a14.87,14.87,0,0,0,2.3,4.89c.4.65,1.76,1.48,2.09,1.27a5.44,5.44,0,0,0,1.83-2.41,7.86,7.86,0,0,0,.14-2.3,5.76,5.76,0,0,1,3-4.64,6.67,6.67,0,0,0,2.76-2.84A70.88,70.88,0,0,0,31.36,52.18Zm.39-12.82c.44,3,2.47,4.26,4.79,3,3.19-1.75,4.62-4.68,5.25-8.06a2.39,2.39,0,0,0-.87-2,2.31,2.31,0,0,0-2.05,0,20.88,20.88,0,0,0-4.38,3A23.55,23.55,0,0,0,31.75,39.36ZM173,93.93l.67,0a20.06,20.06,0,0,0,3.58-10.25c.13-1.65-.56-2.58-2.41-2.6-2.43,0-3.46,1.76-4.71,3.29-1.81,2.21-1.3,3.72,1.51,4.09,1.39.18,1.64.67,1.41,2A20.17,20.17,0,0,0,173,93.93Zm-34.61-2.36a48.21,48.21,0,0,0-3.16-5.9c-.93-1.29-2.63-.83-2.63.69a23,23,0,0,0,1.11,6.82c.29.92,1.78,1.45,2.72,2.16ZM72.68,154.64l.66-.13c.8-1.54,1.61-3.07,2.38-4.63.26-.52.64-1.17.52-1.66-.73-3-1.59-6-2.41-9l-.58,0a13.27,13.27,0,0,0,0,3.09,12.83,12.83,0,0,1-.63,8.08C72.18,151.6,72.64,153.2,72.68,154.64Zm49.47-48.15c-1.17,3.76,1.78,11.17,4.71,11.84C126.33,114,125.75,109.77,122.15,106.49ZM59.77,12.34c-2.4,0-4.75,1.76-4.38,3.23A4.43,4.43,0,0,0,57.9,18c1,.4,3.34-2.65,3.07-4C60.82,13.26,60,12.68,59.77,12.34ZM81,100.5c-1.51,1.87-2,4.91-.9,6.56.27.41,1.59.69,1.79.46C83.38,105.87,82.8,101.92,81,100.5Zm1.47,16.8c-2.52,1.45-3.84,6.82-2.54,9.59C81.81,123.93,82.33,120.93,82.49,117.3Zm-5.24,26.25c.27-.55.64-1,.61-1.35-.08-1.39-.29-2.78-.45-4.17-.59.21-1.7.46-1.69.63a37.5,37.5,0,0,0,.67,4.46C76.41,143.25,76.77,143.32,77.25,143.55Zm8.81-26.83.83.46,1.78-3.51c-.42-.2-.94-.68-1.23-.57C85.63,113.77,85.81,115.25,86.06,116.72Z" style="fill:#fff"/><path d="M121.87,130.68c-.27.46-.84,1.5-1.48,2.5-1.6,2.46-3.12,5-4.88,7.31a15.7,15.7,0,0,1-3.76,3.56,24.17,24.17,0,0,1-6.22,3.21,6.46,6.46,0,0,1-4.76-.5c-3.56-2.26-6.59-5.41-10.26-7.41-4.4-2.41-3.91-6.72-4.82-10.39-.35-1.37,1-3.67,2.18-4.82,3.09-2.9,6.66-4.74,11.27-4.37,3.89.31,7.85-.29,11.78-.34C116,119.38,121.73,124.92,121.87,130.68Zm-29.11,5.2c2.55,2.06,4.84,2.22,6.3.7a4.6,4.6,0,0,0-.16-5.92c-.45-.47-1.3-.57-2-.84-.18.58-.33,1.17-.55,1.73A12.72,12.72,0,0,1,95,134.44,8.16,8.16,0,0,1,92.76,135.88Zm21,.43c-.47-1.85-.8-3.22-1.15-4.59s-1.69-1.87-2.62-1.18a4.29,4.29,0,0,0-1.45,3.06,3.17,3.17,0,0,0,1.66,2.34C111.23,136.4,112.54,136.21,113.78,136.31Z"/><path d="M130.14,66.57c1.35-1.28,2.51-2.47,3.77-3.55,3.37-2.88,5.8-2.46,9.15.4a13.07,13.07,0,0,1,3.81,6.1c.07.22.13.51.3.62,3,2.08.77,4.37-.11,6.18-1,2.09-2.88,3.77-4.4,5.61-1.31,1.58-3.06,1.2-4.74,1a20.58,20.58,0,0,1-3.4-.73c-2.24-.73-3.78.34-5.46,1.65-1.23,1-3.17,2.3-4.21,1.91a5.41,5.41,0,0,1-2.94-4,114.75,114.75,0,0,1,.69-15.83c.32-2.9,2.38-3.36,4.66-1.55C128.22,65.15,129.21,65.87,130.14,66.57Z"/><path d="M69.43,63.41a16.26,16.26,0,0,1-1.75-.75c-1.73-1-1.76-2.43,0-3.29a28.09,28.09,0,0,1,4.14-1.3c-1.76-2.46-1.45-3.36,1.55-4.45a4.37,4.37,0,0,1,2-.5,5.21,5.21,0,0,1,2.91,1.13c.43.49.23,1.93-.17,2.69a33.1,33.1,0,0,1-2.77,3.91c6.82,3.76,9.72,10.9,7.34,18.51a40.74,40.74,0,0,1-3.9,8.55c-2.35,3.93-5.78,4.2-8.51.55a112.3,112.3,0,0,1-7.39-11.69,43.48,43.48,0,0,1-2.46-6.2,2.65,2.65,0,0,1,1.62-3.76c1.55-.68,3.16-1.23,4.72-1.91A30.31,30.31,0,0,0,69.43,63.41Z"/><path d="M31.36,52.18a70.88,70.88,0,0,1-2,7.67,6.67,6.67,0,0,1-2.76,2.84,5.76,5.76,0,0,0-3,4.64,7.86,7.86,0,0,1-.14,2.3A5.44,5.44,0,0,1,21.61,72c-.33.21-1.69-.62-2.09-1.27a14.87,14.87,0,0,1-2.3-4.89c-1-5.53-1.41-11.15,2-16.09a21.93,21.93,0,0,1,5.21-5.14c2.46-1.78,4.51-.89,5.91,2.38.64,1.5.53,3.32.76,5Z"/><path d="M31.75,39.36a23.55,23.55,0,0,1,2.74-4,20.88,20.88,0,0,1,4.38-3,2.31,2.31,0,0,1,2.05,0,2.39,2.39,0,0,1,.87,2c-.63,3.38-2.06,6.31-5.25,8.06C34.22,43.62,32.19,42.37,31.75,39.36Z"/><path d="M59.77,12.34c.26.34,1,.92,1.2,1.64.27,1.36-2.08,4.41-3.07,4a4.43,4.43,0,0,1-2.51-2.42C55,14.1,57.37,12.32,59.77,12.34Z"/><path d="M82.38,49.72l0-.89s-11.22-12.53-18.19,2a.53.53,0,0,0,.7.71c4-1.79,16.11-6.73,17.54-1.89"/><path d="M128.54,49.72l.05-.89s11.22-12.53,18.19,2a.53.53,0,0,1-.7.71c-4-1.79-16.11-6.73-17.54-1.89"/><circle cx="72.78" cy="74.82" r="5.08" style="fill:none;stroke:#00aeef;stroke-miterlimit:10;stroke-width:4px"/><circle cx="135.45" cy="75.5" r="5.08" style="fill:none;stroke:#00aeef;stroke-miterlimit:10;stroke-width:4px"/><circle cx="75.48" cy="72.41" r="2.08" style="fill:#e6e7e8"/><circle cx="138.34" cy="72.41" r="2.08" style="fill:#e6e7e8"/></g><g id="Layer_8" data-name="Layer 8"><circle cx="69.53" cy="103.84" r="23.27" style="fill:#f15a29;stroke:#231f20;stroke-miterlimit:10;stroke-width:6px"/><circle cx="139.03" cy="103.1" r="23.27" style="fill:#f15a29;stroke:#231f20;stroke-miterlimit:10;stroke-width:6px"/><path d="M93.06,104.05s11.45-9.74,22.71-1" style="fill:none;stroke:#231f20;stroke-miterlimit:10;stroke-width:8px"/></g></g></svg>