<svg xmlns="http://www.w3.org/2000/svg" viewBox="0 0 164.71 168.84"><title>Asset 1</title><g id="Layer_2" data-name="Layer 2"><g id="Layer_7" data-name="Layer 7"><path d="M100.83,137.65a3.83,3.83,0,0,1-.1-.39c-.06-.25-.13-.6-.19-1a10.73,10.73,0,0,0-.3-1.25l-.11-.33-.12-.3c-.1-.21-.2-.42-.32-.62-.45-.83-1.08-1.66-1.53-2.35a9.61,9.61,0,0,1-.73-1.21,5.67,5.67,0,0,1,1.31.58,6.17,6.17,0,0,1,2.27,2.26,4.93,4.93,0,0,1,.36.85,4.48,4.48,0,0,1,.12.46l.06.42a4.47,4.47,0,0,1-.16,1.53A5.07,5.07,0,0,1,100.83,137.65Z"/><path d="M64.31,129.88s-.14.05-.39.11l-1,.21a10.3,10.3,0,0,0-1.24.32l-.33.12-.3.13c-.2.1-.41.2-.62.32-.81.48-1.63,1.12-2.31,1.59a10.08,10.08,0,0,1-1.2.74,5.67,5.67,0,0,1,.56-1.32,6.07,6.07,0,0,1,2.21-2.31,5.28,5.28,0,0,1,.84-.38,3.5,3.5,0,0,1,.46-.12l.43-.07a4.33,4.33,0,0,1,1.53.12A5.09,5.09,0,0,1,64.31,129.88Z"/><circle cx="132.07" cy="124.8" r="9.55"/><path d="M73.66,110.48s7.52-9.39,15.48,1.4" style="fill:none;stroke:#231f20;stroke-miterlimit:10"/><circle cx="100.4" cy="110.17" r="11.41" style="fill:none;stroke:#231f20;stroke-miterlimit:10"/><circle cx="62.25" cy="108.5" r="11.41" style="fill:none;stroke:#231f20;stroke-miterlimit:10"/><circle cx="33.14" cy="125.12" r="9.55"/><path d="M90.57,89.76c-.53.54-1.1,1-1.57,1.49a5.69,5.69,0,0,0-1.08,1.64c-.57,1.21-.78,2.63-1.27,4a8.3,8.3,0,0,1-.17-2.23A6.32,6.32,0,0,1,87,92.48a4.48,4.48,0,0,1,1.49-1.82A6,6,0,0,1,90.57,89.76Z"/><path d="M74.53,87.71a5.83,5.83,0,0,0,1.58,3,17.37,17.37,0,0,1,2.13,2.82,4.25,4.25,0,0,1,.51,1.83,5.5,5.5,0,0,1-.3,1.86c-.39,1.16-1,2.15-1.37,3.19A33.28,33.28,0,0,0,75.65,107a33.44,33.44,0,0,1-.7,3.42,12.07,12.07,0,0,1-1.43,3.19,14.29,14.29,0,0,0,1-3.3c.21-1.12.32-2.26.42-3.41A25.67,25.67,0,0,1,76.14,100c.43-1.14,1-2.12,1.42-3.14a3.85,3.85,0,0,0,0-3.05A16.91,16.91,0,0,0,75.72,91,5.68,5.68,0,0,1,74.53,87.71Z"/><path d="M86.49,106.59A21.35,21.35,0,0,0,87.71,111c.26.71.54,1.43.79,2.17.13.37.24.75.35,1.13l.14.58c0,.09,0,.2.07.26s0,0,0,.06,0-.1,0-.06.12,0,.09.1-.16,0-.21,0a1.14,1.14,0,0,1-.21-.26l-.34-.49c-.21-.33-.42-.66-.61-1a14.61,14.61,0,0,1-1-2.15,9.36,9.36,0,0,1-.55-2.35A5.46,5.46,0,0,1,86.49,106.59Z"/><path d="M91.09,95.73a4.13,4.13,0,0,1,.26,1.38,3.68,3.68,0,0,1-.26,1.38,1.66,1.66,0,0,1,0-2.76Z"/><path d="M72.71,120.08a1.77,1.77,0,0,1,.91-1.37,2.46,2.46,0,0,1,1.72-.38,1.93,1.93,0,0,1,1.46,1.11,2.37,2.37,0,0,1,.11,1.65,6.65,6.65,0,0,0-.77-1.24,1.62,1.62,0,0,0-1-.54,2.94,2.94,0,0,0-1.23.1A2.86,2.86,0,0,0,72.71,120.08Z"/><path d="M70.89,114c-.21.79-.49,1.53-.69,2.26a5.37,5.37,0,0,0-.2,2.12,6,6,0,0,0,.68,2c.17.33.36.67.56,1s.36.68.76.77c-.43.16-.86-.21-1.14-.46a6.53,6.53,0,0,1-.84-.9,5,5,0,0,1-1-2.34,4.69,4.69,0,0,1,.47-2.53A7.61,7.61,0,0,1,70.89,114Z"/><path d="M90.28,115.74a7,7,0,0,1,.84,2.21,14.54,14.54,0,0,1,.3,2.33,3,3,0,0,1-.29,1.31,3.27,3.27,0,0,1-.81,1,5.2,5.2,0,0,1-2.16,1,17.13,17.13,0,0,0,1.6-1.58,2.66,2.66,0,0,0,.66-1.78c0-.69-.07-1.5-.07-2.24Z"/><path d="M77.8,121.05a1.91,1.91,0,0,0,1.81,1.63,3.28,3.28,0,0,0,1.28-.33,2.1,2.1,0,0,0,.6-.3,3,3,0,0,0,.49-.59,1.65,1.65,0,0,1-.08.87,1.83,1.83,0,0,1-.62.69,2.69,2.69,0,0,1-1.68.66,2.07,2.07,0,0,1-1.68-.9A1.67,1.67,0,0,1,77.8,121.05Z"/><path d="M87.54,121a3.16,3.16,0,0,0-1.41-.67,4.48,4.48,0,0,0-1.44-.12,2,2,0,0,0-1.2.5A5.11,5.11,0,0,0,82.6,122a2.4,2.4,0,0,1,.29-1.79,2.26,2.26,0,0,1,1.7-1,3.26,3.26,0,0,1,1.83.39A2,2,0,0,1,87.54,121Z"/><path d="M84.75,92.13A1.85,1.85,0,0,1,87,90.46a2.86,2.86,0,0,1-.91,1.12A2.9,2.9,0,0,1,84.75,92.13Z"/><path d="M76.42,114A4.54,4.54,0,0,1,78,112.44a4.67,4.67,0,0,1,2.15-.66,5,5,0,0,1,1.16.12A4.16,4.16,0,0,1,83.84,114a11.43,11.43,0,0,0-1.84-.89,4.29,4.29,0,0,0-1.83-.29A9.49,9.49,0,0,0,76.42,114Z"/><path d="M81.53,124.85a2,2,0,0,1,.72,1.22,1.93,1.93,0,0,1-.27,1.4,2,2,0,0,1-.45-2.62Z"/><path d="M78.18,127.63a8.94,8.94,0,0,0,1.65.45,1.31,1.31,0,0,0,.63-.08,8.52,8.52,0,0,0,.86-.37,1.44,1.44,0,0,1-1.57,1.44,1.73,1.73,0,0,1-1.06-.49A1.71,1.71,0,0,1,78.18,127.63Z"/><path d="M39.17,94.9s.24,1.37.47,3.39c.13,1,.25,2.18.39,3.43s.29,2.57.46,3.87c.09.65.2,1.31.3,1.93s.23,1.24.38,1.84.32,1.12.51,1.63a7.52,7.52,0,0,0,.67,1.3,3.63,3.63,0,0,0,.84.86,3.3,3.3,0,0,0,.89.38,2.81,2.81,0,0,0,.67.09H45l-.23.1a2.29,2.29,0,0,1-.7.2,3,3,0,0,1-1.19-.08,3.68,3.68,0,0,1-1.37-.78,7.87,7.87,0,0,1-2-3.18,17,17,0,0,1-.6-2c-.16-.69-.28-1.37-.38-2.06s-.16-1.39-.19-2.07,0-1.35,0-2a30.31,30.31,0,0,1,.23-3.53A216,216,0,0,1,39.17,94.9Z"/><path d="M39.07,109.16s.43,3.31,1.18,8.21c.38,2.45.85,5.3,1.42,8.33.29,1.52.62,3.08,1,4.66s.73,3.17,1.16,4.75.87,3.15,1.38,4.68,1,3,1.66,4.39l.45,1,.49,1c.3.67.66,1.29,1,1.89a25.7,25.7,0,0,0,2.2,3.21c.39.46.8.86,1.17,1.28l1.17,1A13,13,0,0,0,55.49,155a8.29,8.29,0,0,0,1.55.61l.57.19-.59-.08a7.2,7.2,0,0,1-1.67-.35,8.58,8.58,0,0,1-1.16-.41c-.4-.2-.84-.41-1.3-.66l-1.38-.93c-.44-.39-.91-.78-1.38-1.23s-.91-.94-1.34-1.48a20.49,20.49,0,0,1-1.27-1.71c-.41-.61-.83-1.24-1.2-1.91s-.74-1.36-1.08-2.07a44.29,44.29,0,0,1-1.89-4.5q-.81-2.35-1.49-4.79c-.41-1.63-.79-3.26-1.11-4.88s-.58-3.21-.81-4.76c-.44-3.1-.7-6-.83-8.5A75,75,0,0,1,39.07,109.16Z"/><path d="M125.5,97.24l.34,1.43c.2.91.52,2.21.84,3.78s.7,3.4,1.07,5.37c.09.5.19,1,.27,1.52a6.22,6.22,0,0,1,0,1.67,7.87,7.87,0,0,1-.37,1.65l-.59,1.5-1.2,3a7.23,7.23,0,0,1-1.83,2.7,6.68,6.68,0,0,1-2.63,1.51,9.77,9.77,0,0,1-2.65.39,4.93,4.93,0,0,1-2.21-.48,3.72,3.72,0,0,1-1.33-1.12,3.44,3.44,0,0,1-.52-1l-.14-.36.18.33a4.52,4.52,0,0,0,.63.87,3.49,3.49,0,0,0,1.33.9,5.27,5.27,0,0,0,2.05.26,9.38,9.38,0,0,0,2.43-.52,6.6,6.6,0,0,0,2.25-1.46,6.8,6.8,0,0,0,1.55-2.41l1.16-3,.59-1.46a6.07,6.07,0,0,0,.34-1.43,6.41,6.41,0,0,0,0-1.45c0-.47-.15-1-.21-1.49-.31-2-.54-3.83-.77-5.41s-.35-2.92-.47-3.85Z"/><path d="M127.61,109.72c-.8,3.83-1.84,7.6-2.93,11.36-.55,1.87-1.17,3.73-1.8,5.59s-1.3,3.69-2,5.52a74.78,74.78,0,0,1-5.1,115,35.13,35.13,0,0,1-3.45,4.92,14.92,14.92,0,0,1-4.83,3.92l.4-.33c-.69,1-1.39,1.84-2.13,2.72s-1.5,1.72-2.3,2.54a53.83,53.83,0,0,1-5.07,4.59,36.84,36.84,0,0,1-12,6.51,26.72,26.72,0,0,1-6.81,1.12,23.38,23.38,0,0,1-3.45-.16,23.85,23.85,0,0,1-3.37-.64,26.94,26.94,0,0,1-6.29-2.61,31.37,31.37,0,0,1-2.85-1.83c-.92-.65-1.79-1.37-2.64-2.1.92.64,1.85,1.27,2.82,1.83a316,316,0,0,0,2.93,1.58,27.21,27.21,0,0,0,6.27,2.1,24.51,24.51,0,0,0,12.88-.87,31.53,31.53,0,0,0,5.94-2.71,44.31,44.31,0,0,0,5.4-3.73,51.26,51.26,0,0,0,4.85-4.47c.76-.79,1.5-1.6,2.22-2.44s1.42-1.7,2-2.55l.16-.22.24-.11a13.1,13.1,0,0,0,4.19-3.4,34.24,34.24,0,0,0,3.36-4.59,86.08,86.08,0,0,0,5.3-10.29c.78-1.77,1.53-3.57,2.26-5.37s1.4-3.63,2.08-5.45,1.33-3.67,2-5.51S127,111.59,127.61,109.72Z"/><path d="M65.71,157.64a17.4,17.4,0,0,1,2.86-1.89c.46-.24,1-.5,1.49-.74s1.12-.5,1.74-.69a17.76,17.76,0,0,1,1.91-.58c.66-.18,1.35-.29,2-.41s1.4-.11,2.08-.17,1.38,0,2,.11a14.16,14.16,0,0,1,1.86.4,12.79,12.79,0,0,1,1.6.6c.47.25.88.49,1.25.71a6.78,6.78,0,0,1,.85.69c.45.4.69.63.69.63l-.85-.38c-.28-.12-.58-.3-1-.44s-.82-.25-1.28-.41-1-.18-1.54-.31-1.14-.09-1.74-.17-1.23,0-1.86,0-1.29.09-1.93.21-1.3.17-1.92.33-1.26.26-1.86.43c-1.2.3-2.31.66-3.27,1C67,157.17,65.71,157.64,65.71,157.64Z"/><path d="M77.08,32.4s-.3-.27-.81-.83a14,14,0,0,1-2-2.64,17,17,0,0,1-2-4.77,16.11,16.11,0,0,1-.25-6.74A17.35,17.35,0,0,1,75.23,10,16.92,16.92,0,0,1,78.29,6.8,20.59,20.59,0,0,1,82.2,4.31a40,40,0,0,1,9-3A43.17,43.17,0,0,1,101,0a27.21,27.21,0,0,1,9.65,2.24,83.9,83.9,0,0,1,8.62,3.81,27.47,27.47,0,0,1,7.2,5.3,20.11,20.11,0,0,1,2.49,3.34,21.86,21.86,0,0,1,1.64,3.54A29.53,29.53,0,0,1,132,24.77c.22,2,.29,3.7.32,5.11s0,2.53,0,3.28l0,1.16L132,29.9c-.13-1.4-.32-3.1-.67-5a32.87,32.87,0,0,0-1.78-6.23,20.75,20.75,0,0,0-1.69-3.23,18.38,18.38,0,0,0-2.45-3,27.18,27.18,0,0,0-6.93-4.77,91.49,91.49,0,0,0-8.5-3.57,25.33,25.33,0,0,0-9-2,40.51,40.51,0,0,0-9.3,1.18A413,413,0,0,0,83,5.89a21.26,21.26,0,0,0-3.65,2.19,15.39,15.39,0,0,0-2.91,2.84,16.89,16.89,0,0,0-3.2,6.72A16.41,16.41,0,0,0,73.06,24a17.27,17.27,0,0,0,3.29,7.49C76.81,32.1,77.08,32.4,77.08,32.4Z"/><path d="M71.68,33.8s-.29,0-.8,0a5,5,0,0,1-.92-.12,7.76,7.76,0,0,1-1.17-.3A9.93,9.93,0,0,1,66.08,32a11.22,11.22,0,0,1-1.34-1.09,12.49,12.49,0,0,1-1.21-1.3,15.81,15.81,0,0,1-1-1.45,10.22,10.22,0,0,1-.78-1.55A6.48,6.48,0,0,1,61.27,25a4.27,4.27,0,0,1,0-1.56,3.47,3.47,0,0,1,1.11-2,2.34,2.34,0,0,1,.51-.32l.2-.09a2.63,2.63,0,0,0-.4.66,3.67,3.67,0,0,0-.28,1.8,5.34,5.34,0,0,0,.27,1.14,8.19,8.19,0,0,0,.58,1.2c.23.41.54.84.83,1.26s.62.85,1,1.26a22.86,22.86,0,0,0,2.09,2.27c.37.33.72.66,1.08.95l1,.78c.67.46,1.27.82,1.69,1.06Z"/><path d="M67.71,35.49a7.91,7.91,0,0,1-1.81.14,8.63,8.63,0,0,1-3.86-1,8,8,0,0,1-.95-.61,6.52,6.52,0,0,1-.82-.74,5.07,5.07,0,0,1-1.07-1.64,3.74,3.74,0,0,1-.32-1.34,2.15,2.15,0,0,1,0-.52l.35.37a11.27,11.27,0,0,0,.89.83c.38.31.81.64,1.29,1l.75.47c.27.16.5.3.8.45,1.09.6,2.3,1.12,3.21,1.64A10.79,10.79,0,0,1,67.71,35.49Z"/><path d="M113.42,22.83a21.25,21.25,0,0,0-2.49,0,18,18,0,0,0-2.79.33,11.93,11.93,0,0,0-3.33,1.21A9.29,9.29,0,0,0,101.75,27a8.2,8.2,0,0,0-1.44,4.17,16.64,16.64,0,0,0-.06,2.45,5.22,5.22,0,0,0,4,5,6.61,6.61,0,0,0,4.61-.25,10.22,10.22,0,0,0,3.82-2.8,5.15,5.15,0,0,0,1.51-3.77,2.16,2.16,0,0,0-.91-1.43,12.08,12.08,0,0,0-1.68-1.06,5.69,5.69,0,0,0-.84-.34l-.39-.1c-.15,0-.32-.05-.46-.05a3.4,3.4,0,0,0-1.5.26,4.57,4.57,0,0,0-2,1.69,3.77,3.77,0,0,0-.63,1.66,3.11,3.11,0,0,0,0,.48v.16l0-.16a2.54,2.54,0,0,1,0-.49,3.71,3.71,0,0,1,.39-1.84,4.86,4.86,0,0,1,2-2.19,4.33,4.33,0,0,1,1.89-.54h.49c.23,0,.37.05.56.08a7.79,7.79,0,0,1,1,.32,13,13,0,0,1,2,1,3.57,3.57,0,0,1,1.59,2.22,5,5,0,0,1-.24,2.79A8,8,0,0,1,114,36.7a11.43,11.43,0,0,1-4.44,3.46,8.54,8.54,0,0,1-6,.37A7.61,7.61,0,0,1,99,36.61a7.08,7.08,0,0,1-.61-2.94A18.66,18.66,0,0,1,98.56,31a9.44,9.44,0,0,1,2-4.86,10.1,10.1,0,0,1,3.73-2.79,11.51,11.51,0,0,1,3.73-.93,14.63,14.63,0,0,1,2.92,0,16.14,16.14,0,0,1,1.83.29Z"/><path d="M109.16,16.16l-.38,0a10.71,10.71,0,0,0-1.07.13,15.19,15.19,0,0,0-3.58,1,21.75,21.75,0,0,0-2.21,1.11c-.75.45-1.53.95-2.3,1.52s-1.53,1.21-2.28,1.87S95.86,23.21,95.12,24a28.62,28.62,0,0,0-2,2.27,24,24,0,0,0-1.67,2.39,15.37,15.37,0,0,0-1.18,2.42,13.19,13.19,0,0,0-.63,2.34,9.81,9.81,0,0,0-.11,2A5.79,5.79,0,0,0,89.84,37a4.08,4.08,0,0,0,.49.93,3.45,3.45,0,0,0,.23.3s-.11-.07-.31-.23a3.45,3.45,0,0,1-.76-.82,5.19,5.19,0,0,1-.72-1.6,7.93,7.93,0,0,1-.28-2.27,12.18,12.18,0,0,1,1.41-5.51,17.2,17.2,0,0,1,1.68-2.72,26.21,26.21,0,0,1,2.12-2.5c.73-.75,1.57-1.52,2.38-2.2a23.32,23.32,0,0,1,2.55-1.86,18.55,18.55,0,0,1,2.62-1.4,13.93,13.93,0,0,1,2.52-.86,11.63,11.63,0,0,1,3.93-.34,7.53,7.53,0,0,1,1.08.15Z"/><path d="M109.12,11.93l-.44-.14a7,7,0,0,0-1.24-.29,9.27,9.27,0,0,0-2-.08,13.51,13.51,0,0,0-2.47.41,28.67,28.67,0,0,0-5.84,2.5,34.09,34.09,0,0,0-3.08,1.82,11.81,11.81,0,0,0-2.65,2.31,13.6,13.6,0,0,0-1.86,3c-.51,1.1-1,2.24-1.51,3.31s-.89,2.13-1.22,3.13a16.94,16.94,0,0,0-.67,2.88,117,117,0,0,0,.32,4.43A8.37,8.37,0,0,0,87,36.41l.21.41-.31-.35a7.53,7.53,0,0,1-.74-1.1A9.73,9.73,0,0,1,85,30.73a18.87,18.87,0,0,1,1.4-6.6c.44-1.14.84-2.29,1.39-3.48a15.87,15.87,0,0,1,2.08-3.48A14.08,14.08,0,0,1,93,14.53a27.16,27.16,0,0,1,3.35-1.77,22.41,22.41,0,0,1,6.41-2,11.32,11.32,0,0,1,2.71-.05,8.38,8.38,0,0,1,2,.45,7,7,0,0,1,1.19.58Z"/><path d="M94.67,12.15l-1.41.45c-.9.29-2.19.67-3.65,1.25a14.86,14.86,0,0,0-4.48,2.58,8.83,8.83,0,0,0-1.78,2.14,13.74,13.74,0,0,0-1.2,2.72,23.24,23.24,0,0,0-.85,2.94A14.29,14.29,0,0,0,81,27.09a4.66,4.66,0,0,0,0,.66c0,.24,0,.51.06.71a9.46,9.46,0,0,0,.24,1.27A12.17,12.17,0,0,0,82.15,32a11.88,11.88,0,0,0,2.22,3,13.75,13.75,0,0,0,1.11,1l-.36-.16a6.07,6.07,0,0,1-1-.5,9.74,9.74,0,0,1-3-2.72,10.58,10.58,0,0,1-1.31-2.41,11.7,11.7,0,0,1-.45-1.48c-.07-.28-.09-.49-.13-.74s-.07-.55-.08-.83a13,13,0,0,1,.21-3.29,23.49,23.49,0,0,1,.86-3.22,15.34,15.34,0,0,1,1.44-3.08A9.76,9.76,0,0,1,84,15.07a11.42,11.42,0,0,1,2.69-1.52,14.8,14.8,0,0,1,2.58-.8,24.76,24.76,0,0,1,3.9-.54C94.13,12.15,94.67,12.15,94.67,12.15Z"/><path d="M107.92,43.78c2.66-.48,5.34-.77,8-1,1.34-.13,2.66-.18,3.94-.36a14.8,14.8,0,0,0,3.64-.88,7.87,7.87,0,0,0,2.95-1.94,5.42,5.42,0,0,0,1-1.39,4.57,4.57,0,0,0,.43-1.57c0-.15,0-.36,0-.47s0-.23,0-.36a3.86,3.86,0,0,0-.24-.8,4.65,4.65,0,0,0-4.39-2.78l.09-.09-.15.7-.06-.71v-.07l.09,0a4.59,4.59,0,0,1,4.12.69,5.62,5.62,0,0,1,1.54,1.64,6,6,0,0,1,.47,1.07,5.81,5.81,0,0,1,.15.63c0,.21,0,.35.05.52a5.45,5.45,0,0,1-.41,2.34,7.17,7.17,0,0,1-1.2,2,9.39,9.39,0,0,1-3.65,2.51,14.82,14.82,0,0,1-4.18.89,40,40,0,0,1-4.09,0C113.29,44.25,1111,44.11,107.92,43.78Z"/><path d="M134.89,21.38s.38.17,1,.52a24.26,24.26,0,0,1,5.91,4.44,20.06,20.06,0,0,1,1.62,1.89,21.76,21.76,0,0,1,1.44,2.15A20.75,20.75,0,0,1,146,32.71a14.55,14.55,0,0,1,.75,2.41,14.25,14.25,0,0,1,.34,2.33,10.57,10.57,0,0,1-.05,2.12,7.27,7.27,0,0,1-1,3,4.67,4.67,0,0,1-.52.7l-.21.22a6,6,0,0,0,.36-1.08,9,9,0,0,0,.2-2.87,18.2,18.2,0,0,0-.29-1.89c-.14-.67-.34-1.36-.56-2.06a21.72,21.72,0,0,0-.83-2.13,18,18,0,0,0-1.08-2.09,20.36,20.36,0,0,0-1.25-2c-.47-.64-.91-1.28-1.39-1.86-.94-1.18-1.9-2.23-2.74-3.13Z"/><path d="M131.69,25.1a17.3,17.3,0,0,1,2.88,1.24,16.31,16.31,0,0,1,2.72,1.76,13.29,13.29,0,0,1,1.39,1.24c.22.23.45.46.65.71l.32.39.28.36a12.52,12.52,0,0,1,1.75,3.43,10.41,10.41,0,0,1,.55,3.27,8.09,8.09,0,0,1-.27,2.31,3.48,3.48,0,0,1-.2.62l-.07.21-.13-.85a17.58,17.58,0,0,0-.46-2.13A18.51,18.51,0,0,0,140,34.88c-.22-.49-.51-1-.79-1.46a15.54,15.54,0,0,0-.92-1.41l-.27-.37-.26-.33-.54-.66c-.38-.43-.75-.86-1.14-1.25-.77-.79-1.54-1.5-2.21-2.13s-1.23-1.16-1.62-1.54S131.69,25.1,131.69,25.1Z"/><path d="M151.64,79s.33.24.89.69a27.58,27.58,0,0,1,2.19,2,22.39,22.39,0,0,1,2.71,3.26A21.09,21.09,0,0,1,158.66,87c.18.38.36.74.52,1.14s.32.75.47,1.17a23.35,23.35,0,0,1,.67,2.41,18.89,18.89,0,0,1,.35,2.39,18.47,18.47,0,0,1-.1,4.26,15.85,15.85,0,0,1-.69,2.91c-.11.34-.24.6-.31.78l-.12.27,0-1.12V99.93c0-.48,0-1-.07-1.62s-.1-1.22-.17-1.89-.2-1.36-.32-2.08-.31-1.44-.49-2.18a21.48,21.48,0,0,0-.68-2.2c-.11-.34-.24-.7-.39-1.09s-.3-.7-.45-1c-.32-.69-.64-1.37-1-2-.69-1.29-1.43-2.45-2.08-3.46l-1.61-2.44C151.85,79.33,151.64,79,151.64,79Z"/><path d="M154.27,107.17a8.32,8.32,0,0,1,.46,3.91,7.87,7.87,0,0,1-.24,1.13,7.39,7.39,0,0,1-.42,1.13,7.79,7.79,0,0,1-2.82,3.28,5.51,5.51,0,0,1-1.29.63,4.92,4.92,0,0,1-.53.15l1-1.59a35.2,35.2,0,0,0,1.82-3.31c.13-.28.28-.62.4-.91l.35-.92.58-1.71c.17-.53.33-1,.46-1.29S154.27,107.17,154.27,107.17Z"/><path d="M116.22,49.14l-.78,1c-.25.33-.5.78-.83,1.28s-.62,1.13-.92,1.84a17.56,17.56,0,0,0-1.39,5.33,19.33,19.33,0,0,0,.62,7,16.77,16.77,0,0,0,4.18,7.07,31.92,31.92,0,0,0,3.46,3,30.44,30.44,0,0,0,4,2.63c2.79,1.54,6.12,2.44,9.14,1.38a14.89,14.89,0,0,0,4.23-2.53,31,31,0,0,0,3.82-3.47,13.33,13.33,0,0,0,2.71-4.16,14.9,14.9,0,0,0,1-4.82,27,27,0,0,0-.27-5,31.9,31.9,0,0,0-1-4.82,14.58,14.58,0,0,0-2-4.16A9.18,9.18,0,0,0,138.89,48a11.91,11.91,0,0,0-7.94-.77,12.19,12.19,0,0,0-6,3.37,5.91,5.91,0,0,0-1.72,4.9,4.91,4.91,0,0,0,1.64,3,4,4,0,0,0,.8.49l.31.13-.32-.1a3.94,3.94,0,0,1-.85-.43,4.93,4.93,0,0,1-2-3,5.66,5.66,0,0,1,.07-2.67,7.58,7.58,0,0,1,1.47-2.78,12.56,12.56,0,0,1,6.3-4,12.89,12.89,0,0,1,8.89.54,10.71,10.71,0,0,1,3.91,3.16,15.34,15.34,0,0,1,2.35,4.61,32.35,32.35,0,0,1,1.2,5.08,25.14,25.14,0,0,1,.36,5.37,16.84,16.84,0,0,1-1.11,5.49,15.4,15.4,0,0,1-3,4.75,34.33,34.33,0,0,1-4.09,3.67,16.79,16.79,0,0,1-4.84,2.81,10.76,10.76,0,0,1-5.62.28,17.18,17.18,0,0,1-5-2A29.92,29.92,0,0,1,119.54,77,32.36,32.36,0,0,1,116,73.73a17.42,17.42,0,0,1-4.2-7.79,19.23,19.23,0,0,1-.26-7.42,17.89,17.89,0,0,1,1.78-5.4,15.62,15.62,0,0,1,2-3Z"/><path d="M132.68,55.13l.5,0a5.91,5.91,0,0,1,1.43.13,6.41,6.41,0,0,1,4.13,3.16,9.14,9.14,0,0,1,.91,3.45,13.48,13.48,0,0,1-.06,4,9,9,0,0,1-1.67,4,9.5,9.5,0,0,1-3.6,2.86,10.78,10.78,0,0,1-4.42.92,9.1,9.1,0,0,1-2.21-.27l-.55-.15-.48-.16c-.31-.11-.68-.27-1-.41a12.11,12.11,0,0,1-5.35-5.16,12.54,12.54,0,0,1-1.5-4.92,9.43,9.43,0,0,1,0-1.42l0-.5a15.34,15.34,0,0,0,2.51,6.24,14.05,14.05,0,0,0,2.14,2.34A11.34,11.34,0,0,0,126.37,71a8,8,0,0,0,.83.29l.48.14.41.08a9.91,9.91,0,0,0,1.81.16,9,9,0,0,0,3.6-.81,7.61,7.61,0,0,0,2.86-2.17,7.81,7.81,0,0,0,1.5-3.24,14.39,14.39,0,0,0,.31-3.5,9.45,9.45,0,0,0-.46-3.07,5.68,5.68,0,0,0-1.48-2.13,6.23,6.23,0,0,0-1.74-1.14,7.15,7.15,0,0,0-1.32-.41Z"/><path d="M135.45,38.75l.94-.07a13.13,13.13,0,0,1,2.7.19,16.32,16.32,0,0,1,4,1.27,17.76,17.76,0,0,1,4.56,3.09,20.1,20.1,0,0,1,4,5.2,27,27,0,0,1,2.58,6.84A37.38,37.38,0,0,1,154.53,71a28.23,28.23,0,0,1-2.78,7.61,23.35,23.35,0,0,1-4.87,6.2,20.43,20.43,0,0,1-6.23,3.92,17.53,17.53,0,0,1-3.28,1,18,18,0,0,1-3.19.29,16.45,16.45,0,0,1-9.22-2.8,12.63,12.63,0,0,1-2.06-1.74l-.64-.71.71.63a16.3,16.3,0,0,0,2.19,1.49,15.1,15.1,0,0,0,3.79,1.5,17.75,17.75,0,0,0,5.2.48,17.52,17.52,0,0,0,2.91-.44,18.1,18.1,0,0,0,3-1,20.11,20.11,0,0,0,5.61-3.84A23,23,0,0,0,150,77.73a26.38,26.38,0,0,0,2.53-7.12,33.45,33.45,0,0,0,.72-7.59,39.43,39.43,0,0,0-.75-7.37,28.09,28.09,0,0,0-2.19-6.54,20.47,20.47,0,0,0-3.48-5.06,18.71,18.71,0,0,0-4.1-3.25A15.77,15.77,0,0,0,139,39.25a15,15,0,0,0-2.61-.46Z"/><path d="M68.8,12.67l-.46-.55a8.41,8.41,0,0,0-1.51-1.27,10.4,10.4,0,0,0-2.77-1.22,13.71,13.71,0,0,0-3.88-.44A11.72,11.72,0,0,0,58,9.42l-1.2.23L55.64,10A21.14,21.14,0,0,0,51,12.1a217,217,0,0,0-4.19,3.5,20,20,0,0,0-3.21,4.6,17.72,17.72,0,0,0-1.76,5.29l-.16,1.4c0,.47,0,.9-.06,1.34a18.38,18.38,0,0,0,.18,2.68,21.07,21.07,0,0,0,1.33,4.95,23.12,23.12,0,0,0,2.2,4.08,21.15,21.15,0,0,0,2.55,3,13.72,13.72,0,0,0,1.23,1.12,11.06,11.06,0,0,0,1.12.87l.94.66.73.43.62.37-.66-.27-.81-.32c-.3-.14-.65-.33-1-.53a12.88,12.88,0,0,1-1.25-.75,11.53,11.53,0,0,1-1.39-1,18.7,18.7,0,0,1-2.95-2.91,20.58,20.58,0,0,1-4.36-9.45,20,20,0,0,1-.3-2.95c0-.51,0-1.05,0-1.54l.15-1.49a19.85,19.85,0,0,1,1.89-5.9,21.5,21.5,0,0,1,3.59-5A219,219,0,0,1,50.1,11a19.49,19.49,0,0,1,5.17-2.07l1.3-.28,1.21-.15a14.57,14.57,0,0,1,6.52.81,9.55,9.55,0,0,1,2.77,1.63,7.61,7.61,0,0,1,1.36,1.52Z"/><path d="M53.71,20.9l-.24.21a8.47,8.47,0,0,0-.66.59,12.27,12.27,0,0,0-1.91,2.36,11.68,11.68,0,0,0-1.49,3.85,10,10,0,0,0-.14,2.27,10.23,10.23,0,0,0,.36,2.36c.08.45.21.77.31,1.15s.27.75.44,1.11a14.05,14.05,0,0,0,1.1,2.07,15.87,15.87,0,0,0,2.7,3.23c.47.42.92.78,1.33,1.1s.8.56,1.12.75c.64.4,1,.62,1,.62l-.31-.06a8.19,8.19,0,0,1-.89-.19,11.09,11.09,0,0,1-3-1.3,11.44,11.44,0,0,1-1.77-1.32A11.82,11.82,0,0,1,50,37.88a11.56,11.56,0,0,1-1.41-2.27c-.21-.41-.37-.84-.54-1.27A12.64,12.64,0,0,1,47.68,33a12.28,12.28,0,0,1-.34-2.77A10.07,10.07,0,0,1,50,23.37a9.07,9.07,0,0,1,2.59-2,5.45,5.45,0,0,1,.83-.35Z"/><path d="M19.94,64.4l-.54.26c-.35.16-.86.42-1.48.77a22.77,22.77,0,0,0-4.68,3.49,19.77,19.77,0,0,0-2.47,2.94,16.56,16.56,0,0,0-1.92,3.75A14.16,14.16,0,0,0,8,80a16.32,16.32,0,0,0,.08,2.31c0,.37.09.8.16,1.13l.24,1.21A22.07,22.07,0,0,0,10.05,89a26.76,26.76,0,0,0,2.35,3.92,30.54,30.54,0,0,0,2.79,3.29c.49.49,1,1,1.46,1.38s1,.85,1.44,1.22.94.72,1.39,1,.88.63,1.31.89c.83.55,1.58,1,2.21,1.32s1.14.6,1.48.78l.53.27-.57-.17c-.37-.12-.93-.25-1.6-.51a24.12,24.12,0,0,1-2.43-1c-.46-.21-.94-.46-1.44-.74s-1-.58-1.55-.93a18.92,18.92,0,0,1-1.62-1.12,19.41,19.41,0,0,1-1.63-1.33c-.57-.46-1.07-1-1.63-1.53S11.49,94.62,11,94a24.3,24.3,0,0,1-2.68-4.14A23.33,23.33,0,0,1,6.55,85l-.22-1.21a10.7,10.7,0,0,1-.17-1.31A18.56,18.56,0,0,1,6.1,79.9,14.79,14.79,0,0,1,7.21,75a15.94,15.94,0,0,1,2.36-4,17.86,17.86,0,0,1,2.91-2.92,18.47,18.47,0,0,1,2.88-1.9,18.79,18.79,0,0,1,2.4-1.09,11.87,11.87,0,0,1,1.6-.51Z"/><path d="M8.92,100.9l-.15.38c-.11.24-.25.61-.41,1.06a16.46,16.46,0,0,0-.82,3.86,12.91,12.91,0,0,0,.67,5.31,10.38,10.38,0,0,0,1.39,2.6,12.26,12.26,0,0,0,1,1.18c.17.18.38.4.53.53l.63.55a13.64,13.64,0,0,0,2.54,1.75,18.19,18.19,0,0,0,2.8,1.23,218,218,0,0,0,2.8.73,23.18,23.18,0,0,0,2.6.31c.41,0,.8,0,1.17,0a9.43,9.43,0,0,0,1.07,0c.67,0,1.26-.07,1.75-.12,1-.11,1.53-.19,1.53-.19l-.37.16c-.25.09-.6.28-1.08.42a14,14,0,0,1-1.73.49,14.52,14.52,0,0,1-2.32.36,16.37,16.37,0,0,1-2.81,0,15.56,15.56,0,0,1-3.12-.53,15.73,15.73,0,0,1-3.19-1.2,16,16,0,0,1-3-2l-.62-.57c-.26-.25-.43-.44-.65-.67A13.64,13.64,0,0,1,8,115.22a10.87,10.87,0,0,1-1.48-3.17,12.23,12.23,0,0,1-.12-6A12.23,12.23,0,0,1,8,102.16a8,8,0,0,1,.67-.94Z"/><path d="M33.67,27.83l-.61.11a9.61,9.61,0,0,0-1.68.52,12.07,12.07,0,0,0-4.83,3.65,14.41,14.41,0,0,0-2,3.47,19,19,0,0,0-1.17,4.34,27.54,27.54,0,0,0-.26,4.85,35.77,35.77,0,0,0,.46,5,30.57,30.57,0,0,0,1.17,4.89,27.09,27.09,0,0,0,1.91,4.46c.38.72.78,1.32,1.22,2a21.51,21.51,0,0,0,1.33,1.77,23,23,0,0,0,2.9,2.87,20.83,20.83,0,0,0,2.87,2,19,19,0,0,0,2.45,1.15,17.64,17.64,0,0,0,1.67.57l.61.16-.63-.06a11.19,11.19,0,0,1-1.76-.29,15.9,15.9,0,0,1-2.67-.84,17.47,17.47,0,0,1-3.22-1.74,20,20,0,0,1-3.33-2.79c-.53-.56-1.07-1.18-1.57-1.82-.23-.3-.49-.64-.72-1s-.46-.69-.67-1.06a24.62,24.62,0,0,1-2.22-4.72,32.44,32.44,0,0,1-1.31-5.2,36.78,36.78,0,0,1-.42-5.32,26.1,26.1,0,0,1,.46-5.19A18,18,0,0,1,23.17,35a13.62,13.62,0,0,1,2.53-3.6,11.48,11.48,0,0,1,5.56-3.27,8.89,8.89,0,0,1,1.79-.25Z"/><path d="M37.28,39.07l-.65.39A15.49,15.49,0,0,0,35,40.73a13.13,13.13,0,0,0-2.14,2.41A14.18,14.18,0,0,0,31,46.82a12.57,12.57,0,0,0-.52,4.72,9.59,9.59,0,0,0,1.76,4.8,7.38,7.38,0,0,0,4.37,2.86,11.73,11.73,0,0,0,5.64-.37,8.63,8.63,0,0,0,2.51-1.23,6.7,6.7,0,0,0,1-.89c.19-.2.33-.37.46-.53s.27-.36.39-.55a12,12,0,0,0,1.66-5.26,7.74,7.74,0,0,0-.1-2.57,3.12,3.12,0,0,0-.45-1A3.34,3.34,0,0,0,47,46a4.75,4.75,0,0,0-4.2-.65,5.53,5.53,0,0,0-3.07,2.31,5.3,5.3,0,0,0-.79,3,5.83,5.83,0,0,0,.43,2,5,5,0,0,0,.33.67,5.61,5.61,0,0,1-.43-.62,5.33,5.33,0,0,1-.71-2,5.74,5.74,0,0,1,.52-3.37,6.17,6.17,0,0,1,3.34-3,6.74,6.74,0,0,1,1.29-.35l.3,0,.36,0a4.09,4.09,0,0,1,.7,0,5.77,5.77,0,0,1,2.79.94A4.57,4.57,0,0,1,49,45.88a4.65,4.65,0,0,1,.75,1.47,8.5,8.5,0,0,1,.27,3.15,13,13,0,0,1-1.78,6.16c-.15.24-.31.47-.49.71a8.09,8.09,0,0,1-.54.65A8.93,8.93,0,0,1,46,59.19a114,114,0,0,1-3.06,1.55,13.37,13.37,0,0,1-3.32.58,13,13,0,0,1-3.33-.23,9,9,0,0,1-5.39-3.72A111,111,0,0,1,29,51.64a12.69,12.69,0,0,1,.92-5.2,12.92,12.92,0,0,1,2.3-3.76,13.3,13.3,0,0,1,2.48-2.25,11.43,11.43,0,0,1,1.86-1.07Z"/><path d="M67.68,35.81a44,44,0,0,0-2.48,5.8,18.62,18.62,0,0,0-.7,3c-.08.5-.09,1-.13,1.55s0,1,0,1.51A22.35,22.35,0,0,0,68.65,59c.58.85,1.21,1.66,1.87,2.46a19.71,19.71,0,0,0,2.09,2.19A12.44,12.44,0,0,0,75,65.38l.6.29.75.27a7.14,7.14,0,0,0,1.33.29,9.29,9.29,0,0,0,9.46-5l1.1,1.34a7.55,7.55,0,0,1-5-.7,9.6,9.6,0,0,1-2.08-1.4,10.51,10.51,0,0,1-1.64-1.85,14.91,14.91,0,0,1-2-4.36,34.27,34.27,0,0,1-1-4.55,22,22,0,0,1-.29-4.67,15.48,15.48,0,0,1,.32-2.34,10.92,10.92,0,0,1,.75-2.24,9.62,9.62,0,0,1,2.92-3.66,7,7,0,0,1,4.29-1.5,7.15,7.15,0,0,0-4,1.86A9.15,9.15,0,0,0,78,40.8a11.44,11.44,0,0,0-.53,2.13,14.44,14.44,0,0,0-.16,2.18,22.49,22.49,0,0,0,.52,4.39,33.54,33.54,0,0,0,1.15,4.3,14.37,14.37,0,0,0,1.93,3.81,8.2,8.2,0,0,0,1.41,1.52A7.51,7.51,0,0,0,84,60.22a5.91,5.91,0,0,0,3.81.5l1.91-.45-.81,1.79A10.49,10.49,0,0,1,84.13,67a11.27,11.27,0,0,1-6.73,1.17,10.83,10.83,0,0,1-1.75-.41l-.74-.29a7.89,7.89,0,0,1-.82-.4,12.49,12.49,0,0,1-2.74-2,22.13,22.13,0,0,1-2.22-2.44c-.66-.85-1.31-1.73-1.89-2.64a27.5,27.5,0,0,1-2.86-5.84,19.25,19.25,0,0,1-1.09-6.42c0-.54.05-1.11.09-1.65s.15-1.06.28-1.59a19,19,0,0,1,1-3.08A33.9,33.9,0,0,1,67.68,35.81Z"/><path d="M17.62,59h-.87a12,12,0,0,0-5.81,2A14.35,14.35,0,0,0,7.42,64.2a18.17,18.17,0,0,0-2.67,5,27.34,27.34,0,0,0-1.34,6.21l-.1,1.68a12.42,12.42,0,0,0,0,1.72l0,1.68.17,1.73.09.86.16.87.32,1.72c.32,1.14.55,2.3,1,3.4A32.12,32.12,0,0,0,8,95.44,34.17,34.17,0,0,0,12,100.93a29.52,29.52,0,0,0,4.8,4.18c.42.29.82.59,1.24.85l1.28.71a21.14,21.14,0,0,0,2.49,1.22,17.34,17.34,0,0,0,4.65,1.34,10.41,10.41,0,0,0,3.72-.13,7.51,7.51,0,0,0,2.25-.89c.47-.3.71-.49.71-.49a7.92,7.92,0,0,1-.65.58,7.18,7.18,0,0,1-2.21,1.18,11.16,11.16,0,0,1-3.89.49,16.16,16.16,0,0,1-5-1,23.12,23.12,0,0,1-2.7-1.09l-1.38-.69c-.46-.24-.89-.54-1.35-.82a28.07,28.07,0,0,1-5.26-4.22,32.38,32.38,0,0,1-2.34-2.7C8,99,7.62,98.5,7.29,98l-1-1.55a34,34,0,0,1-3.15-6.75c-.44-1.18-.69-2.41-1-3.61l-.33-1.84-.15-.91-.09-.93c-.05-.61-.12-1.22-.15-1.83V78.72a14.76,14.76,0,0,1,.08-1.78l.16-1.75a26.06,26.06,0,0,1,1.7-6.54,18,18,0,0,1,3.18-5.18,14,14,0,0,1,4-3.16A12.77,12.77,0,0,1,14.26,59a10.58,10.58,0,0,1,2.49-.14Z"/><path d="M29.69,71l-.86.15a13.15,13.15,0,0,0-2.33.77,11.64,11.64,0,0,0-3.13,2.07,10.54,10.54,0,0,0-1.53,1.7,11.09,11.09,0,0,0-1.25,2.16,14.17,14.17,0,0,0-1,5.53,21.9,21.9,0,0,0,.75,6.28A10.54,10.54,0,0,0,23.76,95a6.87,6.87,0,0,0,6,1.55,9.37,9.37,0,0,0,5.17-3.83,15.18,15.18,0,0,0,2.59-6,8.34,8.34,0,0,0-.89-5.8A6.33,6.33,0,0,0,32.32,78,4.72,4.72,0,0,0,27,82.8a5.29,5.29,0,0,0,.61,2.32,4,4,0,0,0,.48.73,4.3,4.3,0,0,1-.57-.67A5.23,5.23,0,0,1,27.66,79a5.62,5.62,0,0,1,2-1.64,5.47,5.47,0,0,1,2.82-.53,7.45,7.45,0,0,1,5.4,3.23A9.65,9.65,0,0,1,39.22,87a15.63,15.63,0,0,1-1,3.57,16,16,0,0,1-1.78,3.33,11.29,11.29,0,0,1-6.3,4.66,8.18,8.18,0,0,1-4.11-.12,9.74,9.74,0,0,1-3.52-1.89,11.42,11.42,0,0,1-1.4-1.38A13.43,13.43,0,0,1,20,93.53a14.5,14.5,0,0,1-1.39-3.45,22.28,22.28,0,0,1-.54-6.81,14.47,14.47,0,0,1,1.46-6,11.43,11.43,0,0,1,3.33-3.94,12.39,12.39,0,0,1,3.47-1.86A10.76,10.76,0,0,1,28.81,71Z"/><path d="M10.43,61.54s-.1-.36-.25-1a25.74,25.74,0,0,1-.48-2.68A21.58,21.58,0,0,1,9.54,54a15.44,15.44,0,0,1,.84-4.49l.22-.55c.1-.27.17-.36.25-.55a8.87,8.87,0,0,1,.59-1.06,9.69,9.69,0,0,1,1.5-1.79,7.7,7.7,0,0,1,1.78-1.28,7,7,0,0,1,.92-.43,7.09,7.09,0,0,1,.93-.24,4.72,4.72,0,0,1,1.66-.06,3.89,3.89,0,0,1,1.2.35,3.54,3.54,0,0,1,.67.4l.22.16-.27-.06a3.43,3.43,0,0,0-.73-.11,3.77,3.77,0,0,0-1.1,0,3.07,3.07,0,0,0-.64.14,3.74,3.74,0,0,0-.68.25,6.38,6.38,0,0,0-1.39.83,10.08,10.08,0,0,0-1.31,1.24,12.05,12.05,0,0,0-1.11,1.58c-.14.29-.29.52-.44.88a3.82,3.82,0,0,0-.2.47l-.18.48a19.56,19.56,0,0,0-.59,2c-.15.67-.3,1.34-.39,2-.21,1.33-.33,2.59-.44,3.69s-.2,2-.28,2.68S10.43,61.54,10.43,61.54Z"/><path d="M16.13,60.36A9.72,9.72,0,0,1,15.27,56a7.15,7.15,0,0,1,.67-2.66,5.54,5.54,0,0,1,.36-.62,4.32,4.32,0,0,1,.47-.6,5.07,5.07,0,0,1,1.07-.91,4.55,4.55,0,0,1,2.35-.76,3.22,3.22,0,0,1,1,.12,3.07,3.07,0,0,1,.69.28,1.84,1.84,0,0,1,.37.28l.12.1a3.84,3.84,0,0,0-.59,0,4,4,0,0,0-.62.09,4.76,4.76,0,0,0-.72.25,5.76,5.76,0,0,0-1.49,1,6.7,6.7,0,0,0-.66.74c-.1.14-.2.28-.27.4s-.21.37-.26.46a16.43,16.43,0,0,0-1.13,4c-.11.61-.22,1.14-.31,1.51S16.13,60.36,16.13,60.36Z"/><path d="M23.37,114.57l.45.6,1.12,1.57,1.56,2.15c.57.77,1.2,1.58,1.84,2.37l1,1.17.48.55c.16.17.32.35.48.5A9.93,9.93,0,0,0,32.19,125a4.86,4.86,0,0,0,1.66.61,4.47,4.47,0,0,0,.54,0h.19a2.94,2.94,0,0,1-.69.34,3.92,3.92,0,0,1-2.1.08,6.85,6.85,0,0,1-2.67-1.29,10.58,10.58,0,0,1-1.24-1.07c-.39-.4-.74-.81-1.09-1.23A17.07,17.07,0,0,1,25,119.83a11.57,11.57,0,0,1-.64-1.34,11.27,11.27,0,0,1-.46-1.24,12.48,12.48,0,0,1-.47-1.93A7.47,7.47,0,0,1,23.37,114.57Z"/><path d="M130.46,88.44s-.71.8-1.82,2.27A14.66,14.66,0,0,0,127,93.53a7.61,7.61,0,0,0-.68,4,8.43,8.43,0,0,0,2,4.26,21.76,21.76,0,0,0,4,3.77,10.26,10.26,0,0,0,5.14,2,10,10,0,0,0,5.45-1.68,11,11,0,0,0,2.41-1.56,3,3,0,0,0,.77-2.2,15.77,15.77,0,0,0-1.49-5.49A5.26,5.26,0,0,0,141,93.38a10.38,10.38,0,0,0-4.75.18,6.64,6.64,0,0,0-3.47,2,2.66,2.66,0,0,0-.57,1.48,2.36,2.36,0,0,0,.39,1.32,2.39,2.39,0,0,0,1.6,1.18,1.31,1.31,0,0,0,.73-.12,1.38,1.38,0,0,1-.73.23,2.52,2.52,0,0,1-1.92-1.06,2.87,2.87,0,0,1-.62-1.54,3.34,3.34,0,0,1,.51-1.91,7,7,0,0,1,3.73-2.64,11,11,0,0,1,5.41-.54,6,6,0,0,1,2.88,1.35,8.55,8.55,0,0,1,1.94,2.59,22,22,0,0,1,1.2,2.93,11.25,11.25,0,0,1,.64,3.31,4.89,4.89,0,0,1-1.28,3.59,12.12,12.12,0,0,1-2.86,2,18.5,18.5,0,0,1-3.06,1.38,9.23,9.23,0,0,1-3.48.47,11.6,11.6,0,0,1-6.06-2.54,20.83,20.83,0,0,1-4.13-4.29,9.2,9.2,0,0,1-2-5.07,7.93,7.93,0,0,1,1.16-4.4,16.24,16.24,0,0,1,2-2.72c.63-.7,1.19-1.18,1.55-1.52Z"/><path d="M1515,86.61l.43.37a11,11,0,0,1,1.15,1.18A15,15,0,0,1,155,93.39a23.13,23.13,0,0,1,.93,8.38,11,11,0,0,1-1.5,4.75,15.58,15.58,0,0,1-3.5,3.68,46.88,46.88,0,0,1-4,2.83,41.14,41.14,0,0,1-4.13,2.27,22.42,22.42,0,0,1-4.17,1.59,12,12,0,0,1-4.06.42,8.57,8.57,0,0,1-3.3-.92,7.27,7.27,0,0,1-2.09-1.58,6.12,6.12,0,0,1-.92-1.38c-.15-.35-.22-.53-.22-.53s.1.17.32.48a5.87,5.87,0,0,0,1.1,1.14,7.2,7.2,0,0,0,2.11,1.17,8.52,8.52,0,0,0,3.06.47,12.44,12.44,0,0,0,3.57-.7,26.33,26.33,0,0,0,3.8-1.73c1.3-.69,2.59-1.49,3.88-2.33a43.13,43.13,0,0,0,3.76-2.76,14.05,14.05,0,0,0,3.12-3.14,9.94,9.94,0,0,0,1.39-3.94,23.29,23.29,0,0,0,.15-4.15,24.57,24.57,0,0,0-.45-3.73,16.69,16.69,0,0,0-2-5.29,13.11,13.11,0,0,0-.91-1.33Z"/><path d="M152.21,71.25s.44.36,1.19,1,1.81,1.63,3,2.87a39.3,39.3,0,0,1,3.8,4.51c.62.9,1.25,1.84,1.81,2.85a30.85,30.85,0,0,1,1.47,3.19,23.35,23.35,0,0,1,.94,3.42,19.09,19.09,0,0,1,.28,3.42,15.61,15.61,0,0,1-.32,3.19,14,14,0,0,1-.82,2.74c-.18.41-.36.8-.54,1.16l-.59,1a10.78,10.78,0,0,1-1.15,1.44,6.5,6.5,0,0,1-.85.81l-.31.27.23-.34c.15-.23.38-.54.62-1a17.47,17.47,0,0,0,.79-1.57l.38-1,.33-1.13a17.85,17.85,0,0,0,.43-2.6,19,19,0,0,0,0-2.93,22.44,22.44,0,0,0-.42-3.09,21.24,21.24,0,0,0-.91-3.09,28.32,28.32,0,0,0-1.31-3c-.51-1-1-1.9-1.56-2.78-1.1-1.77-2.23-3.38-3.22-4.76l-2.41-3.33Z"/><path d="M125.06,133.84l1.62.92a18.6,18.6,0,0,0,4.34,1.92,10,10,0,0,0,3,.28,12.73,12.73,0,0,0,3.33-.68,22.85,22.85,0,0,0,3.38-1.52c1.13-.61,2.24-1.31,3.34-2a15.77,15.77,0,0,0,3-2.3c.14-.17.42-.49.58-.71a7.55,7.55,0,0,0,.47-.69,7.76,7.76,0,0,0,.74-1.57,14.46,14.46,0,0,0,.58-6.44,18.79,18.79,0,0,0-1.09-4.63,5.91,5.91,0,0,0-.66-1.16,4,4,0,0,0-.31-.37s.14.09.39.29a5.18,5.18,0,0,1,.93,1.05,10,10,0,0,1,1,1.94,16.52,16.52,0,0,1,.88,2.68,15,15,0,0,1,.45,3.36,11.8,11.8,0,0,1-.49,3.83,9.76,9.76,0,0,1-.79,1.94,9.94,9.94,0,0,1-.59,1c-.23.31-.38.49-.66.83a17.35,17.35,0,0,1-3.3,2.66c-1.15.74-2.33,1.46-3.54,2.08a19.49,19.49,0,0,1-3.77,1.5,12.42,12.42,0,0,1-3.82.49,9.6,9.6,0,0,1-3.39-.69,15.33,15.33,0,0,1-4.22-2.67C125.55,134.31,125.06,133.84,125.06,133.84Z"/><path d="M3.42,102.28,2.85,104a34.15,34.15,0,0,0-1.13,4.65,17.06,17.06,0,0,0-.21,3.09,11.19,11.19,0,0,0,.59,3.29,10.93,10.93,0,0,0,1.72,3.1,19.37,19.37,0,0,0,2.61,2.78,24.41,24.41,0,0,0,3,2.33,28.28,28.28,0,0,0,3.24,1.82,30.42,30.42,0,0,0,3.24,1.3,28.27,28.27,0,0,0,3,.8c1,.2,1.86.33,2.66.42s1.5.13,2.08.15,1,0,1.36,0h.48l-.47.11c-.31,0-.76.2-1.34.27a18.21,18.21,0,0,1-2.14.22,19,19,0,0,1-2.79,0,21.82,21.82,0,0,1-3.28-.5A22.81,22.81,0,0,1,12,126.7a23,23,0,0,1-3.57-1.81,25.26,25.26,0,0,1-3.33-2.51,21.61,21.61,0,0,1-2.79-3.08,11.43,11.43,0,0,1-1.83-3.72A11.12,11.12,0,0,1,0,111.75a14.9,14.9,0,0,1,.58-3.32,23,23,0,0,1,1.89-4.55C3.05,102.84,3.42,102.28,3.42,102.28Z"/><path d="M157.48,106.26s.23,1.58.32,3.94c0,1.18.07,2.56,0,4,0,.73,0,1.5-.06,2.27l-.11,2.33-.19,2.35a17.05,17.05,0,0,1-.39,2.34,8.4,8.4,0,0,1-.82,2.15,5.76,5.76,0,0,1-1.31,1.65,4.62,4.62,0,0,1-2.78,1.24,3.59,3.59,0,0,1-.83-.06l-.28-.07.28,0a5,5,0,0,0,.75-.22,4.8,4.8,0,0,0,2-1.63,6,6,0,0,0,.79-1.49,10.35,10.35,0,0,0,.45-1.88c.11-.67.13-1.4.19-2.14l.12-2.33.18-2.33c.06-.77.16-1.52.24-2.25.16-1.46.35-2.83.56-4A37.56,37.56,0,0,1,157.48,106.26Z"/><path d="M46.22,83.08a11.68,11.68,0,0,1,.65-1.23,15.84,15.84,0,0,1,.86-1.34A19.91,19.91,0,0,1,49,78.88a15.87,15.87,0,0,1,4.15-3.34,12.94,12.94,0,0,1,2.87-1.2,12,12,0,0,1,3.21-.49,16.18,16.18,0,0,1,1.65.07,16,16,0,0,1,1.59.27,15.3,15.3,0,0,1,2.91,1,19.62,19.62,0,0,1,2.46,1.33,23.08,23.08,0,0,1,2,1.43,27.46,27.46,0,0,1,2.7,2.43c.62.63.94,1,.94,1s-.47-.18-1.28-.52L69,79.41a44.15,44.15,0,0,0-4.52-1.75,17.94,17.94,0,0,0-2.53-.61c-.43-.09-.87-.11-1.3-.17s-.75-.06-1.29,0a11.65,11.65,0,0,0-2.57.3,15.06,15.06,0,0,0-2.44.78,24.34,24.34,0,0,0-4.17,2.25C49,81,48,81.71,47.32,82.24Z"/><path d="M119.66,85.18l-1.09-.84c-.68-.53-1.66-1.27-2.85-2.06A24.08,24.08,0,0,0,111.54,80a14.64,14.64,0,0,0-2.43-.78,11.65,11.65,0,0,0-2.57-.3c-.54,0-.86,0-1.29,0s-.87.08-1.3.17a17.94,17.94,0,0,0-2.53.61,44.15,44.15,0,0,0-4.52,1.75L93.65,83c-.81.34-1.28.52-1.28.52s.32-.39.94-1A27.46,27.46,0,0,1,96,80a23.08,23.08,0,0,1,2-1.43,19.62,19.62,0,0,1,2.46-1.33,15.3,15.3,0,0,1,2.91-1,13,13,0,0,1,3.23-.34,12,12,0,0,1,3.22.49,12.94,12.94,0,0,1,2.87,1.2A15.87,15.87,0,0,1,116.85,81a17.75,17.75,0,0,1,1.3,1.63c.36.5.65,1,.87,1.34A10.24,10.24,0,0,1,119.66,85.18Z"/><path d="M100,134.41a4.6,4.6,0,0,1-.69.59A9,9,0,0,1,97,136.07a20.14,20.14,0,0,1-4,.69,26.54,26.54,0,0,1-5.24-.07,4.54,4.54,0,0,1-1.56-.51,3.74,3.74,0,0,0-1.21-.43A11.45,11.45,0,0,0,82,135.7a18.08,18.08,0,0,1-3.4.08,13.75,13.75,0,0,1-3.45-.94A11.28,11.28,0,0,0,71.8,134a4.15,4.15,0,0,0-1.71.23,7.71,7.71,0,0,1-1.82.51,6.06,6.06,0,0,1-1.91-.2,18.86,18.86,0,0,1-1.82-.51c-1.2-.38-2.39-.81-3.56-1.31l-.87-.39-.44-.21-.21-.11c.07,0-.06,0,0,0l.11,0a.3.3,0,0,0,.16-.05.28.28,0,0,0,.12-.27s-.06-.14,0-.1l.07.1.28.37.55.76,2.18,3,4.12,5.84.59.65.29.32.14.16c.15.14-.16-.11,0,0,.47.3.93.54,1.42.79l1.51.74c.26.14.52.28.77.44-.36-.16.15,0-.23-.08h.1l.2,0,.41.05c2.14.24,4.15.51,6,.77l2.67.35,1.24.18.59.09.29,0h0l.14,0a31.22,31.22,0,0,0,3.87-.52,7.41,7.41,0,0,0,1.34-.41l1-.47.82-.37.08.13-.76.49-.91.59a8.64,8.64,0,0,1-1.39.61,25.33,25.33,0,0,1-3.9.92l-.14,0h-.07c-.17,0,0,0-.19,0l-.3,0-.6,0-1.24-.09-2.69-.21c-1.88-.15-3.91-.3-6.05-.51l-.4,0-.2,0h-.11c-.44-.11,0,0-.42-.14l-.68-.36-1.5-.74a14.35,14.35,0,0,1-1.56-.88,1.5,1.5,0,0,1-.32-.29l-.15-.17-.28-.33-.57-.66-.07-.09-.13-.16-.12-.19-.24-.37-.49-.74-1-1.51-2-3.07-2-3.13-.5-.8-.25-.4-.06-.1a.57.57,0,0,1-.12-.3.71.71,0,0,1,.29-.68.72.72,0,0,1,.38-.13,1,1,0,0,1,.22,0l.15.06.19.12.39.23.81.45c1.1.56,2.24,1.07,3.39,1.52a9.24,9.24,0,0,0,3.51.78,5.92,5.92,0,0,0,1.71-.5,5.45,5.45,0,0,1,1.87-.32,13.76,13.76,0,0,1,3.61.58,13.76,13.76,0,0,0,3.28.61,25.35,25.35,0,0,0,3.21-.29,11.48,11.48,0,0,1,3.31,0,5.18,5.18,0,0,1,1.57.6,3.2,3.2,0,0,0,1.16.4,36.16,36.16,0,0,0,5,.35,24.18,24.18,0,0,0,3.86-.32,8.9,8.9,0,0,0,2.37-.71,4.56,4.56,0,0,0,.76-.46Z"/><path d="M65.05,132.91c1.52-.62,3.07-1.16,4.63-1.67.77-.26,1.56-.49,2.34-.73l.59-.18a3.94,3.94,0,0,1,.7-.14,4.65,4.65,0,0,1,1.44.07,10,10,0,0,1,1.24.41l1.16.41,1.15.41a1.12,1.12,0,0,0,.82.06c.81-.12,1.61-.26,2.42-.36l.61-.08a4,4,0,0,1,.71-.05,4,4,0,0,1,1.4.25l.06,0c2.71,1.29,5.4,2.65,8,4.14-2.88-.9-5.71-1.94-8.5-3l0,0a3.43,3.43,0,0,0-1.52,0l-.6.12c-.8.17-1.6.3-2.41.44a3.13,3.13,0,0,1-.77.08,3.18,3.18,0,0,1-.43-.06l-.38-.12-1.15-.44L75.49,132c-.37-.14-.8-.32-1.07-.41a3.31,3.31,0,0,0-1-.11,3.12,3.12,0,0,0-.51.07l-.6.13-2.41.47C68.3,132.47,66.69,132.73,65.05,132.91Z"/><path d="M66.65,134.9l.14.3a6.42,6.42,0,0,0,.44.8,2.5,2.5,0,0,0,1,.88,4.74,4.74,0,0,0,1.7.31c1.37.11,2.93.2,4.63.28l5.32.19c1.81.08,3.63.13,5.34.25s3.31.32,4.61.31a6.18,6.18,0,0,0,3.06-.69,3.12,3.12,0,0,0,1-.77,3,3,0,0,1-.16.29,3.74,3.74,0,0,1-.62.73,6,6,0,0,1-3.16,1.3,14.91,14.91,0,0,1-2.26.14H85.14c-.85,0-1.73,0-2.63,0l-2.72-.06c-1.83-.08-3.66-.18-5.37-.38a41.36,41.36,0,0,1-4.65-.74,4.65,4.65,0,0,1-1.87-.67,2.61,2.61,0,0,1-.93-1.23,5.17,5.17,0,0,1-.26-.91Z"/><path d="M89.29,145.27s.14-.2.41-.52.64-.8,1.11-1.33c1-1.07,2.26-2.45,3.64-3.76s2.81-2.57,3.93-3.46c.55-.45,1-.8,1.37-1s.54-.38.54-.38l-.4.52c-.27.32-.64.79-1.12,1.32-.94,1.08-2.26,2.45-3.63,3.77s-2.81,2.56-3.93,3.46c-.56.45-1,.79-1.38,1S89.29,145.27,89.29,145.27Z"/><path d="M66.57,142.07l.2-.23a5.54,5.54,0,0,1,.6-.6,7.17,7.17,0,0,1,2.71-1.47,7.52,7.52,0,0,1,4.47.09A9.08,9.08,0,0,1,76.79,141a2,2,0,0,0,1.76.43,18.89,18.89,0,0,0,2.19-.82,6.64,6.64,0,0,1,2.6-.36,9.47,9.47,0,0,1,4.19,1.41A19.73,19.73,0,0,1,90,143.42c.56.47.86.75.86.75l-1-.5c-.65-.32-1.57-.77-2.69-1.23a10.41,10.41,0,0,0-3.85-.87,6,6,0,0,0-2,.39,16.86,16.86,0,0,1-2.39.93,3.79,3.79,0,0,1-.77.08l-.42,0-.15,0-.23,0a4.85,4.85,0,0,1-1.29-.64,9.44,9.44,0,0,0-1.91-1.13,7.45,7.45,0,0,0-3.83-.48,8.6,8.6,0,0,0-2.72.87c-.31.17-.56.31-.72.42Z"/><path d="M65.86,144s.32.39.89,1c.29.32.65.7,1.07,1.13a19.35,19.35,0,0,0,1.44,1.35,3.91,3.91,0,0,0,1.91.91,23.91,23.91,0,0,0,2.57.18c1.85.08,3.82.22,5.79.36l2.94.25,2.82.26a5.75,5.75,0,0,0,2.36-.22,4.35,4.35,0,0,0,1-.52,4.75,4.75,0,0,0,.76-.72,11.34,11.34,0,0,0,1.7-3l.5-1.27s0,.5-.21,1.36a9.63,9.63,0,0,1-1.3,3.44,5.15,5.15,0,0,1-.81,1,4.62,4.62,0,0,1-1.13.77,6.13,6.13,0,0,1-2.88.53c-1,0-1.9-.07-2.88-.14l-2.94-.2c-2-.17-3.94-.33-5.78-.53a17.18,17.18,0,0,1-2.73-.42,4.62,4.62,0,0,1-2.23-1.36,14.82,14.82,0,0,1-1.3-1.61c-.36-.5-.64-.95-.86-1.32C66.07,144.46,65.86,144,65.86,144Z"/><path d="M64.62,100.1l-.13.11a3,3,0,0,1-.4.29,6.21,6.21,0,0,1-1.58.79,10.55,10.55,0,0,1-2.47.51,20.82,20.82,0,0,1-2.85,0,15.41,15.41,0,0,1-2.85-.44,9.07,9.07,0,0,1-2.33-1,6.12,6.12,0,0,1-1.37-1.13,3.92,3.92,0,0,1-.3-.38l-.11-.14s.18.16.51.41a7.28,7.28,0,0,0,1.47.87,10.22,10.22,0,0,0,2.28.69,19.73,19.73,0,0,0,2.74.34,19.43,19.43,0,0,0,5.16-.17,9.11,9.11,0,0,0,1.63-.51Z"/><path d="M58.45,103.29a5.34,5.34,0,0,1-.82.35,5,5,0,0,1-2,.26,3.74,3.74,0,0,1-1.06-.26,2.86,2.86,0,0,1-.81-.49,1.93,1.93,0,0,1-.55-.74l.21.12a3.92,3.92,0,0,0,.56.25,6.21,6.21,0,0,0,.79.24,6.72,6.72,0,0,0,.93.13c.64.06,1.31,0,1.83.07S58.45,103.29,58.45,103.29Z"/><path d="M55.94,98a5.89,5.89,0,0,1-.89,0,4.92,4.92,0,0,1-1.91-.51,3.55,3.55,0,0,1-.88-.64,2.94,2.94,0,0,1-.57-.77,2.07,2.07,0,0,1-.22-.89l.15.19a5.12,5.12,0,0,0,.42.45,7.54,7.54,0,0,0,.64.51,5.77,5.77,0,0,0,.81.48c.56.3,1.19.55,1.66.77S55.94,98,55.94,98Z"/><path d="M68.2,94.08a1.26,1.26,0,0,1,.48.13A1.79,1.79,0,0,1,69.62,96a1.34,1.34,0,0,1-.16.47l-.09-.11-.18-.28c-.13-.22-.29-.49-.43-.76s-.28-.55-.39-.78-.08-.23-.12-.31A.58.58,0,0,1,68.2,94.08Z"/><path d="M71.52,95.2a1.82,1.82,0,0,0-.21-.17,6.11,6.11,0,0,0-.63-.34c-.56-.27-1.38-.61-2.37-1s-2.14-.75-3.39-1.08c-.62-.18-1.28-.29-1.93-.44s-1.32-.22-2-.26a12.42,12.42,0,0,0-3.83.2,9.23,9.23,0,0,0-1.66.55,10.11,10.11,0,0,0-1.39.78,12.08,12.08,0,0,0-1.1.87l-.79.78c-.4.47-.66.74-.66.74s.1-.34.32-1c.14-.29.3-.65.54-1a7.69,7.69,0,0,1,.93-1.24,7.2,7.2,0,0,1,1.42-1.22,9.5,9.5,0,0,1,.89-.53,8.2,8.2,0,0,1,1-.41,9.91,9.91,0,0,1,2.2-.49,12.51,12.51,0,0,1,2.29,0,15.4,15.4,0,0,1,4.29,1,17.32,17.32,0,0,1,3.37,1.73,11.73,11.73,0,0,1,2.08,1.68,4.29,4.29,0,0,1,.48.59A1.14,1.14,0,0,1,71.52,95.2Z"/><path d="M70.87,94.54a2.63,2.63,0,0,1,.45.25c.12.09.25.2.38.32a3.71,3.71,0,0,1,.37.45,1,1,0,0,1,.15.39.75.75,0,0,1-.08.45.72.72,0,0,1-.27.3.58.58,0,0,1-.33.1.55.55,0,0,1-.42-.17A.33.33,0,0,1,71,96.5h.14a.48.48,0,0,0,.26-.12.61.61,0,0,0,.07-.1s0-.08,0-.12,0-.08-.09-.2a4.68,4.68,0,0,1-.27-.46,2.84,2.84,0,0,1-.2-.45A2.25,2.25,0,0,1,70.87,94.54Z"/><path d="M66.58,91.48l-.42-.18c-.26-.11-.63-.25-1-.38a6.38,6.38,0,0,0-.66-.15l-.35-.07s-.25,0-.37,0c-.29,0-.59-.08-.89-.14l-.23,0-.18,0L62,90.35a6,6,0,0,1-1.87-.86l-.21-.15-.18-.16c-.13-.12-.24-.23-.35-.35a4.18,4.18,0,0,1-.49-.75,2.53,2.53,0,0,1-.29-1.27.47.47,0,0,1,0-.24s-.06,0,0,0-.09,0,0-.14.18,0,.23,0l.14.16a4.5,4.5,0,0,0,.81.67c.18.11.37.22.57.32a2.12,2.12,0,0,0,.31.14l.17.08L61,88c.46.17,1,.32,1.52.47l.41.11.27.07.22.07q.44.14.84.3l.2.08.1,0h0c.1,0,0,0,.07,0l.06,0c.14.08.28.16.41.25a4.14,4.14,0,0,1,.65.57A3.24,3.24,0,0,1,66.44,91,1.82,1.82,0,0,1,66.58,91.48Z"/><path d="M58.81,91.13l-.46.06c-.28,0-.66.1-1.08.2-.21,0-.42.12-.64.19l-.33.12a2.26,2.26,0,0,1-.34.16c-.27.12-.55.23-.84.34l-.22.07s-.11,0-.17.07l-.48.15a5.81,5.81,0,0,1-2,.2l-.26,0-.23,0-.48-.13a4,4,0,0,1-.8-.4,2.63,2.63,0,0,1-.89-.94.61.61,0,0,1-.09-.24c-.06,0,0,.07,0,.06s-.1,0-.07-.12.15-.1.23-.07l.2.06a4.6,4.6,0,0,0,1,.17c.21,0,.43,0,.65,0s.23,0,.34,0L52,91l.18,0c.48-.08,1-.21,1.54-.36l.41-.11.27-.08.22-.05c.3-.07.6-.12.88-.17l.22,0,.1,0h.65a3.57,3.57,0,0,1,.85.16,3.37,3.37,0,0,1,1.13.56A2,2,0,0,1,58.81,91.13Z"/><path d="M51.09,95.66l.39.19a7.5,7.5,0,0,0,1,.38,6.22,6.22,0,0,0,.68.15,4.75,4.75,0,0,0,.78.06c.29,0,.59,0,.9,0l.91.05a6.64,6.64,0,0,1,1.88.46,4,4,0,0,1,1.41,1,2.92,2.92,0,0,1,.6,1c0,.15,0,.24.1.23s0-.08,0-.07.08,0,0,.11-.24-.09-.31-.17a3.64,3.64,0,0,0-.8-.7c-.19-.12-.39-.22-.61-.33a6.74,6.74,0,0,0-.72-.26,8.55,8.55,0,0,0-1.67-.29l-.93-.09-.89-.11c-.15,0-.25,0-.45-.08L53,97.1a4.49,4.49,0,0,1-.73-.35,4,4,0,0,1-.91-.75C51.18,95.79,51.09,95.66,51.09,95.66Z"/><path d="M62.69,91.19l-.44-.13c-.28-.07-.65-.16-1.08-.24l-.67-.07-.35,0a1.94,1.94,0,0,1-.37,0c-.29,0-.6,0-.9,0h-.41l-.5,0A5.67,5.67,0,0,1,56,90l-.23-.13-.2-.13a3.13,3.13,0,0,1-.39-.31,3.57,3.57,0,0,1-.58-.67,2.59,2.59,0,0,1-.45-1.22.65.65,0,0,1,0-.25c-.06,0-.05,0,0,0s-.1,0,0-.13a.17.17,0,0,1,.24,0l.16.14a4.59,4.59,0,0,0,.89.56c.19.09.39.17.6.25l.33.1.18,0,.17,0a15.24,15.24,0,0,0,1.56.27l.42.06.28,0,.22,0A8.06,8.06,0,0,1,60,89l.21,0,.1,0h0l.07,0,.06,0a2.94,2.94,0,0,1,.44.2,4,4,0,0,1,.73.48,3.12,3.12,0,0,1,.81,1A2.22,2.22,0,0,1,62.69,91.19Z"/><path d="M54.57,92.26a4.29,4.29,0,0,1-.62,1,5,5,0,0,1-2,1.59,3.47,3.47,0,0,1-.73.24c-.13,0-.25,0-.4.06s-.26,0-.38,0a2.62,2.62,0,0,1-1.34-.41,1.75,1.75,0,0,1-.66-.73,1.54,1.54,0,0,1-.11-.35l.34,0a3.38,3.38,0,0,0,.74-.06,5.69,5.69,0,0,0,.84-.25l.22-.08.21-.09.47-.2a9.85,9.85,0,0,1,2.16-.74A4.46,4.46,0,0,1,54.57,92.26Z"/><path d="M64.21,96.27a17,17,0,0,0-4.9-.78,24,24,0,0,0-2.64.13,4.18,4.18,0,0,1-.2-1.12,4.08,4.08,0,0,1,1.1-2.87h0s2.11-1.7,5.87-.12h0A4.07,4.07,0,0,1,64.61,95,3.93,3.93,0,0,1,64.21,96.27Z" style="fill:none;stroke:#000;stroke-miterlimit:10"/><path d="M59.31,95.49h-.7A2.37,2.37,0,0,1,58.16,94a2.41,2.41,0,1,1,4.81.28,2.46,2.46,0,0,1-.71,1.56A13.74,13.74,0,0,0,59.31,95.49Z"/><path d="M52.28,92.78l0,0s.08.07.09.16a1.45,1.45,0,0,1,0,.71A3.62,3.62,0,0,1,50.46,96a2.17,2.17,0,0,1-1,.22,1.18,1.18,0,0,1-.4-.09.7.7,0,0,1-.27-.17l-.16-.2.24,0a.69.69,0,0,0,.24,0,2.33,2.33,0,0,0,.27-.1,4.79,4.79,0,0,0,.6-.4,8.48,8.48,0,0,0,.65-.58c.24-.19.44-.42.66-.61s.4-.4.55-.57a4.83,4.83,0,0,0,.34-.42c0-.06,0-.13.06-.17Z"/><path d="M52.7,93.41l0,0s.08.07.09.16a1.46,1.46,0,0,1,0,.71,3.56,3.56,0,0,1-1,1.65,3.32,3.32,0,0,1-.89.6,2,2,0,0,1-1,.21.84.84,0,0,1-.4-.09.69.69,0,0,1-.27-.16,1.29,1.29,0,0,1-.16-.2l.24,0c.06,0,.16,0,.24,0s.17-.07.26-.09a4.34,4.34,0,0,0,.61-.41,8.29,8.29,0,0,0,.65-.57c.23-.2.44-.42.66-.62l.55-.56a4.83,4.83,0,0,0,.34-.42.35.35,0,0,0,0-.17Z"/><circle cx="58.17" cy="93.13" r="0.88" style="fill:#fff"/><circle cx="62.88" cy="94.33" r="0.38" style="fill:#fff"/><path d="M113.74,96.82S111.43,85.62,96.31,94a.69.69,0,0,0-.33.38c-.25.65-1,2.42-1.91,2.57C94.07,97,114.77,98.65,113.74,96.82Z" style="fill:none"/><path d="M100.29,100.77s.2.13.57.32a8,8,0,0,0,1.59.63,19.2,19.2,0,0,0,5.14.53,20.38,20.38,0,0,0,2.75-.15,9.74,9.74,0,0,0,2.33-.54,7.13,7.13,0,0,0,1.52-.75c.35-.23.54-.38.54-.38l-.11.13a4.22,4.22,0,0,1-.33.36,5.85,5.85,0,0,1-1.45,1,8.82,8.82,0,0,1-2.39.8,15,15,0,0,1-2.87.25,20.44,20.44,0,0,1-2.85-.21,10.34,10.34,0,0,1-2.42-.68,6.69,6.69,0,0,1-1.53-.9,3.55,3.55,0,0,1-.37-.32Z"/><path d="M106.22,104.39a8,8,0,0,1,.88,0c.53,0,1.19.07,1.83.06a7,7,0,0,0,.94-.07,6.85,6.85,0,0,0,.8-.18,5.08,5.08,0,0,0,.58-.21l.22-.11a2,2,0,0,1-.6.7,2.83,2.83,0,0,1-.85.44,4.13,4.13,0,0,1-1.07.18,5.09,5.09,0,0,1-1.94-.39A5.38,5.38,0,0,1,106.22,104.39Z"/><path d="M109.09,99.31a8.37,8.37,0,0,1,.81-.35c.49-.19,1.13-.39,1.72-.65a6.44,6.44,0,0,0,.83-.42,7.2,7.2,0,0,0,.68-.47,3.88,3.88,0,0,0,.45-.42l.16-.18a1.93,1.93,0,0,1-.28.87,2.91,2.91,0,0,1-.62.73,3.77,3.77,0,0,1-.92.58,5.15,5.15,0,0,1-1.94.38A6.76,6.76,0,0,1,109.09,99.31Z"/><path d="M97.13,94.52a.58.58,0,0,1,0,.13,2.76,2.76,0,0,0-.15.3c-.12.22-.28.49-.44.75s-.33.52-.48.73l-.2.26-.09.11a1.14,1.14,0,0,1-.13-.48,1.68,1.68,0,0,1,.27-1,1.76,1.76,0,0,1,.79-.69A1.27,1.27,0,0,1,97.13,94.52Z"/><path d="M93.75,95.4a1,1,0,0,1,.14-.22,3.5,3.5,0,0,1,.52-.55,11.78,11.78,0,0,1,2.19-1.54,16.62,16.62,0,0,1,3.48-1.49,15.24,15.24,0,0,1,4.35-.73,11.67,11.67,0,0,1,2.29.18,9.64,9.64,0,0,1,2.16.64,9.9,9.9,0,0,1,1,.48c.29.2.59.37.85.59A6.93,6.93,0,0,1,112,94.08a7.75,7.75,0,0,1,.85,1.3,11.17,11.17,0,0,1,.45,1.09c.18.62.26,1,.26,1s-.24-.3-.61-.79l-.73-.84c-.3-.3-.64-.62-1-.94a10.31,10.31,0,0,0-1.34-.87,9.47,9.47,0,0,0-1.62-.67,12.68,12.68,0,0,0-3.81-.47c-.66,0-1.34.07-2,.13s-1.32.17-1.95.3c-1.27.24-2.45.55-3.46.84s-1.86.59-2.43.82q-.44.18-.66.3A1,1,0,0,0,93.75,95.4Z"/><path d="M94.44,94.79a2.41,2.41,0,0,1-.14.5,3.08,3.08,0,0,1-.22.45c-.09.14-.23.31-.31.43s-.08.11-.1.2a.41.41,0,0,0,0,.11l.06.11a.41.41,0,0,0,.25.13.38.38,0,0,0,.14,0,.38.38,0,0,1-.09.13.59.59,0,0,1-.43.14.58.58,0,0,1-.32-.12.62.62,0,0,1-.25-.32.74.74,0,0,1-.05-.45,1,1,0,0,1,.18-.39,3.14,3.14,0,0,1,.4-.41A4.16,4.16,0,0,1,94,95,2.86,2.86,0,0,1,94.44,94.79Z"/><path d="M98.93,92a1.72,1.72,0,0,1,.17-.44,3.43,3.43,0,0,1,.76-1,4.29,4.29,0,0,1,.69-.52l.43-.22.06,0s0,0,.07,0h0l.1,0,.21-.06c.28-.09.56-.17.86-.24l.23,0,.27-.06.42-.08c.55-.11,1.07-.22,1.54-.36l.17,0,.17-.07a3,3,0,0,0,.32-.12,4.58,4.58,0,0,0,.59-.27,5.08,5.08,0,0,0,.85-.62l.15-.15a.2.2,0,0,1,.24,0c.09.11,0,.15,0,.13s0,0-.05,0a.46.46,0,0,1,0,.25,2.57,2.57,0,0,1-.39,1.24,3.18,3.18,0,0,1-.54.71,3,3,0,0,1-.37.33l-.19.15-.22.14a5.8,5.8,0,0,1-1.92.72l-.49.08-.18,0-.23,0-.9.07c-.12,0-.35,0-.38,0s-.23,0-.35,0-.45.07-.66.12c-.42.1-.79.21-1.06.3Z"/><path d="M106.7,92.24a2.32,2.32,0,0,1,.37-.3,3.42,3.42,0,0,1,1.17-.49,4.61,4.61,0,0,1,1.34-.07h.06l.08,0h0l.1,0,.21,0q.43.1.87.24l.22.06.26.1.4.13a14.36,14.36,0,0,0,1.52.47l.17,0a.69.69,0,0,1,.18,0l.34,0,.64.06a5,5,0,0,0,1-.1l.21,0a.18.18,0,0,1,.22.09c0,.14-.09.12-.07.11s0,0,0-.06a.68.68,0,0,1-.1.23,2.61,2.61,0,0,1-1,.88,3.28,3.28,0,0,1-.83.34l-.48.1-.24,0h-.26a5.72,5.72,0,0,1-2-.35l-.47-.18-.17-.08-.21-.09q-.42-.18-.81-.39l-.33-.18a3.13,3.13,0,0,0-.32-.15c-.21-.08-.42-.17-.63-.23-.41-.13-.79-.22-1.06-.28Z"/><path d="M114.09,97.28a2.72,2.72,0,0,1-.29.33,3.81,3.81,0,0,1-1,.68,3.57,3.57,0,0,1-.74.3,3,3,0,0,1-.43.1,4.57,4.57,0,0,1-.46,0l-.89.05-.93,0a10,10,0,0,0-1.69.17,5.77,5.77,0,0,0-.74.22c-.22.09-.44.18-.63.28a4.43,4.43,0,0,0-.85.64c-.07.08-.2.25-.31.16s0-.13,0-.12,0,0,0,.07.06-.07.11-.21a2.7,2.7,0,0,1,.68-1,3.73,3.73,0,0,1,1.47-.89,6.37,6.37,0,0,1,1.9-.33h.92c.3,0,.61,0,.9,0a4,4,0,0,0,.77,0,6.85,6.85,0,0,0,.7-.11,6.52,6.52,0,0,0,1-.31Z"/><path d="M102.83,92a2.42,2.42,0,0,1,.23-.42,3.17,3.17,0,0,1,.88-.9,4.47,4.47,0,0,1,.75-.43l.46-.16.06,0h.2l.22,0c.28,0,.58-.1.89-.13l.22,0,.28,0,.43,0a14.34,14.34,0,0,0,1.57-.16l.18,0,.18,0,.33-.08.62-.2a5.07,5.07,0,0,0,.92-.5l.17-.13c.07-.05.18-.08.24,0s0,.15,0,.14,0-.06,0,0a.5.5,0,0,1,0,.25,2.59,2.59,0,0,1-.53,1.19,3.75,3.75,0,0,1-.63.63,3.27,3.27,0,0,1-.41.28l-.21.12-.23.11a5.62,5.62,0,0,1-2,.47l-.5,0h-.41c-.31,0-.61,0-.9,0a2.3,2.3,0,0,1-.38,0H105c-.23,0-.46,0-.67,0-.43,0-.81.11-1.09.17Z"/><path d="M110.86,93.66a4.18,4.18,0,0,1,1.2.15,9.43,9.43,0,0,1,2.1.88l.45.24.21.1.21.1a7.71,7.71,0,0,0,.83.31,3.5,3.5,0,0,0,.73.11,2,2,0,0,0,.34,0,1.21,1.21,0,0,1-.13.35,1.78,1.78,0,0,1-.71.67,2.56,2.56,0,0,1-1.36.32,3.38,3.38,0,0,1-.39,0,2.23,2.23,0,0,1-.39-.09,4,4,0,0,1-.71-.28,5.08,5.08,0,0,1-1.84-1.73A4.1,4.1,0,0,1,110.86,93.66Z"/><path d="M101,97a16.66,16.66,0,0,1,5-.45,22.8,22.8,0,0,1,2.62.32,4.1,4.1,0,0,0,.27-1.11,4,4,0,0,0-.9-2.93h0s-2-1.84-5.84-.53h0a4.07,4.07,0,0,0-1.41,3.4A4.12,4.12,0,0,0,101,97Z" style="fill:none;stroke:#000;stroke-miterlimit:10"/><path d="M105.91,96.54l.69.06a2.35,2.35,0,0,0,.56-1.5,2.41,2.41,0,1,0-4.82,0,2.35,2.35,0,0,0,.6,1.6A14.63,14.63,0,0,1,105.91,96.54Z"/><path d="M113.11,94.33v.07s0,.12,0,.17a3.38,3.38,0,0,0,.31.45c.14.18.33.38.51.6s.39.45.61.66.42.43.61.62a3.86,3.86,0,0,0,.58.44,1.19,1.19,0,0,0,.26.12c.08,0,.17.06.23.05h.24a1.73,1.73,0,0,1-.17.19.67.67,0,0,1-.28.14.89.89,0,0,1-.41.06,2,2,0,0,1-1-.28,3.51,3.51,0,0,1-.84-.65,3.67,3.67,0,0,1-.92-1.73,1.51,1.51,0,0,1,0-.71c0-.08.08-.11.1-.15Z"/><path d="M112.65,94.93V95a.41.41,0,0,0,0,.17c.07.1.17.26.32.44s.32.39.51.61.39.45.61.66.42.43.61.62a4.68,4.68,0,0,0,.58.44,1.51,1.51,0,0,0,.26.12c.08,0,.16.06.23,0h.24a1.44,1.44,0,0,1-.18.19.68.68,0,0,1-.27.15,1,1,0,0,1-.41.06,2,2,0,0,1-1-.28,3.31,3.31,0,0,1-.84-.66,3.6,3.6,0,0,1-.92-1.72,1.39,1.39,0,0,1,0-.71c0-.09.08-.11.1-.15Z"/><circle cx="107.2" cy="94.27" r="0.88" style="fill:#fff"/><circle cx="102.42" cy="95.14" r="0.38" style="fill:#fff"/></g></g></svg>
